<svg width="178" height="57" viewBox="0 0 178 57" fill="none" xmlns="http://www.w3.org/2000/svg">
<g clip-path="url(#clip0_5720_6692)">
<mask id="mask0_5720_6692" style="mask-type:luminance" maskUnits="userSpaceOnUse" x="-1" y="0" width="179" height="57">
<path d="M177.395 0H-0.00976562V56.6062H177.395V0Z" fill="white"/>
</mask>
<g mask="url(#mask0_5720_6692)">
<path d="M141.872 9.58499e-05C141.377 -0.00910932 140.885 0.0784152 140.425 0.257653C139.965 0.43689 139.544 0.704316 139.188 1.0446C138.817 1.39907 138.526 1.82746 138.334 2.3015C138.142 2.77554 138.054 3.28446 138.075 3.79467C138.055 4.29648 138.144 4.79674 138.336 5.26162C138.528 5.72648 138.819 6.14512 139.188 6.48921C139.915 7.17283 140.879 7.5541 141.881 7.5541C142.883 7.5541 143.847 7.17283 144.573 6.48921C144.934 6.13968 145.219 5.71971 145.408 5.25589C145.596 4.79207 145.686 4.2945 145.67 3.79467C145.691 3.2941 145.608 2.79463 145.425 2.32743C145.243 1.86023 144.964 1.43535 144.608 1.07933C144.252 0.723307 143.826 0.443784 143.356 0.25822C142.885 0.0726559 142.382 -0.0149628 141.876 0.000836059L141.872 9.58499e-05Z" fill="#8F8F8F"/>
<path d="M58.1542 0.884766H50.6326V36.2958H58.1542V0.884766Z" fill="#8F8F8F"/>
<path d="M82.7033 13.2994C82.1139 12.6595 81.4318 12.1106 80.6787 11.6708C78.9316 10.6895 76.9489 10.1952 74.9416 10.2406C72.6316 10.2064 70.3534 10.7736 68.335 11.8855C66.3905 12.9674 64.7874 14.5621 63.7041 16.4921C62.5383 18.6298 61.9575 21.0318 62.0191 23.4602C61.9575 25.8885 62.5383 28.2907 63.7041 30.4282C64.7876 32.3572 66.3907 33.9507 68.335 35.0312C70.353 36.1444 72.6312 36.713 74.9416 36.6797C76.9863 36.7378 79.0094 36.2521 80.8006 35.2732C81.657 34.7759 82.4168 34.1309 83.0443 33.3685V36.3H90.2294V0.886719H82.7033V13.2994ZM81.9554 27.2777C81.4146 28.3062 80.586 29.1587 79.5688 29.7331C78.5375 30.3003 77.3745 30.5893 76.1958 30.5711C75.0306 30.5902 73.882 30.3009 72.868 29.7331C71.8507 29.1587 71.0221 28.3062 70.4815 27.2777C69.8634 26.0999 69.5565 24.7863 69.5892 23.4594C69.5524 22.1322 69.8596 20.8177 70.4815 19.6412C71.0341 18.633 71.8608 17.7981 72.868 17.2309C73.8849 16.6709 75.0321 16.3837 76.1958 16.3981C77.3737 16.3837 78.5352 16.6706 79.5688 17.2309C80.5755 17.7981 81.4027 18.633 81.9554 19.6412C82.5806 20.8163 82.888 22.1318 82.8476 23.4594C82.885 24.7864 82.5791 26.1009 81.9591 27.2777H81.9554Z" fill="#8F8F8F"/>
<path d="M114.612 11.8615C112.494 10.7614 110.131 10.2036 107.739 10.2389C105.264 10.2132 102.82 10.7951 100.628 11.9326C98.5761 13.012 96.8724 14.6412 95.7116 16.634C94.518 18.7117 93.9099 21.0685 93.9496 23.4584C93.9092 25.8495 94.5449 28.2041 95.7834 30.257C97.0287 32.2684 98.8162 33.8965 100.944 34.9584C103.118 35.9706 105.472 36.5484 107.872 36.659C110.272 36.7695 112.67 36.4105 114.93 35.6024C116.648 34.9404 118.184 33.8854 119.412 32.5237L115.414 28.2301C114.589 29.0293 113.614 29.661 112.543 30.0897C111.398 30.5226 110.179 30.7337 108.953 30.7115C107.556 30.7496 106.17 30.4626 104.905 29.8735C103.804 29.3408 102.883 28.5036 102.253 27.4632C101.895 26.8721 101.636 26.2277 101.487 25.5549H121.104C121.139 25.238 121.169 24.8982 121.204 24.5281C121.238 24.158 121.249 23.8374 121.249 23.5517C121.322 21.0644 120.705 18.6049 119.465 16.44C118.308 14.5006 116.631 12.9156 114.621 11.86L114.612 11.8615ZM101.385 21.214C101.495 20.4556 101.736 19.7218 102.097 19.0443C102.621 18.0653 103.416 17.2541 104.387 16.705C105.425 16.1321 106.599 15.8429 107.786 15.8671C108.967 15.84 110.133 16.1295 111.159 16.705C112.118 17.2538 112.902 18.0545 113.427 19.0184C113.797 19.7007 114.035 20.4453 114.129 21.214H101.384H101.385Z" fill="#8F8F8F"/>
<path d="M132.437 0.884766H124.916V36.2958H132.437V0.884766Z" fill="#8F8F8F"/>
<path d="M145.61 10.6211H138.088V36.297H145.61V10.6211Z" fill="#8F8F8F"/>
<path d="M169.406 12.0421V14.781H169.318C168.38 13.3249 166.2 11.25 162.1 11.25C155.502 11.25 149.665 16.2371 149.665 24.2652C149.665 31.2785 154.254 37.3219 162.1 37.3219C165.042 37.3219 167.981 36.2175 169.318 33.8361H169.406V36.5254H176.81V12.0421H169.406ZM162.514 31.1771C157.556 31.1771 155.671 26.9576 155.671 24.4044C155.671 21.3116 157.754 17.3875 162.463 17.3875C167.173 17.3875 169.404 21.0148 169.404 24.3074C169.404 26.9605 167.67 31.1771 162.512 31.1771H162.514Z" fill="#8F8F8F"/>
<path d="M36.8163 16.8867H36.7901L30.3724 1.9668H23.0879L16.2072 17.9764H16.1967L15.8033 18.8958V18.9039L12.7885 25.9083L12.2201 27.2259L8.33105 36.2741H16.6327L19.5159 29.2365L19.8427 28.4362L19.9512 28.1764H19.9616L22.4619 22.0152H22.4514L22.6473 21.5185L22.6915 21.4215L23.0953 20.4481L26.6224 11.9958L29.252 18.4427L29.5235 19.0993L30.5452 21.6051H30.5594L33.5128 28.7331L33.5323 28.7745L33.8576 29.5637L36.6248 36.2793H45.124L40.745 26.0933L36.8096 16.8867H36.8163Z" fill="#8F8F8F"/>
<path d="M28.0477 29.0493C25.3559 29.0479 22.6902 28.528 20.1992 27.5185C18.4956 26.8483 16.9773 25.787 15.7694 24.422C15.2976 23.8635 14.723 23.3988 14.0762 23.0525C10.6276 21.2203 7.56944 22.3322 3.2937 24.2369L3.1187 24.3146L-0.00976562 17.4302L0.163747 17.3525C4.34525 15.4907 10.6628 12.677 17.6788 16.402C19.0491 17.1292 20.2792 18.0897 21.3128 19.2394C21.7713 19.8174 22.3787 20.2624 23.0712 20.5275C27.7036 22.3907 32.7654 21.5735 37.7135 18.1638C37.8048 18.1016 37.8818 18.0476 37.9461 18.0047C39.4175 16.8981 40.66 15.5219 41.6063 13.951C41.9055 13.5068 42.1957 13.0849 42.4918 12.6992L48.5663 17.2585C48.398 17.4769 48.1706 17.8129 47.9276 18.1675C46.453 20.544 44.5183 22.6085 42.2346 24.2421C42.1889 24.2717 42.1351 24.3095 42.07 24.3546C37.9956 27.3096 33.0994 28.9485 28.0492 29.0479L28.0477 29.0493Z" fill="#8F8F8F"/>
<path d="M17.665 14.5371L24.2921 17.6388L18.2057 32.4566L12.2517 27.1881L17.665 14.5371Z" fill="#8F8F8F"/>
<path d="M8.16016 51.1162H10.5168C10.9631 51.1162 11.3912 51.2917 11.7067 51.604C12.0223 51.9164 12.1996 52.3401 12.1996 52.7818C12.1996 53.2236 12.0223 53.6472 11.7067 53.9596C11.3912 54.2719 10.9631 54.4474 10.5168 54.4474H9.10176V56.4283H8.16016V51.1162ZM10.3874 51.9349H9.10176V53.622H10.3874C10.5041 53.6297 10.6211 53.6136 10.7312 53.5746C10.8413 53.5357 10.9422 53.4748 11.0275 53.3957C11.1129 53.3166 11.1809 53.2211 11.2274 53.1149C11.274 53.0087 11.298 52.8942 11.298 52.7785C11.298 52.6628 11.274 52.5482 11.2274 52.4421C11.1809 52.3359 11.1129 52.2404 11.0275 52.1612C10.9422 52.0822 10.8413 52.0213 10.7312 51.9824C10.6211 51.9435 10.5041 51.9273 10.3874 51.9349Z" fill="#8F8F8F"/>
<path d="M8.07544 51.0318H10.5173C10.7555 51.0221 10.9931 51.0601 11.2159 51.1436C11.4388 51.2271 11.6423 51.3544 11.8143 51.5177C11.9862 51.681 12.123 51.8771 12.2165 52.094C12.31 52.311 12.3581 52.5444 12.3581 52.7802C12.3581 53.0162 12.31 53.2496 12.2165 53.4665C12.123 53.6835 11.9862 53.8795 11.8143 54.0429C11.6423 54.2062 11.4388 54.3335 11.2159 54.417C10.9931 54.5005 10.7555 54.5384 10.5173 54.5287H9.18682V56.5097H8.07544V51.0318ZM10.5173 54.3629C10.7341 54.3775 10.9515 54.3472 11.1557 54.2739C11.36 54.2007 11.5465 54.086 11.7034 53.9373C11.8604 53.7887 11.9843 53.6093 12.0673 53.4106C12.1502 53.2118 12.1904 52.9982 12.1851 52.7832C12.1929 52.5676 12.1546 52.3527 12.0724 52.1529C11.9904 51.9529 11.8665 51.7725 11.709 51.6233C11.5516 51.4741 11.364 51.3596 11.1586 51.2872C10.9532 51.2149 10.7347 51.1863 10.5173 51.2035H8.24596V56.3446H9.01704V54.3637L10.5173 54.3629ZM9.01704 51.8534H10.3879C10.5165 51.8446 10.6454 51.8621 10.7669 51.9047C10.8883 51.9474 10.9996 52.0142 11.0937 52.1012C11.1879 52.1882 11.2631 52.2935 11.3144 52.4104C11.3657 52.5274 11.3922 52.6535 11.3922 52.781C11.3922 52.9085 11.3657 53.0347 11.3144 53.1516C11.2631 53.2685 11.1879 53.3738 11.0937 53.4608C10.9996 53.5478 10.8883 53.6147 10.7669 53.6573C10.6454 53.6999 10.5165 53.7173 10.3879 53.7085H9.01704V51.8534ZM10.3879 53.5405C10.494 53.5492 10.6007 53.536 10.7014 53.5018C10.802 53.4676 10.8944 53.4131 10.9727 53.3417C11.051 53.2704 11.1134 53.1838 11.1562 53.0873C11.1989 52.9909 11.221 52.8867 11.221 52.7814C11.221 52.676 11.1989 52.5719 11.1562 52.4754C11.1134 52.379 11.051 52.2923 10.9727 52.221C10.8944 52.1497 10.802 52.0951 10.7014 52.0609C10.6007 52.0267 10.494 52.0136 10.3879 52.0222H9.18682V53.5405H10.3879Z" fill="#8F8F8F"/>
<path d="M16.3544 51.0296C16.9045 51.0232 17.4442 51.1787 17.9048 51.4766C18.3654 51.7744 18.7261 52.201 18.9412 52.7022C19.1563 53.2035 19.2159 53.7566 19.1127 54.2916C19.0093 54.8264 18.7477 55.3188 18.3609 55.7061C17.9743 56.0935 17.4799 56.3583 16.9408 56.467C16.4017 56.5756 15.8421 56.5231 15.3332 56.3162C14.8243 56.1094 14.3889 55.7574 14.0826 55.3051C13.7762 54.8528 13.6126 54.3206 13.6126 53.776C13.5967 53.4139 13.6566 53.0525 13.7884 52.7144C13.9201 52.3763 14.1209 52.0687 14.3783 51.8109C14.6357 51.5531 14.944 51.3507 15.284 51.2162C15.624 51.0818 15.9884 51.0183 16.3544 51.0296ZM16.3544 51.8572C15.9641 51.824 15.5729 51.9081 15.2318 52.0987C14.8908 52.2892 14.6158 52.5773 14.4428 52.9251C14.2699 53.273 14.2071 53.6643 14.2628 54.0481C14.3183 54.4318 14.4897 54.79 14.7544 55.0756C15.0192 55.3614 15.3649 55.5613 15.7463 55.6493C16.1277 55.7372 16.5271 55.7092 16.8921 55.5687C17.2572 55.4282 17.5709 55.1819 17.7922 54.8621C18.0134 54.5422 18.1319 54.1636 18.1322 53.776C18.1545 53.5319 18.1251 53.2858 18.0459 53.0537C17.9666 52.8215 17.8393 52.6082 17.6719 52.4276C17.5045 52.2469 17.3009 52.1028 17.074 52.0047C16.8471 51.9064 16.602 51.8563 16.3544 51.8572Z" fill="#8F8F8F"/>
<path d="M16.3532 50.9455C16.9202 50.939 17.4764 51.0995 17.951 51.4066C18.4257 51.7137 18.7973 52.1536 19.0188 52.6702C19.2404 53.1868 19.3018 53.757 19.1951 54.3082C19.0885 54.8595 18.8188 55.367 18.4201 55.7661C18.0215 56.1653 17.512 56.4381 16.9563 56.55C16.4007 56.6619 15.8239 56.6078 15.2994 56.3945C14.7749 56.1812 14.3263 55.8184 14.0105 55.3522C13.6948 54.8861 13.5263 54.3375 13.5262 53.7762C13.5109 53.4033 13.5734 53.0311 13.7096 52.683C13.8459 52.3349 14.053 52.0182 14.3182 51.7528C14.5833 51.4873 14.9008 51.2786 15.2509 51.1397C15.601 51.0008 15.9762 50.9347 16.3532 50.9455ZM16.3532 56.4383C16.8872 56.4453 17.4113 56.2949 17.8588 56.0065C18.3062 55.718 18.6568 55.3043 18.8662 54.818C19.0754 54.3317 19.1339 53.7948 19.0342 53.2755C18.9344 52.7562 18.6808 52.2781 18.3057 51.9018C17.9306 51.5255 17.451 51.2682 16.9278 51.1624C16.4045 51.0567 15.8613 51.1074 15.3673 51.308C14.8732 51.5086 14.4505 51.8501 14.1531 52.2891C13.8556 52.7281 13.6968 53.2447 13.6967 53.7733C13.6819 54.1241 13.7402 54.4743 13.868 54.8018C13.9958 55.1295 14.1903 55.4275 14.4395 55.6775C14.6887 55.9275 14.9872 56.124 15.3164 56.2549C15.6456 56.3858 15.9986 56.4482 16.3532 56.4383ZM16.3532 51.7746C16.7606 51.7412 17.1686 51.8303 17.524 52.0302C17.8794 52.23 18.1655 52.5315 18.345 52.8949C18.5245 53.2584 18.589 53.667 18.5301 54.0674C18.4711 54.4677 18.2916 54.8411 18.0147 55.1387C17.7379 55.4364 17.3767 55.6444 16.9785 55.7356C16.5803 55.8268 16.1636 55.797 15.7827 55.6499C15.402 55.5029 15.0749 55.2455 14.8443 54.9115C14.6136 54.5775 14.4903 54.1822 14.4902 53.7777C14.4678 53.5225 14.4993 53.2654 14.5828 53.0228C14.6663 52.7802 14.8 52.5575 14.9753 52.3689C15.1505 52.1803 15.3636 52.0299 15.6008 51.9273C15.8381 51.8247 16.0943 51.7723 16.3532 51.7731V51.7746ZM16.3532 55.6121C16.816 55.5709 17.2465 55.3598 17.56 55.0204C17.8735 54.6809 18.0474 54.2376 18.0474 53.7777C18.0474 53.3178 17.8735 52.8746 17.56 52.5351C17.2465 52.1956 16.816 51.9846 16.3532 51.9433C15.8904 51.9846 15.4599 52.1956 15.1465 52.5351C14.833 52.8746 14.6592 53.3178 14.6592 53.7777C14.6592 54.2376 14.833 54.6809 15.1465 55.0204C15.4599 55.3598 15.8904 55.5709 16.3532 55.6121Z" fill="#8F8F8F"/>
<path d="M23.703 52.5101L22.6656 56.4254H21.6612L20.125 51.1162H21.178L22.2251 55.2061L23.3342 51.1162H24.0821L25.1913 55.2061L26.2286 51.1162H27.2816L25.7544 56.4254H24.747L23.7 52.5101H23.703Z" fill="#8F8F8F"/>
<path d="M20.0127 51.0322H21.249L22.2295 54.8727L23.2705 51.0322H24.1486L25.1897 54.8712L26.1619 51.0322H27.3945L25.8186 56.5101H24.6848L23.7051 52.8444L22.7328 56.5101H21.599L20.0127 51.0322ZM21.1129 51.201H20.2386L21.7261 56.3421H22.6004L23.6146 52.5142L23.5921 52.4298H23.7021H23.8128L23.7911 52.5164L24.8142 56.3451H25.6885L27.1671 51.204H26.2928L25.1919 55.5456L24.0147 51.204H23.3984L22.2212 55.5441L21.1129 51.201Z" fill="#8F8F8F"/>
<path d="M28.7129 51.1169H32.3873V51.9356H29.653V53.3125H32.3327V54.1335H29.656V55.6051H32.3903V56.4238H28.7129V51.1133V51.1169Z" fill="#8F8F8F"/>
<path d="M28.7132 51.0322H32.4721V52.0197H29.7378V53.2278H32.4145V54.2153H29.7378V55.5189H32.4721V56.5065H28.6279V51.1129H28.7132V51.0322ZM32.3031 51.201H28.7992V56.3384H32.3031V55.6877H29.5688V54.0495H32.2478V53.3988H29.571V51.851H32.3053L32.3031 51.201Z" fill="#8F8F8F"/>
<path d="M36.029 54.4424H35.0964V56.4219H34.1555V51.1142H36.5121C36.7408 51.0967 36.9706 51.1271 37.1865 51.2035C37.4024 51.28 37.5996 51.4007 37.7651 51.5578C37.9306 51.7149 38.0607 51.9049 38.1469 52.1152C38.2331 52.3255 38.2735 52.5515 38.2652 52.7783C38.2934 53.1496 38.1776 53.5176 37.9415 53.8075C37.7053 54.0974 37.3664 54.2873 36.9938 54.3388L38.3041 56.4233H37.2197L36.029 54.4424ZM36.3828 51.9351H35.0971V53.6215H36.3828C36.4999 53.6299 36.6175 53.6143 36.7281 53.5757C36.8388 53.5372 36.9404 53.4764 37.0263 53.3973C37.1123 53.3182 37.1808 53.2224 37.2277 53.1159C37.2746 53.0094 37.2988 52.8945 37.2988 52.7783C37.2988 52.6622 37.2746 52.5472 37.2277 52.4407C37.1808 52.3341 37.1123 52.2384 37.0263 52.1592C36.9404 52.0802 36.8388 52.0194 36.7281 51.9808C36.6175 51.9423 36.4999 51.9267 36.3828 51.9351Z" fill="#8F8F8F"/>
<path d="M38.4587 56.5084H37.1723L35.9824 54.5274H35.1814V56.5084H34.0708V51.0305H36.5127C36.7527 51.012 36.994 51.044 37.2207 51.1244C37.4473 51.2048 37.6542 51.3317 37.8278 51.4968C38.0015 51.6619 38.1378 51.8616 38.2279 52.0825C38.3181 52.3035 38.3601 52.5408 38.351 52.779C38.3774 53.1484 38.2689 53.5151 38.0454 53.8122C37.8218 54.1093 37.498 54.3171 37.1327 54.3979L38.4587 56.5084ZM37.2696 56.3396H38.1528L36.856 54.2758L36.9824 54.2558C37.3353 54.2074 37.6561 54.0269 37.8787 53.7515C38.1013 53.4761 38.2088 53.1268 38.179 52.7753C38.1867 52.5596 38.1483 52.3448 38.0663 52.1449C37.9842 51.945 37.8604 51.7645 37.7029 51.6154C37.5454 51.4661 37.3577 51.3516 37.1524 51.2793C36.947 51.2069 36.7285 51.1784 36.5112 51.1956H34.2428V56.3381H35.0139V54.3572H36.0804L36.1066 54.3987L37.2696 56.3396ZM36.3833 53.7065H35.0124V51.8514H36.3833C36.5118 51.8426 36.6408 51.8601 36.7622 51.9027C36.8836 51.9453 36.9949 52.0122 37.089 52.0992C37.1833 52.1862 37.2583 52.2914 37.3097 52.4083C37.361 52.5253 37.3875 52.6514 37.3875 52.779C37.3875 52.9065 37.361 53.0326 37.3097 53.1496C37.2583 53.2665 37.1833 53.3717 37.089 53.4588C36.9949 53.5457 36.8836 53.6126 36.7622 53.6552C36.6408 53.6979 36.5118 53.7153 36.3833 53.7065ZM35.1822 53.5377H36.3833C36.4894 53.5464 36.596 53.5332 36.6967 53.499C36.7973 53.4648 36.8897 53.4103 36.968 53.339C37.0462 53.2676 37.1088 53.181 37.1515 53.0846C37.1943 52.9881 37.2163 52.8839 37.2163 52.7786C37.2163 52.6733 37.1943 52.5691 37.1515 52.4727C37.1088 52.3762 37.0462 52.2895 36.968 52.2182C36.8897 52.1469 36.7973 52.0924 36.6967 52.0582C36.596 52.0239 36.4894 52.0107 36.3833 52.0194H35.1822V53.5377Z" fill="#8F8F8F"/>
<path d="M45.3807 51.0296C45.9309 51.0232 46.4705 51.1787 46.9311 51.4766C47.3918 51.7744 47.7525 52.201 47.9676 52.7022C48.1827 53.2035 48.2423 53.7566 48.139 54.2916C48.0357 54.8264 47.774 55.3188 47.3874 55.7061C47.0006 56.0935 46.5063 56.3583 45.9672 56.467C45.4281 56.5756 44.8685 56.5231 44.3596 56.3162C43.8506 56.1094 43.4153 55.7574 43.1089 55.3051C42.8026 54.8528 42.639 54.3206 42.6389 53.776C42.6232 53.4139 42.683 53.0525 42.8147 52.7144C42.9465 52.3763 43.1473 52.0687 43.4046 51.8109C43.662 51.5531 43.9704 51.3507 44.3104 51.2162C44.6504 51.0818 45.0148 51.0183 45.3807 51.0296ZM45.3807 51.8572C44.9905 51.8235 44.599 51.9073 44.2577 52.0975C43.9164 52.2878 43.641 52.5756 43.4677 52.9233C43.2945 53.2711 43.2314 53.6626 43.2867 54.0465C43.342 54.4303 43.5132 54.7886 43.7778 55.0746C44.0423 55.3605 44.388 55.5607 44.7695 55.6489C45.151 55.7371 45.5504 55.7092 45.9156 55.5688C46.2808 55.4285 46.5947 55.1822 46.816 54.8622C47.0374 54.5424 47.156 54.1637 47.1563 53.776C47.1786 53.5321 47.1493 53.2862 47.0702 53.0542C46.9911 52.8221 46.8639 52.6089 46.6968 52.4284C46.5297 52.2478 46.3263 52.1037 46.0997 52.0053C45.8731 51.907 45.6282 51.8565 45.3807 51.8572Z" fill="#8F8F8F"/>
<path d="M45.3803 50.9454C45.9474 50.9389 46.5036 51.0993 46.9783 51.4063C47.453 51.7132 47.8248 52.153 48.0464 52.6697C48.2681 53.1863 48.3296 53.7564 48.223 54.3078C48.1165 54.8591 47.8468 55.3666 47.4482 55.7658C47.0496 56.165 46.5401 56.438 45.9844 56.5499C45.4287 56.6618 44.852 56.6078 44.3274 56.3945C43.8028 56.1813 43.3542 55.8185 43.0384 55.3523C42.7227 54.8861 42.5541 54.3375 42.554 53.7762C42.5388 53.4033 42.6012 53.0312 42.7374 52.6831C42.8736 52.3351 43.0807 52.0185 43.3457 51.753C43.6108 51.4875 43.9282 51.2789 44.2782 51.1399C44.6282 51.001 45.0034 50.9348 45.3803 50.9454ZM45.3803 56.4382C45.9143 56.4452 46.4384 56.2949 46.8858 56.0065C47.3332 55.7179 47.6839 55.3042 47.8933 54.818C48.1025 54.3317 48.161 53.7947 48.0612 53.2755C47.9614 52.7562 47.7079 52.2781 47.3328 51.9018C46.9577 51.5255 46.4781 51.2681 45.9549 51.1624C45.4316 51.0567 44.8884 51.1073 44.3944 51.308C43.9002 51.5086 43.4776 51.8501 43.1801 52.2891C42.8827 52.7281 42.7239 53.2447 42.7238 53.7732C42.709 54.1241 42.7672 54.4743 42.895 54.8018C43.0229 55.1295 43.2174 55.4275 43.4666 55.6775C43.7158 55.9275 44.0143 56.124 44.3435 56.2549C44.6727 56.3858 45.0257 56.4482 45.3803 56.4382ZM45.3803 51.7745C45.7877 51.7412 46.1958 51.8303 46.5511 52.0302C46.9065 52.23 47.1926 52.5314 47.3721 52.8948C47.5516 53.2583 47.6161 53.6669 47.5572 54.0673C47.4982 54.4676 47.3186 54.8411 47.0418 55.1387C46.765 55.4364 46.4038 55.6444 46.0056 55.7356C45.6074 55.8268 45.1906 55.7969 44.8098 55.6499C44.4291 55.5028 44.1019 55.2455 43.8714 54.9115C43.6407 54.5774 43.5174 54.1822 43.5173 53.7777C43.4949 53.5224 43.5264 53.2653 43.6099 53.0228C43.6934 52.7802 43.8271 52.5575 44.0024 52.3689C44.1776 52.1803 44.3907 52.0299 44.6279 51.9273C44.8652 51.8247 45.1214 51.7722 45.3803 51.7731V51.7745ZM45.3803 55.612C45.8431 55.5709 46.2736 55.3598 46.5871 55.0204C46.9006 54.6809 47.0744 54.2376 47.0744 53.7777C47.0744 53.3178 46.9006 52.8745 46.5871 52.5351C46.2736 52.1956 45.8431 51.9845 45.3803 51.9433C44.9175 51.9845 44.487 52.1956 44.1736 52.5351C43.8601 52.8745 43.6862 53.3178 43.6862 53.7777C43.6862 54.2376 43.8601 54.6809 44.1736 55.0204C44.487 55.3598 44.9175 55.5709 45.3803 55.612Z" fill="#8F8F8F"/>
<path d="M49.8321 51.1157H53.5065V51.9345H50.7722V53.3114H53.4489V54.1308H50.7722V56.4256H49.8306V51.1143L49.8321 51.1157Z" fill="#8F8F8F"/>
<path d="M49.7458 50.9023L49.8693 51.0326H53.5915V52.0201H50.8572V53.2282H53.534V54.2157H50.8572V56.5105H49.7458V50.9023ZM53.4218 51.1984H49.9179V56.3373H50.689V54.0425H53.3657V53.3918H50.689V51.8514H53.4233L53.4218 51.1984Z" fill="#8F8F8F"/>
<path d="M58.0269 51.1162H60.3835C60.8298 51.1162 61.2578 51.2917 61.5734 51.604C61.8889 51.9164 62.0663 52.3401 62.0663 52.7818C62.0663 53.2236 61.8889 53.6472 61.5734 53.9596C61.2578 54.2719 60.8298 54.4474 60.3835 54.4474H58.9677V56.4283H58.0269V51.1162ZM60.2541 51.9349H58.9685V53.622H60.2541C60.3708 53.6297 60.4877 53.6136 60.5979 53.5746C60.708 53.5357 60.8088 53.4748 60.8942 53.3957C60.9796 53.3166 61.0476 53.2211 61.0941 53.1149C61.1407 53.0087 61.1647 52.8942 61.1647 52.7785C61.1647 52.6628 61.1407 52.5482 61.0941 52.4421C61.0476 52.3359 60.9796 52.2404 60.8942 52.1612C60.8088 52.0822 60.708 52.0213 60.5979 51.9824C60.4877 51.9435 60.3708 51.9273 60.2541 51.9349Z" fill="#8F8F8F"/>
<path d="M57.9421 51.0318H60.384C60.6222 51.0221 60.8598 51.0601 61.0826 51.1436C61.3055 51.2271 61.509 51.3544 61.681 51.5177C61.8529 51.681 61.9897 51.8771 62.0832 52.094C62.1766 52.311 62.2248 52.5444 62.2248 52.7802C62.2248 53.0162 62.1766 53.2496 62.0832 53.4665C61.9897 53.6835 61.8529 53.8795 61.681 54.0429C61.509 54.2062 61.3055 54.3335 61.0826 54.417C60.8598 54.5005 60.6222 54.5384 60.384 54.5287H59.0565V56.5097H57.9421V51.0318ZM60.384 54.3629C60.6008 54.3775 60.8182 54.3472 61.0224 54.2739C61.2267 54.2007 61.4132 54.086 61.5701 53.9373C61.7271 53.7887 61.851 53.6093 61.9339 53.4106C62.0168 53.2118 62.057 52.9982 62.0518 52.7832C62.0596 52.5676 62.0212 52.3527 61.9391 52.1529C61.8571 51.9529 61.7332 51.7725 61.5757 51.6233C61.4182 51.4741 61.2307 51.3596 61.0253 51.2872C60.8199 51.2149 60.6014 51.1863 60.384 51.2035H58.1127V56.3446H58.8837V54.3637L60.384 54.3629ZM58.8837 51.8534H60.2531C60.3817 51.8446 60.5107 51.8621 60.632 51.9047C60.7535 51.9474 60.8648 52.0142 60.9589 52.1012C61.0531 52.1882 61.1282 52.2935 61.1796 52.4104C61.231 52.5274 61.2574 52.6535 61.2574 52.781C61.2574 52.9085 61.231 53.0347 61.1796 53.1516C61.1282 53.2685 61.0531 53.3738 60.9589 53.4608C60.8648 53.5478 60.7535 53.6147 60.632 53.6573C60.5107 53.6999 60.3817 53.7173 60.2531 53.7085H58.8823L58.8837 51.8534ZM60.2546 53.5405C60.3607 53.5492 60.4674 53.536 60.5681 53.5018C60.6687 53.4676 60.761 53.4131 60.8394 53.3417C60.9177 53.2704 60.9801 53.1838 61.0229 53.0873C61.0656 52.9909 61.0877 52.8867 61.0877 52.7814C61.0877 52.676 61.0656 52.5719 61.0229 52.4754C60.9801 52.379 60.9177 52.2923 60.8394 52.221C60.761 52.1497 60.6687 52.0951 60.5681 52.0609C60.4674 52.0267 60.3607 52.0136 60.2546 52.0222H59.0565V53.5405H60.2546Z" fill="#8F8F8F"/>
<path d="M63.7195 51.1169H67.3932V51.9356H64.6588V53.3125H67.3356V54.1335H64.6588V55.6051H67.3932V56.4238H63.7195V51.1133V51.1169Z" fill="#8F8F8F"/>
<path d="M63.72 51.0322H67.4789V52.0197H64.7446V53.2278H67.4213V54.2153H64.7446V55.5189H67.4789V56.5065H63.6348V51.1129H63.72V51.0322ZM67.3099 51.201H63.806V56.3384H67.3099V55.6877H64.5756V54.0495H67.2524V53.3988H64.5756V51.851H67.3099V51.201Z" fill="#8F8F8F"/>
<path d="M71.664 51.0296C72.2141 51.0232 72.7537 51.1787 73.2144 51.4766C73.675 51.7744 74.0357 52.201 74.2508 52.7022C74.4659 53.2035 74.5255 53.7566 74.4222 54.2916C74.3189 54.8264 74.0573 55.3188 73.6706 55.7061C73.2839 56.0935 72.7896 56.3583 72.2504 56.467C71.7113 56.5756 71.1517 56.5231 70.6428 56.3162C70.1338 56.1094 69.6986 55.7574 69.3922 55.3051C69.0858 54.8528 68.9222 54.3206 68.9222 53.776C68.9063 53.4139 68.9662 53.0525 69.0979 52.7144C69.2297 52.3763 69.4305 52.0687 69.6879 51.8109C69.9452 51.5531 70.2536 51.3507 70.5936 51.2162C70.9336 51.0818 71.298 51.0183 71.664 51.0296ZM71.664 51.8572C71.2738 51.824 70.8825 51.9081 70.5414 52.0987C70.2003 52.2892 69.9253 52.5773 69.7524 52.9251C69.5795 53.273 69.5168 53.6643 69.5723 54.0481C69.628 54.4318 69.7993 54.79 70.064 55.0756C70.3287 55.3614 70.6744 55.5613 71.0559 55.6493C71.4374 55.7372 71.8367 55.7092 72.2018 55.5687C72.5668 55.4282 72.8805 55.1819 73.1017 54.8621C73.323 54.5422 73.4415 54.1636 73.4417 53.776C73.4641 53.5319 73.4348 53.2858 73.3555 53.0537C73.2763 52.8215 73.1489 52.6082 72.9815 52.4276C72.8141 52.2469 72.6104 52.1028 72.3836 52.0047C72.1567 51.9064 71.9116 51.8563 71.664 51.8572Z" fill="#8F8F8F"/>
<path d="M71.6628 50.9455C72.2298 50.939 72.786 51.0995 73.2606 51.4066C73.7352 51.7137 74.1069 52.1536 74.3284 52.6702C74.5499 53.1868 74.6113 53.757 74.5046 54.3082C74.3981 54.8595 74.1283 55.367 73.7297 55.7661C73.331 56.1653 72.8215 56.4381 72.2659 56.55C71.7102 56.6619 71.1335 56.6078 70.609 56.3945C70.0845 56.1812 69.6358 55.8184 69.3201 55.3522C69.0044 54.8861 68.8358 54.3375 68.8357 53.7762C68.8205 53.4033 68.883 53.0311 69.0192 52.683C69.1554 52.3349 69.3626 52.0182 69.6278 51.7528C69.8929 51.4873 70.2104 51.2786 70.5605 51.1397C70.9105 51.0008 71.2858 50.9347 71.6628 50.9455ZM71.6628 56.4383C72.1968 56.4453 72.7208 56.2949 73.1683 56.0065C73.6158 55.718 73.9665 55.3043 74.1757 54.818C74.3851 54.3317 74.4435 53.7948 74.3437 53.2755C74.2439 52.7562 73.9903 52.2781 73.6152 51.9018C73.2402 51.5255 72.7605 51.2682 72.2373 51.1624C71.7141 51.0567 71.1709 51.1074 70.6768 51.308C70.1828 51.5086 69.7601 51.8501 69.4626 52.2891C69.1652 52.7281 69.0063 53.2447 69.0062 53.7733C68.9914 54.1241 69.0498 54.4743 69.1775 54.8018C69.3053 55.1295 69.4999 55.4275 69.7491 55.6775C69.9983 55.9275 70.2967 56.124 70.626 56.2549C70.9552 56.3858 71.3081 56.4482 71.6628 56.4383ZM71.6628 51.7746C72.0702 51.7412 72.4782 51.8303 72.8335 52.0302C73.1889 52.23 73.4751 52.5315 73.6546 52.8949C73.8341 53.2584 73.8986 53.667 73.8396 54.0674C73.7807 54.4677 73.6011 54.8411 73.3242 55.1387C73.0474 55.4364 72.6863 55.6444 72.2881 55.7356C71.8898 55.8268 71.4731 55.797 71.0923 55.6499C70.7115 55.5029 70.3844 55.2455 70.1538 54.9115C69.9232 54.5775 69.7998 54.1822 69.7998 53.7777C69.7773 53.5225 69.8089 53.2654 69.8924 53.0228C69.9759 52.7802 70.1095 52.5575 70.2849 52.3689C70.4601 52.1803 70.6732 52.0299 70.9104 51.9273C71.1476 51.8247 71.4039 51.7723 71.6628 51.7731V51.7746ZM71.6628 55.6121C72.1256 55.5709 72.5561 55.3598 72.8696 55.0204C73.183 54.6809 73.3569 54.2376 73.3569 53.7777C73.3569 53.3178 73.183 52.8746 72.8696 52.5351C72.5561 52.1956 72.1256 51.9846 71.6628 51.9433C71.2 51.9846 70.7695 52.1956 70.456 52.5351C70.1425 52.8746 69.9687 53.3178 69.9687 53.7777C69.9687 54.2376 70.1425 54.6809 70.456 55.0204C70.7695 55.3598 71.2 55.5709 71.6628 55.6121Z" fill="#8F8F8F"/>
<path d="M76.1167 51.1162H78.4733C78.9198 51.1162 79.3476 51.2917 79.6632 51.604C79.9788 51.9164 80.1561 52.3401 80.1561 52.7818C80.1561 53.2236 79.9788 53.6472 79.6632 53.9596C79.3476 54.2719 78.9198 54.4474 78.4733 54.4474H77.0583V56.4283H76.1167V51.1162ZM78.3439 51.9349H77.0583V53.622H78.3439C78.4606 53.6297 78.578 53.6136 78.688 53.5746C78.7979 53.5357 78.8989 53.4748 78.9841 53.3957C79.0694 53.3166 79.1375 53.2211 79.1838 53.1149C79.2309 53.0087 79.2549 52.8942 79.2549 52.7785C79.2549 52.6628 79.2309 52.5482 79.1838 52.4421C79.1375 52.3359 79.0694 52.2404 78.9841 52.1612C78.8989 52.0822 78.7979 52.0213 78.688 51.9824C78.578 51.9435 78.4606 51.9273 78.3439 51.9349Z" fill="#8F8F8F"/>
<path d="M76.0322 51.0318H78.4741C78.7119 51.0221 78.9498 51.0601 79.1727 51.1436C79.3955 51.2271 79.599 51.3544 79.771 51.5177C79.943 51.681 80.0799 51.8771 80.1733 52.094C80.2668 52.311 80.3147 52.5444 80.3147 52.7802C80.3147 53.0162 80.2668 53.2496 80.1733 53.4665C80.0799 53.6835 79.943 53.8795 79.771 54.0429C79.599 54.2062 79.3955 54.3335 79.1727 54.417C78.9498 54.5005 78.7119 54.5384 78.4741 54.5287H77.1466V56.5097H76.0322V51.0318ZM78.4741 54.3629C78.691 54.3775 78.9079 54.3472 79.1121 54.2739C79.3162 54.2007 79.5032 54.086 79.6603 53.9373C79.8173 53.7887 79.9407 53.6093 80.0238 53.4106C80.1068 53.2118 80.1472 52.9982 80.1419 52.7832C80.1494 52.5676 80.1113 52.3527 80.029 52.1529C79.9467 51.9529 79.8233 51.7725 79.6655 51.6233C79.5085 51.4741 79.3207 51.3596 79.1151 51.2872C78.9101 51.2149 78.691 51.1863 78.4741 51.2035H76.2027V56.3446H76.9738V54.3637L78.4741 54.3629ZM76.9738 51.8534H78.3432C78.4719 51.8446 78.6005 51.8621 78.7217 51.9047C78.8436 51.9474 78.955 52.0142 79.0485 52.1012C79.1427 52.1882 79.2183 52.2935 79.2699 52.4104C79.3207 52.5274 79.3477 52.6535 79.3477 52.781C79.3477 52.9085 79.3207 53.0347 79.2699 53.1516C79.2183 53.2685 79.1427 53.3738 79.0485 53.4608C78.955 53.5478 78.8436 53.6147 78.7217 53.6573C78.6005 53.6999 78.4719 53.7173 78.3432 53.7085H76.9723L76.9738 51.8534ZM78.3447 53.5405C78.4509 53.5492 78.5571 53.536 78.6581 53.5018C78.7583 53.4676 78.8511 53.4131 78.9296 53.3417C79.0074 53.2704 79.0702 53.1838 79.1128 53.0873C79.1555 52.9909 79.1779 52.8867 79.1779 52.7814C79.1779 52.676 79.1555 52.5719 79.1128 52.4754C79.0702 52.379 79.0074 52.2923 78.9296 52.221C78.8511 52.1497 78.7583 52.0951 78.6581 52.0609C78.5571 52.0267 78.4509 52.0136 78.3447 52.0222H77.1466V53.5405H78.3447Z" fill="#8F8F8F"/>
<path d="M81.8103 51.1157H82.7519V55.6076H85.1153V56.4219H81.8103V51.1143V51.1157Z" fill="#8F8F8F"/>
<path d="M81.8096 51.0322H82.8357V55.5241H85.1991V56.5116H81.7244V51.1181H81.8096V51.0322ZM82.666 51.201H81.8949V56.3384H85.0293V55.6877H82.666V51.201Z" fill="#8F8F8F"/>
<path d="M86.7698 51.1169H90.4442V51.9356H87.7099V53.3125H90.3866V54.1335H87.7099V55.6051H90.4442V56.4238H86.7698V51.1133V51.1169Z" fill="#8F8F8F"/>
<path d="M86.7706 51.0322H90.5303V52.0197H87.7959V53.2278H90.4727V54.2153H87.7959V55.5189H90.5303V56.5065H86.6853V51.1129H86.7706V51.0322ZM90.3605 51.201H86.8566V56.3384H90.3605V55.6877H87.6262V54.0495H90.3029V53.3988H87.6262V51.851H90.3605V51.201Z" fill="#8F8F8F"/>
<path d="M102.273 51.1162H104.63C105.076 51.1162 105.504 51.2917 105.819 51.604C106.135 51.9164 106.312 52.3401 106.312 52.7818C106.312 53.2236 106.135 53.6472 105.819 53.9596C105.504 54.2719 105.076 54.4474 104.63 54.4474H103.215V56.4283H102.273V51.1162ZM104.5 51.9349H103.215V53.622H104.5C104.617 53.6297 104.734 53.6136 104.843 53.5746C104.954 53.5357 105.054 53.4748 105.14 53.3957C105.226 53.3166 105.294 53.2211 105.34 53.1149C105.386 53.0087 105.41 52.8942 105.41 52.7785C105.41 52.6628 105.386 52.5482 105.34 52.4421C105.294 52.3359 105.226 52.2404 105.14 52.1612C105.054 52.0822 104.954 52.0213 104.843 51.9824C104.734 51.9435 104.617 51.9273 104.5 51.9349Z" fill="#8F8F8F"/>
<path d="M102.188 51.0318H104.63C104.868 51.0221 105.106 51.0601 105.329 51.1436C105.552 51.2271 105.755 51.3544 105.927 51.5177C106.099 51.681 106.235 51.8771 106.329 52.094C106.422 52.311 106.471 52.5444 106.471 52.7802C106.471 53.0162 106.422 53.2496 106.329 53.4665C106.235 53.6835 106.099 53.8795 105.927 54.0429C105.755 54.2062 105.552 54.3335 105.329 54.417C105.106 54.5005 104.868 54.5384 104.63 54.5287H103.302V56.5097H102.188V51.0318ZM104.63 54.3629C104.847 54.3775 105.064 54.3472 105.268 54.2739C105.473 54.2007 105.659 54.086 105.816 53.9373C105.973 53.7887 106.097 53.6093 106.18 53.4106C106.263 53.2118 106.303 52.9982 106.297 52.7832C106.306 52.5676 106.267 52.3527 106.185 52.1529C106.103 51.9529 105.979 51.7725 105.822 51.6233C105.664 51.4741 105.476 51.3596 105.271 51.2872C105.066 51.2149 104.847 51.1863 104.63 51.2035H102.358V56.3446H103.129V54.3637L104.63 54.3629ZM103.129 51.8534H104.499C104.627 51.8446 104.757 51.8621 104.878 51.9047C104.999 51.9474 105.111 52.0142 105.205 52.1012C105.299 52.1882 105.375 52.2935 105.425 52.4104C105.477 52.5274 105.503 52.6535 105.503 52.781C105.503 52.9085 105.477 53.0347 105.425 53.1516C105.375 53.2685 105.299 53.3738 105.205 53.4608C105.111 53.5478 104.999 53.6147 104.878 53.6573C104.757 53.6999 104.627 53.7173 104.499 53.7085H103.128L103.129 51.8534ZM104.5 53.5405C104.606 53.5492 104.713 53.536 104.814 53.5018C104.915 53.4676 105.007 53.4131 105.085 53.3417C105.164 53.2704 105.226 53.1838 105.269 53.0873C105.312 52.9909 105.333 52.8867 105.333 52.7814C105.333 52.676 105.312 52.5719 105.269 52.4754C105.226 52.379 105.164 52.2923 105.085 52.221C105.007 52.1497 104.915 52.0951 104.814 52.0609C104.713 52.0267 104.606 52.0136 104.5 52.0222H103.302V53.5405H104.5Z" fill="#8F8F8F"/>
<path d="M110.465 51.0296C111.016 51.0232 111.555 51.1787 112.016 51.4766C112.477 51.7744 112.838 52.201 113.052 52.7022C113.268 53.2035 113.327 53.7566 113.224 54.2916C113.12 54.8264 112.859 55.3188 112.472 55.7061C112.085 56.0935 111.591 56.3583 111.052 56.467C110.513 56.5756 109.953 56.5231 109.445 56.3162C108.935 56.1094 108.5 55.7574 108.194 55.3051C107.887 54.8528 107.724 54.3206 107.724 53.776C107.708 53.4139 107.768 53.0525 107.899 52.7144C108.031 52.3763 108.232 52.0687 108.489 51.8109C108.747 51.5531 109.055 51.3507 109.395 51.2162C109.735 51.0818 110.1 51.0183 110.465 51.0296ZM110.465 51.8572C110.076 51.824 109.684 51.9081 109.343 52.0987C109.002 52.2892 108.727 52.5773 108.554 52.9251C108.381 53.273 108.318 53.6643 108.374 54.0481C108.43 54.4318 108.601 54.79 108.866 55.0756C109.13 55.3614 109.476 55.5613 109.857 55.6493C110.239 55.7372 110.638 55.7092 111.003 55.5687C111.368 55.4282 111.682 55.1819 111.904 54.8621C112.125 54.5422 112.243 54.1636 112.243 53.776C112.266 53.5318 112.236 53.2857 112.158 53.0534C112.079 52.8211 111.951 52.6078 111.784 52.4271C111.616 52.2464 111.412 52.1023 111.186 52.0042C110.958 51.9061 110.713 51.856 110.465 51.8572Z" fill="#8F8F8F"/>
<path d="M110.465 50.9454C111.032 50.9389 111.589 51.0993 112.063 51.4063C112.538 51.7132 112.91 52.153 113.131 52.6697C113.353 53.1863 113.414 53.7564 113.308 54.3078C113.201 54.8591 112.932 55.3666 112.533 55.7658C112.135 56.165 111.625 56.438 111.069 56.5499C110.513 56.6618 109.937 56.6078 109.412 56.3945C108.887 56.1813 108.439 55.8185 108.123 55.3523C107.807 54.8861 107.639 54.3375 107.639 53.7762C107.623 53.4033 107.686 53.0312 107.822 52.6831C107.958 52.3351 108.166 52.0185 108.43 51.753C108.696 51.4875 109.013 51.2789 109.363 51.1399C109.713 51.001 110.088 50.9348 110.465 50.9454ZM110.465 56.4382C110.999 56.4452 111.523 56.2949 111.971 56.0065C112.418 55.7179 112.769 55.3042 112.978 54.818C113.187 54.3317 113.246 53.7947 113.146 53.2755C113.046 52.7562 112.793 52.2781 112.417 51.9018C112.043 51.5255 111.563 51.2681 111.04 51.1624C110.516 51.0567 109.973 51.1073 109.479 51.308C108.985 51.5086 108.563 51.8501 108.265 52.2891C107.967 52.7281 107.809 53.2447 107.809 53.7732C107.794 54.1241 107.852 54.4743 107.98 54.8018C108.107 55.1295 108.302 55.4275 108.552 55.6775C108.801 55.9275 109.099 56.124 109.428 56.2549C109.758 56.3858 110.11 56.4482 110.465 56.4382ZM110.465 51.7745C110.872 51.741 111.281 51.83 111.636 52.0298C111.992 52.2295 112.278 52.5309 112.457 52.8943C112.637 53.2577 112.702 53.6663 112.643 54.0668C112.584 54.4672 112.405 54.8406 112.128 55.1384C111.85 55.4361 111.49 55.6442 111.091 55.7354C110.693 55.8267 110.276 55.7969 109.895 55.6499C109.515 55.5029 109.188 55.2455 108.957 54.9115C108.727 54.5775 108.603 54.1823 108.603 53.7777C108.581 53.5224 108.612 53.2654 108.695 53.0229C108.779 52.7804 108.913 52.5577 109.088 52.3692C109.263 52.1806 109.476 52.0301 109.713 51.9275C109.95 51.8249 110.207 51.7723 110.465 51.7731V51.7745ZM110.465 55.612C110.928 55.5709 111.358 55.3598 111.672 55.0204C111.985 54.6809 112.159 54.2376 112.159 53.7777C112.159 53.3178 111.985 52.8745 111.672 52.5351C111.358 52.1956 110.928 51.9845 110.465 51.9433C110.002 51.9845 109.572 52.1956 109.258 52.5351C108.945 52.8745 108.771 53.3178 108.771 53.7777C108.771 54.2376 108.945 54.6809 109.258 55.0204C109.572 55.3598 110.002 55.5709 110.465 55.612Z" fill="#8F8F8F"/>
<path d="M117.814 52.5101L116.777 56.4254H115.771L114.235 51.1162H115.288L116.335 55.2061L117.444 51.1162H118.192L119.301 55.2061L120.338 51.1162H121.392L119.864 56.4254H118.858L117.811 52.5101H117.814Z" fill="#8F8F8F"/>
<path d="M114.121 51.0318H115.357L116.338 54.8722L117.38 51.0318H118.258L118.275 51.0939L119.3 54.8693L120.272 51.0303H121.504L119.929 56.5082H118.792L117.816 52.8461L116.843 56.5082H115.707L114.121 51.0318ZM115.221 51.2005H114.347L115.835 56.3416H116.711L117.724 52.5175L117.701 52.4264H117.925L117.904 52.5167L118.924 56.3409H119.801L121.279 51.1998H120.405L119.304 55.5414L118.127 51.1998H117.511L116.33 55.5407L115.221 51.2005Z" fill="#8F8F8F"/>
<path d="M122.824 51.1169H126.497V51.9356H123.763V53.3125H126.44V54.1335H123.763V55.6051H126.497V56.4238H122.824V51.1133V51.1169Z" fill="#8F8F8F"/>
<path d="M122.823 51.0322H126.582V52.0197H123.848V53.2278H126.524V54.2153H123.848V55.5189H126.582V56.5065H122.738V51.1129H122.823V51.0322ZM126.413 51.201H122.91V56.3384H126.414V55.6877H123.679V54.0495H126.356V53.3988H123.679V51.851H126.414L126.413 51.201Z" fill="#8F8F8F"/>
<path d="M130.14 54.4424H129.208V56.4219H128.267V51.1142H130.623C130.852 51.0967 131.082 51.1271 131.297 51.2035C131.513 51.28 131.711 51.4007 131.876 51.5578C132.041 51.7149 132.172 51.9049 132.258 52.1152C132.344 52.3255 132.385 52.5515 132.377 52.7783C132.404 53.1496 132.288 53.5176 132.053 53.8075C131.816 54.0974 131.478 54.2873 131.105 54.3388L132.415 56.4233H131.329L130.14 54.4424ZM130.493 51.9351H129.208V53.6215H130.493C130.61 53.6299 130.727 53.6143 130.838 53.5757C130.949 53.5372 131.051 53.4764 131.137 53.3973C131.223 53.3182 131.291 53.2224 131.338 53.1159C131.385 53.0094 131.409 52.8945 131.409 52.7783C131.409 52.6622 131.385 52.5472 131.338 52.4407C131.291 52.3341 131.223 52.2384 131.137 52.1592C131.051 52.0802 130.949 52.0194 130.838 51.9808C130.727 51.9423 130.61 51.9267 130.493 51.9351Z" fill="#8F8F8F"/>
<path d="M132.57 56.5082H131.282L130.092 54.5273H129.293V56.5082H128.182V51.0303H130.624C130.864 51.0122 131.104 51.0445 131.331 51.1249C131.558 51.2055 131.764 51.3324 131.938 51.4975C132.111 51.6627 132.247 51.8621 132.337 52.0829C132.427 52.3037 132.469 52.5408 132.46 52.7788C132.487 53.1483 132.378 53.5149 132.154 53.812C131.931 54.1091 131.607 54.3169 131.241 54.3977L132.57 56.5082ZM131.378 56.3394H132.263L130.964 54.2763L131.09 54.2563C131.443 54.2079 131.764 54.0275 131.987 53.752C132.209 53.4767 132.317 53.1273 132.287 52.7758C132.295 52.5602 132.256 52.3453 132.175 52.1455C132.092 51.9455 131.968 51.765 131.811 51.6159C131.653 51.4667 131.466 51.3522 131.261 51.2798C131.055 51.2075 130.837 51.1789 130.619 51.1961H128.348V56.3379H129.119V54.357H130.185L131.378 56.3394ZM130.493 53.7063H129.123V51.8512H130.493C130.622 51.8424 130.751 51.8599 130.873 51.9025C130.994 51.9452 131.105 52.012 131.199 52.099C131.294 52.186 131.368 52.2912 131.42 52.4082C131.472 52.5251 131.498 52.6513 131.498 52.7788C131.498 52.9063 131.472 53.0324 131.42 53.1494C131.368 53.2663 131.294 53.3716 131.199 53.4585C131.105 53.5455 130.994 53.6124 130.873 53.6551C130.751 53.6976 130.622 53.7151 130.493 53.7063ZM129.293 53.5375H130.493C130.6 53.5463 130.707 53.5331 130.807 53.4988C130.908 53.4646 131 53.4101 131.078 53.3388C131.157 53.2674 131.219 53.1808 131.261 53.0843C131.305 52.9879 131.327 52.8837 131.327 52.7784C131.327 52.6731 131.305 52.5689 131.261 52.4724C131.219 52.376 131.157 52.2894 131.078 52.218C131 52.1467 130.908 52.0922 130.807 52.058C130.707 52.0238 130.6 52.0106 130.493 52.0192H129.293V53.5375Z" fill="#8F8F8F"/>
<path d="M139.492 51.0296C140.042 51.0232 140.582 51.1787 141.042 51.4766C141.503 51.7744 141.864 52.201 142.079 52.7022C142.294 53.2035 142.354 53.7566 142.25 54.2916C142.147 54.8264 141.885 55.3188 141.499 55.7061C141.112 56.0935 140.618 56.3583 140.078 56.467C139.539 56.5756 138.98 56.5231 138.47 56.3162C137.962 56.1094 137.527 55.7574 137.22 55.3051C136.914 54.8528 136.75 54.3206 136.75 53.776C136.735 53.4139 136.794 53.0525 136.926 52.7144C137.058 52.3763 137.258 52.0687 137.516 51.8109C137.773 51.5531 138.082 51.3507 138.422 51.2162C138.761 51.0818 139.126 51.0183 139.492 51.0296ZM139.492 51.8572C139.102 51.8238 138.711 51.9078 138.369 52.0983C138.028 52.2887 137.753 52.5767 137.58 52.9245C137.407 53.2723 137.344 53.6637 137.399 54.0475C137.455 54.4312 137.626 54.7895 137.891 55.0753C138.156 55.3611 138.501 55.5611 138.883 55.6491C139.264 55.7372 139.663 55.7092 140.029 55.5687C140.394 55.4283 140.707 55.182 140.929 54.8622C141.15 54.5423 141.268 54.1636 141.269 53.776C141.292 53.5319 141.262 53.2858 141.183 53.0536C141.104 52.8213 140.977 52.608 140.809 52.4274C140.642 52.2467 140.438 52.1026 140.212 52.0045C139.985 51.9062 139.74 51.8561 139.492 51.8572Z" fill="#8F8F8F"/>
<path d="M139.492 50.9455C140.059 50.939 140.615 51.0995 141.09 51.4066C141.565 51.7137 141.936 52.1536 142.158 52.6702C142.379 53.1868 142.441 53.757 142.334 54.3082C142.227 54.8595 141.958 55.367 141.559 55.7661C141.161 56.1653 140.651 56.4381 140.096 56.55C139.54 56.6619 138.963 56.6078 138.438 56.3945C137.914 56.1812 137.465 55.8184 137.15 55.3522C136.834 54.8861 136.665 54.3375 136.665 53.7762C136.65 53.4033 136.712 53.0311 136.848 52.683C136.985 52.3349 137.192 52.0182 137.457 51.7528C137.723 51.4873 138.04 51.2786 138.39 51.1397C138.74 51.0008 139.115 50.9347 139.492 50.9455ZM139.492 56.4383C140.026 56.4453 140.55 56.2949 140.998 56.0065C141.445 55.718 141.796 55.3043 142.005 54.818C142.214 54.3317 142.273 53.7948 142.173 53.2755C142.073 52.7562 141.82 52.2781 141.445 51.9018C141.069 51.5255 140.59 51.2682 140.066 51.1624C139.544 51.0567 139 51.1074 138.506 51.308C138.012 51.5086 137.589 51.8501 137.292 52.2891C136.995 52.7281 136.836 53.2447 136.836 53.7733C136.821 54.1241 136.879 54.4743 137.007 54.8018C137.135 55.1295 137.329 55.4275 137.578 55.6775C137.828 55.9275 138.126 56.124 138.456 56.2549C138.785 56.3858 139.138 56.4482 139.492 56.4383ZM139.492 51.7746C139.9 51.7412 140.307 51.8303 140.663 52.0302C141.019 52.23 141.304 52.5315 141.484 52.8949C141.663 53.2584 141.728 53.667 141.669 54.0674C141.61 54.4677 141.431 54.8411 141.154 55.1387C140.877 55.4364 140.516 55.6444 140.117 55.7356C139.719 55.8268 139.303 55.797 138.921 55.6499C138.541 55.5029 138.214 55.2455 137.984 54.9115C137.752 54.5775 137.629 54.1822 137.629 53.7777C137.607 53.5225 137.638 53.2654 137.722 53.0228C137.806 52.7802 137.939 52.5575 138.114 52.3689C138.289 52.1803 138.503 52.0299 138.74 51.9273C138.977 51.8247 139.233 51.7723 139.492 51.7731V51.7746ZM139.492 55.6121C139.955 55.5709 140.386 55.3598 140.699 55.0204C141.013 54.6809 141.186 54.2376 141.186 53.7777C141.186 53.3178 141.013 52.8746 140.699 52.5351C140.386 52.1956 139.955 51.9846 139.492 51.9433C139.029 51.9846 138.599 52.1956 138.286 52.5351C137.972 52.8746 137.798 53.3178 137.798 53.7777C137.798 54.2376 137.972 54.6809 138.286 55.0204C138.599 55.3598 139.029 55.5709 139.492 55.6121Z" fill="#8F8F8F"/>
<path d="M143.945 51.1157H147.616V51.9345H144.881V53.3114H147.558V54.1308H144.881V56.4256H143.944V51.1143L143.945 51.1157Z" fill="#8F8F8F"/>
<path d="M143.858 50.9062L143.981 51.032H147.704V52.0196H144.97V53.2276H147.646V54.2152H144.97V56.5099H143.858V50.9062ZM147.534 51.2023H144.029V56.3412H144.8V54.0464H147.477V53.3957H144.8V51.8508H147.531L147.534 51.2023Z" fill="#8F8F8F"/>
<path d="M155.194 52.5101L154.157 56.4254H153.151L151.615 51.1162H152.668L153.715 55.2061L154.824 51.1162H155.572L156.681 55.2061L157.718 51.1162H158.772L157.245 56.4254H156.239L155.192 52.5101H155.194Z" fill="#8F8F8F"/>
<path d="M151.503 51.0318H152.735L153.716 54.8722L154.757 51.0318H155.635L155.652 51.0939L156.677 54.8693L157.649 51.0303H158.881L157.306 56.5082H156.17L155.193 52.8461L154.221 56.5082H153.084L151.503 51.0318ZM152.603 51.2005H151.727L153.215 56.3416H154.09L155.104 52.5175L155.08 52.4264H155.304L155.283 52.5167L156.303 56.3409H157.179L158.658 51.1998H157.784L156.683 55.5414L155.505 51.1998H154.889L153.712 55.5399L152.603 51.2005Z" fill="#8F8F8F"/>
<path d="M162.542 51.0296C163.093 51.0232 163.632 51.1787 164.093 51.4766C164.553 51.7744 164.914 52.201 165.129 52.7022C165.344 53.2035 165.404 53.7566 165.301 54.2916C165.197 54.8264 164.936 55.3188 164.549 55.7061C164.162 56.0935 163.668 56.3583 163.129 56.467C162.589 56.5756 162.03 56.5231 161.521 56.3162C161.012 56.1094 160.577 55.7574 160.271 55.3051C159.964 54.8528 159.801 54.3206 159.801 53.776C159.785 53.4139 159.845 53.0525 159.976 52.7144C160.108 52.3763 160.309 52.0687 160.566 51.8109C160.824 51.5531 161.132 51.3507 161.472 51.2162C161.812 51.0818 162.177 51.0183 162.542 51.0296ZM162.542 51.8572C162.152 51.824 161.761 51.9081 161.42 52.0987C161.079 52.2892 160.803 52.5773 160.631 52.9251C160.458 53.273 160.395 53.6643 160.45 54.0481C160.507 54.4318 160.678 54.79 160.943 55.0756C161.207 55.3614 161.553 55.5613 161.934 55.6493C162.316 55.7372 162.715 55.7092 163.08 55.5687C163.445 55.4282 163.759 55.1819 163.981 54.8621C164.201 54.5422 164.32 54.1636 164.32 53.776C164.343 53.5318 164.313 53.2857 164.234 53.0534C164.156 52.8211 164.028 52.6078 163.86 52.4271C163.693 52.2464 163.489 52.1023 163.263 52.0042C163.035 51.9061 162.79 51.856 162.542 51.8572Z" fill="#8F8F8F"/>
<path d="M162.542 50.9455C163.11 50.939 163.666 51.0995 164.141 51.4066C164.615 51.7137 164.986 52.1536 165.209 52.6702C165.43 53.1868 165.491 53.757 165.384 54.3082C165.278 54.8595 165.008 55.367 164.609 55.7661C164.211 56.1653 163.702 56.4381 163.146 56.55C162.59 56.6619 162.014 56.6078 161.489 56.3945C160.964 56.1812 160.515 55.8184 160.2 55.3522C159.884 54.8861 159.716 54.3375 159.716 53.7762C159.7 53.4033 159.763 53.0311 159.899 52.683C160.035 52.3349 160.243 52.0182 160.507 51.7528C160.773 51.4873 161.09 51.2786 161.441 51.1397C161.791 51.0008 162.165 50.9347 162.542 50.9455ZM162.542 56.4383C163.076 56.4453 163.601 56.2949 164.048 56.0065C164.496 55.718 164.847 55.3043 165.055 54.818C165.265 54.3317 165.324 53.7948 165.224 53.2755C165.124 52.7562 164.871 52.2781 164.495 51.9018C164.12 51.5255 163.64 51.2682 163.117 51.1624C162.594 51.0567 162.051 51.1074 161.557 51.308C161.062 51.5086 160.64 51.8501 160.343 52.2891C160.045 52.7281 159.887 53.2447 159.886 53.7733C159.872 54.1241 159.93 54.4743 160.057 54.8018C160.185 55.1295 160.379 55.4275 160.629 55.6775C160.878 55.9275 161.177 56.124 161.506 56.2549C161.835 56.3858 162.188 56.4482 162.542 56.4383ZM162.542 51.7746C162.95 51.7412 163.358 51.8303 163.714 52.0302C164.069 52.23 164.355 52.5315 164.535 52.8949C164.714 53.2584 164.779 53.667 164.719 54.0674C164.66 54.4677 164.481 54.8411 164.204 55.1387C163.927 55.4364 163.566 55.6444 163.168 55.7356C162.77 55.8268 162.353 55.797 161.972 55.6499C161.592 55.5029 161.264 55.2455 161.034 54.9115C160.803 54.5775 160.68 54.1822 160.68 53.7777C160.657 53.5225 160.689 53.2654 160.772 53.0228C160.856 52.7802 160.99 52.5575 161.165 52.3689C161.34 52.1803 161.553 52.0299 161.79 51.9273C162.028 51.8247 162.284 51.7723 162.542 51.7731V51.7746ZM162.542 55.6121C163.005 55.5709 163.436 55.3598 163.749 55.0204C164.063 54.6809 164.237 54.2376 164.237 53.7777C164.237 53.3178 164.063 52.8746 163.749 52.5351C163.436 52.1956 163.005 51.9846 162.542 51.9433C162.08 51.9846 161.649 52.1956 161.336 52.5351C161.023 52.8746 160.848 53.3178 160.848 53.7777C160.848 54.2376 161.023 54.6809 161.336 55.0204C161.649 55.3598 162.08 55.5709 162.542 55.6121Z" fill="#8F8F8F"/>
<path d="M168.87 54.4424H167.938V56.4219H166.997V51.1142H169.353C169.581 51.0967 169.811 51.1271 170.027 51.2035C170.243 51.28 170.44 51.4007 170.605 51.5578C170.771 51.7149 170.901 51.9049 170.988 52.1152C171.074 52.3255 171.114 52.5515 171.106 52.7783C171.133 53.1496 171.018 53.5176 170.782 53.8075C170.546 54.0974 170.207 54.2873 169.834 54.3388L171.148 56.4219H170.062L168.87 54.4424ZM169.223 51.9351H167.938V53.6215H169.223C169.34 53.6299 169.458 53.6143 169.569 53.5757C169.68 53.5372 169.781 53.4764 169.867 53.3973C169.953 53.3182 170.021 53.2224 170.068 53.1159C170.115 53.0094 170.14 52.8945 170.14 52.7783C170.14 52.6622 170.115 52.5472 170.068 52.4407C170.021 52.3341 169.953 52.2384 169.867 52.1592C169.781 52.0802 169.68 52.0194 169.569 51.9808C169.458 51.9423 169.34 51.9267 169.223 51.9351Z" fill="#8F8F8F"/>
<path d="M171.3 56.5084H170.012L168.822 54.5274H168.023V56.5084H166.912V51.0305H169.353C169.594 51.012 169.835 51.044 170.062 51.1244C170.288 51.2048 170.496 51.3317 170.669 51.4968C170.843 51.6619 170.979 51.8616 171.069 52.0825C171.16 52.3035 171.202 52.5408 171.192 52.779C171.219 53.1484 171.11 53.5151 170.887 53.8122C170.663 54.1093 170.339 54.3171 169.974 54.3979L171.3 56.5084ZM170.108 56.3396H170.993L169.696 54.2758L169.822 54.2558C170.175 54.2074 170.496 54.0269 170.719 53.7515C170.942 53.4761 171.049 53.1268 171.02 52.7753C171.027 52.5596 170.988 52.3448 170.907 52.1449C170.825 51.945 170.7 51.7645 170.543 51.6154C170.386 51.4661 170.198 51.3516 169.993 51.2793C169.787 51.2069 169.569 51.1784 169.351 51.1956H167.08V56.3381H167.851V54.3572H168.917L170.108 56.3396ZM169.224 53.7065H167.852V51.8514H169.224C169.352 51.8426 169.481 51.8601 169.603 51.9027C169.724 51.9453 169.835 52.0122 169.929 52.0992C170.024 52.1862 170.098 52.2914 170.15 52.4083C170.202 52.5253 170.228 52.6514 170.228 52.779C170.228 52.9065 170.202 53.0326 170.15 53.1496C170.098 53.2665 170.024 53.3717 169.929 53.4588C169.835 53.5457 169.724 53.6126 169.603 53.6552C169.481 53.6979 169.352 53.7153 169.224 53.7065ZM168.023 53.5377H169.224C169.33 53.5464 169.437 53.5332 169.537 53.499C169.638 53.4648 169.73 53.4103 169.808 53.339C169.887 53.2676 169.949 53.181 169.992 53.0846C170.035 52.9881 170.057 52.8839 170.057 52.7786C170.057 52.6733 170.035 52.5691 169.992 52.4727C169.949 52.3762 169.887 52.2895 169.808 52.2182C169.73 52.1469 169.638 52.0924 169.537 52.0582C169.437 52.0239 169.33 52.0107 169.224 52.0194H168.023V53.5377Z" fill="#8F8F8F"/>
<path d="M174.257 54.1883L173.789 54.7302V56.4254H172.848V51.1162H173.79V53.6479L175.889 51.1162H177.055L174.874 53.6235L177.214 56.4254H176.055L174.255 54.1883H174.257Z" fill="#8F8F8F"/>
<path d="M177.395 56.5101H176.015L174.254 54.3219L173.876 54.7617V56.5101H172.764V51.0322H173.875V53.4129L175.849 51.0322H177.24L174.986 53.6231L177.395 56.5101ZM176.097 56.3414H177.033L174.763 53.6224L176.868 51.2003H175.929L173.704 53.883V51.2003H172.933V56.3414H173.704V54.6995L174.145 54.188L174.079 54.1058H174.439L174.364 54.1924L176.097 56.3414Z" fill="#8F8F8F"/>
<path d="M96.3578 52.8275C96.215 52.8247 96.0721 52.85 95.939 52.902C95.8051 52.954 95.684 53.0315 95.5807 53.1303C95.4738 53.2331 95.3893 53.3572 95.3339 53.4945C95.2786 53.6317 95.2532 53.7791 95.2592 53.9268C95.2532 54.072 95.2786 54.2167 95.3339 54.3512C95.39 54.4857 95.4738 54.6068 95.5807 54.7063C95.7909 54.9042 96.0706 55.0145 96.3608 55.0145C96.651 55.0145 96.93 54.9042 97.1401 54.7063C97.2448 54.6052 97.3271 54.4837 97.3817 54.3496C97.437 54.2154 97.4632 54.0715 97.4587 53.9268C97.4632 53.7796 97.437 53.633 97.3824 53.496C97.3278 53.359 97.2456 53.2346 97.1401 53.1303C97.0369 53.0307 96.9142 52.9526 96.7796 52.9007C96.6458 52.8486 96.5022 52.8237 96.3578 52.8275Z" fill="#8F8F8F"/>
<path d="M96.3556 52.7427C96.5134 52.7381 96.6704 52.7658 96.817 52.8239C96.9636 52.882 97.0967 52.9693 97.2074 53.0803C97.3189 53.1913 97.4056 53.3238 97.4632 53.4694C97.5208 53.6151 97.547 53.7709 97.541 53.9271C97.5447 54.0828 97.5163 54.2378 97.4572 54.3823C97.3981 54.5267 97.3091 54.6575 97.197 54.7665C96.9711 54.9797 96.6704 55.0986 96.3578 55.0986C96.0459 55.0986 95.7453 54.9797 95.5194 54.7665C95.4035 54.6594 95.313 54.5289 95.2532 54.3839C95.1926 54.2389 95.1649 54.0828 95.1716 53.9263C95.1657 53.7671 95.1933 53.6084 95.2532 53.4606C95.3137 53.3127 95.4042 53.1791 95.5202 53.0684C95.7438 52.8545 96.0444 52.7374 96.3556 52.7427ZM96.3556 54.9301C96.4894 54.9339 96.6218 54.9107 96.746 54.8617C96.8709 54.8129 96.9831 54.7394 97.078 54.6458C97.1745 54.5527 97.2501 54.4407 97.3009 54.317C97.351 54.1932 97.3749 54.0604 97.3712 53.9271C97.3757 53.7912 97.3525 53.6557 97.3017 53.5292C97.2516 53.4026 97.176 53.2876 97.0788 53.1912C96.8828 53.0115 96.6256 52.9117 96.3578 52.9117C96.0908 52.9117 95.8335 53.0115 95.6376 53.1912C95.5374 53.2858 95.4596 53.4003 95.408 53.5272C95.3564 53.6541 95.3324 53.7904 95.3384 53.9271C95.3332 54.0611 95.3571 54.1947 95.4087 54.3187C95.4603 54.4428 95.5381 54.5544 95.6376 54.6458C95.7318 54.7385 95.844 54.8114 95.9674 54.8601C96.0908 54.9088 96.2224 54.9331 96.3556 54.9301Z" fill="#8F8F8F"/>
</g>
</g>
<defs>
<clipPath id="clip0_5720_6692">
<rect width="178" height="57" fill="white" transform="translate(-0.00976562)"/>
</clipPath>
</defs>
</svg>
