<svg width="100" height="101" viewBox="0 0 100 101" fill="none" xmlns="http://www.w3.org/2000/svg">
<path d="M11.976 90.024H5.688L4.68 93H0.384L6.48 76.152H11.232L17.328 93H12.984L11.976 90.024ZM10.92 86.856L8.832 80.688L6.768 86.856H10.92ZM27.3433 79.464C28.9113 79.464 30.1593 79.976 31.0873 81C32.0313 82.008 32.5033 83.4 32.5033 85.176V93H28.4233V85.728C28.4233 84.832 28.1913 84.136 27.7273 83.64C27.2633 83.144 26.6393 82.896 25.8553 82.896C25.0713 82.896 24.4473 83.144 23.9833 83.64C23.5193 84.136 23.2873 84.832 23.2873 85.728V93H19.1833V79.608H23.2873V81.384C23.7033 80.792 24.2633 80.328 24.9673 79.992C25.6713 79.64 26.4633 79.464 27.3433 79.464ZM40.4432 79.416C41.3872 79.416 42.2112 79.608 42.9152 79.992C43.6352 80.376 44.1872 80.88 44.5712 81.504V79.608H48.6752V92.976C48.6752 94.208 48.4272 95.32 47.9312 96.312C47.4512 97.32 46.7072 98.12 45.6992 98.712C44.7072 99.304 43.4672 99.6 41.9792 99.6C39.9952 99.6 38.3872 99.128 37.1552 98.184C35.9232 97.256 35.2192 95.992 35.0432 94.392H39.0992C39.2272 94.904 39.5312 95.304 40.0112 95.592C40.4912 95.896 41.0832 96.048 41.7872 96.048C42.6352 96.048 43.3072 95.8 43.8032 95.304C44.3152 94.824 44.5712 94.048 44.5712 92.976V91.08C44.1712 91.704 43.6192 92.216 42.9152 92.616C42.2112 93 41.3872 93.192 40.4432 93.192C39.3392 93.192 38.3392 92.912 37.4432 92.352C36.5472 91.776 35.8352 90.968 35.3072 89.928C34.7952 88.872 34.5392 87.656 34.5392 86.28C34.5392 84.904 34.7952 83.696 35.3072 82.656C35.8352 81.616 36.5472 80.816 37.4432 80.256C38.3392 79.696 39.3392 79.416 40.4432 79.416ZM44.5712 86.304C44.5712 85.28 44.2832 84.472 43.7072 83.88C43.1472 83.288 42.4592 82.992 41.6432 82.992C40.8272 82.992 40.1312 83.288 39.5552 83.88C38.9952 84.456 38.7152 85.256 38.7152 86.28C38.7152 87.304 38.9952 88.12 39.5552 88.728C40.1312 89.32 40.8272 89.616 41.6432 89.616C42.4592 89.616 43.1472 89.32 43.7072 88.728C44.2832 88.136 44.5712 87.328 44.5712 86.304ZM64.8683 79.608V93H60.7643V91.176C60.3483 91.768 59.7803 92.248 59.0603 92.616C58.3563 92.968 57.5723 93.144 56.7083 93.144C55.6843 93.144 54.7803 92.92 53.9963 92.472C53.2123 92.008 52.6043 91.344 52.1723 90.48C51.7403 89.616 51.5243 88.6 51.5243 87.432V79.608H55.6043V86.88C55.6043 87.776 55.8363 88.472 56.3003 88.968C56.7643 89.464 57.3883 89.712 58.1723 89.712C58.9723 89.712 59.6043 89.464 60.0683 88.968C60.5323 88.472 60.7643 87.776 60.7643 86.88V79.608H64.8683ZM71.9201 75.24V93H67.8161V75.24H71.9201ZM74.0783 86.28C74.0783 84.904 74.3343 83.696 74.8463 82.656C75.3743 81.616 76.0863 80.816 76.9823 80.256C77.8783 79.696 78.8783 79.416 79.9823 79.416C80.9263 79.416 81.7503 79.608 82.4543 79.992C83.1743 80.376 83.7263 80.88 84.1103 81.504V79.608H88.2143V93H84.1103V91.104C83.7103 91.728 83.1503 92.232 82.4303 92.616C81.7263 93 80.9023 93.192 79.9583 93.192C78.8703 93.192 77.8783 92.912 76.9823 92.352C76.0863 91.776 75.3743 90.968 74.8463 89.928C74.3343 88.872 74.0783 87.656 74.0783 86.28ZM84.1103 86.304C84.1103 85.28 83.8223 84.472 83.2463 83.88C82.6863 83.288 81.9983 82.992 81.1823 82.992C80.3663 82.992 79.6703 83.288 79.0943 83.88C78.5343 84.456 78.2543 85.256 78.2543 86.28C78.2543 87.304 78.5343 88.12 79.0943 88.728C79.6703 89.32 80.3663 89.616 81.1823 89.616C81.9983 89.616 82.6863 89.32 83.2463 88.728C83.8223 88.136 84.1103 87.328 84.1103 86.304ZM95.2873 81.84C95.7673 81.104 96.3673 80.528 97.0873 80.112C97.8073 79.68 98.6073 79.464 99.4873 79.464V83.808H98.3593C97.3353 83.808 96.5673 84.032 96.0553 84.48C95.5433 84.912 95.2873 85.68 95.2873 86.784V93H91.1833V79.608H95.2873V81.84Z" fill="black"/>
<path d="M44.1305 27.2289H48V17.9258L44.1305 27.2289Z" fill="#DD0031"/>
<path d="M42.3582 31.3219L39.6973 37.9641H34.7613L48 8.27734V3.25L26.8192 10.8012L30.0488 38.807L48 48.75V31.3219H42.3582Z" fill="#DD0031"/>
<path d="M48 17.9258V27.2289H51.8695L48 17.9258Z" fill="#C3002F"/>
<path d="M48 3.25V8.27734L61.193 37.9641H56.257L53.5961 31.3219H48V48.75L65.9512 38.807L69.1809 10.8012L48 3.25Z" fill="#C3002F"/>
</svg>
