<svg width="96" height="96" viewBox="0 0 96 96" fill="none" xmlns="http://www.w3.org/2000/svg">
<path d="M11.976 85.024H5.688L4.68 88H0.384L6.48 71.152H11.232L17.328 88H12.984L11.976 85.024ZM10.92 81.856L8.832 75.688L6.768 81.856H10.92ZM23.2873 76.504C23.6873 75.88 24.2393 75.376 24.9433 74.992C25.6473 74.608 26.4713 74.416 27.4153 74.416C28.5193 74.416 29.5193 74.696 30.4153 75.256C31.3113 75.816 32.0153 76.616 32.5273 77.656C33.0553 78.696 33.3193 79.904 33.3193 81.28C33.3193 82.656 33.0553 83.872 32.5273 84.928C32.0153 85.968 31.3113 86.776 30.4153 87.352C29.5193 87.912 28.5193 88.192 27.4153 88.192C26.4873 88.192 25.6633 88 24.9433 87.616C24.2393 87.232 23.6873 86.736 23.2873 86.128V94.384H19.1833V74.608H23.2873V76.504ZM29.1433 81.28C29.1433 80.256 28.8553 79.456 28.2793 78.88C27.7193 78.288 27.0233 77.992 26.1913 77.992C25.3753 77.992 24.6793 78.288 24.1033 78.88C23.5433 79.472 23.2633 80.28 23.2633 81.304C23.2633 82.328 23.5433 83.136 24.1033 83.728C24.6793 84.32 25.3753 84.616 26.1913 84.616C27.0073 84.616 27.7033 84.32 28.2793 83.728C28.8553 83.12 29.1433 82.304 29.1433 81.28ZM34.6564 81.28C34.6564 79.904 34.9124 78.696 35.4244 77.656C35.9524 76.616 36.6644 75.816 37.5604 75.256C38.4564 74.696 39.4564 74.416 40.5604 74.416C41.5044 74.416 42.3284 74.608 43.0324 74.992C43.7524 75.376 44.3044 75.88 44.6884 76.504V74.608H48.7924V88H44.6884V86.104C44.2884 86.728 43.7284 87.232 43.0084 87.616C42.3044 88 41.4804 88.192 40.5364 88.192C39.4484 88.192 38.4564 87.912 37.5604 87.352C36.6644 86.776 35.9524 85.968 35.4244 84.928C34.9124 83.872 34.6564 82.656 34.6564 81.28ZM44.6884 81.304C44.6884 80.28 44.4004 79.472 43.8244 78.88C43.2644 78.288 42.5764 77.992 41.7604 77.992C40.9444 77.992 40.2484 78.288 39.6724 78.88C39.1124 79.456 38.8324 80.256 38.8324 81.28C38.8324 82.304 39.1124 83.12 39.6724 83.728C40.2484 84.32 40.9444 84.616 41.7604 84.616C42.5764 84.616 43.2644 84.32 43.8244 83.728C44.4004 83.136 44.6884 82.328 44.6884 81.304ZM50.9454 81.304C50.9454 79.912 51.2254 78.696 51.7854 77.656C52.3614 76.616 53.1534 75.816 54.1614 75.256C55.1854 74.696 56.3534 74.416 57.6654 74.416C59.3454 74.416 60.7454 74.856 61.8654 75.736C63.0014 76.616 63.7454 77.856 64.0974 79.456H59.7294C59.3614 78.432 58.6494 77.92 57.5934 77.92C56.8414 77.92 56.2414 78.216 55.7934 78.808C55.3454 79.384 55.1214 80.216 55.1214 81.304C55.1214 82.392 55.3454 83.232 55.7934 83.824C56.2414 84.4 56.8414 84.688 57.5934 84.688C58.6494 84.688 59.3614 84.176 59.7294 83.152H64.0974C63.7454 84.72 63.0014 85.952 61.8654 86.848C60.7294 87.744 59.3294 88.192 57.6654 88.192C56.3534 88.192 55.1854 87.912 54.1614 87.352C53.1534 86.792 52.3614 85.992 51.7854 84.952C51.2254 83.912 50.9454 82.696 50.9454 81.304ZM74.5247 74.464C76.0607 74.464 77.2927 74.976 78.2207 76C79.1487 77.008 79.6127 78.4 79.6127 80.176V88H75.5327V80.728C75.5327 79.832 75.3007 79.136 74.8367 78.64C74.3727 78.144 73.7487 77.896 72.9647 77.896C72.1807 77.896 71.5567 78.144 71.0927 78.64C70.6287 79.136 70.3967 79.832 70.3967 80.728V88H66.2927V70.24H70.3967V76.408C70.8127 75.816 71.3807 75.344 72.1007 74.992C72.8207 74.64 73.6287 74.464 74.5247 74.464ZM95.0886 81.088C95.0886 81.472 95.0646 81.872 95.0166 82.288H85.7286C85.7926 83.12 86.0566 83.76 86.5206 84.208C87.0006 84.64 87.5846 84.856 88.2726 84.856C89.2966 84.856 90.0086 84.424 90.4086 83.56H94.7766C94.5526 84.44 94.1446 85.232 93.5526 85.936C92.9766 86.64 92.2486 87.192 91.3686 87.592C90.4886 87.992 89.5046 88.192 88.4166 88.192C87.1046 88.192 85.9366 87.912 84.9126 87.352C83.8886 86.792 83.0886 85.992 82.5126 84.952C81.9366 83.912 81.6486 82.696 81.6486 81.304C81.6486 79.912 81.9286 78.696 82.4886 77.656C83.0646 76.616 83.8646 75.816 84.8886 75.256C85.9126 74.696 87.0886 74.416 88.4166 74.416C89.7126 74.416 90.8646 74.688 91.8726 75.232C92.8806 75.776 93.6646 76.552 94.2246 77.56C94.8006 78.568 95.0886 79.744 95.0886 81.088ZM90.8886 80.008C90.8886 79.304 90.6486 78.744 90.1686 78.328C89.6886 77.912 89.0886 77.704 88.3686 77.704C87.6806 77.704 87.0966 77.904 86.6166 78.304C86.1526 78.704 85.8646 79.272 85.7526 80.008H90.8886Z" fill="black"/>
<g clip-path="url(#clip0_6441_353)">
<path d="M54.677 1.39126e-07C54.4071 -0.000118304 54.1426 0.0753921 53.9134 0.217969L53.919 0.213574C53.2144 0.629868 52.0401 1.80976 50.6407 3.51989L50.3482 3.87993C49.9769 4.34136 49.593 4.84044 49.1964 5.36643C48.0052 6.93729 46.7592 8.7543 45.5948 10.6275L45.4162 10.9369L45.2924 11.1394C44.3404 12.6511 43.2743 14.5427 42.2885 16.4807L42.0874 16.9167C41.4377 18.1753 40.7429 19.7575 40.134 21.3804L40.0241 21.7108C39.8542 22.1821 39.6981 22.636 39.5559 23.0724C39.4392 23.4451 39.3267 23.8191 39.2227 24.1904C38.9738 25.0666 38.7571 25.9414 38.5814 26.8119L38.5828 26.8163L38.5589 26.9302C38.35 27.9471 38.2058 28.9763 38.1271 30.0114L38.1217 30.1025L38.1118 30.2136C37.5872 29.3714 36.1823 28.5529 36.1837 28.5601C37.1906 30.0184 37.9543 31.467 38.0668 32.8874C37.5282 32.9984 36.7898 32.8381 35.9362 32.5231C36.825 33.3402 37.493 33.5652 37.7532 33.6257C36.9361 33.6763 36.0867 34.2388 35.2288 34.8844C36.4818 34.3723 37.4944 34.1712 38.22 34.3345C37.5029 36.119 36.326 39.6657 35.226 43.2477L34.7633 45C34.9219 44.9548 35.067 44.8712 35.1857 44.7567C35.3044 44.6421 35.3931 44.5001 35.444 44.3432L35.4454 44.3362C35.6519 43.6443 37.0148 39.1117 39.1525 33.153L39.3367 32.6411L39.3887 32.4991C39.6137 31.8746 39.8476 31.2371 40.0905 30.5864L40.2578 30.142L40.2622 30.1322L39.13 27.8947L40.2621 30.1294C40.4857 29.5345 40.7121 28.9326 40.947 28.3236L41.044 28.0691L41.1439 27.8118L41.2212 27.6163L41.1439 27.8132L41.044 28.0677L40.947 28.3222C40.7121 28.9312 40.4856 29.5331 40.2621 30.128L40.4604 30.5176L40.6362 30.4993L40.6544 30.4472C40.9413 29.6653 41.225 28.9026 41.5053 28.1591L41.5151 28.1324C41.6712 27.5699 41.3801 28.3349 41.0946 29.1028L40.6558 30.4458L40.6376 30.498L40.5124 30.8412C40.2916 31.4501 40.068 32.0689 39.8444 32.7032L39.8346 32.7313L39.739 32.9999C39.5885 33.4274 39.4577 33.8113 39.1596 34.6861C39.6532 34.9111 40.0483 35.5032 40.4239 36.1754C40.3886 35.4672 40.0753 34.8016 39.5519 34.3232L39.5505 34.3218C41.9807 34.4301 44.0747 33.8169 45.159 32.0393C45.258 31.8779 45.3463 31.7102 45.4234 31.5373C44.9326 32.1617 44.3208 32.4261 43.1734 32.36C44.8653 31.602 45.7118 30.8763 46.4628 29.6724C46.6189 29.4249 46.7947 29.1169 46.9565 28.8005L46.9888 28.7302C45.5093 30.2491 43.7978 30.6808 41.9922 30.3518H41.9878L41.9105 30.3391C43.5292 30.138 45.6795 28.9285 47.0703 27.4365C47.7116 26.7488 48.2924 25.9359 48.831 24.988C49.2575 24.226 49.6365 23.4383 49.966 22.6296C50.2794 21.8716 50.5809 21.0483 50.8702 20.1599C50.4032 20.402 49.8996 20.5659 49.3795 20.6451L49.3514 20.6495C49.3206 20.6565 49.2319 20.6706 49.1449 20.6846L49.0928 20.6917L49.0972 20.6902L49.1028 20.6888C49.1872 20.6762 49.2702 20.6649 49.3517 20.6493C49.4361 20.6338 49.5205 20.6198 49.6035 20.6001L49.3546 20.6451L49.1071 20.6887C50.6104 20.1078 51.5597 18.9884 52.2502 17.6186C51.7105 17.988 51.1075 18.255 50.4712 18.4062L50.4346 18.4132C50.3671 18.4287 50.2574 18.4498 50.1477 18.4667L50.114 18.4711L50.0338 18.4823L50.0352 18.4809L50.0521 18.4795L50.1126 18.4696C50.2448 18.45 50.3446 18.4301 50.443 18.4092L50.4065 18.4162L50.4332 18.4106L50.4037 18.4162L50.0394 18.4781C50.5174 18.2848 50.9691 18.032 51.3839 17.7257C51.6618 17.5086 51.918 17.2651 52.1489 16.9986L52.1545 16.9916C52.3088 16.8083 52.4498 16.6142 52.5764 16.4108L52.6959 16.2153L52.841 15.9296C53.0845 15.4486 53.3019 14.9547 53.4921 14.4502L53.5316 14.3335L53.5893 14.1689C53.6413 14.01 53.6863 13.8666 53.7201 13.7427C53.7614 13.5969 53.7947 13.449 53.8199 13.2997C53.7661 13.3429 53.709 13.382 53.6492 13.4165L53.6422 13.4193C53.1865 13.6907 52.4046 13.9383 51.7745 14.055L51.5889 14.0761L51.5875 14.0775L47.3361 14.5444L47.3136 14.5894L47.1686 14.8861L46.7284 15.8016C46.876 15.4909 47.0223 15.1842 47.1686 14.8861L47.3136 14.5894C47.3206 14.5725 47.3305 14.5571 47.3361 14.5402L47.1786 14.5571L47.0534 14.3096C47.0802 14.2055 46.8439 14.6752 46.6104 15.1463L46.3445 15.7412L45.9622 16.5358C45.6007 17.201 44.9144 18.6847 44.2549 20.1824L43.9146 21.0473C43.6938 21.4172 43.0103 23.026 42.3493 24.6461L41.8866 25.9273L42.0483 25.5223C43.1101 22.7897 43.7387 21.3145 44.3857 19.8489L43.9145 21.0471C44.92 18.6704 45.6077 17.1867 46.3193 15.7171L45.9621 16.5342L46.3444 15.7396C46.5652 15.2826 46.7888 14.8302 47.0153 14.3825L47.0532 14.3107C47.4119 13.6019 47.7738 12.9044 48.1389 12.2181C48.5285 11.4868 48.9265 10.7723 49.3259 10.0791C49.8884 9.09031 50.3061 8.40415 50.7365 7.7291L50.5862 7.98095L50.6609 7.86142C51.0814 7.19785 51.5047 6.55774 51.9309 5.94738C52.7999 4.68564 53.7597 3.48895 54.8027 2.36685L54.7844 2.38654L54.6761 2.50326C54.3766 2.83373 53.4681 3.89272 52.0983 5.9966C53.4188 5.93068 55.4454 5.66051 57.0993 5.37781C57.5901 2.62138 56.6169 1.36121 56.6169 1.36121C56.6169 1.36121 55.7838 0.0126564 54.6742 1.39126e-07H54.677ZM51.5873 14.076C52.8249 13.5065 53.3803 12.9903 53.9164 12.2464C54.0585 12.0398 54.2033 11.8259 54.3454 11.6037C54.7828 10.923 55.2103 10.1706 55.5928 9.42526C55.9438 8.74883 56.2592 8.05456 56.5379 7.34528C56.6763 7.00248 56.7956 6.65224 56.8951 6.29618L56.9134 6.22024C56.9907 5.9263 57.0526 5.64551 57.099 5.37785C55.4438 5.6591 53.4158 5.93055 52.0967 5.99524C51.7817 6.46075 51.3499 7.14705 50.9336 7.84459L50.7916 8.09912C50.4092 8.74604 49.9998 9.45483 49.5723 10.2311C49.0378 11.1466 48.2911 12.5602 47.5809 13.9931L47.3348 14.543L51.5873 14.076ZM58.3898 4.12207V4.24582H58.6823V5.06852H58.8172V4.24573H59.1111V4.12207H58.3898ZM59.2589 4.12207V5.07129H59.3827V4.31886L59.7047 4.9714H59.7905L60.1125 4.31886V5.07129H60.2363V4.12207H60.0731L59.7469 4.78446L59.4192 4.12207H59.2589ZM51.7434 14.062L51.5522 14.0915L51.5536 14.0901L51.7434 14.062ZM46.4359 16.4136L46.2376 16.8398L45.9887 17.3785C45.7666 17.7624 45.1871 19.0492 44.626 20.3444L44.2618 21.2881C44.0494 21.6523 43.418 23.1656 42.8076 24.6886L42.3885 25.8742C42.1115 26.5827 41.8307 27.3097 41.5461 28.055L41.5362 28.0818C43.2309 23.4788 44.7315 19.9475 46.3642 16.4893L45.9873 17.3767L46.2362 16.8381L46.4359 16.4136Z" fill="#D22128"/>
</g>
<defs>
<clipPath id="clip0_6441_353">
<rect width="45" height="45" fill="white" transform="translate(25)"/>
</clipPath>
</defs>
</svg>
