<svg width="232" height="69" viewBox="0 0 232 69" fill="none" xmlns="http://www.w3.org/2000/svg">
<path d="M31.7499 68.7546C28.8979 68.5453 26.0834 67.9788 23.3726 67.0684C23.7399 65.5647 24.3349 62.783 24.2318 61.6059C24.1029 59.9756 24.9578 59.0175 25.5013 56.921C25.8978 55.4497 26.1057 53.9339 26.1199 52.4102L26.6805 53.4842C26.7004 53.5239 26.7309 53.5574 26.7686 53.5808C26.8416 54.0104 27.05 54.1544 27.1982 54.5625C27.2562 54.7257 27.4345 54.7193 27.6386 54.6398C27.9414 54.8911 29.8059 55.2542 30.4955 55.3358C30.1389 57.8103 29.473 64.6282 29.473 64.6282L31.1807 64.7335C31.5781 66.1082 31.7499 68.7181 31.7499 68.7546Z" fill="#8F8F8F"/>
<path d="M44.9239 67.1713C43.0937 67.7684 41.216 68.2082 39.311 68.4859C39.412 67.4828 40.4151 60.2418 40.4259 60.1687C40.6924 60.1693 40.9587 60.1513 41.2228 60.115C41.2786 60.0227 40.7932 58.156 41.1798 55.9027C41.1906 55.8469 41.1992 55.7953 41.2099 55.7395C41.7125 56.472 42.5975 56.8672 43.1238 56.5128C43.721 56.1089 44.2322 54.5581 44.346 53.8342C44.3765 53.8144 44.4052 53.7922 44.432 53.7676C44.6274 56.1884 45.0549 58.9229 45.0957 59.3117C45.1451 59.8186 44.5243 61.7561 44.9239 67.1713Z" fill="#8F8F8F"/>
<path d="M26.2554 16.1945C26.2554 16.1945 26.5068 14.3773 25.5315 13.1873C24.5563 11.9972 22.7241 11.8984 22.7241 11.8984C22.7241 11.8984 22.4749 13.7157 23.4501 14.9057C24.4253 16.0957 26.2554 16.1945 26.2554 16.1945Z" fill="#8F8F8F"/>
<path d="M22.5027 24.9926C23.4306 24.563 23.8044 23.3988 23.8044 23.3988C23.8044 23.3988 22.6745 22.9305 21.7466 23.3601C20.8186 23.7897 20.4578 24.954 20.4578 24.954C20.4578 24.954 21.5769 25.4222 22.5027 24.9926Z" fill="#8F8F8F"/>
<path d="M26.4465 27.8283C25.4907 28.3438 25.1577 29.6026 25.1577 29.6026C25.1577 29.6026 26.3842 30.0322 27.3423 29.5124C28.3003 28.9925 28.6311 27.7381 28.6311 27.7381C28.6311 27.7381 27.4024 27.3106 26.4465 27.8283Z" fill="#8F8F8F"/>
<path d="M33.7691 12.32C34.0742 10.8163 32.998 9.33203 32.998 9.33203C32.998 9.33203 31.4299 10.2836 31.1249 11.7872C30.8199 13.2909 31.8982 14.7752 31.8982 14.7752C31.8982 14.7752 33.4663 13.8236 33.7691 12.32Z" fill="#8F8F8F"/>
<path d="M25.6581 27.1799C25.6581 27.1799 24.6142 26.1059 23.3619 26.1446C22.1096 26.1832 21.1279 27.311 21.1279 27.311C21.1279 27.311 22.174 28.385 23.4242 28.3485C24.6743 28.3119 25.6581 27.1799 25.6581 27.1799Z" fill="#8F8F8F"/>
<path d="M39.8845 10.8932C40.3958 10.1908 40.1939 9.1748 40.1939 9.1748C40.1939 9.1748 39.1607 9.29295 38.6494 9.99536C38.1382 10.6978 38.3401 11.7138 38.3401 11.7138C38.3401 11.7138 39.3733 11.5956 39.8845 10.8932Z" fill="#8F8F8F"/>
<path d="M44.142 18.3596C44.142 18.3596 45.5769 17.4553 45.8347 16.0612C46.0925 14.6671 45.0743 13.3096 45.0743 13.3096C45.0743 13.3096 43.6394 14.2075 43.3924 15.608C43.1454 17.0085 44.142 18.3596 44.142 18.3596Z" fill="#8F8F8F"/>
<path d="M43.4461 22.5853C43.4461 22.5853 45.3063 22.6669 46.4104 21.5714C47.5145 20.4759 47.4479 18.6157 47.4479 18.6157C47.4479 18.6157 45.5877 18.532 44.4836 19.6275C43.3795 20.723 43.4461 22.5853 43.4461 22.5853Z" fill="#8F8F8F"/>
<path d="M24.7495 24.4922C24.7495 24.4922 25.2457 25.9335 26.4142 26.4426C27.5828 26.9517 28.9747 26.3417 28.9747 26.3417C28.9747 26.3417 28.4785 24.9003 27.3121 24.3912C26.1457 23.8821 24.7495 24.4922 24.7495 24.4922Z" fill="#8F8F8F"/>
<path d="M37.1631 12.2038C37.5776 10.9515 36.8129 9.57031 36.8129 9.57031C36.8129 9.57031 35.3759 10.2147 34.9613 11.4735C34.5468 12.7322 35.3115 14.1048 35.3115 14.1048C35.3115 14.1048 36.7335 13.454 37.1631 12.2038Z" fill="#8F8F8F"/>
<path d="M43.2463 13.7388C43.8091 12.523 43.1948 11.043 43.1948 11.043C43.1948 11.043 41.6697 11.5349 41.109 12.7507C40.5484 13.9665 41.1606 15.4443 41.1606 15.4443C41.1606 15.4443 42.6835 14.9545 43.2463 13.7388Z" fill="#8F8F8F"/>
<path d="M32.6973 20.486C32.0679 21.1304 32.1259 22.2044 32.1259 22.2044C32.1259 22.2044 33.1999 22.2324 33.8336 21.5858C34.4673 20.9392 34.4028 19.8674 34.4028 19.8674C34.4028 19.8674 33.3267 19.8394 32.6973 20.486Z" fill="#8F8F8F"/>
<path d="M41.4592 25.294C41.4592 25.294 41.3518 26.8878 42.2733 27.8588C43.1948 28.8297 44.7908 28.8039 44.7908 28.8039C44.7908 28.8039 44.8982 27.2079 43.9788 26.2391C43.0594 25.2704 41.4592 25.294 41.4592 25.294Z" fill="#8F8F8F"/>
<path d="M43.0208 19.1848C42.8662 17.5222 41.2809 16.3086 41.2809 16.3086C41.2809 16.3086 39.9448 17.7907 40.0973 19.4533C40.2498 21.1159 41.8351 22.3274 41.8351 22.3274C41.8351 22.3274 43.1776 20.8453 43.0208 19.1848Z" fill="#8F8F8F"/>
<path d="M37.4272 13.548C36.51 14.622 36.7205 16.3126 36.7205 16.3126C36.7205 16.3126 38.4132 16.2395 39.3304 15.1591C40.2476 14.0786 40.0371 12.3945 40.0371 12.3945C40.0371 12.3945 38.3423 12.4654 37.4272 13.548Z" fill="#8F8F8F"/>
<path d="M46.55 23.6145C45.1044 23.1376 43.5127 24.0247 43.5127 24.0247C43.5127 24.0247 44.2667 25.6809 45.7123 26.1577C47.1579 26.6346 48.7496 25.7475 48.7496 25.7475C48.7496 25.7475 47.9957 24.0892 46.55 23.6145Z" fill="#8F8F8F"/>
<path d="M34.3041 0.245117C26.4171 0.24564 18.7711 2.96374 12.6535 7.94176C6.53589 12.9198 2.32037 19.8537 0.716697 27.576C-0.886975 35.2982 0.219148 43.3373 3.84883 50.3395C7.4785 57.3417 13.41 62.8794 20.6447 66.0202C20.5653 65.6572 20.4729 65.2018 20.3612 64.6326C19.9144 62.3385 20.1464 60.4418 20.0691 59.3377C19.9917 58.2336 18.5848 55.628 18.5332 53.0396C18.4902 50.9109 18.9478 49.8068 19.5557 48.677C19.4289 48.5373 19.2249 47.6287 19.0359 47.2507C18.6685 48.7092 18.1294 50.7778 18.0499 51.4351C17.9468 52.2943 17.3776 52.406 17.3776 52.406L16.9888 53.7657C16.9544 53.916 16.8083 53.9805 16.6279 53.9654C16.5248 54.4788 15.2317 54.8247 15.6613 53.5058C15.6785 53.4542 15.6935 53.4027 15.7107 53.3511C15.6863 53.2755 15.6811 53.195 15.6957 53.117C15.6957 53.117 15.5646 52.9881 15.9534 51.9785C16.3422 50.9689 17.3325 44.0866 17.6353 43.3026C17.9081 42.6023 17.8952 41.7302 18.1595 41.3693C18.312 41.1202 18.9327 40.8495 20.3719 40.6089C20.615 40.0568 20.7603 39.4666 20.8015 38.8647C20.881 35.8897 23.3212 35.6427 23.5016 35.5954C24.0709 35.4493 25.0804 36.01 25.2609 36.5105C25.306 36.6372 25.5272 37.7692 25.5766 38.0635C25.6195 38.2685 25.5802 38.4822 25.4671 38.6585C25.4284 38.7358 25.6669 39.5328 25.6153 39.5908C25.5637 39.6488 25.2974 39.6359 25.2716 39.681C25.2458 39.7261 25.2136 39.7948 25.1621 39.8958C25.1963 39.9697 25.235 40.0414 25.2781 40.1106C25.4637 40.4473 25.5598 40.8259 25.5573 41.2104H25.5788C25.6067 41.2208 25.634 41.233 25.6604 41.2469C25.7095 41.2703 25.7562 41.2984 25.8 41.3307C28.3003 41.4402 26.7602 50.6209 27.3423 51.5253C27.9244 52.4296 27.8256 52.5864 27.8256 52.5864C27.8526 52.6546 27.8644 52.728 27.86 52.8012L27.9395 52.9516L27.976 53.0182C28.0091 53.0336 28.0414 53.0508 28.0727 53.0697C28.1092 52.9795 28.1328 52.9215 28.1349 52.9108C28.1478 52.8463 29.5548 53.147 29.8534 53.0955C30.152 53.0439 30.6911 52.1246 32.2549 51.5596C32.2807 51.5596 32.8757 51.3448 33.1764 51.2482C33.1764 51.2353 33.2022 50.8186 33.2022 50.8186C32.918 50.8686 32.6272 50.8686 32.343 50.8186C32.1453 50.7498 31.9133 50.3353 31.9133 49.6715C31.9133 49.0078 32.1045 49.2419 32.1819 48.576C32.216 48.3799 32.2627 48.1862 32.3215 47.996C32.3383 47.7971 32.4066 47.606 32.5195 47.4415C32.6325 47.2769 32.7863 47.1445 32.9659 47.0573C33.5802 46.7652 34.9356 46.8726 35.3996 47.7877C35.595 48.1548 35.6637 48.5761 35.5951 48.9863C35.7214 48.9268 35.8593 48.8959 35.9989 48.8959C36.1385 48.8959 36.2765 48.9268 36.4028 48.9863C36.5474 49.1028 36.6455 49.2673 36.6794 49.4499C36.7133 49.6325 36.6807 49.8212 36.5875 49.9819C36.4943 50.1425 36.3467 50.2645 36.1714 50.3258C35.996 50.3871 35.8046 50.3836 35.6316 50.3159C35.4373 50.196 35.2907 50.0122 35.217 49.7961C35.1081 49.9395 34.9584 50.0466 34.7874 50.1033L34.7359 50.883C35.7025 50.8529 35.9452 51.7036 36.1106 52.3437C36.1235 52.3952 36.1342 52.4575 36.145 52.5306C36.3963 52.1718 37.9687 50.6166 37.9687 50.6166L38.1684 50.7563V49.9722C38.0261 49.9202 37.8894 49.854 37.7603 49.7746C37.161 49.3686 36.2954 48.3655 36.9634 47.023C37.2555 46.4301 38.8966 46.2325 39.6506 46.5225C39.8591 46.5891 40.0411 46.7203 40.17 46.8972C40.299 47.074 40.3684 47.2874 40.368 47.5063C40.4256 47.6449 40.4695 47.7888 40.4991 47.9359C40.5463 48.0648 41.0167 48.4171 41.0167 48.7951C41.0167 49.1732 41.2122 49.7746 41.1005 49.8584C40.7832 49.9475 40.4567 50.0001 40.1275 50.0152V51.0033H40.2005C40.2212 51.1283 40.2737 51.246 40.353 51.3448C40.4819 51.5059 41.3411 51.9205 41.7277 52.1761C42.5633 52.726 42.6364 54.6657 42.6364 54.6657C42.6364 54.6657 42.8812 54.1953 43.1175 53.8065C42.8639 53.3144 42.7057 52.7787 42.6514 52.2277C42.602 52.2599 42.2562 47.502 42.3743 46.6127C42.4924 45.7234 42.7352 43.41 42.9392 42.2737C43.1433 41.1374 43.1326 39.5757 43.3903 39.4361C43.4161 39.3867 44.2839 38.9227 45.2376 38.4373C45.1094 38.3183 45.0171 38.1657 44.9713 37.9969C44.9713 37.7821 44.7909 37.8165 44.6792 37.621C44.5675 37.4255 44.4987 37.3181 44.3612 36.6802C44.3113 36.4762 44.304 36.2641 44.3398 36.0572C44.2023 36.1539 44.0304 36.2377 43.9316 36.1389C43.7512 35.9584 44.1894 35.0648 44.5546 34.6159C44.9197 34.167 46.9174 33.6922 47.5468 33.9715C48.1762 34.2507 48.6208 35.1357 48.6208 35.357C48.6151 35.5093 48.5816 35.6592 48.522 35.7995C48.522 35.7995 48.5778 36.1861 48.5886 36.4074C48.6708 36.4105 48.751 36.4334 48.8224 36.4742C48.8938 36.515 48.9543 36.5724 48.9989 36.6415C49.2386 36.8814 49.4452 37.1523 49.6132 37.447C49.6433 37.447 52.9513 38.4888 52.9706 38.6735C53.3572 38.9141 54.2809 43.163 54.4291 45.6203C54.5623 47.8349 52.8267 51.3062 52.483 51.9635C52.4679 52.7088 51.467 62.3406 51.1942 64.1472C51.1813 64.2352 51.1684 64.3254 51.1555 64.42C57.7525 60.6926 62.93 54.886 65.8797 47.9065C68.8294 40.927 69.3854 33.1673 67.461 25.8385C65.5366 18.5097 61.24 12.0242 55.2418 7.39432C49.2436 2.7644 41.8813 0.250546 34.3041 0.245117ZM47.6112 30.0191C46.1398 31.9846 46.1076 30.6635 45.6651 31.1382C43.8887 33.0264 43.0445 34.6331 40.3874 35.7286C39.1625 36.2463 37.8759 36.6037 36.5596 36.7919C36.2401 35.9219 36.0807 35.0013 36.0891 34.0746C36.0655 33.0886 37.945 32.5345 37.945 32.5345L37.4574 31.5098C37.4574 31.5098 36.7142 31.6065 36.1128 31.6774C36.1128 29.7441 36.8689 27.6691 38.9288 25.8648C40.0372 24.8939 41.6225 24.2731 42.7223 23.9316C42.6922 23.8349 42.602 23.5148 42.5719 23.4182C41.7024 23.4636 40.8508 23.6827 40.0673 24.0626C40.254 23.304 40.3378 22.5237 40.3165 21.7427C40.0888 21.7083 39.6356 21.6589 39.6356 21.6589C39.6356 21.6589 39.6699 24.6662 37.3801 25.4266C36.3662 24.3977 36.044 22.8103 35.9431 21.9704L35.419 22.0026C35.3373 22.7458 35.5801 24.0175 35.898 24.9734C36.5875 27.0376 34.985 28.5498 34.4072 29.0546C33.8745 27.5811 33.2387 27.0269 32.6372 25.9743C32.2978 25.3772 32.1883 24.286 32.2871 23.1368C32.2141 23.1368 31.8124 22.9563 31.7394 22.952C31.554 23.5298 31.4435 24.129 31.4107 24.7349C30.0166 23.3365 29.7653 21.646 29.7481 20.3808C29.5913 20.3551 29.1918 20.3271 29.0328 20.2971C28.9834 21.1133 29.0328 22.4838 29.6257 23.5513C29.0758 23.2485 28.382 23.0917 27.4776 22.9435C27.4583 23.01 27.4497 23.4074 27.4325 23.4762C29.3078 24.1807 31.0198 25.1151 32.1754 27.7228C31.1293 27.7443 29.4775 27.2932 29.4775 27.2932L29.3013 28.0021C29.3013 28.0021 31.9241 28.7754 32.6093 30.3649C33.0089 31.2886 32.9186 32.3905 32.8649 33.0006C32.7812 33.9479 32.6222 35.5374 32.0401 36.7747C30.268 36.4396 26.6485 35.5739 26.4895 34.6266C26.1974 34.7255 24.7711 33.2669 24.2212 33.2412C22.7176 33.1638 20.5309 29.5229 18.9929 25.8003C18.4924 24.5931 18.2583 22.9349 18.2389 21.2057C18.7781 21.6804 19.633 22.2797 20.6447 22.3484C22.3739 22.4838 23.8947 21.0596 23.8947 21.0596C23.8947 21.0596 22.6059 19.4314 20.8875 19.2961C19.8349 19.2145 18.8619 19.7042 18.2604 20.1016C18.3014 19.0091 18.4249 17.9212 18.6299 16.8473C18.8312 17.2432 19.1261 17.5838 19.4891 17.8397C20.5352 18.5314 21.9916 18.1748 21.9916 18.1748C21.9916 18.1748 21.7531 16.6927 20.7027 16.001C20.1666 15.6782 19.5442 15.5282 18.9199 15.5714C19.2055 14.5682 19.5643 13.7391 19.9939 13.2085C20.3247 12.8026 22.7326 9.71797 23.7529 8.93823C23.7787 8.9189 26.9578 7.8277 27.5163 6.91478C28.3755 5.49278 37.7925 4.39083 38.5315 6.04482C39.0234 7.15107 47.5661 9.08645 46.4792 10.4139C46.0496 10.9509 48.0022 12.5899 49.0139 15.015C49.0289 15.0516 49.0418 15.0859 49.0547 15.1203C48.5864 15.1203 47.811 15.1783 47.2224 15.638C46.3246 16.3404 46.215 17.7022 46.215 17.7022C46.215 17.7022 47.564 17.917 48.4618 17.2189C48.8808 16.8573 49.1804 16.3773 49.3211 15.842C49.5896 16.5551 49.763 17.3004 49.8366 18.0588C49.4323 18.161 49.0619 18.3677 48.7626 18.6581C48.0279 19.4121 48.0967 20.673 48.0967 20.673C48.0967 20.673 49.1234 20.6988 49.8645 20.1467C49.9024 20.4122 49.9852 20.6694 50.1094 20.9071C50.2291 21.1517 50.3075 21.4145 50.3414 21.6847C49.8851 21.4696 49.3765 21.3906 48.8764 21.457C47.7723 21.6482 47.0463 22.7738 47.0463 22.7738C47.0463 22.7738 48.1096 23.5879 49.2115 23.3967C49.6422 23.3094 50.0423 23.1101 50.3715 22.8189C50.1996 25.0936 48.9215 28.2706 47.6112 30.0191Z" fill="#8F8F8F"/>
<path d="M28.6224 11.9697C28.6224 11.9697 27.1188 13.5314 27.2262 15.34C27.3336 17.1486 29.0134 18.5212 29.0134 18.5212C29.0134 18.5212 30.517 16.9596 30.4096 15.151C30.3022 13.3423 28.6224 11.9697 28.6224 11.9697Z" fill="#8F8F8F"/>
<path d="M36.422 17.9126C35.3007 19.0038 35.3479 20.8748 35.3479 20.8748C35.3479 20.8748 37.2167 20.9757 38.338 19.8845C39.4593 18.7933 39.412 16.9224 39.412 16.9224C39.412 16.9224 37.5432 16.8214 36.422 17.9126Z" fill="#8F8F8F"/>
<path d="M25.8407 22.9687C26.6742 22.8399 27.2369 22.0021 27.2369 22.0021C27.2369 22.0021 26.4465 21.3749 25.613 21.5038C24.7796 21.6327 24.2168 22.4704 24.2168 22.4704C24.2168 22.4704 25.0073 23.0976 25.8407 22.9687Z" fill="#8F8F8F"/>
<path d="M26.4227 17.6202C25.0307 16.7116 23.1018 17.1906 23.1018 17.1906C23.1018 17.1906 23.4326 19.1518 24.8202 20.0604C26.2079 20.969 28.1411 20.49 28.1411 20.49C28.1411 20.49 27.8125 18.5289 26.4227 17.6202Z" fill="#8F8F8F"/>
<path d="M32.143 16.2142C30.7446 17.3677 30.6265 19.5308 30.6265 19.5308C30.6265 19.5308 32.7745 19.8272 34.1729 18.6716C35.5713 17.5159 35.6894 15.3529 35.6894 15.3529C35.6894 15.3529 33.5414 15.0672 32.143 16.2142Z" fill="#8F8F8F"/>
<path d="M77.1939 50.0967L78.9253 54.7214H77.6708L77.3744 53.8751H75.7719L75.4755 54.7214H74.2361L75.9674 50.0967H77.1939ZM77.0973 53.0094L76.8825 52.3822C76.7627 52.0418 76.663 51.6946 76.5839 51.3425C76.498 51.6776 76.3927 52.0299 76.2681 52.3951L76.0533 53.0094H77.0973Z" fill="#8F8F8F"/>
<path d="M82.8648 51.4846H81.7155C81.6984 51.1066 81.4506 50.9175 80.9723 50.9175C80.5535 50.9175 80.3451 51.0529 80.3451 51.3235C80.3426 51.3805 80.3575 51.4369 80.3878 51.4853C80.4181 51.5336 80.4624 51.5716 80.5148 51.5942C80.8111 51.7039 81.1147 51.7929 81.4234 51.8605C81.794 51.9405 82.1513 52.0729 82.4845 52.2536C82.6655 52.3596 82.8141 52.5132 82.914 52.6976C83.014 52.882 83.0616 53.0902 83.0516 53.2997C83.0613 53.5309 83.0112 53.7606 82.9062 53.9668C82.8012 54.173 82.6449 54.3486 82.4523 54.4769C82.0409 54.7347 81.5604 54.8606 81.0754 54.8377C80.3859 54.8377 79.8618 54.6723 79.4988 54.3394C79.3382 54.1897 79.2115 54.0074 79.127 53.8048C79.0426 53.6021 79.0023 53.3838 79.009 53.1644H80.2227C80.2484 53.657 80.5477 53.9026 81.1205 53.9012C81.591 53.9012 81.8251 53.7444 81.8251 53.4286C81.828 53.3626 81.8122 53.2972 81.7796 53.2398C81.7469 53.1824 81.6986 53.1354 81.6404 53.1043C81.3468 52.9707 81.0411 52.8656 80.7274 52.7906C80.3021 52.6968 79.8983 52.5233 79.5374 52.2794C79.4161 52.169 79.3213 52.0327 79.2599 51.8806C79.1985 51.7285 79.1723 51.5645 79.183 51.4009C79.1779 51.1881 79.2275 50.9775 79.3272 50.7894C79.4269 50.6013 79.5732 50.442 79.7522 50.3268C80.1313 50.0858 80.5751 49.9666 81.0239 49.9853C81.6404 49.9853 82.1086 50.1335 82.433 50.4299C82.5743 50.5661 82.6857 50.7302 82.7601 50.9118C82.8344 51.0934 82.8701 51.2885 82.8648 51.4846Z" fill="#8F8F8F"/>
<path d="M87.2123 51.4844H86.0631C86.0459 51.1064 85.7968 50.9174 85.3199 50.9174C84.8903 50.9174 84.6927 51.0527 84.6927 51.3233C84.69 51.3801 84.7046 51.4363 84.7345 51.4846C84.7644 51.5329 84.8082 51.5711 84.8602 51.594C85.1573 51.7035 85.4616 51.7925 85.771 51.8603C86.141 51.9399 86.4977 52.0723 86.83 52.2534C87.013 52.3583 87.1637 52.5117 87.2652 52.6966C87.3668 52.8815 87.4154 53.0909 87.4056 53.3017C87.4152 53.5331 87.3649 53.763 87.2595 53.9693C87.1542 54.1755 86.9973 54.351 86.8042 54.4788C86.3935 54.7366 85.9138 54.8625 85.4294 54.8397C84.7399 54.8397 84.2158 54.6743 83.8528 54.3413C83.6922 54.1916 83.5655 54.0094 83.481 53.8067C83.3966 53.6041 83.3563 53.3858 83.363 53.1664H84.5767C84.6024 53.659 84.9017 53.9046 85.4745 53.9031C85.9428 53.9031 86.1791 53.7463 86.1791 53.4306C86.182 53.3646 86.1663 53.2991 86.1336 53.2417C86.1009 53.1843 86.0526 53.1373 85.9944 53.1062C85.7008 52.9726 85.3951 52.8676 85.0815 52.7926C84.656 52.6991 84.2521 52.5257 83.8914 52.2814C83.7701 52.171 83.6753 52.0347 83.6139 51.8826C83.5526 51.7305 83.5263 51.5665 83.537 51.4028C83.5321 51.1903 83.5816 50.98 83.6808 50.792C83.7801 50.604 83.9258 50.4446 84.1041 50.3288C84.4839 50.0877 84.9284 49.9686 85.3779 49.9873C85.9922 49.9873 86.4626 50.1355 86.7849 50.4319C86.9255 50.5679 87.0361 50.7318 87.1097 50.913C87.1833 51.0943 87.2183 51.2889 87.2123 51.4844Z" fill="#8F8F8F"/>
<path d="M90.1316 49.9812C90.4571 49.9682 90.7813 50.0299 91.0792 50.1617C91.3771 50.2936 91.6408 50.4919 91.85 50.7416C92.2253 51.2144 92.4202 51.8052 92.3999 52.4085C92.4166 52.747 92.3619 53.0852 92.2394 53.4013C92.1169 53.7173 91.9294 54.004 91.6889 54.2429C91.226 54.6523 90.6211 54.864 90.004 54.8326C89.3868 54.8013 88.8065 54.5295 88.3874 54.0754C88.0064 53.6054 87.8087 53.0131 87.8311 52.4085C87.8311 51.6373 88.0609 51.0359 88.5163 50.5998C88.9521 50.1888 89.5327 49.9664 90.1316 49.9812ZM90.1316 50.9757C89.9702 50.9699 89.8101 51.0065 89.6672 51.0819C89.5244 51.1573 89.4038 51.2688 89.3175 51.4054C89.1373 51.7024 89.0498 52.0464 89.0662 52.3935C89.0403 52.7879 89.1544 53.1789 89.3884 53.4975C89.4791 53.6074 89.5939 53.695 89.7239 53.7535C89.8539 53.812 89.9956 53.8398 90.138 53.8348C90.2882 53.8401 90.4372 53.8077 90.5716 53.7406C90.7059 53.6734 90.8213 53.5736 90.907 53.4503C91.1094 53.13 91.2062 52.7544 91.1841 52.3763C91.209 51.9912 91.0947 51.61 90.8619 51.3022C90.7724 51.1949 90.6594 51.1097 90.5316 51.0531C90.4039 50.9965 90.2648 50.97 90.1252 50.9757H90.1316Z" fill="#8F8F8F"/>
<path d="M97.2889 52.9191C97.2682 53.3787 97.0925 53.8178 96.7906 54.165C96.4082 54.6139 95.8605 54.8373 95.1516 54.8373C94.8162 54.855 94.4815 54.7927 94.1749 54.6557C93.8683 54.5186 93.5986 54.3107 93.3881 54.049C93.0209 53.58 92.8308 52.9967 92.8511 52.4014C92.833 51.7757 93.0525 51.1663 93.4654 50.6959C93.682 50.458 93.9481 50.2707 94.2451 50.1471C94.542 50.0235 94.8625 49.9666 95.1838 49.9806C95.7392 49.963 96.2792 50.1643 96.6875 50.5412C96.8549 50.6929 96.9908 50.876 97.0873 51.0802C97.1839 51.2844 97.2393 51.5056 97.2503 51.7312H96.0753C96.0455 51.5559 95.9716 51.3911 95.8605 51.2522C95.7725 51.1588 95.6653 51.0856 95.5462 51.0378C95.4272 50.9899 95.2991 50.9686 95.171 50.9751C95.0058 50.9682 94.8416 51.0041 94.6945 51.0794C94.5473 51.1547 94.4221 51.2667 94.3311 51.4047C94.1492 51.7059 94.061 52.0543 94.0776 52.4057C94.0505 52.7987 94.1656 53.1883 94.402 53.5034C94.4936 53.6139 94.6095 53.7018 94.7406 53.7603C94.8718 53.8188 95.0146 53.8463 95.1581 53.8406C95.3007 53.8486 95.4431 53.82 95.5716 53.7576C95.7002 53.6952 95.8107 53.6011 95.8927 53.484C95.9977 53.3117 96.0624 53.1178 96.0817 52.917L97.2889 52.9191Z" fill="#8F8F8F"/>
<path d="M99.078 50.0967V54.7214H97.8687V50.0967H99.078Z" fill="#8F8F8F"/>
<path d="M102.429 50.0967L104.16 54.7214H102.908L102.612 53.8751H101.009L100.713 54.7214H99.4712L101.203 50.0967H102.429ZM102.332 53.0094L102.118 52.3822C101.999 52.0414 101.901 51.6943 101.821 51.3425C101.735 51.6776 101.63 52.0299 101.503 52.3951L101.288 53.0094H102.332Z" fill="#8F8F8F"/>
<path d="M108.205 50.0967V51.1363H106.822V54.7214H105.621V51.1363H104.244V50.0967H108.205Z" fill="#8F8F8F"/>
<path d="M109.956 50.0967V54.7214H108.746V50.0967H109.956Z" fill="#8F8F8F"/>
<path d="M112.901 49.9812C113.226 49.9682 113.55 50.0299 113.848 50.1617C114.146 50.2936 114.41 50.4919 114.619 50.7416C114.994 51.2146 115.188 51.8054 115.167 52.4085C115.184 52.7469 115.13 53.085 115.007 53.4011C114.885 53.7171 114.698 54.0039 114.458 54.2429C113.995 54.6523 113.39 54.864 112.773 54.8326C112.156 54.8013 111.576 54.5295 111.156 54.0754C110.775 53.6054 110.578 53.0131 110.6 52.4085C110.6 51.6373 110.83 51.0359 111.285 50.5998C111.721 50.1888 112.302 49.9664 112.901 49.9812ZM112.901 50.9757C112.739 50.9697 112.579 51.0062 112.436 51.0816C112.293 51.157 112.173 51.2687 112.087 51.4054C111.906 51.7024 111.819 52.0464 111.835 52.3935C111.809 52.7879 111.923 53.1789 112.157 53.4975C112.248 53.6074 112.363 53.695 112.493 53.7535C112.623 53.812 112.765 53.8398 112.907 53.8348C113.057 53.8401 113.206 53.8077 113.341 53.7406C113.475 53.6734 113.59 53.5736 113.676 53.4503C113.878 53.13 113.975 52.7544 113.953 52.3763C113.978 51.9912 113.864 51.61 113.631 51.3022C113.541 51.1951 113.428 51.1099 113.301 51.0533C113.173 50.9967 113.034 50.9702 112.894 50.9757H112.901Z" fill="#8F8F8F"/>
<path d="M119.83 50.0967V54.7214H118.655L117.409 52.6228L117.145 52.1502C117.071 52.0237 117.006 51.8924 116.95 51.7571C116.98 52.0965 116.995 52.4874 116.995 52.9321V54.7214H115.82V50.0967H117.04L118.191 52.0535C118.406 52.4402 118.586 52.7645 118.707 53.0223C118.672 52.5691 118.655 52.1631 118.655 51.828V50.0967H119.83Z" fill="#8F8F8F"/>
<path d="M121.86 50.0968H123.837C124.41 50.0626 124.976 50.2468 125.42 50.6123C125.658 50.8375 125.844 51.1119 125.966 51.4165C126.087 51.7211 126.14 52.0485 126.122 52.3759C126.122 53.1549 125.903 53.7578 125.465 54.1845C125.097 54.5432 124.554 54.7215 123.83 54.7215H121.86V50.0968ZM123.068 51.0913V53.7313H123.729C123.882 53.744 124.035 53.7246 124.18 53.6743C124.325 53.624 124.457 53.5439 124.569 53.4392C124.801 53.1518 124.916 52.7874 124.891 52.4188C124.891 51.9162 124.743 51.5489 124.444 51.3212C124.208 51.1649 123.928 51.0895 123.645 51.1064L123.068 51.0913Z" fill="#8F8F8F"/>
<path d="M130.47 50.0967V51.0912H127.976V51.8602H130.257V52.8097H127.976V53.7312H130.528V54.7257H126.769V50.0967H130.47Z" fill="#8F8F8F"/>
<path d="M134.753 51.4846H133.61C133.593 51.1066 133.346 50.9176 132.869 50.9176C132.439 50.9176 132.242 51.0529 132.242 51.3235C132.239 51.3803 132.254 51.4365 132.284 51.4848C132.313 51.5331 132.357 51.5713 132.409 51.5942C132.706 51.7037 133.011 51.7927 133.32 51.8605C133.69 51.9401 134.047 52.0725 134.379 52.2536C134.561 52.3592 134.71 52.5126 134.81 52.697C134.91 52.8815 134.958 53.09 134.948 53.2997C134.958 53.5311 134.907 53.7611 134.802 53.9673C134.697 54.1735 134.54 54.3491 134.347 54.4769C133.936 54.7346 133.456 54.8605 132.972 54.8377C132.282 54.8377 131.756 54.6716 131.395 54.3394C131.235 54.1898 131.107 54.0076 131.023 53.805C130.938 53.6024 130.897 53.384 130.903 53.1644H132.106C132.132 53.657 132.431 53.9026 133.004 53.9012C133.473 53.9012 133.709 53.7444 133.709 53.4286C133.712 53.3626 133.696 53.2972 133.663 53.2398C133.631 53.1824 133.582 53.1354 133.524 53.1043C133.23 52.9704 132.923 52.8654 132.609 52.7906C132.184 52.6969 131.781 52.5235 131.421 52.2794C131.3 52.169 131.205 52.0327 131.144 51.8806C131.082 51.7285 131.056 51.5645 131.067 51.4009C131.062 51.1883 131.111 50.9781 131.211 50.7901C131.31 50.6021 131.455 50.4426 131.634 50.3268C132.014 50.0858 132.458 49.9666 132.908 49.9853C133.522 49.9853 133.982 50.1335 134.315 50.43C134.457 50.5653 134.57 50.7291 134.646 50.9108C134.721 51.0924 134.758 51.288 134.753 51.4846Z" fill="#8F8F8F"/>
<path d="M136.742 50.0969H139.021C139.392 50.0738 139.762 50.1478 140.095 50.3117C140.293 50.421 140.457 50.5835 140.567 50.7809C140.678 50.9783 140.731 51.2027 140.72 51.4287C140.724 51.6731 140.657 51.9134 140.527 52.1204C140.402 52.3145 140.219 52.4647 140.005 52.55C140.198 52.6035 140.364 52.7287 140.469 52.9001C140.543 53.0135 140.597 53.1394 140.628 53.2717C140.656 53.3984 140.688 53.6863 140.727 54.1309C140.731 54.3135 140.771 54.4936 140.843 54.6615L140.881 54.7066H139.648C139.574 54.3884 139.529 54.0642 139.513 53.7378C139.506 53.522 139.424 53.3153 139.281 53.1536C139.112 53.0281 138.902 52.9693 138.692 52.9882H137.949V54.7066H136.742V50.0969ZM137.949 51.0463V52.1375H138.808C139.297 52.1375 139.54 51.9521 139.539 51.5812C139.539 51.2246 139.292 51.0463 138.795 51.0463H137.949Z" fill="#8F8F8F"/>
<path d="M145.293 50.097V51.0916H142.801V51.8606H145.08V52.81H142.801V53.7315H145.351V54.7261H141.592V50.097H145.293ZM144.707 48.791L143.6 49.6825H142.808L143.465 48.791H144.707Z" fill="#8F8F8F"/>
<path d="M149.576 51.4845H148.432C148.414 51.1065 148.165 50.9174 147.688 50.9174C147.269 50.9174 147.061 51.0528 147.061 51.3234C147.058 51.3802 147.073 51.4364 147.103 51.4847C147.133 51.533 147.177 51.5711 147.229 51.5941C147.526 51.7036 147.83 51.7926 148.139 51.8604C148.51 51.9404 148.867 52.0728 149.201 52.2535C149.381 52.3603 149.529 52.5144 149.628 52.6991C149.727 52.8839 149.774 53.0923 149.763 53.3018C149.773 53.5329 149.723 53.7627 149.618 53.9688C149.513 54.175 149.357 54.3507 149.164 54.4789C148.753 54.7367 148.272 54.8626 147.787 54.8398C147.098 54.8398 146.573 54.6744 146.21 54.3414C146.05 54.1917 145.923 54.0094 145.839 53.8068C145.754 53.6042 145.714 53.3859 145.721 53.1664H146.928C146.954 53.659 147.253 53.9046 147.826 53.9032C148.296 53.9032 148.53 53.7464 148.53 53.4306C148.533 53.3647 148.517 53.2992 148.485 53.2418C148.452 53.1844 148.404 53.1374 148.346 53.1063C148.052 52.9727 147.746 52.8677 147.433 52.7927C147.007 52.6988 146.604 52.5254 146.243 52.2814C146.121 52.171 146.026 52.0347 145.965 51.8826C145.904 51.7305 145.877 51.5666 145.888 51.4029C145.883 51.1901 145.933 50.9795 146.032 50.7915C146.132 50.6034 146.278 50.4441 146.457 50.3289C146.836 50.0875 147.28 49.9682 147.729 49.9873C148.346 49.9873 148.803 50.1355 149.138 50.432C149.28 50.5673 149.393 50.7308 149.468 50.912C149.544 51.0933 149.581 51.2882 149.576 51.4845Z" fill="#8F8F8F"/>
<path d="M151.598 50.0967V54.7214H150.39V50.0967H151.598Z" fill="#8F8F8F"/>
<path d="M152.444 50.0967H154.42C155.098 50.0967 155.625 50.2685 156.003 50.6122C156.242 50.8373 156.429 51.1116 156.55 51.4162C156.672 51.7208 156.726 52.0482 156.708 52.3757C156.708 53.1555 156.493 53.7591 156.049 54.1844C155.683 54.5424 155.138 54.7214 154.414 54.7214H152.444V50.0967ZM153.651 51.0912V53.7312H154.317C154.47 53.7443 154.624 53.7251 154.768 53.6747C154.913 53.6244 155.046 53.5441 155.157 53.439C155.389 53.1517 155.504 52.7873 155.479 52.4187C155.479 51.9161 155.331 51.5488 155.035 51.3211C154.798 51.1647 154.517 51.0894 154.233 51.1063L153.651 51.0912Z" fill="#8F8F8F"/>
<path d="M161.056 50.0967V51.0912H158.562V51.8602H160.841V52.8097H158.562V53.7312H161.105V54.7257H157.352V50.0967H161.056Z" fill="#8F8F8F"/>
<path d="M165.809 50.0967V54.7214H164.632L163.386 52.6228L163.122 52.1502C163.05 52.0228 162.985 51.8915 162.927 51.7571C162.959 52.0965 162.974 52.4874 162.974 52.9321V54.7214H161.797V50.0967H163.019L164.168 52.0535C164.383 52.4402 164.563 52.7645 164.684 53.0223C164.649 52.5691 164.632 52.1631 164.632 51.828V50.0967H165.809Z" fill="#8F8F8F"/>
<path d="M170.292 50.0967V51.1363H168.909V54.7214H167.708V51.1363H166.331V50.0967H170.292Z" fill="#8F8F8F"/>
<path d="M174.373 51.4846H173.224C173.207 51.1066 172.959 50.9175 172.481 50.9175C172.051 50.9175 171.854 51.0529 171.854 51.3235C171.851 51.3805 171.866 51.4369 171.896 51.4853C171.927 51.5336 171.971 51.5716 172.023 51.5942C172.32 51.7039 172.623 51.7929 172.932 51.8605C173.303 51.9405 173.66 52.0729 173.993 52.2536C174.174 52.3596 174.323 52.5132 174.423 52.6976C174.523 52.882 174.57 53.0902 174.56 53.2997C174.57 53.5309 174.52 53.7606 174.415 53.9668C174.31 54.173 174.153 54.3486 173.961 54.4769C173.549 54.7347 173.069 54.8606 172.584 54.8377C171.894 54.8377 171.37 54.6723 171.007 54.3394C170.847 54.1897 170.72 54.0074 170.636 53.8048C170.551 53.6021 170.511 53.3838 170.518 53.1644H171.731C171.757 53.657 172.056 53.9026 172.629 53.9012C173.1 53.9012 173.334 53.7444 173.334 53.4286C173.337 53.3626 173.321 53.2972 173.288 53.2398C173.255 53.1824 173.207 53.1354 173.149 53.1043C172.855 52.9707 172.55 52.8656 172.236 52.7906C171.811 52.6968 171.407 52.5233 171.046 52.2794C170.925 52.169 170.83 52.0327 170.768 51.8806C170.707 51.7285 170.681 51.5645 170.692 51.4009C170.686 51.1881 170.736 50.9775 170.836 50.7894C170.935 50.6013 171.082 50.442 171.261 50.3268C171.64 50.0858 172.084 49.9666 172.532 49.9853C173.149 49.9853 173.606 50.1335 173.942 50.4299C174.083 50.5661 174.194 50.7302 174.269 50.9118C174.343 51.0934 174.379 51.2885 174.373 51.4846Z" fill="#8F8F8F"/>
<path d="M176.375 50.0967H178.351C179.029 50.0967 179.556 50.2685 179.935 50.6122C180.174 50.8369 180.361 51.1112 180.482 51.4159C180.604 51.7206 180.658 52.0482 180.639 52.3757C180.639 53.1548 180.419 53.7577 179.98 54.1844C179.614 54.5424 179.07 54.7214 178.345 54.7214H176.375V50.0967ZM177.585 51.0912V53.7312H178.248C178.401 53.7443 178.555 53.7251 178.699 53.6747C178.844 53.6244 178.977 53.5441 179.088 53.439C179.321 53.152 179.437 52.7876 179.413 52.4187C179.413 51.9161 179.262 51.5488 178.966 51.3211C178.729 51.1644 178.448 51.089 178.165 51.1063L177.585 51.0912Z" fill="#8F8F8F"/>
<path d="M185.238 50.0967V52.8483C185.238 53.4627 185.111 53.9223 184.858 54.2295C184.521 54.6355 183.979 54.8374 183.23 54.8374C182.432 54.8374 181.866 54.609 181.531 54.1522C181.316 53.8643 181.215 53.424 181.215 52.8354V50.0967H182.422V52.9256C182.399 53.1755 182.469 53.425 182.62 53.6259C182.706 53.7056 182.807 53.7661 182.919 53.8031C183.03 53.8402 183.148 53.853 183.264 53.8407C183.373 53.8504 183.482 53.8362 183.584 53.7991C183.687 53.762 183.78 53.7029 183.857 53.6259C184.001 53.4223 184.068 53.1741 184.046 52.9256V50.0967H185.238Z" fill="#8F8F8F"/>
<path d="M190.98 54.0433L191.588 54.7092L190.999 55.2354L190.374 54.5524L190.355 54.533L190.335 54.5459C190.006 54.7446 189.626 54.8431 189.242 54.8295C188.92 54.8415 188.6 54.7789 188.306 54.6467C188.013 54.5144 187.754 54.3159 187.549 54.0669C187.177 53.5954 186.985 53.0067 187.008 52.4065C186.994 52.0669 187.052 51.7281 187.179 51.4129C187.306 51.0976 187.499 50.8131 187.745 50.5785C187.952 50.3792 188.197 50.223 188.465 50.119C188.733 50.015 189.019 49.9653 189.306 49.9727C189.628 49.9625 189.948 50.0263 190.242 50.1593C190.535 50.2922 190.794 50.4908 190.999 50.7396C191.375 51.1975 191.572 51.7757 191.555 52.3678C191.551 53.0924 191.359 53.6509 190.98 54.0433ZM190.185 53.1841C190.293 52.9401 190.344 52.6751 190.335 52.4086C190.361 52.0168 190.248 51.6285 190.017 51.311C189.93 51.2033 189.818 51.1175 189.691 51.0605C189.564 51.0034 189.426 50.9767 189.287 50.9823C189.137 50.9769 188.988 51.0088 188.854 51.0752C188.719 51.1415 188.603 51.2403 188.516 51.3625C188.313 51.6722 188.214 52.0388 188.235 52.4086C188.212 52.8001 188.324 53.1874 188.552 53.5063C188.638 53.6157 188.747 53.7037 188.873 53.7633C188.998 53.823 189.135 53.8526 189.274 53.85C189.384 53.851 189.494 53.8336 189.599 53.7984L189.695 53.7662L189.152 53.2034L189.727 52.675L190.185 53.1841Z" fill="#8F8F8F"/>
<path d="M196.161 50.0967V52.8483C196.161 53.4627 196.034 53.9223 195.779 54.2295C195.443 54.6355 194.9 54.8374 194.152 54.8374C193.355 54.8374 192.788 54.609 192.453 54.1522C192.239 53.8643 192.135 53.424 192.135 52.8354V50.0967H193.345V52.9256C193.322 53.1751 193.392 53.4242 193.54 53.6259C193.626 53.7052 193.728 53.7653 193.84 53.8023C193.951 53.8394 194.068 53.8524 194.185 53.8407C194.293 53.8504 194.403 53.8362 194.505 53.7991C194.607 53.762 194.7 53.7029 194.778 53.6259C194.919 53.4212 194.985 53.1737 194.964 52.9256V50.0967H196.161Z" fill="#8F8F8F"/>
<path d="M199.448 50.0967L201.179 54.7214H199.927L199.63 53.8751H198.028L197.731 54.7214H196.49L198.221 50.0967H199.448ZM199.351 53.0094L199.136 52.3822C199.018 52.0414 198.919 51.6943 198.84 51.3425C198.754 51.6776 198.646 52.0299 198.522 52.3951L198.307 53.0094H199.351Z" fill="#8F8F8F"/>
<path d="M201.567 50.0971H203.851C204.221 50.0733 204.592 50.1474 204.925 50.3119C205.123 50.4207 205.288 50.5831 205.398 50.7806C205.509 50.978 205.563 51.2027 205.552 51.4289C205.556 51.6733 205.489 51.9136 205.359 52.1206C205.234 52.3154 205.05 52.4657 204.835 52.5502C205.029 52.6036 205.195 52.7288 205.301 52.9003C205.375 53.0139 205.428 53.1397 205.457 53.2719C205.506 53.5563 205.54 53.8431 205.558 54.1311C205.563 54.3137 205.603 54.4938 205.674 54.6617L205.713 54.7068H204.474C204.4 54.3886 204.354 54.0644 204.338 53.7381C204.332 53.5222 204.249 53.3155 204.106 53.1538C203.937 53.0284 203.728 52.9695 203.518 52.9884H202.777V54.7068H201.57L201.567 50.0971ZM202.777 51.0466V52.1378H203.636C204.121 52.1378 204.366 51.953 204.366 51.5814C204.366 51.2098 204.117 51.0466 203.623 51.0466H202.777Z" fill="#8F8F8F"/>
<path d="M210.061 50.0967V51.1363H208.678V54.7214H207.477V51.1363H206.102V50.0967H210.061Z" fill="#8F8F8F"/>
<path d="M211.811 50.0967V54.7214H210.604V50.0967H211.811Z" fill="#8F8F8F"/>
<path d="M216.359 50.0967V51.0912H213.865V51.8602H216.146V52.8097H213.865V53.7312H216.417V54.7257H212.658V50.0967H216.359Z" fill="#8F8F8F"/>
<path d="M217.089 50.0971H219.368C219.739 50.0733 220.109 50.1474 220.442 50.3119C220.641 50.4207 220.805 50.5831 220.916 50.7806C221.027 50.978 221.08 51.2027 221.07 51.4289C221.074 51.6733 221.006 51.9136 220.876 52.1206C220.751 52.3149 220.567 52.4651 220.352 52.5502C220.546 52.6036 220.713 52.7288 220.818 52.9003C220.892 53.0139 220.945 53.1397 220.975 53.2719C221.003 53.3987 221.037 53.6865 221.076 54.1311C221.081 54.3137 221.12 54.4938 221.192 54.6617L221.231 54.7068H219.998C219.924 54.3886 219.878 54.0644 219.862 53.7381C219.856 53.5217 219.773 53.3147 219.628 53.1538C219.46 53.0278 219.251 52.9688 219.042 52.9884H218.299V54.7068H217.092L217.089 50.0971ZM218.297 51.0466V52.1378H219.156C219.641 52.1378 219.886 51.953 219.886 51.5814C219.886 51.2098 219.637 51.0466 219.143 51.0466H218.297Z" fill="#8F8F8F"/>
<path d="M223.127 50.0967H225.104C225.78 50.0967 226.307 50.2685 226.687 50.6122C226.926 50.8369 227.113 51.1112 227.234 51.4159C227.356 51.7206 227.41 52.0482 227.391 52.3757C227.391 53.1548 227.171 53.7577 226.732 54.1844C226.367 54.5424 225.822 54.7214 225.097 54.7214H223.127V50.0967ZM224.337 51.0912V53.7312H225.001C225.153 53.7443 225.307 53.7251 225.452 53.6747C225.596 53.6244 225.729 53.5441 225.84 53.439C226.073 53.152 226.189 52.7876 226.165 52.4187C226.165 51.9161 226.014 51.5488 225.718 51.3211C225.481 51.1644 225.2 51.089 224.917 51.1063L224.337 51.0912Z" fill="#8F8F8F"/>
<path d="M231.99 50.0967V52.8483C231.99 53.4627 231.864 53.9223 231.61 54.2295C231.273 54.6355 230.732 54.8374 229.982 54.8374C229.184 54.8374 228.618 54.609 228.283 54.1522C228.068 53.8643 227.967 53.424 227.967 52.8354V50.0967H229.174V52.9256C229.151 53.1755 229.222 53.425 229.372 53.6259C229.458 53.7056 229.56 53.7661 229.671 53.8031C229.782 53.8402 229.9 53.853 230.016 53.8407C230.125 53.8504 230.234 53.8362 230.337 53.7991C230.439 53.762 230.532 53.7029 230.609 53.6259C230.753 53.4223 230.82 53.1741 230.798 52.9256V50.0967H231.99Z" fill="#8F8F8F"/>
<path d="M111.883 60.921C111.862 61.3802 111.687 61.8189 111.386 62.1668C111.002 62.6158 110.456 62.8392 109.745 62.8392C109.41 62.8568 109.075 62.7946 108.768 62.6575C108.462 62.5205 108.192 62.3125 107.982 62.0508C107.615 61.5814 107.425 60.9984 107.445 60.4033C107.427 59.7777 107.647 59.1686 108.059 58.6977C108.276 58.4601 108.542 58.273 108.839 58.1494C109.136 58.0258 109.456 57.9688 109.777 57.9824C110.333 57.9653 110.873 58.1666 111.281 58.5431C111.617 58.8505 111.819 59.2781 111.842 59.7331H110.667C110.638 59.5575 110.564 59.3924 110.452 59.2541C110.364 59.1606 110.256 59.0874 110.137 59.0396C110.017 58.9918 109.889 58.9704 109.76 58.977C109.595 58.9703 109.431 59.0063 109.284 59.0815C109.137 59.1568 109.012 59.2688 108.92 59.4066C108.74 59.7084 108.653 60.0565 108.669 60.4076C108.643 60.8008 108.757 61.1906 108.991 61.5074C109.084 61.617 109.2 61.7042 109.331 61.7622C109.462 61.8203 109.604 61.8477 109.747 61.8425C109.89 61.8504 110.033 61.8218 110.162 61.7595C110.291 61.6971 110.402 61.6029 110.484 61.4859C110.589 61.3138 110.653 61.1197 110.671 60.9188L111.883 60.921Z" fill="#8F8F8F"/>
<path d="M114.971 58.0986L116.69 62.7234H115.438L115.141 61.877H113.539L113.242 62.7234H112.001L113.732 58.0986H114.971ZM114.875 61.0114L114.66 60.3842C114.542 60.0434 114.443 59.6963 114.364 59.3445C114.278 59.6796 114.172 60.0319 114.048 60.397L113.833 61.0114H114.875Z" fill="#8F8F8F"/>
<path d="M117.089 58.0979H119.368C119.739 58.0748 120.109 58.1488 120.442 58.3127C120.641 58.4219 120.804 58.5845 120.915 58.7819C121.025 58.9793 121.078 59.2037 121.068 59.4297C121.072 59.6741 121.005 59.9145 120.874 60.1213C120.749 60.3155 120.567 60.4657 120.352 60.5509C120.546 60.6045 120.712 60.7297 120.816 60.9011C120.891 61.0145 120.945 61.1404 120.975 61.2727C121.003 61.3994 121.035 61.6873 121.074 62.1319C121.079 62.3145 121.118 62.4945 121.19 62.6625L121.229 62.7076H119.996C119.922 62.3894 119.876 62.0651 119.86 61.7388C119.854 61.523 119.771 61.3163 119.628 61.1545C119.459 61.0291 119.25 60.9703 119.04 60.9891H118.297V62.7076H117.089V58.0979ZM118.297 59.0473V60.1385H119.156C119.643 60.1385 119.886 59.9538 119.886 59.5822C119.886 59.2106 119.639 59.0473 119.143 59.0473H118.297Z" fill="#8F8F8F"/>
<path d="M121.927 58.098H124.208C124.579 58.0745 124.949 58.1486 125.282 58.3128C125.48 58.422 125.644 58.5844 125.755 58.7818C125.866 58.9792 125.919 59.2036 125.909 59.4298C125.913 59.6745 125.845 59.9149 125.714 60.1215C125.589 60.3156 125.406 60.4658 125.192 60.5511C125.385 60.6046 125.551 60.7298 125.656 60.9012C125.73 61.0146 125.784 61.1405 125.815 61.2728C125.843 61.3995 125.877 61.6874 125.916 62.132C125.921 62.3146 125.96 62.4946 126.032 62.6626L126.07 62.7077H124.835C124.761 62.3895 124.716 62.0653 124.7 61.7389C124.693 61.5231 124.611 61.3164 124.468 61.1547C124.299 61.0292 124.089 60.9704 123.879 60.9893H123.138V62.7077H121.929L121.927 58.098ZM123.136 59.0474V60.1386H123.995C124.483 60.1386 124.726 59.9539 124.726 59.5823C124.726 59.2107 124.479 59.0474 123.982 59.0474H123.136Z" fill="#8F8F8F"/>
<path d="M130.48 58.0986V59.1018H127.986V59.8708H130.266V60.8202H127.986V61.7374H130.538V62.732H126.779V58.0986H130.48Z" fill="#8F8F8F"/>
<path d="M134.639 58.0986V59.1018H132.431V60.0061H134.343V60.9491H132.431V62.732H131.221V58.0986H134.639Z" fill="#8F8F8F"/>
<path d="M137.281 57.9822C137.607 57.9691 137.931 58.0309 138.229 58.1627C138.526 58.2945 138.79 58.4929 138.999 58.7426C139.375 59.2153 139.57 59.8062 139.549 60.4095C139.566 60.748 139.511 61.0862 139.389 61.4022C139.266 61.7183 139.079 62.005 138.838 62.2439C138.375 62.6532 137.771 62.8649 137.153 62.8336C136.536 62.8023 135.956 62.5304 135.537 62.0763C135.156 61.6063 134.958 61.0141 134.98 60.4095C134.98 59.6383 135.21 59.0369 135.666 58.6008C136.102 58.1897 136.682 57.9674 137.281 57.9822ZM137.281 58.9767C137.12 58.9709 136.959 59.0075 136.817 59.0829C136.674 59.1583 136.553 59.2698 136.467 59.4063C136.287 59.7034 136.199 60.0474 136.216 60.3944C136.19 60.7895 136.304 61.181 136.538 61.5007C136.629 61.6098 136.744 61.6967 136.874 61.7548C137.004 61.8128 137.145 61.8405 137.287 61.8358C137.438 61.8411 137.587 61.8087 137.721 61.7415C137.855 61.6744 137.971 61.5746 138.056 61.4513C138.259 61.131 138.356 60.7554 138.334 60.3772C138.358 59.9922 138.244 59.611 138.011 59.3032C137.922 59.1959 137.809 59.1107 137.681 59.054C137.553 58.9974 137.414 58.971 137.275 58.9767H137.281Z" fill="#8F8F8F"/>
<path d="M144.155 58.0986V60.8503C144.155 61.4646 144.026 61.9243 143.772 62.2315C143.437 62.6367 142.894 62.8394 142.144 62.8394C141.347 62.8394 140.782 62.6117 140.445 62.1541C140.23 61.8663 140.129 61.4259 140.129 60.8374V58.0986H141.343V60.9276C141.321 61.1773 141.391 61.4265 141.54 61.6279C141.626 61.7074 141.728 61.7676 141.839 61.8047C141.951 61.8417 142.068 61.8547 142.185 61.8427C142.294 61.8527 142.403 61.8386 142.506 61.8015C142.609 61.7644 142.702 61.7051 142.78 61.6279C142.921 61.4232 142.987 61.1756 142.967 60.9276V58.0986H144.155Z" fill="#8F8F8F"/>
<path d="M144.922 58.098H147.203C147.573 58.0745 147.944 58.1486 148.277 58.3128C148.475 58.422 148.639 58.5844 148.75 58.7818C148.861 58.9792 148.914 59.2036 148.904 59.4298C148.909 59.6746 148.841 59.9153 148.709 60.1215C148.584 60.3156 148.401 60.4658 148.187 60.5511C148.38 60.6046 148.546 60.7298 148.651 60.9012C148.725 61.0146 148.779 61.1405 148.81 61.2728C148.838 61.3995 148.872 61.6874 148.911 62.132C148.916 62.3146 148.955 62.4946 149.027 62.6626L149.065 62.7077H147.83C147.756 62.3895 147.711 62.0653 147.695 61.7389C147.688 61.5231 147.606 61.3164 147.463 61.1547C147.293 61.0292 147.084 60.9704 146.874 60.9893H146.133V62.7077H144.924L144.922 58.098ZM146.131 59.0474V60.1386H146.99C147.476 60.1386 147.718 59.9539 147.718 59.5823C147.718 59.2107 147.471 59.0474 146.977 59.0474H146.131Z" fill="#8F8F8F"/>
<path d="M151.181 60.6562V61.4875H149.585V60.6562H151.181Z" fill="#8F8F8F"/>
<path d="M151.847 58.0987H153.823C154.13 58.0705 154.439 58.1099 154.729 58.2144C155.019 58.3188 155.282 58.4856 155.5 58.703C155.718 58.9204 155.886 59.1831 155.992 59.4725C156.097 59.7619 156.138 60.0709 156.111 60.3778C156.111 61.1575 155.896 61.7611 155.451 62.1864C155.084 62.5451 154.541 62.7234 153.817 62.7234H151.847V58.0987ZM153.054 59.0933V61.7289H153.72C153.873 61.7418 154.026 61.7224 154.171 61.6721C154.316 61.6217 154.448 61.5416 154.56 61.4368C154.792 61.1494 154.907 60.785 154.882 60.4164C154.882 59.9138 154.734 59.5465 154.437 59.3188C154.202 59.159 153.921 59.0798 153.636 59.0933H153.054Z" fill="#8F8F8F"/>
<path d="M160.46 58.0986V59.1018H157.969V59.8708H160.246V60.8202H157.964V61.7374H160.514V62.732H156.755V58.0986H160.46Z" fill="#8F8F8F"/>
<path d="M162.609 60.6562V61.4875H161.013V60.6562H162.609Z" fill="#8F8F8F"/>
<path d="M166.651 61.6794V62.7191H163.272V58.0986H164.482V61.6794H166.651Z" fill="#8F8F8F"/>
<path d="M168.112 58.0986V59.2221L167.682 59.57H167.283V58.0986H168.112Z" fill="#8F8F8F"/>
<path d="M172.968 58.0986V62.7234H171.761V60.8202H170.191V62.732H168.984V58.0986H170.191V59.772H171.761V58.0986H172.968Z" fill="#8F8F8F"/>
<path d="M175.914 57.982C176.239 57.9688 176.563 58.0305 176.861 58.1623C177.159 58.2942 177.423 58.4926 177.632 58.7424C178.007 59.2152 178.202 59.806 178.182 60.4093C178.198 60.7478 178.144 61.086 178.021 61.4021C177.899 61.7181 177.711 62.0048 177.471 62.2437C177.008 62.6531 176.403 62.8648 175.786 62.8334C175.169 62.8021 174.588 62.5303 174.169 62.0762C173.789 61.606 173.592 61.0137 173.615 60.4093C173.615 59.6381 173.843 59.0367 174.298 58.6006C174.734 58.19 175.315 57.9677 175.914 57.982ZM177.149 57.6834H176.309L175.879 57.2066L175.45 57.6834H174.635L175.404 56.792H176.367L177.149 57.6834ZM175.907 58.9723C175.746 58.9666 175.586 59.0033 175.443 59.0787C175.3 59.1541 175.179 59.2655 175.093 59.4019C174.913 59.6989 174.825 60.0429 174.842 60.39C174.816 60.7851 174.93 61.1766 175.164 61.4962C175.255 61.6052 175.37 61.692 175.5 61.7501C175.63 61.8081 175.771 61.8359 175.914 61.8313C176.064 61.8368 176.213 61.8045 176.347 61.7373C176.482 61.6702 176.597 61.5702 176.683 61.4468C176.885 61.1265 176.982 60.7509 176.96 60.3728C176.984 59.9877 176.87 59.6065 176.637 59.2988C176.548 59.1929 176.436 59.1088 176.31 59.0529C176.183 58.9971 176.045 58.971 175.907 58.9766V58.9723Z" fill="#8F8F8F"/>
<path d="M178.833 58.0986H180.74C181.35 58.0986 181.793 58.191 182.063 58.3757C182.247 58.5158 182.398 58.6936 182.507 58.897C182.616 59.1005 182.679 59.3249 182.694 59.5552C182.709 59.7855 182.674 60.0162 182.592 60.2319C182.51 60.4475 182.382 60.643 182.218 60.8052C181.872 61.0777 181.437 61.211 180.998 61.1789H180.042V62.7234H178.833V58.0986ZM180.042 59.0932V60.2295H180.837C181.292 60.2295 181.52 60.0405 181.52 59.6603C181.52 59.2801 181.277 59.1039 180.792 59.0996L180.042 59.0932Z" fill="#8F8F8F"/>
<path d="M184.499 58.0986V62.7234H183.29V58.0986H184.499Z" fill="#8F8F8F"/>
<path d="M188.986 58.0986V59.1383H187.605V62.7234H186.404V59.1383H185.028V58.0986H188.986Z" fill="#8F8F8F"/>
<path d="M192.037 58.0986L193.768 62.7234H192.514L192.217 61.877H190.615L190.318 62.7234H189.079L190.81 58.0986H192.037ZM191.94 61.0114L191.725 60.3842C191.605 60.0437 191.506 59.6966 191.427 59.3445C191.341 59.6796 191.235 60.0319 191.111 60.397L190.896 61.0114H191.94Z" fill="#8F8F8F"/>
<path d="M197.546 61.6794V62.7191H194.167V58.0986H195.375V61.6794H197.546Z" fill="#8F8F8F"/>
<path d="M198.56 61.7482C198.626 61.7467 198.692 61.7585 198.753 61.7829C198.814 61.8072 198.87 61.8436 198.917 61.8899C198.964 61.9362 199.001 61.9914 199.026 62.0523C199.051 62.1132 199.064 62.1785 199.063 62.2444C199.065 62.3114 199.053 62.3781 199.028 62.4405C199.003 62.5028 198.966 62.5596 198.919 62.6074C198.872 62.6544 198.817 62.6917 198.756 62.7172C198.694 62.7426 198.629 62.7558 198.562 62.7558C198.496 62.7558 198.431 62.7426 198.369 62.7172C198.308 62.6917 198.253 62.6544 198.206 62.6074C198.157 62.5605 198.119 62.5041 198.093 62.4416C198.067 62.3791 198.054 62.312 198.056 62.2444C198.055 62.1784 198.068 62.113 198.093 62.0523C198.119 61.9916 198.158 61.9371 198.206 61.8921C198.252 61.8454 198.307 61.8086 198.368 61.7839C198.429 61.7592 198.495 61.747 198.56 61.7482Z" fill="#8F8F8F"/>
<path d="M101.86 43.1738H95.0053V33.1103H85.3391V26.5158H95.0053V19.133C95.0053 15.2901 92.6683 12.9531 88.776 12.9531C84.9332 12.9531 82.5982 15.2901 82.5982 19.133V43.1738H75.7417V19.2876C75.7417 15.6016 77.0305 12.2786 79.3762 9.94151C81.7648 7.54859 85.0878 6.25977 88.7739 6.25977C92.5136 6.25977 95.8366 7.54859 98.2252 9.9458C100.56 12.2743 101.86 15.6016 101.86 19.2876V43.1738Z" fill="#8F8F8F"/>
<path d="M133.43 43.1742H126.575V33.9827C126.575 30.8165 125.121 29.3623 121.901 29.3623H117.955V22.974H122.318C123.201 22.974 127.666 22.7163 127.666 18.2483C127.666 17.054 127.666 13.5226 122.161 13.5226H115.255V43.1656H108.349V7.13867H122.161C129.679 7.13867 134.519 11.1362 134.519 17.8789C134.519 21.9795 132.598 24.628 129.484 26.0822C132.027 27.5365 133.43 29.9766 133.43 33.8152V43.1742Z" fill="#8F8F8F"/>
<path d="M173.203 43.1736H156.951V36.7295C162.559 36.0035 166.297 31.1747 166.297 24.6833C166.297 18.0888 161.52 12.6371 155.602 12.6371C149.63 12.6371 144.862 18.0888 144.862 24.6833C144.862 30.758 148.964 35.9004 154.208 36.678V43.0641C144.342 42.1834 137.956 34.3946 137.956 24.6833C137.956 14.4028 145.381 6.25098 155.61 6.25098C165.788 6.25098 173.108 14.2997 173.108 24.5802C173.108 29.5207 170.928 34.1862 167.553 37.0388H173.211L173.203 43.1736Z" fill="#8F8F8F"/>
<path d="M176.526 25.1623C176.526 15.4961 183.588 7.14453 194.543 7.14453H199.321V13.6273H194.543C187.691 13.6273 183.374 18.8728 183.374 25.1558C183.374 31.4389 187.685 36.6822 194.543 36.6822H199.321V43.1736H194.543C183.588 43.1736 176.526 34.8134 176.526 25.1623Z" fill="#8F8F8F"/>
<path d="M211.154 7.13867V43.1742H204.255V7.13867H211.154ZM230.832 43.1742H223.978V27.9553H213.861V21.5735H223.984V7.13867H230.839L230.832 43.1742Z" fill="#8F8F8F"/>
</svg>
