<svg width="145" height="96" viewBox="0 0 145 96" fill="none" xmlns="http://www.w3.org/2000/svg">
<path d="M54.976 85.024H48.688L47.68 88H43.384L49.48 71.152H54.232L60.328 88H55.984L54.976 85.024ZM53.92 81.856L51.832 75.688L49.768 81.856H53.92ZM85.3673 71.152L80.9753 88H76.0073L73.3193 76.912L70.5353 88H65.5673L61.2953 71.152H65.6873L68.1113 83.416L71.1113 71.152H75.6233L78.5033 83.416L80.9513 71.152H85.3673ZM93.5215 88.168C92.2895 88.168 91.1855 87.968 90.2095 87.568C89.2335 87.168 88.4495 86.576 87.8575 85.792C87.2815 85.008 86.9775 84.064 86.9455 82.96H91.3135C91.3775 83.584 91.5935 84.064 91.9615 84.4C92.3295 84.72 92.8095 84.88 93.4015 84.88C94.0095 84.88 94.4895 84.744 94.8415 84.472C95.1935 84.184 95.3695 83.792 95.3695 83.296C95.3695 82.88 95.2255 82.536 94.9375 82.264C94.6655 81.992 94.3215 81.768 93.9055 81.592C93.5055 81.416 92.9295 81.216 92.1775 80.992C91.0895 80.656 90.2015 80.32 89.5135 79.984C88.8255 79.648 88.2335 79.152 87.7375 78.496C87.2415 77.84 86.9935 76.984 86.9935 75.928C86.9935 74.36 87.5615 73.136 88.6975 72.256C89.8335 71.36 91.3135 70.912 93.1375 70.912C94.9935 70.912 96.4895 71.36 97.6255 72.256C98.7615 73.136 99.3695 74.368 99.4495 75.952H95.0095C94.9775 75.408 94.7775 74.984 94.4095 74.68C94.0415 74.36 93.5695 74.2 92.9935 74.2C92.4975 74.2 92.0975 74.336 91.7935 74.608C91.4895 74.864 91.3375 75.24 91.3375 75.736C91.3375 76.28 91.5935 76.704 92.1055 77.008C92.6175 77.312 93.4175 77.64 94.5055 77.992C95.5935 78.36 96.4735 78.712 97.1455 79.048C97.8335 79.384 98.4255 79.872 98.9215 80.512C99.4175 81.152 99.6655 81.976 99.6655 82.984C99.6655 83.944 99.4175 84.816 98.9215 85.6C98.4415 86.384 97.7375 87.008 96.8095 87.472C95.8815 87.936 94.7855 88.168 93.5215 88.168Z" fill="black"/>
<g clip-path="url(#clip0_6441_338)">
<path d="M54.3761 15.785C54.3761 16.6277 54.3761 17.1896 54.6549 18.0323L55.4914 19.7178C55.4914 19.9987 55.7703 19.9987 55.7703 20.2796C55.7703 20.5605 55.4914 20.8414 55.2126 21.1223L53.8184 22.246C53.5396 22.246 53.5396 22.5269 53.2607 22.5269C52.9819 22.5269 52.7031 22.5269 52.4242 22.246C52.1454 21.9651 51.8666 21.6842 51.5877 21.1223C51.3089 20.8414 51.03 20.2796 50.7512 19.7178C48.7994 21.1223 46.2898 22.5269 43.5015 22.5269C41.8284 22.5269 39.8766 21.9651 38.7612 20.8414C37.6459 19.7178 36.8094 18.0323 37.0882 16.3468C37.0882 14.3804 37.9247 12.6949 39.3189 11.5713C40.9919 10.1667 43.2226 9.60489 45.1745 9.60489C46.011 9.60489 46.8475 9.60489 47.684 9.8858C48.5205 9.8858 49.6359 10.1667 50.4724 10.4476V8.20032C50.7512 6.79575 50.1935 5.39118 49.357 4.26753C48.2417 3.42479 46.8475 3.14387 45.4533 3.14387C44.6168 3.14387 43.7803 3.14387 42.9438 3.42479L40.4343 4.26753C40.1554 4.26753 39.8766 4.54844 39.5978 4.54844H39.3189C39.0401 4.54844 38.7612 4.26753 38.7612 3.7057V2.86296C38.7612 2.58205 38.7612 2.30113 39.0401 2.02022C39.3189 1.73931 39.5978 1.73931 39.5978 1.45839C40.7131 0.896564 41.5496 0.615651 42.665 0.334737C43.2226 0.334737 44.6168 0.0538236 45.7322 0.0538235C47.9628 -0.22709 50.1935 0.615651 52.1454 2.02022C53.5396 3.7057 54.3761 5.6721 54.0972 7.9194V15.785H54.3761ZM44.338 19.4369C45.1745 19.4369 46.011 19.1559 46.8475 18.875C47.684 18.5941 48.5205 18.0323 49.0782 17.4705C49.357 17.1896 49.6359 16.6277 49.9147 16.0659C50.1935 15.2232 50.1935 14.3804 50.1935 13.8186V12.6949C49.357 12.414 48.7994 12.414 47.9628 12.414C47.1263 12.414 46.5687 12.1331 45.7322 12.1331C44.338 12.1331 43.2226 12.414 42.1073 12.9758C41.2708 13.5377 40.9919 14.6613 40.9919 15.5041C40.9919 16.3468 41.2708 17.4705 41.8284 18.0323C42.3861 19.1559 43.5015 19.4369 44.338 19.4369ZM63.8565 21.9651C63.5777 21.9651 63.2988 21.9651 63.02 21.6842C62.7412 21.4033 62.4623 21.1223 62.4623 20.8414L56.8856 2.30113C56.8856 2.02022 56.6068 1.73931 56.6068 1.45839C56.6068 1.17748 56.6068 1.17748 56.8856 0.896564C56.8856 0.896564 57.1644 0.615651 57.4433 0.615651H59.9528C60.2316 0.615651 60.5105 0.615651 60.7893 0.896564C61.0682 1.17748 61.0682 1.45839 61.347 1.73931L65.5295 17.4705L69.4332 1.73931C69.4332 1.45839 69.7121 1.17748 69.9909 0.896564C70.2698 0.615651 70.5486 0.615651 71.1063 0.615651H73.0581C73.337 0.615651 73.6158 0.615651 74.1735 0.896564C74.4523 1.17748 74.4523 1.45839 74.7311 1.73931L78.6348 17.7514L82.8174 1.73931C82.8174 1.45839 83.0962 1.17748 83.3751 0.896564C83.6539 0.615651 83.9327 0.615651 84.2116 0.615651H86.4423C86.7211 0.615651 86.7211 0.615651 86.9999 0.896564C86.9999 0.896564 87.2788 1.17748 87.2788 1.45839V1.73931C87.2788 2.02022 87.2788 2.02022 86.9999 2.30113L81.1444 20.8414C81.1444 21.1223 80.8655 21.4033 80.5867 21.6842C80.3079 21.9651 80.029 21.9651 79.7502 21.9651H77.5195C77.2407 21.9651 76.9618 21.9651 76.4042 21.6842C76.1253 21.4033 76.1253 21.1223 75.8465 20.8414L71.9428 5.39118L68.3179 20.8414C68.3179 21.1223 68.0391 21.4033 67.7602 21.6842C67.4814 21.9651 67.2026 21.9651 66.6449 21.9651H63.8565ZM95.365 22.5269C93.9708 22.5269 92.8555 22.5269 91.7402 22.246C90.6248 21.9651 89.7883 21.6842 88.9518 21.4033C88.3941 21.1223 88.1153 20.5605 88.1153 19.9987V18.5941C88.1153 18.0323 88.3941 17.7514 88.673 17.7514H89.2306L89.7883 18.0323C90.6248 18.3132 91.4613 18.5941 92.5767 18.875C93.4132 19.1559 94.5285 19.1559 95.6439 19.1559C96.7592 19.1559 98.1534 18.875 99.2687 18.3132C100.105 17.7514 100.663 16.9086 100.663 16.0659C100.663 15.5041 100.384 14.9422 100.105 14.3804C98.4322 14.0995 97.5957 13.5377 96.7592 13.2568L93.1343 12.1331C91.7402 11.8522 90.346 11.0095 89.2306 9.60489C88.3941 8.48123 88.1153 7.35758 88.1153 6.23392C88.1153 5.39118 88.3941 4.26753 88.673 3.7057C89.2306 2.86296 89.7883 2.30113 90.6248 1.73931C91.4613 1.17748 92.2978 0.896564 93.1343 0.615651C93.9708 0.334737 95.0862 0.0538236 95.9227 0.0538235H97.5957C98.1534 0.0538235 98.7111 0.334737 99.2687 0.334737C99.8264 0.334737 100.105 0.615651 100.663 0.615651C100.942 0.615651 101.221 0.896564 101.778 0.896564C102.057 1.17748 102.336 1.17748 102.615 1.45839C102.894 1.73931 102.894 2.02022 102.894 2.30113V3.42479C102.894 3.98661 102.615 4.26753 102.336 4.26753C102.057 4.26753 101.778 4.26753 101.499 3.98661C100.105 3.42479 98.4322 3.14387 96.7592 3.14387C95.6439 3.14387 94.5285 3.42479 93.4132 3.7057C92.5767 4.54844 92.019 5.11027 92.019 6.23392C92.019 6.79575 92.2978 7.35758 92.8555 7.9194C93.692 8.48123 94.5285 9.04306 95.6439 9.32397L98.9899 10.4476C100.384 10.7285 101.778 11.5713 102.894 12.6949C103.73 13.8186 104.009 14.9422 104.009 16.0659C104.009 16.9086 103.73 18.0323 103.451 18.875C102.894 19.7178 102.336 20.5605 101.778 21.1223C100.942 21.6842 100.105 22.246 98.9899 22.5269H95.365Z" fill="#252F3E"/>
<path d="M103.172 34.0442C95.0862 41.067 83.3751 44.9998 73.337 44.9998C59.9528 44.9998 46.8475 39.1006 36.8094 28.4259C35.9729 27.5832 36.8094 26.4595 37.6459 27.0213C48.7994 34.606 61.347 38.5388 74.1735 38.5388C83.6539 38.5388 93.1343 36.2915 102.057 31.7969C103.451 31.235 104.567 32.9205 103.172 34.0442Z" fill="#FF9900"/>
<path d="M104.567 30.6733C103.451 29.2687 97.8745 30.1115 95.365 30.3924C94.5285 30.3924 94.5285 29.8306 95.0862 29.2687C99.5476 26.1787 107.076 27.0214 107.913 28.1451C108.749 29.2687 107.634 36.8534 103.451 40.2244C102.894 40.7862 102.057 40.5053 102.615 39.6625C103.451 37.4152 105.682 32.0779 104.567 30.6733Z" fill="#FF9900"/>
<path d="M54.3761 15.785C54.3761 16.6277 54.3761 17.1896 54.6549 18.0323L55.4914 19.7178C55.4914 19.9987 55.7703 19.9987 55.7703 20.2796C55.7703 20.5605 55.4914 20.8414 55.2126 21.1223L53.8184 22.246C53.5396 22.246 53.5396 22.5269 53.2607 22.5269C52.9819 22.5269 52.7031 22.5269 52.4242 22.246C52.1454 21.9651 51.8666 21.6842 51.5877 21.1223C51.3089 20.8414 51.03 20.2796 50.7512 19.7178C48.7994 21.1223 46.2898 22.5269 43.5015 22.5269C41.8284 22.5269 39.8766 21.9651 38.7612 20.8414C37.6459 19.7178 36.8094 18.0323 37.0882 16.3468C37.0882 14.3804 37.9247 12.6949 39.3189 11.5713C40.9919 10.1667 43.2226 9.60489 45.1745 9.60489C46.011 9.60489 46.8475 9.60489 47.684 9.8858C48.5205 9.8858 49.6359 10.1667 50.4724 10.4476V8.20032C50.7512 6.79575 50.1935 5.39118 49.357 4.26753C48.2417 3.42479 46.8475 3.14387 45.4533 3.14387C44.6168 3.14387 43.7803 3.14387 42.9438 3.42479L40.4343 4.26753C40.1554 4.26753 39.8766 4.54844 39.5978 4.54844H39.3189C39.0401 4.54844 38.7612 4.26753 38.7612 3.7057V2.86296C38.7612 2.58205 38.7612 2.30113 39.0401 2.02022C39.3189 1.73931 39.5978 1.73931 39.5978 1.45839C40.7131 0.896564 41.5496 0.615651 42.665 0.334737C43.2226 0.334737 44.6168 0.0538236 45.7322 0.0538235C47.9628 -0.22709 50.1935 0.615651 52.1454 2.02022C53.5396 3.7057 54.3761 5.6721 54.0972 7.9194V15.785H54.3761ZM44.338 19.4369C45.1745 19.4369 46.011 19.1559 46.8475 18.875C47.684 18.5941 48.5205 18.0323 49.0782 17.4705C49.357 17.1896 49.6359 16.6277 49.9147 16.0659C50.1935 15.2232 50.1935 14.3804 50.1935 13.8186V12.6949C49.357 12.414 48.7994 12.414 47.9628 12.414C47.1263 12.414 46.5687 12.1331 45.7322 12.1331C44.338 12.1331 43.2226 12.414 42.1073 12.9758C41.2708 13.5377 40.9919 14.6613 40.9919 15.5041C40.9919 16.3468 41.2708 17.4705 41.8284 18.0323C42.3861 19.1559 43.5015 19.4369 44.338 19.4369ZM63.8565 21.9651C63.5777 21.9651 63.2988 21.9651 63.02 21.6842C62.7412 21.4033 62.4623 21.1223 62.4623 20.8414L56.8856 2.30113C56.8856 2.02022 56.6068 1.73931 56.6068 1.45839C56.6068 1.17748 56.6068 1.17748 56.8856 0.896564C56.8856 0.896564 57.1644 0.615651 57.4433 0.615651H59.9528C60.2316 0.615651 60.5105 0.615651 60.7893 0.896564C61.0682 1.17748 61.0682 1.45839 61.347 1.73931L65.5295 17.4705L69.4332 1.73931C69.4332 1.45839 69.7121 1.17748 69.9909 0.896564C70.2698 0.615651 70.5486 0.615651 71.1063 0.615651H73.0581C73.337 0.615651 73.6158 0.615651 74.1735 0.896564C74.4523 1.17748 74.4523 1.45839 74.7311 1.73931L78.6348 17.7514L82.8174 1.73931C82.8174 1.45839 83.0962 1.17748 83.3751 0.896564C83.6539 0.615651 83.9327 0.615651 84.2116 0.615651H86.4423C86.7211 0.615651 86.7211 0.615651 86.9999 0.896564C86.9999 0.896564 87.2788 1.17748 87.2788 1.45839V1.73931C87.2788 2.02022 87.2788 2.02022 86.9999 2.30113L81.1444 20.8414C81.1444 21.1223 80.8655 21.4033 80.5867 21.6842C80.3079 21.9651 80.029 21.9651 79.7502 21.9651H77.5195C77.2407 21.9651 76.9618 21.9651 76.4042 21.6842C76.1253 21.4033 76.1253 21.1223 75.8465 20.8414L71.9428 5.39118L68.3179 20.8414C68.3179 21.1223 68.0391 21.4033 67.7602 21.6842C67.4814 21.9651 67.2026 21.9651 66.6449 21.9651H63.8565ZM95.365 22.5269C93.9708 22.5269 92.8555 22.5269 91.7402 22.246C90.6248 21.9651 89.7883 21.6842 88.9518 21.4033C88.3941 21.1223 88.1153 20.5605 88.1153 19.9987V18.5941C88.1153 18.0323 88.3941 17.7514 88.673 17.7514H89.2306L89.7883 18.0323C90.6248 18.3132 91.4613 18.5941 92.5767 18.875C93.4132 19.1559 94.5285 19.1559 95.6439 19.1559C96.7592 19.1559 98.1534 18.875 99.2687 18.3132C100.105 17.7514 100.663 16.9086 100.663 16.0659C100.663 15.5041 100.384 14.9422 100.105 14.3804C98.4322 14.0995 97.5957 13.5377 96.7592 13.2568L93.1343 12.1331C91.7402 11.8522 90.346 11.0095 89.2306 9.60489C88.3941 8.48123 88.1153 7.35758 88.1153 6.23392C88.1153 5.39118 88.3941 4.26753 88.673 3.7057C89.2306 2.86296 89.7883 2.30113 90.6248 1.73931C91.4613 1.17748 92.2978 0.896564 93.1343 0.615651C93.9708 0.334737 95.0862 0.0538236 95.9227 0.0538235H97.5957C98.1534 0.0538235 98.7111 0.334737 99.2687 0.334737C99.8264 0.334737 100.105 0.615651 100.663 0.615651C100.942 0.615651 101.221 0.896564 101.778 0.896564C102.057 1.17748 102.336 1.17748 102.615 1.45839C102.894 1.73931 102.894 2.02022 102.894 2.30113V3.42479C102.894 3.98661 102.615 4.26753 102.336 4.26753C102.057 4.26753 101.778 4.26753 101.499 3.98661C100.105 3.42479 98.4322 3.14387 96.7592 3.14387C95.6439 3.14387 94.5285 3.42479 93.4132 3.7057C92.5767 4.54844 92.019 5.11027 92.019 6.23392C92.019 6.79575 92.2978 7.35758 92.8555 7.9194C93.692 8.48123 94.5285 9.04306 95.6439 9.32397L98.9899 10.4476C100.384 10.7285 101.778 11.5713 102.894 12.6949C103.73 13.8186 104.009 14.9422 104.009 16.0659C104.009 16.9086 103.73 18.0323 103.451 18.875C102.894 19.7178 102.336 20.5605 101.778 21.1223C100.942 21.6842 100.105 22.246 98.9899 22.5269H95.365Z" fill="#252F3E"/>
<path d="M103.172 34.0442C95.0862 41.067 83.3751 44.9998 73.337 44.9998C59.9528 44.9998 46.8475 39.1006 36.8094 28.4259C35.9729 27.5832 36.8094 26.4595 37.6459 27.0213C48.7994 34.606 61.347 38.5388 74.1735 38.5388C83.6539 38.5388 93.1343 36.2915 102.057 31.7969C103.451 31.235 104.567 32.9205 103.172 34.0442Z" fill="#FF9900"/>
<path d="M104.567 30.6733C103.451 29.2687 97.8745 30.1115 95.365 30.3924C94.5285 30.3924 94.5285 29.8306 95.0862 29.2687C99.5476 26.1787 107.076 27.0214 107.913 28.1451C108.749 29.2687 107.634 36.8534 103.451 40.2244C102.894 40.7862 102.057 40.5053 102.615 39.6625C103.451 37.4152 105.682 32.0779 104.567 30.6733Z" fill="#FF9900"/>
</g>
<defs>
<clipPath id="clip0_6441_338">
<rect width="145" height="45" fill="white"/>
</clipPath>
</defs>
</svg>
