<svg width="125" height="52" viewBox="0 0 125 52" fill="none" xmlns="http://www.w3.org/2000/svg">
<g clip-path="url(#clip0_6806_5948)">
<path d="M27.6913 31.7584C27.9337 31.4933 28.1176 31.1801 28.2308 30.8392C28.3441 30.4983 28.3843 30.1373 28.3487 29.7798C28.3131 29.4223 28.2025 29.0764 28.0242 28.7645C27.8459 28.4526 27.6039 28.1818 27.3139 27.9698C25.9591 26.6147 22.7819 26.8537 22.7819 26.8537C22.7819 26.8537 22.543 30.0316 23.8978 31.3868C24.1102 31.6773 24.3815 31.9197 24.694 32.0981C25.0066 32.2765 25.3532 32.3869 25.7113 32.4219C26.0695 32.457 26.431 32.416 26.7721 32.3017C27.1133 32.1874 27.4266 32.0022 27.6913 31.7584Z" fill="#8F8F8F"/>
<path d="M16.9172 27.973C16.614 28.1752 16.3594 28.4422 16.1718 28.7547C15.9842 29.0673 15.8682 29.4176 15.8323 29.7803C15.7964 30.1431 15.8414 30.5094 15.9641 30.8527C16.0868 31.196 16.2841 31.5077 16.5418 31.7654C16.7996 32.0232 17.1112 32.2206 17.4544 32.3434C17.7976 32.4661 18.1638 32.5111 18.5265 32.4752C18.8892 32.4392 19.2394 32.3233 19.5518 32.1356C19.8643 31.9479 20.1312 31.6933 20.3334 31.3899C21.6882 30.0348 21.4508 26.8567 21.4508 26.8567C21.4508 26.8567 18.2735 26.6105 16.9172 27.973Z" fill="#8F8F8F"/>
<path d="M40.8322 11.9674L26.1726 1.31855C24.9927 0.460939 23.5717 -0.000976562 22.1132 -0.000976562C20.6548 -0.000976562 19.2337 0.460939 18.0539 1.31855L3.39282 11.9776C2.21343 12.8354 1.33563 14.0445 0.885034 15.4317C0.434435 16.8189 0.434143 18.3132 0.884234 19.7006L6.48995 36.9358C6.93992 38.3231 7.81733 39.5325 8.99649 40.3905C10.1756 41.2485 11.596 41.7112 13.0542 41.7123H31.1839C32.6427 41.7119 34.064 41.2497 35.2441 40.3919C36.4243 39.5342 37.3029 38.3249 37.754 36.9372L43.3553 19.6918C43.8042 18.3027 43.8019 16.8072 43.3486 15.4195C42.8953 14.0319 42.0144 12.8234 40.8322 11.9674ZM22.6646 18.631C23.4308 17.5233 24.5155 16.6746 25.7749 16.1975C26.0889 16.0772 26.4112 15.9798 26.7392 15.9061C27.4085 15.7592 28.096 15.7134 28.7787 15.7706C29.1219 15.8019 29.4625 15.8559 29.7985 15.9323C30.137 16.015 30.4694 16.1206 30.7935 16.2486C31.1191 16.3801 31.435 16.5345 31.7389 16.7105L31.7783 16.7338C32.0897 16.9305 32.313 17.24 32.4014 17.5976C32.4898 17.9553 32.4365 18.3333 32.2525 18.6524C32.0686 18.9716 31.7683 19.2073 31.4146 19.31C31.0609 19.4128 30.6812 19.3747 30.355 19.2037C30.292 19.166 30.2317 19.1241 30.1743 19.0784C29.4871 18.5284 28.6498 18.1987 27.7721 18.1326C27.5471 18.116 27.3212 18.116 27.0962 18.1326C26.8671 18.1487 26.6397 18.1823 26.4158 18.2332C26.1902 18.2852 25.9691 18.3549 25.7545 18.4416C25.5384 18.5246 25.3294 18.625 25.1295 18.7417C24.2875 19.2269 23.6089 19.9518 23.1803 20.824C23.0723 21.0485 22.9803 21.2802 22.905 21.5176C22.8303 21.7561 22.7724 21.9996 22.7316 22.2462C22.6964 22.4758 22.677 22.7076 22.6734 22.9398C23.0545 22.3861 23.5189 21.8946 24.05 21.4827C24.3129 21.2779 24.5915 21.0942 24.8833 20.9333C25.1746 20.7711 25.478 20.6318 25.7909 20.5166C26.1052 20.3971 26.4274 20.2997 26.7553 20.2251C27.4245 20.0781 28.112 20.0325 28.7948 20.0896C29.1341 20.1228 29.4708 20.1783 29.8029 20.2557C30.1413 20.3384 30.4738 20.444 30.7979 20.5719C31.1235 20.7035 31.4394 20.8579 31.7433 21.0338L31.7826 21.0572C32.0941 21.2539 32.3174 21.5634 32.4058 21.921C32.4942 22.2787 32.4408 22.6567 32.2569 22.9758C32.073 23.295 31.7727 23.5307 31.419 23.6334C31.0653 23.7361 30.6856 23.698 30.3593 23.527C30.2964 23.4894 30.236 23.4475 30.1787 23.4017C29.4914 22.8517 28.6542 22.5221 27.7765 22.456C27.5514 22.4404 27.3256 22.4404 27.1005 22.456C26.8716 22.4736 26.6442 22.5077 26.4202 22.5581C26.1949 22.611 25.9738 22.6806 25.7588 22.7664C25.5431 22.8507 25.3342 22.9516 25.1339 23.068C24.4185 23.4798 23.8202 24.0676 23.3959 24.7758C26.209 24.9055 30.1365 25.586 31.5146 28.2409C31.8961 28.8876 32.1145 29.6174 32.1508 30.3674C32.1871 31.1174 32.0402 31.8649 31.7229 32.5453C31.195 33.6175 30.2906 34.4575 29.1825 34.9046C28.0744 35.3516 26.8404 35.3744 25.7166 34.9686C24.3358 34.4008 23.1073 33.5169 22.13 32.388C21.1504 33.5158 19.9214 34.3994 18.5405 34.9686C17.4136 35.3752 16.1763 35.3509 15.0663 34.9004C13.9563 34.4499 13.0519 33.6049 12.5269 32.5279C12.2086 31.8477 12.0612 31.1 12.0975 30.3498C12.1338 29.5997 12.3527 28.8697 12.7352 28.2235C14.1089 25.5685 18.0379 24.8924 20.8538 24.7583C20.4285 24.05 19.8293 23.4621 19.113 23.0505C18.9126 22.9344 18.7036 22.8336 18.488 22.7489C18.0566 22.5844 17.6038 22.4828 17.1434 22.4473C16.9189 22.4317 16.6935 22.4317 16.4689 22.4473C15.5907 22.5131 14.7529 22.8427 14.0652 23.393C13.9119 23.51 13.7365 23.5945 13.5495 23.6416C13.3626 23.6887 13.168 23.6973 12.9776 23.6669C12.7872 23.6365 12.605 23.5677 12.442 23.4647C12.279 23.3617 12.1386 23.2267 12.0293 23.0678C11.9201 22.909 11.8442 22.7295 11.8064 22.5404C11.7686 22.3513 11.7695 22.1565 11.8092 21.9678C11.849 21.7791 11.9266 21.6004 12.0374 21.4426C12.1483 21.2848 12.29 21.1512 12.454 21.0499L12.4992 21.0251C12.8031 20.8492 13.1191 20.6948 13.4446 20.5632C13.7687 20.4353 14.1012 20.3297 14.4396 20.247C14.7756 20.1707 15.1163 20.1166 15.4594 20.0852C16.4787 19.9988 17.5045 20.1412 18.4618 20.502C19.0844 20.74 19.6685 21.0685 20.1954 21.4768C20.7257 21.8888 21.189 22.3803 21.5691 22.934C21.5654 22.7027 21.546 22.4719 21.5109 22.2433C21.4711 21.9968 21.4141 21.7533 21.3404 21.5147C21.2637 21.2776 21.1712 21.0459 21.0636 20.8211C20.635 19.9488 19.9564 19.224 19.1144 18.7388C18.9144 18.6224 18.7054 18.522 18.4895 18.4386C18.0588 18.2715 17.6056 18.1699 17.1449 18.137C16.9203 18.1204 16.6949 18.1204 16.4704 18.137C15.5922 18.2028 14.7544 18.5325 14.0667 19.0827C13.9134 19.1997 13.7379 19.2843 13.551 19.3314C13.364 19.3784 13.1694 19.3871 12.9791 19.3567C12.7887 19.3262 12.6065 19.2575 12.4435 19.1545C12.2804 19.0515 12.1401 18.9165 12.0308 18.7576C11.9215 18.5987 11.8457 18.4193 11.8079 18.2302C11.77 18.0411 11.771 17.8463 11.8107 17.6575C11.8504 17.4688 11.9281 17.2902 12.0389 17.1324C12.1497 16.9746 12.2915 16.841 12.4555 16.7396L12.5006 16.7148C12.8045 16.5389 13.1205 16.3845 13.4461 16.2529C13.7702 16.125 14.1026 16.0194 14.4411 15.9367C14.777 15.8604 15.1177 15.8064 15.4608 15.775C16.1436 15.7178 16.8311 15.7635 17.5003 15.9105C17.8288 15.9845 18.1516 16.0819 18.4662 16.2019C18.7786 16.3171 19.0815 16.4564 19.3723 16.6187C20.2513 17.1106 21.0054 17.7981 21.5764 18.6281V18.4984C21.5744 18.2438 21.5545 17.9896 21.5167 17.7378C21.4769 17.4912 21.42 17.2478 21.3462 17.0092C21.2695 16.7721 21.177 16.5403 21.0694 16.3156C20.6407 15.4433 19.9622 14.7185 19.1203 14.2333C18.3185 13.7738 17.3978 13.5643 16.4762 13.6315C15.5975 13.697 14.7591 14.0266 14.071 14.5772C13.7763 14.8119 13.4009 14.9209 13.0263 14.8807C12.6517 14.8404 12.308 14.6541 12.0698 14.3622C11.8316 14.0702 11.718 13.6961 11.7536 13.3209C11.7893 12.9458 11.9713 12.5998 12.2603 12.358C12.3151 12.3144 12.373 12.2749 12.4336 12.2399L12.4788 12.2122C12.7831 12.0371 13.099 11.8828 13.4242 11.7503C13.7483 11.6224 14.0808 11.5168 14.4192 11.4341C14.7552 11.3574 15.0958 11.3028 15.439 11.2709C16.1218 11.2138 16.8092 11.2594 17.4785 11.4064C17.807 11.4804 18.1297 11.5778 18.4443 11.6979C18.7571 11.8122 19.0601 11.9515 19.3504 12.1146C20.5659 12.7929 21.535 13.8393 22.1183 15.1033C22.7009 13.8411 23.6671 12.7952 24.8789 12.1146C25.1698 11.9515 25.4733 11.8122 25.7865 11.6979C26.1005 11.5775 26.4228 11.4801 26.7509 11.4064C27.4201 11.2594 28.1076 11.2138 28.7904 11.2709C29.1335 11.3027 29.4742 11.3573 29.8101 11.4341C30.1486 11.5168 30.481 11.6224 30.8051 11.7503C31.1303 11.8827 31.4462 12.0371 31.7506 12.2122L31.7899 12.2356C31.9601 12.3247 32.1105 12.4474 32.2321 12.5962C32.3537 12.745 32.444 12.9168 32.4976 13.1013C32.5512 13.2859 32.5669 13.4793 32.5439 13.6701C32.5209 13.8609 32.4596 14.0451 32.3636 14.2116C32.2677 14.3781 32.1391 14.5234 31.9856 14.639C31.8321 14.7546 31.6568 14.8379 31.4703 14.884C31.2838 14.9301 31.0899 14.9381 30.9003 14.9074C30.7106 14.8767 30.5291 14.808 30.3666 14.7054C30.3032 14.6685 30.2428 14.6266 30.186 14.5801C29.4987 14.0301 28.6614 13.7005 27.7838 13.6344C27.5588 13.6177 27.3328 13.6177 27.1078 13.6344C26.8788 13.6504 26.6514 13.684 26.4275 13.735C26.2019 13.7869 25.9808 13.8566 25.7661 13.9433C25.5504 14.0272 25.3415 14.1276 25.1411 14.2435C24.2992 14.7287 23.6207 15.4536 23.192 16.3258C23.0839 16.5502 22.9919 16.782 22.9166 17.0194C22.7634 17.5025 22.6848 18.0062 22.6836 18.513C22.6785 18.5561 22.6785 18.5996 22.6836 18.6427L22.6646 18.631Z" fill="#8F8F8F"/>
<path d="M66.3562 7.56543H59.655L46.7188 42.2457H54.2372L55.694 38.0374H70.3187L71.7754 42.2457H79.2939L66.3562 7.56543ZM58.1312 31.3301L63.0041 17.3109L67.88 31.3301H58.1312Z" fill="#8F8F8F"/>
<path d="M95.9074 13.9038L89.5121 32.1838L82.5034 13.9038H75.1875L85.8497 40.7154L85.2378 42.2382C84.8207 43.2549 84.1628 44.1551 83.3207 44.861C82.2915 45.6171 81.0288 45.986 79.7545 45.9029V51.6922C79.9892 51.7813 80.2338 51.842 80.4829 51.8729C80.7343 51.9196 80.9882 51.9516 81.2433 51.969C81.5478 51.9851 81.8684 51.9982 82.1888 51.9982C83.2274 52.0128 84.2604 51.8446 85.2408 51.5013C86.175 51.1536 87.0261 50.614 87.7392 49.9174C88.5921 49.0818 89.3211 48.1283 89.9039 47.0861C90.6736 45.7192 91.3549 44.3043 91.9434 42.8502C92.025 42.684 92.2493 42.1376 92.6135 41.2007C92.9777 40.2637 93.425 39.0995 93.9538 37.7035C94.4826 36.3076 95.0813 34.7469 95.75 33.0406C96.4187 31.3343 97.1005 29.5901 97.7895 27.7948C99.4143 23.6507 101.218 19.0199 103.201 13.9023L95.9074 13.9038Z" fill="#8F8F8F"/>
<path d="M123.725 20.1785C123.207 18.8774 122.429 17.6957 121.439 16.7057C120.449 15.7158 119.267 14.9384 117.966 14.4213C116.573 13.8573 115.082 13.5741 113.58 13.5878C111.973 13.565 110.374 13.8234 108.857 14.3513C107.538 14.8131 106.31 15.5037 105.231 16.3914C104.238 17.2188 103.42 18.2351 102.824 19.3815C102.235 20.5233 101.855 21.7607 101.699 23.036H108.705C108.821 22.4766 109.071 21.9536 109.434 21.5118C109.814 21.0996 110.257 20.7487 110.745 20.4714C111.428 20.1114 112.196 19.9422 112.968 19.9818C113.581 19.9548 114.193 20.0543 114.766 20.2742C115.339 20.494 115.86 20.8295 116.298 21.2597C116.737 21.7445 117.074 22.3131 117.289 22.9313C117.503 23.5495 117.591 24.2046 117.546 24.8575C114.859 24.8093 112.173 25.0432 109.534 25.5554C107.717 25.8994 105.974 26.5603 104.386 27.508C103.197 28.2187 102.237 29.2547 101.618 30.4937C101.058 31.6847 100.773 32.9866 100.785 34.3027C100.752 35.3725 100.954 36.4365 101.375 37.4205C101.796 38.4045 102.426 39.2848 103.222 40.0002C105.193 41.5997 107.696 42.3949 110.229 42.2267C111.343 42.2414 112.452 42.0876 113.52 41.7706C114.39 41.5096 115.228 41.1518 116.018 40.704C116.776 40.2664 117.49 39.7559 118.149 39.1798L119.367 41.9222H124.546V24.5704C124.563 23.0667 124.284 21.5743 123.725 20.1785ZM117.542 30.9688C117.57 31.7433 117.435 32.5152 117.146 33.2343C116.857 33.9534 116.42 34.6039 115.864 35.1435C115.271 35.6916 114.575 36.1164 113.817 36.3933C113.059 36.6702 112.253 36.7937 111.447 36.7565C110.483 36.792 109.544 36.4531 108.825 35.8109C108.509 35.5572 108.252 35.2378 108.073 34.8749C107.893 34.5121 107.794 34.1145 107.783 33.7096C107.774 33.1395 107.9 32.5753 108.15 32.063C108.477 31.5009 108.981 31.062 109.582 30.8143C110.522 30.4047 111.518 30.138 112.536 30.023C114.194 29.8183 115.863 29.7273 117.533 29.7506L117.542 30.9688Z" fill="#8F8F8F"/>
</g>
<defs>
<clipPath id="clip0_6806_5948">
<rect width="124" height="52" fill="white" transform="translate(0.546875)"/>
</clipPath>
</defs>
</svg>
