<svg width="125" height="52" viewBox="0 0 125 52" fill="none" xmlns="http://www.w3.org/2000/svg">
<g clip-path="url(#clip0_5919_5052)">
<path d="M27.6979 31.7589C27.9403 31.4938 28.1242 31.1806 28.2374 30.8397C28.3507 30.4988 28.3908 30.1378 28.3552 29.7803C28.3196 29.4228 28.2091 29.0768 28.0308 28.765C27.8525 28.4531 27.6105 28.1823 27.3205 27.9703C25.9657 26.6152 22.7885 26.8541 22.7885 26.8541C22.7885 26.8541 22.5496 30.0321 23.9044 31.3873C24.1168 31.6778 24.3881 31.9202 24.7006 32.0986C25.0131 32.277 25.3598 32.3874 25.7179 32.4224C26.0761 32.4575 26.4375 32.4165 26.7787 32.3022C27.1199 32.1878 27.4332 32.0027 27.6979 31.7589Z" fill="#8F8F8F"/>
<path d="M16.9204 27.9734C16.6172 28.1757 16.3626 28.4427 16.1749 28.7552C15.9873 29.0678 15.8714 29.4181 15.8355 29.7808C15.7996 30.1436 15.8446 30.5099 15.9673 30.8532C16.09 31.1964 16.2873 31.5081 16.545 31.7659C16.8027 32.0237 17.1144 32.2211 17.4576 32.3438C17.8008 32.4666 18.1669 32.5116 18.5296 32.4756C18.8923 32.4397 19.2425 32.3237 19.555 32.1361C19.8675 31.9484 20.1344 31.6938 20.3366 31.3904C21.6914 30.0353 21.4539 26.8572 21.4539 26.8572C21.4539 26.8572 18.2767 26.611 16.9204 27.9734Z" fill="#8F8F8F"/>
<path d="M40.8366 11.9684L26.177 1.31952C24.9971 0.461915 23.5761 0 22.1176 0C20.6592 0 19.2381 0.461915 18.0583 1.31952L3.39721 11.9786C2.21783 12.8364 1.34003 14.0455 0.889428 15.4327C0.43883 16.8199 0.438537 18.3142 0.888628 19.7016L6.49434 36.9367C6.94431 38.3241 7.82172 39.5334 9.00088 40.3915C10.18 41.2495 11.6004 41.7122 13.0586 41.7133H31.1883C32.6471 41.7128 34.0684 41.2506 35.2485 40.3929C36.4287 39.5351 37.3073 38.3259 37.7584 36.9382L43.3597 19.6928C43.8086 18.3037 43.8063 16.8081 43.353 15.4205C42.8997 14.0328 42.0188 12.8244 40.8366 11.9684ZM22.669 18.632C23.4352 17.5243 24.5199 16.6756 25.7793 16.1985C26.0933 16.0782 26.4155 15.9808 26.7436 15.9071C27.4129 15.7601 28.1004 15.7144 28.7831 15.7716C29.1263 15.8029 29.4669 15.8569 29.8029 15.9333C30.1414 16.016 30.4738 16.1216 30.7979 16.2495C31.1235 16.3811 31.4394 16.5355 31.7433 16.7115L31.7826 16.7348C32.0941 16.9314 32.3174 17.241 32.4058 17.5986C32.4942 17.9563 32.4408 18.3342 32.2569 18.6534C32.073 18.9726 31.7727 19.2082 31.419 19.311C31.0653 19.4137 30.6856 19.3756 30.3594 19.2047C30.2964 19.167 30.2361 19.1251 30.1787 19.0793C29.4915 18.5293 28.6542 18.1997 27.7765 18.1336C27.5515 18.1169 27.3256 18.1169 27.1006 18.1336C26.8715 18.1496 26.6441 18.1833 26.4202 18.2342C26.1946 18.2862 25.9735 18.3558 25.7589 18.4426C25.5428 18.5256 25.3338 18.6259 25.1339 18.7427C24.2919 19.2278 23.6133 19.9527 23.1847 20.825C23.0767 21.0494 22.9847 21.2812 22.9094 21.5186C22.8347 21.7571 22.7768 22.0006 22.736 22.2472C22.7008 22.4768 22.6814 22.7085 22.6777 22.9408C23.0589 22.3871 23.5233 21.8956 24.0544 21.4836C24.3173 21.2789 24.5959 21.0952 24.8877 20.9343C25.179 20.7721 25.4824 20.6328 25.7953 20.5176C26.1096 20.3981 26.4318 20.3007 26.7597 20.2261C27.4289 20.0791 28.1164 20.0335 28.7992 20.0906C29.1385 20.1238 29.4752 20.1793 29.8073 20.2567C30.1457 20.3394 30.4782 20.445 30.8022 20.5729C31.1278 20.7045 31.4438 20.8588 31.7477 21.0348L31.787 21.0582C32.0985 21.2548 32.3218 21.5644 32.4102 21.922C32.4986 22.2796 32.4452 22.6576 32.2613 22.9768C32.0773 23.296 31.7771 23.5316 31.4234 23.6344C31.0697 23.7371 30.69 23.699 30.3637 23.528C30.3008 23.4903 30.2404 23.4485 30.1831 23.4027C29.4958 22.8527 28.6586 22.5231 27.7809 22.457C27.5558 22.4414 27.33 22.4414 27.1049 22.457C26.876 22.4745 26.6486 22.5086 26.4246 22.559C26.1993 22.612 25.9782 22.6816 25.7632 22.7674C25.5475 22.8517 25.3385 22.9526 25.1383 23.069C24.4229 23.4808 23.8246 24.0686 23.4003 24.7768C26.2134 24.9065 30.1409 25.587 31.519 28.2419C31.9005 28.8886 32.1189 29.6184 32.1552 30.3684C32.1915 31.1183 32.0446 31.8659 31.7273 32.5463C31.1994 33.6185 30.295 34.4585 29.1869 34.9055C28.0788 35.3526 26.8448 35.3754 25.721 34.9696C24.3401 34.4018 23.1117 33.5179 22.1344 32.389C21.1548 33.5168 19.9258 34.4004 18.5449 34.9696C17.418 35.3762 16.1807 35.3519 15.0707 34.9013C13.9607 34.4508 13.0563 33.6059 12.5313 32.5288C12.213 31.8486 12.0656 31.101 12.1019 30.3508C12.1382 29.6007 12.3571 28.8707 12.7396 28.2244C14.1133 25.5695 18.0423 24.8934 20.8582 24.7593C20.4329 24.0509 19.8337 23.4631 19.1174 23.0515C18.9169 22.9354 18.708 22.8345 18.4924 22.7499C18.061 22.5854 17.6082 22.4838 17.1478 22.4483C16.9233 22.4327 16.6979 22.4327 16.4733 22.4483C15.5951 22.514 14.7573 22.8437 14.0696 23.394C13.9163 23.5109 13.7409 23.5955 13.5539 23.6426C13.367 23.6897 13.1724 23.6983 12.982 23.6679C12.7916 23.6375 12.6094 23.5687 12.4464 23.4657C12.2834 23.3627 12.143 23.2277 12.0337 23.0688C11.9245 22.9099 11.8486 22.7305 11.8108 22.5414C11.773 22.3523 11.7739 22.1575 11.8136 21.9688C11.8534 21.7801 11.931 21.6014 12.0418 21.4436C12.1527 21.2858 12.2944 21.1522 12.4584 21.0509L12.5036 21.0261C12.8075 20.8502 13.1235 20.6958 13.449 20.5642C13.7731 20.4363 14.1056 20.3307 14.444 20.248C14.78 20.1716 15.1207 20.1176 15.4638 20.0862C16.4831 19.9998 17.5089 20.1422 18.4662 20.503C19.0888 20.741 19.6729 21.0695 20.1998 21.4778C20.7301 21.8898 21.1934 22.3813 21.5735 22.935C21.5698 22.7037 21.5504 22.4729 21.5153 22.2443C21.4755 21.9977 21.4185 21.7543 21.3448 21.5157C21.2681 21.2786 21.1756 21.0469 21.068 20.8221C20.6394 19.9498 19.9608 19.2249 19.1188 18.7398C18.9188 18.6234 18.7098 18.523 18.4939 18.4396C18.0632 18.2725 17.61 18.1708 17.1493 18.138C16.9247 18.1213 16.6993 18.1213 16.4748 18.138C15.5966 18.2038 14.7588 18.5334 14.0711 19.0837C13.9178 19.2007 13.7423 19.2852 13.5554 19.3323C13.3684 19.3794 13.1738 19.388 12.9835 19.3576C12.7931 19.3272 12.6109 19.2585 12.4479 19.1555C12.2848 19.0525 12.1445 18.9174 12.0352 18.7585C11.9259 18.5997 11.8501 18.4202 11.8123 18.2311C11.7744 18.0421 11.7754 17.8472 11.8151 17.6585C11.8548 17.4698 11.9325 17.2911 12.0433 17.1333C12.1541 16.9756 12.2959 16.8419 12.4599 16.7406L12.505 16.7158C12.8089 16.5398 13.1249 16.3855 13.4505 16.2539C13.7746 16.126 14.107 16.0204 14.4455 15.9377C14.7814 15.8614 15.1221 15.8074 15.4652 15.776C16.148 15.7188 16.8355 15.7645 17.5047 15.9115C17.8332 15.9855 18.156 16.0829 18.4706 16.2029C18.783 16.3181 19.0859 16.4574 19.3767 16.6196C20.2557 17.1116 21.0098 17.7991 21.5808 18.6291V18.4994C21.5788 18.2447 21.5589 17.9906 21.5211 17.7387C21.4813 17.4922 21.4244 17.2488 21.3506 17.0102C21.2739 16.7731 21.1814 16.5413 21.0738 16.3165C20.6451 15.4443 19.9666 14.7195 19.1247 14.2343C18.3229 13.7748 17.4022 13.5653 16.4806 13.6325C15.6019 13.698 14.7635 14.0276 14.0754 14.5782C13.7807 14.8129 13.4053 14.9219 13.0307 14.8817C12.6561 14.8414 12.3124 14.6551 12.0742 14.3632C11.836 14.0712 11.7224 13.6971 11.758 13.3219C11.7937 12.9468 11.9757 12.6008 12.2647 12.359C12.3194 12.3154 12.3774 12.2759 12.438 12.2409L12.4832 12.2132C12.7875 12.0381 13.1034 11.8837 13.4286 11.7513C13.7527 11.6234 14.0851 11.5178 14.4236 11.4351C14.7596 11.3583 15.1002 11.3038 15.4434 11.2719C16.1262 11.2148 16.8136 11.2604 17.4829 11.4074C17.8114 11.4814 18.1341 11.5788 18.4487 11.6989C18.7615 11.8131 19.0645 11.9525 19.3548 12.1156C20.5703 12.7938 21.5394 13.8402 22.1227 15.1042C22.7053 13.8421 23.6715 12.7962 24.8833 12.1156C25.1742 11.9525 25.4777 11.8131 25.7909 11.6989C26.1049 11.5785 26.4272 11.481 26.7553 11.4074C27.4245 11.2604 28.112 11.2148 28.7948 11.2719C29.1379 11.3037 29.4786 11.3582 29.8145 11.4351C30.153 11.5178 30.4854 11.6234 30.8095 11.7513C31.1347 11.8837 31.4506 12.0381 31.755 12.2132L31.7943 12.2365C31.9645 12.3257 32.1149 12.4484 32.2365 12.5972C32.3581 12.7459 32.4484 12.9177 32.502 13.1023C32.5556 13.2868 32.5713 13.4803 32.5483 13.6711C32.5253 13.8619 32.464 14.0461 32.368 14.2125C32.2721 14.379 32.1435 14.5244 31.99 14.64C31.8365 14.7555 31.6612 14.8389 31.4747 14.885C31.2882 14.9311 31.0943 14.9391 30.9047 14.9084C30.715 14.8777 30.5335 14.809 30.371 14.7064C30.3076 14.6695 30.2472 14.6276 30.1904 14.5811C29.5031 14.0311 28.6658 13.7015 27.7882 13.6354C27.5632 13.6187 27.3372 13.6187 27.1122 13.6354C26.8832 13.6514 26.6558 13.685 26.4319 13.7359C26.2063 13.7879 25.9852 13.8576 25.7705 13.9443C25.5548 14.0282 25.3459 14.1285 25.1455 14.2445C24.3036 14.7297 23.6251 15.4545 23.1964 16.3268C23.0883 16.5512 22.9963 16.7829 22.921 17.0203C22.7678 17.5034 22.6892 18.0071 22.688 18.514C22.6829 18.557 22.6829 18.6006 22.688 18.6436L22.669 18.632Z" fill="#8F8F8F"/>
<path d="M66.3594 7.56641H59.6582L46.7219 42.2467H54.2404L55.6972 38.0384H70.3218L71.7786 42.2467H79.2971L66.3594 7.56641ZM58.1344 31.3311L63.0073 17.3118L67.8832 31.3311H58.1344Z" fill="#8F8F8F"/>
<path d="M95.9088 13.9058L89.5135 32.1857L82.5049 13.9058H75.189L85.8511 40.7174L85.2393 42.2401C84.8222 43.2569 84.1643 44.157 83.3222 44.863C82.293 45.6191 81.0302 45.988 79.756 45.9049V51.6941C79.9907 51.7832 80.2352 51.8439 80.4844 51.8748C80.7358 51.9215 80.9897 51.9536 81.2448 51.971C81.5493 51.987 81.8698 52.0001 82.1903 52.0001C83.2289 52.0147 84.2619 51.8465 85.2422 51.5033C86.1765 51.1556 87.0276 50.616 87.7407 49.9193C88.5936 49.0837 89.3225 48.1303 89.9054 47.0881C90.6751 45.7212 91.3563 44.3063 91.9449 42.8521C92.0265 42.686 92.2508 42.1396 92.615 41.2026C92.9792 40.2657 93.4265 39.1014 93.9553 37.7055C94.4841 36.3095 95.0828 34.7489 95.7515 33.0426C96.4201 31.3362 97.1019 29.592 97.791 27.7968C99.4158 23.6527 101.22 19.0218 103.203 13.9043L95.9088 13.9058Z" fill="#8F8F8F"/>
<path d="M123.73 20.18C123.213 18.8789 122.435 17.6972 121.445 16.7072C120.455 15.7173 119.273 14.9399 117.972 14.4228C116.579 13.8588 115.088 13.5755 113.585 13.5893C111.979 13.5665 110.38 13.8249 108.863 14.3528C107.543 14.8146 106.316 15.5051 105.237 16.3929C104.244 17.2202 103.426 18.2366 102.83 19.3829C102.241 20.5247 101.86 21.7622 101.705 23.0375H108.711C108.827 22.4781 109.077 21.9551 109.439 21.5133C109.82 21.101 110.262 20.7501 110.75 20.4729C111.434 20.1128 112.202 19.9437 112.974 19.9833C113.587 19.9563 114.199 20.0558 114.772 20.2756C115.344 20.4955 115.866 20.831 116.304 21.2612C116.743 21.746 117.08 22.3146 117.295 22.9327C117.509 23.5509 117.597 24.2061 117.552 24.8589C114.864 24.8107 112.179 25.0447 109.54 25.5569C107.723 25.9009 105.98 26.5618 104.392 27.5095C103.203 28.2202 102.243 29.2561 101.624 30.4952C101.064 31.6862 100.779 32.988 100.79 34.3042C100.758 35.374 100.96 36.4379 101.38 37.4219C101.801 38.4059 102.432 39.2863 103.228 40.0017C105.199 41.6011 107.702 42.3964 110.235 42.2282C111.348 42.2428 112.458 42.0891 113.526 41.7721C114.396 41.5111 115.234 41.1533 116.024 40.7055C116.782 40.2679 117.496 39.7574 118.155 39.1813L119.373 41.9236H124.552V24.5718C124.569 23.0681 124.29 21.5758 123.73 20.18ZM117.548 30.9702C117.576 31.7448 117.441 32.5166 117.152 33.2358C116.863 33.9549 116.426 34.6053 115.87 35.145C115.277 35.693 114.581 36.1179 113.823 36.3948C113.065 36.6717 112.259 36.7952 111.453 36.758C110.489 36.7935 109.55 36.4546 108.83 35.8123C108.515 35.5586 108.258 35.2392 108.078 34.8764C107.899 34.5136 107.8 34.1159 107.789 33.7111C107.78 33.141 107.905 32.5767 108.156 32.0645C108.483 31.5023 108.987 31.0635 109.588 30.8157C110.528 30.4061 111.524 30.1395 112.542 30.0245C114.2 29.8197 115.869 29.7287 117.539 29.752L117.548 30.9702Z" fill="#8F8F8F"/>
</g>
<defs>
<clipPath id="clip0_5919_5052">
<rect width="124" height="52" fill="white" transform="translate(0.547852)"/>
</clipPath>
</defs>
</svg>
