<svg width="71" height="96" viewBox="0 0 71 96" fill="none" xmlns="http://www.w3.org/2000/svg">
<path d="M11.976 85.024H5.688L4.68 88H0.384L6.48 71.152H11.232L17.328 88H12.984L11.976 85.024ZM10.92 81.856L8.832 75.688L6.768 81.856H10.92ZM23.0233 84.616H28.8313V88H18.4393V84.736L24.0073 77.992H18.4873V74.608H28.7113V77.872L23.0233 84.616ZM44.3136 74.608V88H40.2096V86.176C39.7936 86.768 39.2256 87.248 38.5056 87.616C37.8016 87.968 37.0176 88.144 36.1536 88.144C35.1296 88.144 34.2256 87.92 33.4416 87.472C32.6576 87.008 32.0496 86.344 31.6176 85.48C31.1856 84.616 30.9696 83.6 30.9696 82.432V74.608H35.0496V81.88C35.0496 82.776 35.2816 83.472 35.7456 83.968C36.2096 84.464 36.8336 84.712 37.6176 84.712C38.4176 84.712 39.0496 84.464 39.5136 83.968C39.9776 83.472 40.2096 82.776 40.2096 81.88V74.608H44.3136ZM51.3654 76.84C51.8454 76.104 52.4454 75.528 53.1654 75.112C53.8854 74.68 54.6854 74.464 55.5654 74.464V78.808H54.4374C53.4134 78.808 52.6454 79.032 52.1334 79.48C51.6214 79.912 51.3654 80.68 51.3654 81.784V88H47.2614V74.608H51.3654V76.84ZM70.1511 81.088C70.1511 81.472 70.1271 81.872 70.0791 82.288H60.7911C60.8551 83.12 61.1191 83.76 61.5831 84.208C62.0631 84.64 62.6471 84.856 63.3351 84.856C64.3591 84.856 65.0711 84.424 65.4711 83.56H69.8391C69.6151 84.44 69.2071 85.232 68.6151 85.936C68.0391 86.64 67.3111 87.192 66.4311 87.592C65.5511 87.992 64.5671 88.192 63.4791 88.192C62.1671 88.192 60.9991 87.912 59.9751 87.352C58.9511 86.792 58.1511 85.992 57.5751 84.952C56.9991 83.912 56.7111 82.696 56.7111 81.304C56.7111 79.912 56.9911 78.696 57.5511 77.656C58.1271 76.616 58.9271 75.816 59.9511 75.256C60.9751 74.696 62.1511 74.416 63.4791 74.416C64.7751 74.416 65.9271 74.688 66.9351 75.232C67.9431 75.776 68.7271 76.552 69.2871 77.56C69.8631 78.568 70.1511 79.744 70.1511 81.088ZM65.9511 80.008C65.9511 79.304 65.7111 78.744 65.2311 78.328C64.7511 77.912 64.1511 77.704 63.4311 77.704C62.7431 77.704 62.1591 77.904 61.6791 78.304C61.2151 78.704 60.9271 79.272 60.8151 80.008H65.9511Z" fill="black"/>
<g clip-path="url(#clip0_6441_423)">
<path d="M28.6549 0.0429688H37.3965C34.966 5.72792 32.4743 11.3871 29.9218 17.0195C34.2282 17.1483 38.536 17.2319 42.8442 17.2701C37.8288 26.1269 32.8456 35.0016 27.8947 43.8939H26.2477C28.7014 36.677 31.193 29.4728 33.7225 22.2816C29.4131 22.2782 25.1044 22.1738 20.8 21.9684C23.4547 14.6727 26.073 7.36415 28.6549 0.0429688Z" fill="#FFD219"/>
<path d="M37.3966 0.0429688H46.2649L38.1567 12.3212C42.5188 12.4055 46.953 12.4891 51.4592 12.5718L29.1617 43.8939H27.8948C32.8456 35.0016 37.8288 26.1269 42.8443 17.2701C38.536 17.2319 34.2283 17.1483 29.9218 17.0195C32.4743 11.3871 34.966 5.72792 37.3966 0.0429688Z" fill="#FFBE14"/>
<path d="M3.57012 19.9643C5.3418 18.4214 7.03318 16.7906 8.63774 15.0781C9.10142 14.5361 9.60994 14.0332 10.158 13.5746C11.1678 12.7853 12.1009 11.9044 12.9452 10.9436C13.4089 10.4016 13.9174 9.89866 14.4655 9.44013C15.5177 8.60878 16.4928 7.68635 17.3794 6.68379C17.8431 6.14177 18.3516 5.63887 18.8997 5.18033C19.6102 4.68682 20.2436 4.1021 20.8 3.42629C22.1976 2.84521 23.0421 3.30464 23.3339 4.80447C23.3382 5.17194 23.2326 5.50608 23.0171 5.80677L8.32102 20.3402C7.88976 21.1018 7.97427 21.8118 8.5744 22.4701C13.5155 27.3146 18.4144 32.201 23.2705 37.1288C23.7566 38.023 23.6511 38.8374 22.9538 39.572C22.2168 39.8474 21.499 39.8056 20.8 39.4467L5.66051 24.9759L3.1267 21.969C3.04224 21.5134 3.04224 21.0464 3.1267 20.5908C3.215 20.3297 3.36285 20.1208 3.57012 19.9643ZM67.8023 21.0919V21.3425C67.7007 21.6363 67.5951 21.9286 67.4856 22.2195C61.5524 27.9617 55.6611 33.746 49.8122 39.572C47.7707 40.1414 46.9472 39.4106 47.3417 37.3794C47.3903 37.3098 47.4536 37.268 47.5318 37.2541C48.4186 36.4607 49.2633 35.6254 50.0656 34.7484C52.2615 32.4932 54.4998 30.2797 56.7802 28.1081C58.8483 26.2515 60.8552 24.3294 62.798 22.3448C62.8265 22.3102 62.847 22.2698 62.8579 22.2265C62.8689 22.1832 62.87 22.1381 62.8614 22.0942C63.0718 21.44 63.0084 20.8136 62.6713 20.2149C57.73 15.3699 52.7467 10.567 47.7218 5.80677C47.158 4.68168 47.4325 3.82546 48.5453 3.23836C49.0679 3.13137 49.5747 3.17321 50.0656 3.36365C55.8718 8.89657 61.6364 14.4721 67.3589 20.0896C67.5461 20.4227 67.694 20.7568 67.8023 21.0919Z" fill="#419CC7"/>
<path d="M20.8 3.42578C20.2436 4.10159 19.6101 4.68631 18.8997 5.17982C19.4561 4.50401 20.0895 3.91929 20.8 3.42578Z" fill="#7FB9D9"/>
<path d="M17.3793 6.68359C16.4928 7.68616 15.5176 8.60859 14.4655 9.43994C15.352 8.43735 16.3272 7.51492 17.3793 6.68359Z" fill="#85BCDB"/>
<path d="M38.1566 12.3213C42.6339 12.2796 47.1102 12.3213 51.5858 12.4466C51.5701 12.5226 51.5279 12.5644 51.4591 12.5719C46.9529 12.4892 42.5187 12.4056 38.1566 12.3213Z" fill="#FFEEB6"/>
<path d="M12.9453 10.9434C12.101 11.9042 11.1679 12.785 10.1581 13.5744C11.0024 12.6136 11.9355 11.7328 12.9453 10.9434Z" fill="#86BDDB"/>
<path d="M8.6377 15.0781C7.03314 16.7906 5.34175 18.4214 3.57007 19.9644C5.17463 18.2519 6.86601 16.6211 8.6377 15.0781Z" fill="#81B9D9"/>
<path d="M62.8613 22.0938C62.87 22.1376 62.8688 22.1827 62.8579 22.226C62.8469 22.2693 62.8265 22.3097 62.798 22.3443C60.8552 24.3289 58.8482 26.251 56.7802 28.1076C58.7648 26.0615 60.7923 24.0564 62.8613 22.0938Z" fill="#7DB7D8"/>
<path d="M50.0656 34.748C49.2632 35.6251 48.4186 36.4604 47.5317 37.2538C47.5231 37.21 47.5242 37.1649 47.5352 37.1215C47.5461 37.0782 47.5666 37.0378 47.5951 37.0032C48.3666 36.1768 49.1901 35.4251 50.0656 34.748Z" fill="#A2CDE3"/>
</g>
<defs>
<clipPath id="clip0_6441_423">
<rect width="65" height="44" fill="white" transform="translate(3)"/>
</clipPath>
</defs>
</svg>
