<svg width="378" height="378" viewBox="0 0 378 378" fill="none" xmlns="http://www.w3.org/2000/svg">
<path d="M333.553 169.659C330.814 167.456 327.611 165.901 324.185 165.11C320.76 164.319 317.2 164.313 313.771 165.091C308.619 166.283 303.264 166.302 298.103 165.146C292.941 163.991 288.106 161.691 283.953 158.416C279.8 155.142 276.435 150.976 274.108 146.226C271.78 141.477 270.55 136.266 270.506 130.977C270.469 124.763 267.985 118.814 263.593 114.418C259.2 110.023 253.253 107.535 247.039 107.494C241.748 107.456 236.534 106.229 231.781 103.904C227.029 101.578 222.861 98.2136 219.585 94.059C216.309 89.9044 214.009 85.0661 212.856 79.9025C211.703 74.7388 211.727 69.382 212.924 64.2285C213.668 60.7767 213.634 57.2027 212.824 53.7658C212.014 50.3289 210.45 47.1154 208.243 44.3586C206.037 41.6018 203.244 39.3709 200.069 37.8278C196.893 36.2847 193.413 35.4682 189.882 35.4375H189C168.752 35.4579 148.708 39.4783 130.018 47.2679C111.328 55.0574 94.3616 66.4625 80.0925 80.8282C65.8234 95.1939 54.5329 112.237 46.8697 130.979C39.2064 149.721 35.3213 169.792 35.4375 190.039C35.6923 230.767 52.1155 269.725 81.0943 298.343C110.073 326.962 149.233 342.896 189.961 342.641C230.688 342.386 269.646 325.963 298.264 296.984C326.883 268.006 342.817 228.845 342.562 188.118C342.58 184.556 341.776 181.038 340.214 177.836C338.651 174.635 336.372 171.837 333.553 169.659ZM111.478 146.916C113.127 145.274 115.083 143.972 117.234 143.086C119.386 142.199 121.691 141.745 124.017 141.75C126.344 141.754 128.647 142.217 130.796 143.111C132.944 144.006 134.894 145.315 136.537 146.963C138.179 148.612 139.48 150.567 140.367 152.719C141.253 154.87 141.707 157.175 141.703 159.502C141.698 161.829 141.236 164.132 140.341 166.28C139.447 168.428 138.138 170.379 136.489 172.021C133.16 175.338 128.65 177.196 123.951 177.188C119.251 177.179 114.748 175.303 111.431 171.974C108.115 168.645 106.256 164.135 106.265 159.435C106.274 154.736 108.149 150.233 111.478 146.916ZM148.396 254.709C146.747 256.352 144.79 257.655 142.637 258.542C140.484 259.429 138.178 259.883 135.85 259.878C133.521 259.874 131.217 259.411 129.067 258.516C126.918 257.621 124.966 256.311 123.322 254.662C121.679 253.012 120.377 251.055 119.49 248.902C118.603 246.75 118.149 244.443 118.153 242.115C118.158 239.787 118.62 237.482 119.516 235.333C120.411 233.183 121.72 231.231 123.37 229.588C126.701 226.269 131.214 224.41 135.917 224.418C140.619 224.427 145.125 226.304 148.444 229.635C151.762 232.966 153.622 237.479 153.613 242.182C153.604 246.884 151.728 251.39 148.396 254.709ZM188.26 195.646C186.617 193.998 185.316 192.042 184.43 189.891C183.543 187.739 183.089 185.434 183.094 183.108C183.098 180.781 183.561 178.477 184.455 176.329C185.35 174.181 186.659 172.23 188.307 170.588C189.955 168.946 191.911 167.645 194.063 166.758C196.214 165.872 198.519 165.418 200.846 165.422C203.173 165.427 205.476 165.889 207.624 166.784C209.772 167.678 211.723 168.987 213.365 170.635C216.682 173.965 218.54 178.475 218.531 183.174C218.522 187.874 216.647 192.377 213.318 195.694C209.989 199.01 205.478 200.869 200.779 200.86C196.08 200.851 191.576 198.976 188.26 195.646ZM242.896 266.521C241.248 268.165 239.292 269.467 237.14 270.355C234.988 271.242 232.683 271.697 230.355 271.693C228.028 271.69 225.724 271.227 223.575 270.333C221.426 269.439 219.474 268.131 217.83 266.482C216.187 264.834 214.885 262.878 213.997 260.726C213.11 258.574 212.655 256.269 212.659 253.941C212.662 251.613 213.124 249.309 214.019 247.16C214.913 245.011 216.221 243.059 217.87 241.416C221.199 238.097 225.71 236.237 230.411 236.244C235.112 236.252 239.617 238.126 242.936 241.455C246.255 244.785 248.115 249.296 248.108 253.997C248.1 258.697 246.226 263.203 242.896 266.521Z" fill="#2B00AC" fill-opacity="0.05"/>
</svg>
