<svg width="390" height="390" viewBox="0 0 390 390" fill="none" xmlns="http://www.w3.org/2000/svg">
<g clip-path="url(#clip0_7922_8446)">
<path d="M195 0C302.64 0 390 87.36 390 195C390 302.64 302.64 390 195 390C87.36 390 0 302.64 0 195C0 87.36 87.36 0 195 0ZM195 97.5C141.18 97.5 97.5 141.18 97.5 195C97.5289 216.31 104.536 237.023 117.449 253.975C130.362 270.926 148.472 283.182 169.008 288.869C189.545 294.556 211.379 293.361 231.173 285.467C250.966 277.572 267.63 263.413 278.616 245.154L245.174 225.108C238.588 236.076 228.588 244.583 216.706 249.326C204.824 254.068 191.714 254.785 179.386 251.366C167.058 247.947 156.19 240.58 148.448 230.395C140.706 220.21 136.516 207.768 136.52 194.975C136.524 182.181 140.722 169.741 148.471 159.561C156.22 149.381 167.092 142.022 179.423 138.611C191.753 135.2 204.862 135.925 216.741 140.675C228.62 145.426 238.614 153.939 245.193 164.911L278.616 144.826C269.953 130.388 257.697 118.44 243.044 110.146C228.39 101.852 211.838 97.4952 195 97.5Z" fill="#2B00AC" fill-opacity="0.05"/>
</g>
<defs>
<clipPath id="clip0_7922_8446">
<rect width="390" height="390" fill="white"/>
</clipPath>
</defs>
</svg>
