<svg width="89" height="103" viewBox="0 0 89 103" fill="none" xmlns="http://www.w3.org/2000/svg">
<path d="M7.8 78.152C9.576 78.152 11.128 78.504 12.456 79.208C13.784 79.912 14.808 80.904 15.528 82.184C16.264 83.448 16.632 84.912 16.632 86.576C16.632 88.224 16.264 89.688 15.528 90.968C14.808 92.248 13.776 93.24 12.432 93.944C11.104 94.648 9.56 95 7.8 95H1.488V78.152H7.8ZM7.536 91.448C9.088 91.448 10.296 91.024 11.16 90.176C12.024 89.328 12.456 88.128 12.456 86.576C12.456 85.024 12.024 83.816 11.16 82.952C10.296 82.088 9.088 81.656 7.536 81.656H5.592V91.448H7.536ZM20.9655 80.216C20.2455 80.216 19.6535 80.008 19.1895 79.592C18.7415 79.16 18.5175 78.632 18.5175 78.008C18.5175 77.368 18.7415 76.84 19.1895 76.424C19.6535 75.992 20.2455 75.776 20.9655 75.776C21.6695 75.776 22.2455 75.992 22.6935 76.424C23.1575 76.84 23.3895 77.368 23.3895 78.008C23.3895 78.632 23.1575 79.16 22.6935 79.592C22.2455 80.008 21.6695 80.216 20.9655 80.216ZM23.0295 96.728C23.0295 98.376 22.6135 99.56 21.7815 100.28C20.9495 101.016 19.7895 101.384 18.3015 101.384H16.6935V97.904H17.6775C18.1255 97.904 18.4455 97.816 18.6375 97.64C18.8295 97.464 18.9255 97.176 18.9255 96.776V81.608H23.0295V96.728ZM25.1642 88.28C25.1642 86.904 25.4202 85.696 25.9322 84.656C26.4602 83.616 27.1722 82.816 28.0682 82.256C28.9642 81.696 29.9642 81.416 31.0682 81.416C32.0122 81.416 32.8362 81.608 33.5402 81.992C34.2602 82.376 34.8122 82.88 35.1962 83.504V81.608H39.3002V95H35.1962V93.104C34.7962 93.728 34.2362 94.232 33.5162 94.616C32.8122 95 31.9882 95.192 31.0442 95.192C29.9562 95.192 28.9642 94.912 28.0682 94.352C27.1722 93.776 26.4602 92.968 25.9322 91.928C25.4202 90.872 25.1642 89.656 25.1642 88.28ZM35.1962 88.304C35.1962 87.28 34.9082 86.472 34.3322 85.88C33.7722 85.288 33.0842 84.992 32.2682 84.992C31.4522 84.992 30.7562 85.288 30.1802 85.88C29.6202 86.456 29.3402 87.256 29.3402 88.28C29.3402 89.304 29.6202 90.12 30.1802 90.728C30.7562 91.32 31.4522 91.616 32.2682 91.616C33.0842 91.616 33.7722 91.32 34.3322 90.728C34.9082 90.136 35.1962 89.328 35.1962 88.304ZM50.4293 81.464C51.9973 81.464 53.2453 81.976 54.1733 83C55.1173 84.008 55.5893 85.4 55.5893 87.176V95H51.5093V87.728C51.5093 86.832 51.2773 86.136 50.8133 85.64C50.3493 85.144 49.7253 84.896 48.9413 84.896C48.1573 84.896 47.5333 85.144 47.0693 85.64C46.6053 86.136 46.3733 86.832 46.3733 87.728V95H42.2693V81.608H46.3733V83.384C46.7893 82.792 47.3493 82.328 48.0533 81.992C48.7573 81.64 49.5493 81.464 50.4293 81.464ZM63.5291 81.416C64.4731 81.416 65.2971 81.608 66.0011 81.992C66.7211 82.376 67.2731 82.88 67.6571 83.504V81.608H71.7611V94.976C71.7611 96.208 71.5131 97.32 71.0171 98.312C70.5371 99.32 69.7931 100.12 68.7851 100.712C67.7931 101.304 66.5531 101.6 65.0651 101.6C63.0811 101.6 61.4731 101.128 60.2411 100.184C59.0091 99.256 58.3051 97.992 58.1291 96.392H62.1851C62.3131 96.904 62.6171 97.304 63.0971 97.592C63.5771 97.896 64.1691 98.048 64.8731 98.048C65.7211 98.048 66.3931 97.8 66.8891 97.304C67.4011 96.824 67.6571 96.048 67.6571 94.976V93.08C67.2571 93.704 66.7051 94.216 66.0011 94.616C65.2971 95 64.4731 95.192 63.5291 95.192C62.4251 95.192 61.4251 94.912 60.5291 94.352C59.6331 93.776 58.9211 92.968 58.3931 91.928C57.8811 90.872 57.6251 89.656 57.6251 88.28C57.6251 86.904 57.8811 85.696 58.3931 84.656C58.9211 83.616 59.6331 82.816 60.5291 82.256C61.4251 81.696 62.4251 81.416 63.5291 81.416ZM67.6571 88.304C67.6571 87.28 67.3691 86.472 66.7931 85.88C66.2331 85.288 65.5451 84.992 64.7291 84.992C63.9131 84.992 63.2171 85.288 62.6411 85.88C62.0811 86.456 61.8011 87.256 61.8011 88.28C61.8011 89.304 62.0811 90.12 62.6411 90.728C63.2171 91.32 63.9131 91.616 64.7291 91.616C65.5451 91.616 66.2331 91.32 66.7931 90.728C67.3691 90.136 67.6571 89.328 67.6571 88.304ZM80.8262 95.192C79.5142 95.192 78.3302 94.912 77.2742 94.352C76.2342 93.792 75.4102 92.992 74.8022 91.952C74.2102 90.912 73.9142 89.696 73.9142 88.304C73.9142 86.928 74.2182 85.72 74.8262 84.68C75.4342 83.624 76.2662 82.816 77.3222 82.256C78.3782 81.696 79.5622 81.416 80.8742 81.416C82.1862 81.416 83.3702 81.696 84.4262 82.256C85.4822 82.816 86.3142 83.624 86.9222 84.68C87.5302 85.72 87.8342 86.928 87.8342 88.304C87.8342 89.68 87.5222 90.896 86.8982 91.952C86.2902 92.992 85.4502 93.792 84.3782 94.352C83.3222 94.912 82.1382 95.192 80.8262 95.192ZM80.8262 91.64C81.6102 91.64 82.2742 91.352 82.8182 90.776C83.3782 90.2 83.6582 89.376 83.6582 88.304C83.6582 87.232 83.3862 86.408 82.8422 85.832C82.3142 85.256 81.6582 84.968 80.8742 84.968C80.0742 84.968 79.4102 85.256 78.8822 85.832C78.3542 86.392 78.0902 87.216 78.0902 88.304C78.0902 89.376 78.3462 90.2 78.8582 90.776C79.3862 91.352 80.0422 91.64 80.8262 91.64Z" fill="black"/>
<path d="M42.9102 6.94141H50.2228V41.0906C46.4692 41.8057 43.7139 42.0978 40.724 42.0978C31.7992 42.0978 27.1471 38.0237 27.1471 30.2128C27.1471 22.6941 32.0837 17.8041 39.7307 17.8041C40.9186 17.8041 41.8221 17.8998 42.9102 18.1868V6.94141ZM42.9102 24.1293C42.0567 23.8423 41.3429 23.7466 40.4395 23.7466C36.7408 23.7466 34.5994 26.043 34.5994 30.0718C34.5994 33.9999 36.6409 36.1553 40.3895 36.1553C41.1982 36.1553 41.862 36.105 42.9053 35.969L42.9102 24.1293ZM61.848 18.3329V35.4352C61.848 41.3273 61.4187 44.1525 60.1359 46.6C58.9479 48.9468 57.3806 50.4324 54.1511 52.0591L47.3577 48.8008C50.5872 47.2698 52.1545 45.9252 53.1478 43.8655C54.191 41.7554 54.5255 39.3129 54.5255 32.897V18.3329H61.848ZM54.5404 6.97666H61.853V14.5458H54.5404V6.97666Z" fill="#0C4B33"/>
</svg>
