<svg width="52" height="96" viewBox="0 0 52 96" fill="none" xmlns="http://www.w3.org/2000/svg">
<path d="M3.408 88.192C2.688 88.192 2.096 87.984 1.632 87.568C1.184 87.136 0.96 86.608 0.96 85.984C0.96 85.344 1.184 84.808 1.632 84.376C2.096 83.944 2.688 83.728 3.408 83.728C4.112 83.728 4.688 83.944 5.136 84.376C5.6 84.808 5.832 85.344 5.832 85.984C5.832 86.608 5.6 87.136 5.136 87.568C4.688 87.984 4.112 88.192 3.408 88.192ZM23.3334 88H19.2294L12.3654 77.608V88H8.26144V71.152H12.3654L19.2294 81.592V71.152H23.3334V88ZM30.4123 74.44V77.848H35.9083V81.016H30.4123V84.712H36.6283V88H26.3083V71.152H36.6283V74.44H30.4123ZM51.4127 71.152V74.44H46.9487V88H42.8447V74.44H38.3807V71.152H51.4127Z" fill="black"/>
<g clip-path="url(#clip0_6441_361)">
<path d="M9.8381 0.182617H44.527C44.6895 0.259298 44.8445 0.368294 45.0156 0.407548C47.362 0.946687 48.6324 2.49527 48.6349 4.95417C48.6472 16.3478 48.6479 27.7417 48.6344 39.1354C48.6313 41.7173 47.4438 43.1613 44.9271 43.7948C44.7856 43.8304 44.66 43.9301 44.527 44H9.8381C9.67543 43.9237 9.52006 43.8153 9.34899 43.7757C7.03049 43.2394 5.73805 41.7199 5.73403 39.319C5.71432 27.8339 5.71413 16.3486 5.73403 4.86307C5.73805 2.46296 7.03359 0.939932 9.34953 0.407548C9.52061 0.368294 9.67561 0.259298 9.8381 0.182617ZM21.8312 22.4126L21.6575 22.471C20.8515 21.0447 19.9932 19.6449 19.2593 18.1825C18.8143 17.2963 18.2418 16.8853 17.2614 17.0725C17.1146 17.1004 16.955 17.0953 16.8062 17.0734C16.0273 16.9584 15.8051 17.3312 15.8124 18.0606C15.8382 20.6465 15.8168 23.2331 15.824 25.8194C15.8271 26.924 15.8387 26.924 17.1418 26.924C18.4435 26.924 18.4517 26.924 18.4585 25.8181C18.4671 24.4368 18.4605 23.055 18.4605 21.6737C19.4895 23.1474 20.3629 24.6358 21.1765 26.1564C21.4921 26.7459 21.885 27.0134 22.5485 26.9311C22.8782 26.89 23.2184 26.9042 23.5514 26.9272C24.0469 26.9616 24.2932 26.7585 24.293 26.2543C24.2913 23.4248 24.3052 20.5951 24.2698 17.7659C24.2669 17.5359 23.9574 17.1437 23.7491 17.1137C23.1367 17.0259 22.5038 17.0823 21.8312 17.0823V22.4126ZM25.829 22.0109C25.829 23.38 25.8443 24.7495 25.8215 26.1183C25.8122 26.6828 25.9783 26.9417 26.5965 26.9335C28.6956 26.9061 30.7959 26.89 32.8942 26.9384C33.8056 26.9596 33.627 26.3861 33.6606 25.8575C33.6984 25.2609 33.615 24.8751 32.8487 24.9124C31.6649 24.9699 30.4749 24.8941 29.29 24.9372C28.3897 24.9699 28.5219 24.3709 28.5283 23.8343C28.5345 23.3105 28.3611 22.6828 29.273 22.7164C30.3062 22.7543 31.3431 22.6923 32.3759 22.7341C33.1337 22.7648 33.1231 22.2961 33.0992 21.7854C33.0766 21.3003 33.2657 20.6938 32.4027 20.7223C31.4301 20.7544 30.4552 20.7095 29.4823 20.7349C28.89 20.7504 28.502 20.6834 28.5048 19.921C28.5077 19.2048 28.8027 19.0419 29.4417 19.0636C30.5052 19.1 31.5731 19.0333 32.6353 19.0863C33.3786 19.1233 33.5104 18.764 33.4726 18.1475C33.4395 17.6076 33.5843 17.044 32.6904 17.0634C30.6529 17.1075 28.6136 17.09 26.5753 17.069C26.0247 17.0634 25.8147 17.2631 25.8229 17.8119C25.8438 19.2115 25.8299 20.6113 25.829 22.0109ZM34.2755 19.0735C34.9712 19.0735 35.5495 19.1029 36.1234 19.0656C36.7527 19.0246 36.9884 19.2608 36.9771 19.9027C36.9462 21.666 36.9566 23.4302 36.9696 25.1941C36.9844 27.1825 36.7417 26.8705 38.7322 26.9367C39.4468 26.9607 39.6971 26.7321 39.6841 26.01C39.648 24.0037 39.6991 21.9956 39.6584 19.9891C39.6434 19.2557 39.905 19.0065 40.6121 19.0642C41.177 19.11 41.7483 19.0735 42.3621 19.0735V17.134H34.2755V19.0735ZM13.0417 26.924C14.5268 26.9254 14.6825 26.7724 14.4442 25.3288C14.4079 25.1083 14.0753 24.8176 13.8397 24.774C13.3702 24.6865 12.8699 24.7176 12.3885 24.763C12.1893 24.782 11.9017 24.9186 11.8316 25.0789C11.3567 26.1659 11.869 26.9229 13.0417 26.924Z" fill="#006EE5"/>
<path d="M21.8312 22.4128V17.0826C22.504 17.0826 23.137 17.026 23.7491 17.114C23.9574 17.1439 24.2669 17.5363 24.2698 17.7661C24.3052 20.5953 24.2914 23.425 24.293 26.2545C24.2932 26.7588 24.0469 26.9616 23.5514 26.9275C23.2184 26.9045 22.8781 26.8904 22.5485 26.9313C21.8851 27.0136 21.492 26.7462 21.1765 26.1566C20.3629 24.636 19.4895 23.1478 18.4605 21.6739C18.4605 23.0553 18.4671 24.437 18.4585 25.8183C18.4516 26.9242 18.4435 26.9242 17.1418 26.9242C15.8388 26.9242 15.8271 26.9242 15.824 25.8196C15.8169 23.2333 15.8382 20.6468 15.8125 18.0608C15.8052 17.3314 16.0274 16.9586 16.8062 17.0736C16.955 17.0955 17.1146 17.1006 17.2614 17.0727C18.2418 16.8856 18.8144 17.2967 19.2593 18.1828C19.9934 19.6452 20.8517 21.0451 21.6576 22.4712L21.8312 22.4128ZM25.8296 22.0111C25.8299 20.6115 25.844 19.2117 25.823 17.8123C25.8148 17.2635 26.0245 17.0636 26.5754 17.0694C28.6136 17.0904 30.653 17.1079 32.6905 17.0638C33.5844 17.0444 33.4398 17.6078 33.4726 18.1479C33.5104 18.7644 33.3786 19.1237 32.6353 19.0867C31.5731 19.0337 30.5053 19.1004 29.4418 19.064C28.8028 19.0423 28.5077 19.2052 28.5048 19.9214C28.5019 20.6838 28.8898 20.7508 29.4823 20.7353C30.4552 20.7097 31.4302 20.7547 32.4027 20.7227C33.2659 20.6942 33.0766 21.3007 33.0993 21.7858C33.1232 22.2965 33.1338 22.7652 32.3759 22.7345C31.3431 22.6927 30.3062 22.7548 29.2731 22.7168C28.3611 22.6832 28.5346 23.3109 28.5284 23.8347C28.522 24.3713 28.3898 24.9703 29.29 24.9376C30.4749 24.8947 31.665 24.9705 32.8488 24.9128C33.615 24.8755 33.6985 25.2613 33.6607 25.858C33.6269 26.3865 33.8056 26.96 32.8942 26.9388C30.7961 26.8902 28.6956 26.9063 26.5965 26.9339C25.9785 26.9421 25.8122 26.6832 25.8215 26.1187C25.8445 24.7497 25.829 23.3802 25.8296 22.0111ZM34.2756 19.0737V17.1342H42.3621V19.0737C41.7483 19.0737 41.177 19.1102 40.6122 19.0644C39.905 19.0069 39.6434 19.2561 39.6584 19.9893C39.6991 21.9956 39.6478 24.0037 39.6841 26.0102C39.6971 26.7323 39.4468 26.9609 38.7322 26.937C36.7418 26.8707 36.9844 27.1827 36.9696 25.1943C36.9567 23.4305 36.9463 21.6663 36.9771 19.903C36.9886 19.261 36.7527 19.0248 36.1234 19.0659C35.5494 19.1031 34.971 19.0737 34.2756 19.0737ZM13.0417 26.9242C11.8689 26.9231 11.3568 26.1663 11.8317 25.0793C11.9018 24.9188 12.1893 24.7822 12.3885 24.7634C12.8701 24.718 13.3702 24.6869 13.8398 24.7744C14.0753 24.818 14.4079 25.1087 14.4443 25.3292C14.6825 26.7726 14.527 26.9256 13.0417 26.9242Z" fill="white"/>
</g>
<defs>
<clipPath id="clip0_6441_361">
<rect width="44" height="44" fill="white" transform="translate(5)"/>
</clipPath>
</defs>
</svg>
