<svg width="60" height="60" viewBox="0 0 60 60" fill="none" xmlns="http://www.w3.org/2000/svg">
<rect width="60" height="60" rx="5" fill="white"/>
<path d="M28.6582 16.0273C30.5222 16.0273 32.3249 16.3769 34.0702 17.0812C35.8594 17.8094 37.4425 18.8586 38.8178 20.2383L38.8413 20.2622L43.0281 24.3579V18.9016C43.0281 18.5038 43.1674 18.164 43.45 17.886C43.7296 17.6034 44.0686 17.4645 44.465 17.4645C44.8621 17.4645 45.2008 17.6034 45.4811 17.886C45.7628 18.164 45.903 18.5041 45.903 18.9016V27.5245C45.903 27.9223 45.7628 28.2575 45.4811 28.5401C45.2008 28.8227 44.8621 28.9616 44.465 28.9616H35.8435C35.4471 28.9616 35.1077 28.8227 34.8276 28.5401C34.5459 28.2573 34.4057 27.9221 34.4057 27.5245C34.4057 27.1267 34.5459 26.7868 34.8276 26.5088C35.1079 26.2262 35.4471 26.0873 35.8435 26.0873H40.693L36.7867 22.2694C35.6931 21.1771 34.4491 20.3388 33.0538 19.7639C31.6581 19.1891 30.1927 18.9016 28.6582 18.9016C27.1475 18.9016 25.7065 19.1794 24.3369 19.74C22.9076 20.31 21.6388 21.1532 20.5314 22.2694C20.083 22.6669 19.5905 23.2705 19.0545 24.0802C18.5187 24.8944 18.1064 25.7233 17.8137 26.5663C17.6792 26.94 17.4324 27.2131 17.0726 27.3808C16.713 27.5486 16.3508 27.5723 15.985 27.4429C15.6097 27.3088 15.3381 27.0646 15.17 26.71C15.0022 26.3509 14.9826 25.9915 15.1091 25.6226C15.4244 24.6647 15.8799 23.7162 16.4791 22.7723C17.077 21.8286 17.7507 20.9856 18.4996 20.2335C19.877 18.8584 21.4597 17.8046 23.2486 17.0812C24.992 16.3771 26.7955 16.0273 28.6592 16.0273H28.6582ZM12.8515 31.8359H21.473C21.8696 31.8359 22.2088 31.9748 22.4889 32.2574C22.7708 32.5354 22.9111 32.8755 22.9111 33.2731C22.9111 33.6709 22.7708 34.0061 22.4889 34.2887C22.2088 34.5713 21.8696 34.7102 21.473 34.7102H16.6235L20.5298 38.5282C21.6388 39.6443 22.9062 40.4875 24.3353 41.0529C25.7049 41.6179 27.145 41.8959 28.6573 41.8959C30.1697 41.8959 31.6091 41.6181 32.9791 41.0527C33.718 40.752 34.4234 40.3747 35.0838 39.9271C35.7382 39.4815 36.2949 39.0216 36.7555 38.5569C37.2142 38.0895 37.6354 37.5865 38.0151 37.0529C38.391 36.5162 38.6943 36.0227 38.9243 35.5725C39.1473 35.1376 39.34 34.6878 39.501 34.2264C39.6366 33.8527 39.8841 33.5844 40.243 33.4119C40.6022 33.2443 40.965 33.2252 41.3306 33.3545C41.7059 33.4887 41.9765 33.7329 42.1446 34.0875C42.3132 34.4419 42.3339 34.8061 42.2056 35.1701C41.8921 36.1283 41.4357 37.0816 40.8365 38.0253C40.2377 38.9641 39.5642 39.8119 38.816 40.5592C37.4377 41.9389 35.8545 42.9881 34.0677 43.7164C32.3318 44.4205 30.5277 44.7702 28.6566 44.7702C26.7923 44.7702 24.9897 44.4207 23.2447 43.7164C21.4555 42.9881 19.8724 41.9389 18.4962 40.5592L14.2866 36.4398V41.8959C14.2866 42.2937 14.1468 42.629 13.8647 42.9116C13.585 43.1942 13.2461 43.3331 12.8492 43.3331C12.4526 43.3331 12.1134 43.1942 11.8336 42.9116C11.5514 42.6287 11.4116 42.2935 11.4116 41.8959V33.2731C11.4116 32.8753 11.5514 32.54 11.8336 32.2574C12.1134 31.9748 12.4526 31.8359 12.8492 31.8359H12.8515Z" fill="#2B00AC"/>
</svg>
