<svg width="129" height="96" viewBox="0 0 129 96" fill="none" xmlns="http://www.w3.org/2000/svg">
<path d="M41.75 3H87.25V48.5H41.75V3Z" fill="#F5DE19"/>
<path d="M72.2394 38.423C72.6234 39.2029 73.2199 39.8584 73.9602 40.314C74.7006 40.7696 75.5546 41.0067 76.4238 40.998C78.178 40.998 79.2998 40.1209 79.2998 38.9058C79.2998 37.4574 78.1475 36.9392 76.2162 36.0942L75.1572 35.6404C72.0994 34.3384 70.0716 32.7081 70.0716 29.2608C70.0716 26.0855 72.4857 23.6666 76.2725 23.6666C77.4984 23.5781 78.7232 23.8525 79.7942 24.4555C80.8651 25.0585 81.7348 25.9635 82.2948 27.0576L78.9843 29.1739C78.7687 28.6314 78.3933 28.1673 77.9078 27.8431C77.4223 27.5189 76.8498 27.3499 76.2661 27.3586C76.0114 27.3331 75.7542 27.3609 75.5109 27.4403C75.2676 27.5197 75.0435 27.6489 74.8529 27.8197C74.6623 27.9905 74.5093 28.1991 74.4038 28.4322C74.2982 28.6654 74.2424 28.918 74.2399 29.1739C74.2399 30.4437 75.0269 30.9587 76.8439 31.7489L77.9028 32.2028C81.5014 33.7462 83.5356 35.3185 83.5356 38.8543C83.5356 42.6669 80.5406 44.7559 76.5188 44.7559C74.9517 44.8557 73.3893 44.5 72.0199 43.7315C70.6506 42.963 69.533 41.8147 68.8018 40.4251L72.2394 38.423ZM57.2803 38.7899C57.945 39.9696 58.5501 40.9674 60.005 40.9674C61.3955 40.9674 62.2742 40.4235 62.2742 38.3071V23.9081H66.5084V38.3635C66.5084 42.7474 63.9334 44.743 60.1852 44.743C58.8603 44.8154 57.5445 44.4853 56.4107 43.7959C55.277 43.1065 54.3784 42.0902 53.833 40.8805L57.2803 38.7899Z" fill="black"/>
<path d="M5.62716 73.94V77.348H11.1232V80.516H5.62716V84.212H11.8432V87.5H1.52316V70.652H11.8432V73.94H5.62716ZM22.4275 87.5L19.8595 83.78L17.6995 87.5H13.2595L17.6755 80.66L13.1395 74.108H17.7475L20.3155 77.804L22.4755 74.108H26.9155L22.4275 80.852L27.0355 87.5H22.4275ZM32.7209 76.004C33.1209 75.38 33.6729 74.876 34.3769 74.492C35.0809 74.108 35.9049 73.916 36.8489 73.916C37.9529 73.916 38.9529 74.196 39.8489 74.756C40.7449 75.316 41.4489 76.116 41.9609 77.156C42.4889 78.196 42.7529 79.404 42.7529 80.78C42.7529 82.156 42.4889 83.372 41.9609 84.428C41.4489 85.468 40.7449 86.276 39.8489 86.852C38.9529 87.412 37.9529 87.692 36.8489 87.692C35.9209 87.692 35.0969 87.5 34.3769 87.116C33.6729 86.732 33.1209 86.236 32.7209 85.628V93.884H28.6169V74.108H32.7209V76.004ZM38.5769 80.78C38.5769 79.756 38.2889 78.956 37.7129 78.38C37.1529 77.788 36.4569 77.492 35.6249 77.492C34.8089 77.492 34.1129 77.788 33.5369 78.38C32.9769 78.972 32.6969 79.78 32.6969 80.804C32.6969 81.828 32.9769 82.636 33.5369 83.228C34.1129 83.82 34.8089 84.116 35.6249 84.116C36.4409 84.116 37.1369 83.82 37.7129 83.228C38.2889 82.62 38.5769 81.804 38.5769 80.78ZM49.01 76.34C49.49 75.604 50.09 75.028 50.81 74.612C51.53 74.18 52.33 73.964 53.21 73.964V78.308H52.082C51.058 78.308 50.29 78.532 49.778 78.98C49.266 79.412 49.01 80.18 49.01 81.284V87.5H44.906V74.108H49.01V76.34ZM67.7956 80.588C67.7956 80.972 67.7716 81.372 67.7236 81.788H58.4356C58.4996 82.62 58.7636 83.26 59.2276 83.708C59.7076 84.14 60.2916 84.356 60.9796 84.356C62.0036 84.356 62.7156 83.924 63.1156 83.06H67.4836C67.2596 83.94 66.8516 84.732 66.2596 85.436C65.6836 86.14 64.9556 86.692 64.0756 87.092C63.1956 87.492 62.2116 87.692 61.1236 87.692C59.8116 87.692 58.6436 87.412 57.6196 86.852C56.5956 86.292 55.7956 85.492 55.2196 84.452C54.6436 83.412 54.3556 82.196 54.3556 80.804C54.3556 79.412 54.6356 78.196 55.1956 77.156C55.7716 76.116 56.5716 75.316 57.5956 74.756C58.6196 74.196 59.7956 73.916 61.1236 73.916C62.4196 73.916 63.5716 74.188 64.5796 74.732C65.5876 75.276 66.3716 76.052 66.9316 77.06C67.5076 78.068 67.7956 79.244 67.7956 80.588ZM63.5956 79.508C63.5956 78.804 63.3556 78.244 62.8756 77.828C62.3956 77.412 61.7956 77.204 61.0756 77.204C60.3876 77.204 59.8036 77.404 59.3236 77.804C58.8596 78.204 58.5716 78.772 58.4596 79.508H63.5956ZM75.4087 87.692C74.2407 87.692 73.2007 87.492 72.2887 87.092C71.3767 86.692 70.6567 86.148 70.1287 85.46C69.6007 84.756 69.3047 83.972 69.2407 83.108H73.2967C73.3447 83.572 73.5607 83.948 73.9447 84.236C74.3287 84.524 74.8007 84.668 75.3607 84.668C75.8727 84.668 76.2647 84.572 76.5367 84.38C76.8247 84.172 76.9687 83.908 76.9687 83.588C76.9687 83.204 76.7687 82.924 76.3687 82.748C75.9687 82.556 75.3207 82.348 74.4247 82.124C73.4647 81.9 72.6647 81.668 72.0247 81.428C71.3847 81.172 70.8327 80.78 70.3687 80.252C69.9047 79.708 69.6727 78.98 69.6727 78.068C69.6727 77.3 69.8807 76.604 70.2967 75.98C70.7287 75.34 71.3527 74.836 72.1687 74.468C73.0007 74.1 73.9847 73.916 75.1207 73.916C76.8007 73.916 78.1207 74.332 79.0807 75.164C80.0567 75.996 80.6167 77.1 80.7607 78.476H76.9687C76.9047 78.012 76.6967 77.644 76.3447 77.372C76.0087 77.1 75.5607 76.964 75.0007 76.964C74.5207 76.964 74.1527 77.06 73.8967 77.252C73.6407 77.428 73.5127 77.676 73.5127 77.996C73.5127 78.38 73.7127 78.668 74.1127 78.86C74.5287 79.052 75.1687 79.244 76.0327 79.436C77.0247 79.692 77.8327 79.948 78.4567 80.204C79.0807 80.444 79.6247 80.844 80.0887 81.404C80.5687 81.948 80.8167 82.684 80.8327 83.612C80.8327 84.396 80.6087 85.1 80.1607 85.724C79.7287 86.332 79.0967 86.812 78.2647 87.164C77.4487 87.516 76.4967 87.692 75.4087 87.692ZM88.7915 87.692C87.6235 87.692 86.5835 87.492 85.6715 87.092C84.7595 86.692 84.0395 86.148 83.5115 85.46C82.9835 84.756 82.6875 83.972 82.6235 83.108H86.6795C86.7275 83.572 86.9435 83.948 87.3275 84.236C87.7115 84.524 88.1835 84.668 88.7435 84.668C89.2555 84.668 89.6475 84.572 89.9195 84.38C90.2075 84.172 90.3515 83.908 90.3515 83.588C90.3515 83.204 90.1515 82.924 89.7515 82.748C89.3515 82.556 88.7035 82.348 87.8075 82.124C86.8475 81.9 86.0475 81.668 85.4075 81.428C84.7675 81.172 84.2155 80.78 83.7515 80.252C83.2875 79.708 83.0555 78.98 83.0555 78.068C83.0555 77.3 83.2635 76.604 83.6795 75.98C84.1115 75.34 84.7355 74.836 85.5515 74.468C86.3835 74.1 87.3675 73.916 88.5035 73.916C90.1835 73.916 91.5035 74.332 92.4635 75.164C93.4395 75.996 93.9995 77.1 94.1435 78.476H90.3515C90.2875 78.012 90.0795 77.644 89.7275 77.372C89.3915 77.1 88.9435 76.964 88.3835 76.964C87.9035 76.964 87.5355 77.06 87.2795 77.252C87.0235 77.428 86.8955 77.676 86.8955 77.996C86.8955 78.38 87.0955 78.668 87.4955 78.86C87.9115 79.052 88.5515 79.244 89.4155 79.436C90.4075 79.692 91.2155 79.948 91.8395 80.204C92.4635 80.444 93.0075 80.844 93.4715 81.404C93.9515 81.948 94.1995 82.684 94.2155 83.612C94.2155 84.396 93.9915 85.1 93.5435 85.724C93.1115 86.332 92.4795 86.812 91.6475 87.164C90.8315 87.516 89.8795 87.692 88.7915 87.692ZM112.372 70.652V82.124C112.372 83.9 111.868 85.268 110.86 86.228C109.868 87.188 108.524 87.668 106.828 87.668C105.052 87.668 103.628 87.164 102.556 86.156C101.484 85.148 100.948 83.716 100.948 81.86H105.028C105.028 82.564 105.172 83.1 105.46 83.468C105.748 83.82 106.164 83.996 106.708 83.996C107.204 83.996 107.588 83.836 107.86 83.516C108.132 83.196 108.268 82.732 108.268 82.124V70.652H112.372ZM121.783 87.668C120.551 87.668 119.447 87.468 118.471 87.068C117.495 86.668 116.711 86.076 116.119 85.292C115.543 84.508 115.239 83.564 115.207 82.46H119.575C119.639 83.084 119.855 83.564 120.223 83.9C120.591 84.22 121.071 84.38 121.663 84.38C122.271 84.38 122.751 84.244 123.103 83.972C123.455 83.684 123.631 83.292 123.631 82.796C123.631 82.38 123.487 82.036 123.199 81.764C122.927 81.492 122.583 81.268 122.167 81.092C121.767 80.916 121.191 80.716 120.439 80.492C119.351 80.156 118.463 79.82 117.775 79.484C117.087 79.148 116.495 78.652 115.999 77.996C115.503 77.34 115.255 76.484 115.255 75.428C115.255 73.86 115.823 72.636 116.959 71.756C118.095 70.86 119.575 70.412 121.399 70.412C123.255 70.412 124.751 70.86 125.887 71.756C127.023 72.636 127.631 73.868 127.711 75.452H123.271C123.239 74.908 123.039 74.484 122.671 74.18C122.303 73.86 121.831 73.7 121.255 73.7C120.759 73.7 120.359 73.836 120.055 74.108C119.751 74.364 119.599 74.74 119.599 75.236C119.599 75.78 119.855 76.204 120.367 76.508C120.879 76.812 121.679 77.14 122.767 77.492C123.855 77.86 124.735 78.212 125.407 78.548C126.095 78.884 126.687 79.372 127.183 80.012C127.679 80.652 127.927 81.476 127.927 82.484C127.927 83.444 127.679 84.316 127.183 85.1C126.703 85.884 125.999 86.508 125.071 86.972C124.143 87.436 123.047 87.668 121.783 87.668Z" fill="black"/>
</svg>
