<svg width="107" height="98" viewBox="0 0 107 98" fill="none" xmlns="http://www.w3.org/2000/svg">
<path d="M12.456 73.152V76.44H5.592V79.992H10.728V83.184H5.592V90H1.488V73.152H12.456ZM16.677 75.216C15.957 75.216 15.365 75.008 14.901 74.592C14.453 74.16 14.229 73.632 14.229 73.008C14.229 72.368 14.453 71.84 14.901 71.424C15.365 70.992 15.957 70.776 16.677 70.776C17.381 70.776 17.957 70.992 18.405 71.424C18.869 71.84 19.101 72.368 19.101 73.008C19.101 73.632 18.869 74.16 18.405 74.592C17.957 75.008 17.381 75.216 16.677 75.216ZM18.717 76.608V90H14.613V76.608H18.717ZM25.7951 78.84C26.2751 78.104 26.8751 77.528 27.5951 77.112C28.3151 76.68 29.1151 76.464 29.9951 76.464V80.808H28.8671C27.8431 80.808 27.0751 81.032 26.5631 81.48C26.0511 81.912 25.7951 82.68 25.7951 83.784V90H21.6911V76.608H25.7951V78.84ZM44.5807 83.088C44.5807 83.472 44.5568 83.872 44.5088 84.288H35.2208C35.2848 85.12 35.5488 85.76 36.0128 86.208C36.4928 86.64 37.0768 86.856 37.7648 86.856C38.7888 86.856 39.5008 86.424 39.9008 85.56H44.2688C44.0448 86.44 43.6368 87.232 43.0448 87.936C42.4688 88.64 41.7408 89.192 40.8608 89.592C39.9808 89.992 38.9968 90.192 37.9088 90.192C36.5968 90.192 35.4288 89.912 34.4048 89.352C33.3808 88.792 32.5808 87.992 32.0048 86.952C31.4288 85.912 31.1408 84.696 31.1408 83.304C31.1408 81.912 31.4208 80.696 31.9808 79.656C32.5568 78.616 33.3568 77.816 34.3808 77.256C35.4048 76.696 36.5808 76.416 37.9088 76.416C39.2048 76.416 40.3568 76.688 41.3648 77.232C42.3728 77.776 43.1568 78.552 43.7168 79.56C44.2928 80.568 44.5807 81.744 44.5807 83.088ZM40.3808 82.008C40.3808 81.304 40.1408 80.744 39.6608 80.328C39.1808 79.912 38.5808 79.704 37.8608 79.704C37.1728 79.704 36.5888 79.904 36.1088 80.304C35.6448 80.704 35.3568 81.272 35.2448 82.008H40.3808ZM50.8498 78.504C51.2338 77.88 51.7858 77.376 52.5058 76.992C53.2258 76.608 54.0498 76.416 54.9778 76.416C56.0818 76.416 57.0818 76.696 57.9778 77.256C58.8738 77.816 59.5778 78.616 60.0898 79.656C60.6178 80.696 60.8818 81.904 60.8818 83.28C60.8818 84.656 60.6178 85.872 60.0898 86.928C59.5778 87.968 58.8738 88.776 57.9778 89.352C57.0818 89.912 56.0818 90.192 54.9778 90.192C54.0338 90.192 53.2098 90.008 52.5058 89.64C51.8018 89.256 51.2498 88.752 50.8498 88.128V90H46.7458V72.24H50.8498V78.504ZM56.7058 83.28C56.7058 82.256 56.4178 81.456 55.8418 80.88C55.2818 80.288 54.5858 79.992 53.7538 79.992C52.9378 79.992 52.2418 80.288 51.6658 80.88C51.1058 81.472 50.8258 82.28 50.8258 83.304C50.8258 84.328 51.1058 85.136 51.6658 85.728C52.2418 86.32 52.9378 86.616 53.7538 86.616C54.5698 86.616 55.2658 86.32 55.8418 85.728C56.4178 85.12 56.7058 84.304 56.7058 83.28ZM62.2189 83.28C62.2189 81.904 62.4749 80.696 62.9869 79.656C63.5149 78.616 64.2269 77.816 65.1229 77.256C66.0189 76.696 67.0189 76.416 68.1229 76.416C69.0669 76.416 69.8909 76.608 70.5949 76.992C71.3149 77.376 71.8669 77.88 72.2509 78.504V76.608H76.3549V90H72.2509V88.104C71.8509 88.728 71.2909 89.232 70.5709 89.616C69.8669 90 69.0429 90.192 68.0989 90.192C67.0109 90.192 66.0189 89.912 65.1229 89.352C64.2269 88.776 63.5149 87.968 62.9869 86.928C62.4749 85.872 62.2189 84.656 62.2189 83.28ZM72.2509 83.304C72.2509 82.28 71.9629 81.472 71.3869 80.88C70.8269 80.288 70.1389 79.992 69.3229 79.992C68.5069 79.992 67.8109 80.288 67.2349 80.88C66.6749 81.456 66.3949 82.256 66.3949 83.28C66.3949 84.304 66.6749 85.12 67.2349 85.728C67.8109 86.32 68.5069 86.616 69.3229 86.616C70.1389 86.616 70.8269 86.32 71.3869 85.728C71.9629 85.136 72.2509 84.328 72.2509 83.304ZM84.7719 90.192C83.6039 90.192 82.5639 89.992 81.6519 89.592C80.7399 89.192 80.0199 88.648 79.4919 87.96C78.9639 87.256 78.6679 86.472 78.6039 85.608H82.6599C82.7079 86.072 82.9239 86.448 83.3079 86.736C83.6919 87.024 84.1639 87.168 84.7239 87.168C85.2359 87.168 85.6279 87.072 85.8999 86.88C86.1879 86.672 86.3319 86.408 86.3319 86.088C86.3319 85.704 86.1319 85.424 85.7319 85.248C85.3319 85.056 84.6839 84.848 83.7879 84.624C82.8279 84.4 82.0279 84.168 81.3879 83.928C80.7479 83.672 80.1959 83.28 79.7319 82.752C79.2679 82.208 79.0359 81.48 79.0359 80.568C79.0359 79.8 79.2439 79.104 79.6599 78.48C80.0919 77.84 80.7159 77.336 81.5319 76.968C82.3639 76.6 83.3479 76.416 84.4839 76.416C86.1639 76.416 87.4839 76.832 88.4439 77.664C89.4199 78.496 89.9799 79.6 90.1239 80.976H86.3319C86.2679 80.512 86.0599 80.144 85.7079 79.872C85.3719 79.6 84.9239 79.464 84.3639 79.464C83.8839 79.464 83.5159 79.56 83.2599 79.752C83.0039 79.928 82.8759 80.176 82.8759 80.496C82.8759 80.88 83.0759 81.168 83.4759 81.36C83.8919 81.552 84.5319 81.744 85.3959 81.936C86.3879 82.192 87.1959 82.448 87.8199 82.704C88.4439 82.944 88.9879 83.344 89.4519 83.904C89.9319 84.448 90.1799 85.184 90.1959 86.112C90.1959 86.896 89.9719 87.6 89.5239 88.224C89.0919 88.832 88.4599 89.312 87.6279 89.664C86.8119 90.016 85.8599 90.192 84.7719 90.192ZM105.331 83.088C105.331 83.472 105.307 83.872 105.259 84.288H95.9708C96.0348 85.12 96.2988 85.76 96.7628 86.208C97.2428 86.64 97.8268 86.856 98.5148 86.856C99.5388 86.856 100.251 86.424 100.651 85.56H105.019C104.795 86.44 104.387 87.232 103.795 87.936C103.219 88.64 102.491 89.192 101.611 89.592C100.731 89.992 99.7468 90.192 98.6588 90.192C97.3468 90.192 96.1788 89.912 95.1548 89.352C94.1308 88.792 93.3308 87.992 92.7548 86.952C92.1788 85.912 91.8908 84.696 91.8908 83.304C91.8908 81.912 92.1708 80.696 92.7308 79.656C93.3068 78.616 94.1068 77.816 95.1308 77.256C96.1548 76.696 97.3308 76.416 98.6588 76.416C99.9548 76.416 101.107 76.688 102.115 77.232C103.123 77.776 103.907 78.552 104.467 79.56C105.043 80.568 105.331 81.744 105.331 83.088ZM101.131 82.008C101.131 81.304 100.891 80.744 100.411 80.328C99.9308 79.912 99.3308 79.704 98.6108 79.704C97.9228 79.704 97.3388 79.904 96.8588 80.304C96.3948 80.704 96.1068 81.272 95.9948 82.008H101.131Z" fill="black"/>
<path d="M38.4042 41.3622L44.2946 2.63379L51.7423 14.6178L54.6937 8.72216L72.5958 41.4298L38.4042 41.3622Z" fill="#FFA712"/>
<path d="M54.7215 50.3667L72.5958 41.4296L66.4345 11.6396L38.4042 41.362L54.7215 50.3667Z" fill="#FCCA3F"/>
<path d="M51.743 14.6191L38.4055 41.3629L56.4719 22.2061L51.743 14.6191Z" fill="#F6820C"/>
</svg>
