<svg width="162" height="54" viewBox="0 0 162 54" fill="none" xmlns="http://www.w3.org/2000/svg">
<path fill-rule="evenodd" clip-rule="evenodd" d="M161.548 0.361328H149.015V53.3852H161.548V0.361328ZM105.098 12.246H93.2489V22.9094H103.804C114.31 22.9094 124.151 31.1309 124.151 43.3826V53.6396H136.33V43.3831C136.33 26.9496 123.096 12.246 105.098 12.246ZM84.7414 2.97263C84.7414 2.17046 84.6942 1.36695 84.6469 0.361328H71.7979C71.95 1.3674 71.8976 2.17046 71.8976 2.97263C71.8976 15.7742 61.5248 24.3594 50.4409 24.3594H39.3108V35.5069H51.8052C70.7913 35.5069 84.7414 20.1431 84.7414 2.97263ZM32.8981 53.4701L11.7738 26.6517L32.1445 0.361328H16.7162L0 21.5523V32.6008L16.716 53.4701H32.8981Z" fill="#8F8F8F"/>
</svg>
