<svg width="62" height="96" viewBox="0 0 62 96" fill="none" xmlns="http://www.w3.org/2000/svg">
<path d="M12.048 71.152V82.624C12.048 84.4 11.544 85.768 10.536 86.728C9.544 87.688 8.2 88.168 6.504 88.168C4.728 88.168 3.304 87.664 2.232 86.656C1.16 85.648 0.624 84.216 0.624 82.36H4.704C4.704 83.064 4.848 83.6 5.136 83.968C5.424 84.32 5.84 84.496 6.384 84.496C6.88 84.496 7.264 84.336 7.536 84.016C7.808 83.696 7.944 83.232 7.944 82.624V71.152H12.048ZM14.547 81.28C14.547 79.904 14.803 78.696 15.315 77.656C15.843 76.616 16.555 75.816 17.451 75.256C18.347 74.696 19.347 74.416 20.451 74.416C21.395 74.416 22.219 74.608 22.923 74.992C23.643 75.376 24.195 75.88 24.579 76.504V74.608H28.683V88H24.579V86.104C24.179 86.728 23.619 87.232 22.899 87.616C22.195 88 21.371 88.192 20.427 88.192C19.339 88.192 18.347 87.912 17.451 87.352C16.555 86.776 15.843 85.968 15.315 84.928C14.803 83.872 14.547 82.656 14.547 81.28ZM24.579 81.304C24.579 80.28 24.291 79.472 23.715 78.88C23.155 78.288 22.467 77.992 21.651 77.992C20.835 77.992 20.139 78.288 19.563 78.88C19.003 79.456 18.723 80.256 18.723 81.28C18.723 82.304 19.003 83.12 19.563 83.728C20.139 84.32 20.835 84.616 21.651 84.616C22.467 84.616 23.155 84.32 23.715 83.728C24.291 83.136 24.579 82.328 24.579 81.304ZM37.6761 84.16L40.5801 74.608H44.9481L40.1961 88H35.1321L30.3801 74.608H34.7721L37.6761 84.16ZM45.8595 81.28C45.8595 79.904 46.1155 78.696 46.6275 77.656C47.1555 76.616 47.8675 75.816 48.7635 75.256C49.6595 74.696 50.6595 74.416 51.7635 74.416C52.7075 74.416 53.5315 74.608 54.2355 74.992C54.9555 75.376 55.5075 75.88 55.8915 76.504V74.608H59.9955V88H55.8915V86.104C55.4915 86.728 54.9315 87.232 54.2115 87.616C53.5075 88 52.6835 88.192 51.7395 88.192C50.6515 88.192 49.6595 87.912 48.7635 87.352C47.8675 86.776 47.1555 85.968 46.6275 84.928C46.1155 83.872 45.8595 82.656 45.8595 81.28ZM55.8915 81.304C55.8915 80.28 55.6035 79.472 55.0275 78.88C54.4675 78.288 53.7795 77.992 52.9635 77.992C52.1475 77.992 51.4515 78.288 50.8755 78.88C50.3155 79.456 50.0355 80.256 50.0355 81.28C50.0355 82.304 50.3155 83.12 50.8755 83.728C51.4515 84.32 52.1475 84.616 52.9635 84.616C53.7795 84.616 54.4675 84.32 55.0275 83.728C55.6035 83.136 55.8915 82.328 55.8915 81.304Z" fill="black"/>
<path d="M40.6111 7.63867C39.2973 8.54142 38.0639 9.36367 36.6666 10.4332C35.6 11.2525 33.7111 12.4859 33.6278 13.9637C33.4639 16.347 37.1611 18.5637 35.1889 21.6025C34.45 22.7525 33.2166 23.247 31.6584 23.9859C31.4916 23.6582 32.0666 23.3275 32.3139 22.9998C34.7778 19.4664 29.7666 18.3164 30.425 13.9637C31.0834 9.61092 36.0111 8.21367 40.6111 7.63867Z" fill="#FF1515"/>
<path d="M33.3 0C34.0389 0.738875 34.6139 2.13612 34.6139 3.53337C34.6139 7.88612 30.0139 10.35 27.7972 13.225C27.3027 13.8834 26.6472 14.8666 26.6472 15.9361C26.6472 18.3166 29.1111 20.9472 30.0139 22.8361C28.5361 21.85 26.6472 20.4527 25.25 18.8887C23.9361 17.25 22.5388 14.7027 23.7722 12.4027C25.5777 9.03612 31.0805 6.98337 33.0527 3.36662C33.5472 2.46387 33.9555 1.06662 33.3 0Z" fill="#FF1515"/>
<path d="M23.8844 22.4852C24.3214 22.3616 24.7411 22.2437 25.0861 22.0971C24.6625 22.0612 24.2362 22.0738 23.8154 22.1345C23.6055 22.1575 23.4215 22.1776 23.2777 22.1776L22.8264 22.2121C20.5551 22.3846 16.0557 22.721 16.1305 24.561C16.1305 26.2026 20.3222 26.6137 22.1277 26.7776C27.55 27.1082 35.4361 26.6137 37.9805 24.7248C38.3916 24.4776 39.1305 23.986 38.9666 23.6582C34.9416 24.3971 29.1111 24.8082 24.3472 24.561C23.1972 24.561 21.9639 24.561 21.1416 23.9026C21.7166 23.0976 22.858 22.7756 23.8844 22.4852ZM22.6912 27.3957C22.8407 27.2577 22.9557 27.1485 22.7027 27.1082C21.7166 27.3526 19.5 27.9276 19.5805 29.161C19.6639 30.1471 21.8 30.8026 23.0305 31.0498C27.8777 32.036 34.45 31.2971 37.8166 29.736C37.3509 29.6583 36.9397 29.322 36.5229 28.9798C36.0571 28.6032 35.5856 28.218 35.025 28.1748C34.6972 28.1202 34.335 28.2467 33.9325 28.3876C33.7248 28.4633 33.5137 28.5294 33.3 28.586C30.3416 29.161 24.3472 29.736 22.4555 27.8471C22.3779 27.6861 22.5504 27.528 22.6912 27.3957ZM24.1805 31.9698C24.2754 31.8692 24.3817 31.7571 24.1805 31.7082L23.6975 31.8347C22.3692 32.174 21.087 32.5046 21.3055 34.336C24.8389 37.0471 33.4639 36.1415 37.0777 34.0082C36.6005 33.8961 36.2383 33.5568 35.8645 33.2032C35.4045 32.772 34.9301 32.3263 34.2027 32.2832C33.852 32.2257 33.4984 32.3752 33.1476 32.5247C33.0039 32.5851 32.8659 32.6455 32.725 32.6915C30.1777 33.2665 25.0861 33.9248 24.1 32.1165C24.0684 32.0877 24.123 32.0302 24.1805 31.967V31.9698Z" fill="#2365C4"/>
<path d="M19.8622 35.1904C20.2992 35.1645 20.696 35.1415 20.9777 35.0754C19.0888 33.4338 13.0111 34.1727 12.9277 36.717C12.8472 38.1977 14.7361 39.2643 16.2972 39.7588C21.1416 41.4004 28.8638 41.4838 35.1083 40.8254C37.9833 40.4977 45.0472 39.2643 44.7166 36.142C44.5527 35.3227 43.8138 34.7477 42.9916 34.6643C43.65 37.5393 38.3916 38.442 35.6 38.7727C29.5222 39.4282 22.2111 39.2643 18.5972 37.867C17.9388 37.6227 16.9527 36.9643 17.0361 36.3893C17.1568 35.3629 18.6547 35.268 19.8622 35.1933V35.1904Z" fill="#2365C4"/>
<path d="M30.425 44.3581C26.2361 43.8636 22.2111 43.2886 18.8416 41.8108C27.7139 43.947 40.6916 43.7831 46.9361 39.2636C47.0252 39.1975 47.1172 39.1112 47.2064 39.0221C47.4507 38.7921 47.7066 38.5477 48.0027 38.6081C46.6141 42.7768 41.7036 43.4956 36.9886 44.1798C36.4136 44.2661 35.8386 44.3495 35.2722 44.4386C35.2722 44.3581 30.425 44.3581 30.425 44.3581ZM46.2777 25.3831C46.1972 22.0136 42.2527 21.2747 39.9527 23.247C41.7611 22.8358 43.3222 23.6581 43.65 24.8886C44.1876 27.5077 41.7611 29.4685 40.0936 30.814C39.7199 31.1158 39.3864 31.3832 39.1334 31.6247C42.2527 31.4608 46.4416 29.2413 46.2777 25.3831Z" fill="#2365C4"/>
</svg>
