<svg width="97" height="102" viewBox="0 0 97 102" fill="none" xmlns="http://www.w3.org/2000/svg">
<path d="M12.048 77.152V88.624C12.048 90.4 11.544 91.768 10.536 92.728C9.544 93.688 8.2 94.168 6.504 94.168C4.728 94.168 3.304 93.664 2.232 92.656C1.16 91.648 0.624 90.216 0.624 88.36H4.704C4.704 89.064 4.848 89.6 5.136 89.968C5.424 90.32 5.84 90.496 6.384 90.496C6.88 90.496 7.264 90.336 7.536 90.016C7.808 89.696 7.944 89.232 7.944 88.624V77.152H12.048ZM27.987 87.088C27.987 87.472 27.963 87.872 27.915 88.288H18.627C18.691 89.12 18.955 89.76 19.419 90.208C19.899 90.64 20.483 90.856 21.171 90.856C22.195 90.856 22.907 90.424 23.307 89.56H27.675C27.451 90.44 27.043 91.232 26.451 91.936C25.875 92.64 25.147 93.192 24.267 93.592C23.387 93.992 22.403 94.192 21.315 94.192C20.003 94.192 18.835 93.912 17.811 93.352C16.787 92.792 15.987 91.992 15.411 90.952C14.835 89.912 14.547 88.696 14.547 87.304C14.547 85.912 14.827 84.696 15.387 83.656C15.963 82.616 16.763 81.816 17.787 81.256C18.811 80.696 19.987 80.416 21.315 80.416C22.611 80.416 23.763 80.688 24.771 81.232C25.779 81.776 26.563 82.552 27.123 83.56C27.699 84.568 27.987 85.744 27.987 87.088ZM23.787 86.008C23.787 85.304 23.547 84.744 23.067 84.328C22.587 83.912 21.987 83.704 21.267 83.704C20.579 83.704 19.995 83.904 19.515 84.304C19.051 84.704 18.763 85.272 18.651 86.008H23.787ZM38.3121 80.464C39.8801 80.464 41.1281 80.976 42.0561 82C43.0001 83.008 43.4721 84.4 43.4721 86.176V94H39.3921V86.728C39.3921 85.832 39.1601 85.136 38.6961 84.64C38.2321 84.144 37.6081 83.896 36.8241 83.896C36.0401 83.896 35.4161 84.144 34.9521 84.64C34.4881 85.136 34.2561 85.832 34.2561 86.728V94H30.1521V80.608H34.2561V82.384C34.6721 81.792 35.2321 81.328 35.9361 80.992C36.6401 80.64 37.4321 80.464 38.3121 80.464ZM54.5079 94L50.4279 88.384V94H46.3239V76.24H50.4279V86.056L54.4839 80.608H59.5479L53.9799 87.328L59.5959 94H54.5079ZM63.2239 79.216C62.5039 79.216 61.9119 79.008 61.4479 78.592C60.9999 78.16 60.7759 77.632 60.7759 77.008C60.7759 76.368 60.9999 75.84 61.4479 75.424C61.9119 74.992 62.5039 74.776 63.2239 74.776C63.9279 74.776 64.5039 74.992 64.9519 75.424C65.4159 75.84 65.6479 76.368 65.6479 77.008C65.6479 77.632 65.4159 78.16 64.9519 78.592C64.5039 79.008 63.9279 79.216 63.2239 79.216ZM65.2639 80.608V94H61.1599V80.608H65.2639ZM76.398 80.464C77.966 80.464 79.214 80.976 80.142 82C81.086 83.008 81.558 84.4 81.558 86.176V94H77.478V86.728C77.478 85.832 77.246 85.136 76.782 84.64C76.318 84.144 75.694 83.896 74.91 83.896C74.126 83.896 73.502 84.144 73.038 84.64C72.574 85.136 72.342 85.832 72.342 86.728V94H68.238V80.608H72.342V82.384C72.758 81.792 73.318 81.328 74.022 80.992C74.726 80.64 75.518 80.464 76.398 80.464ZM89.8579 94.192C88.6899 94.192 87.6499 93.992 86.7379 93.592C85.8259 93.192 85.1059 92.648 84.5779 91.96C84.0499 91.256 83.7539 90.472 83.6899 89.608H87.7459C87.7939 90.072 88.0099 90.448 88.3939 90.736C88.7779 91.024 89.2499 91.168 89.8099 91.168C90.3219 91.168 90.7139 91.072 90.9859 90.88C91.2739 90.672 91.4179 90.408 91.4179 90.088C91.4179 89.704 91.2179 89.424 90.8179 89.248C90.4179 89.056 89.7699 88.848 88.8739 88.624C87.9139 88.4 87.1139 88.168 86.4739 87.928C85.8339 87.672 85.2819 87.28 84.8179 86.752C84.3539 86.208 84.1219 85.48 84.1219 84.568C84.1219 83.8 84.3299 83.104 84.7459 82.48C85.1779 81.84 85.8019 81.336 86.6179 80.968C87.4499 80.6 88.4339 80.416 89.5699 80.416C91.2499 80.416 92.5699 80.832 93.5299 81.664C94.5059 82.496 95.0659 83.6 95.2099 84.976H91.4179C91.3539 84.512 91.1459 84.144 90.7939 83.872C90.4579 83.6 90.0099 83.464 89.4499 83.464C88.9699 83.464 88.6019 83.56 88.3459 83.752C88.0899 83.928 87.9619 84.176 87.9619 84.496C87.9619 84.88 88.1619 85.168 88.5619 85.36C88.9779 85.552 89.6179 85.744 90.4819 85.936C91.4739 86.192 92.2819 86.448 92.9059 86.704C93.5299 86.944 94.0739 87.344 94.5379 87.904C95.0179 88.448 95.2659 89.184 95.2819 90.112C95.2819 90.896 95.0579 91.6 94.6099 92.224C94.1779 92.832 93.5459 93.312 92.7139 93.664C91.8979 94.016 90.9459 94.192 89.8579 94.192Z" fill="black"/>
<path d="M68.2411 27.952C68.2411 39.4153 59.1559 48.7083 47.9484 48.7083C36.7413 48.7083 27.6559 39.4153 27.6559 27.952C27.6559 16.4883 36.7415 7.19531 47.9484 7.19531C59.1559 7.19531 68.2411 16.4883 68.2411 27.952Z" fill="#D33833"/>
<path d="M28.4828 33.0929C28.4828 33.0929 27.0138 11.4475 46.9588 10.8289L45.5673 8.50977L34.7446 12.1432L31.6527 15.6992L28.9469 20.8789L27.4006 26.9087L27.8645 30.9284" fill="#EF3D3A"/>
<path d="M34.0498 13.7923C30.4894 17.4352 28.2862 22.465 28.2862 28.0295C28.2862 33.5927 30.4894 38.6231 34.0498 42.2654C37.612 45.9074 42.521 48.1552 47.9482 48.1552C53.3756 48.1552 58.285 45.9076 61.8469 42.2653C65.4069 38.6231 67.6106 33.5925 67.6106 28.0293C67.6106 22.4652 65.4069 17.4354 61.8469 13.7923C58.285 10.1508 53.3754 7.90327 47.9482 7.9029C42.521 7.90327 37.612 10.1508 34.05 13.7923H34.0498ZM33.1487 43.1463C29.3647 39.2769 27.0255 33.9287 27.0255 28.0295C27.0255 22.1292 29.3647 16.7818 33.1487 12.9117C36.9317 9.04096 42.1681 6.64184 47.9482 6.64258C53.7283 6.64184 58.9654 9.04096 62.7478 12.9117C66.532 16.7818 68.8715 22.1297 68.8711 28.0295C68.8715 33.9287 66.532 39.2767 62.7478 43.1463C58.9655 47.0169 53.7283 49.4157 47.9482 49.4157C42.1681 49.4157 36.9317 47.0168 33.1487 43.1465" fill="#231F20"/>
<path d="M56.4907 28.0668L53.3983 28.5306L49.2238 28.9945L46.518 29.0716L43.8897 28.9945L41.8796 28.3759L40.1017 26.4434L38.7102 22.5008L38.4009 21.6503L36.5456 21.0321L35.4634 19.254L34.6902 16.7029L35.5407 14.4609L37.5506 13.7652L39.174 14.5385L39.9471 16.2391L40.8748 16.0843L41.1839 15.6981L40.8748 13.9199L40.7974 11.6779L41.2613 8.58585L41.2431 6.81957L42.6528 4.56609L45.1265 2.78795L49.4557 0.932617L54.2486 1.62837L58.423 4.64327L60.3557 7.73536L61.5927 9.97734L61.9018 15.5433L60.9741 20.3364L59.2733 24.5881L57.6499 26.83" fill="#F0D6B7"/>
<path d="M53.8621 41.4405L42.8073 41.9044V43.7597L43.735 50.2534L43.2712 50.7945L35.5408 48.1659L34.9996 47.2383L34.2264 38.503L32.4487 33.2461L32.062 32.0093L38.2464 27.7577L40.1791 26.9844L41.8797 29.0716L43.3485 30.3859L45.0493 30.9269L45.8222 31.1589L46.7499 35.1788L47.4457 36.0291L49.2238 35.4107L47.9869 37.8073L54.7124 40.9767L53.8621 41.4405Z" fill="#335061"/>
<path d="M35.5407 14.4615L37.5504 13.7657L39.1738 14.539L39.9471 16.2396L40.8748 16.0849L41.1067 15.1572L40.6429 13.3794L41.1067 9.1274L40.7201 6.80824L42.1116 5.18483L45.1265 2.78849L44.2762 1.62891L40.0243 3.71615L38.2462 5.10765L37.2413 7.27207L35.6951 9.35932L35.2313 11.8332L35.5407 14.4615Z" fill="#6D6B6D"/>
<path d="M38.7102 7.19479C38.7102 7.19479 39.8698 4.33461 44.5081 2.94312C49.1464 1.55162 44.74 1.9379 44.74 1.9379L39.715 3.87078L37.7823 5.80329L36.9322 7.34952L38.71 7.19479M36.391 13.9204C36.391 13.9204 34.7676 8.50873 40.952 7.7358L40.7201 6.80814L36.4684 7.81336L35.2314 11.8331L35.5407 14.4614L36.3908 13.9204" fill="#DCD9D8"/>
<path d="M38.8647 21.1095L39.877 20.1287C39.877 20.1287 40.3338 20.1818 40.411 20.7228C40.4882 21.2642 40.7201 26.1344 44.0441 28.7629C44.3474 29.0028 41.5706 28.376 41.5706 28.376L39.0967 24.511M53.0894 19.6408C53.0894 19.6408 53.2697 17.2975 53.9007 17.4777C54.5317 17.6578 54.5317 18.289 54.5317 18.289C54.5317 18.289 52.9992 19.2803 53.0894 19.6408Z" fill="#F7E4CD"/>
<path d="M59.5055 11.0596C59.5055 11.0596 58.2312 11.3286 58.114 12.4511C57.9965 13.5737 59.5055 12.683 59.7374 12.6058M50.1515 11.1369C50.1515 11.1369 48.4507 11.3689 48.4507 12.4511C48.4507 13.5333 50.3834 13.4561 50.9246 12.9923" fill="#F7E4CD"/>
<path d="M39.6376 16.1624C39.6376 16.1624 36.7001 14.3842 36.3908 16.0852C36.0817 17.7858 35.3858 19.0227 36.8546 20.8007L35.8498 20.4916L34.9221 18.0951L34.613 15.7759L36.3908 13.9204L38.4009 14.0751L39.5605 15.0028L39.6376 16.1624ZM41.0291 11.2921C41.0291 11.2921 42.3434 4.4894 48.9918 3.17508C54.4654 2.09324 57.3406 3.407 58.423 4.64376C58.423 4.64376 53.5528 -1.15395 48.9145 0.624007C44.2761 2.40215 40.8748 5.64898 40.952 7.73585C41.0837 11.2907 41.0291 11.2921 41.0291 11.2921ZM58.9642 5.41669C58.9642 5.41669 56.7226 5.33951 56.6451 7.34957C56.6451 7.34957 56.6449 7.65867 56.7996 7.96777C56.7996 7.96777 58.5779 5.95789 59.66 7.0401" fill="#F7E4CD"/>
<path d="M49.1477 8.17718C49.1477 8.17718 48.7618 5.09196 46.1313 6.88569C44.4307 8.04527 44.5854 9.66868 44.8945 9.97778C45.2036 10.2871 45.1196 10.9099 45.355 10.4824C45.5903 10.055 45.5127 8.66347 46.3632 8.27719C47.2137 7.89054 48.6078 7.45862 49.1477 8.17718Z" fill="#F7E4CD"/>
<path d="M41.8797 29.0715L34.6131 32.3183C34.6131 32.3183 37.628 44.3007 36.0818 48.0114L34.9994 47.6249L34.9222 43.064L32.9125 34.4059L32.062 32.0092L39.6377 26.9072L41.8797 29.0715ZM42.627 35.6991L43.6578 36.957V41.5953H42.4209C42.4209 41.5953 42.2663 38.3485 42.2663 37.9618C42.2663 37.5752 42.4209 36.1837 42.4209 36.1837M42.6526 42.2911L39.1739 42.4454L40.1791 43.1412L42.6526 43.5278" fill="#49728B"/>
<path d="M54.5579 41.5176L57.4182 41.4404L58.114 48.5525L55.1762 48.9389L54.5579 41.5176Z" fill="#335061"/>
<path d="M55.3309 41.5181L59.66 41.2862C59.66 41.2862 61.4379 36.8024 61.4379 36.5705C61.4379 36.3386 62.9842 30.0769 62.9842 30.0769L59.5054 26.4438L58.8097 25.8252L56.9543 27.6805V34.8699L55.3309 41.5181Z" fill="#335061"/>
<path d="M57.2635 40.9767L54.5579 41.5179L54.9443 43.6827C55.9492 44.1466 57.6501 42.9094 57.6501 42.9094M57.3409 27.4486L62.7523 31.4684L62.9068 29.613L58.8097 25.8252L57.3409 27.4486Z" fill="#49728B"/>
<path d="M45.3356 56.7474L43.735 50.2528L42.939 45.4609L42.8073 41.9039L50.0513 41.5183L54.5578 41.5176L54.1482 49.6354L54.8439 55.8971L54.7666 57.0567L48.8917 57.5205L45.3356 56.7474Z" fill="white"/>
<path d="M53.5528 41.4406C53.5528 41.4406 53.1664 49.4805 54.3259 55.201C54.3259 55.201 52.0068 56.67 48.6052 57.0563L55.0989 56.8244L55.872 56.3606L54.9443 43.6826L54.7124 40.9766" fill="#DCD9D8"/>
<path d="M58.2455 47.9354L61.2604 47.0851L66.9809 46.776L67.8314 44.1475L66.2852 39.5864L64.5074 39.3545L62.0335 40.1276L59.66 41.2864L58.4001 41.0553L57.418 41.4412" fill="white"/>
<path d="M58.1912 46.388C58.1912 46.388 60.2009 45.4606 60.5103 45.5379L59.66 41.2859L60.6651 40.8994C60.6651 40.8994 61.3608 44.9192 61.3608 45.383C61.3608 45.383 65.6897 45.6149 66.0763 45.6149C66.0763 45.6149 67.004 43.837 66.7721 41.9816L67.6224 44.4553L67.6997 45.8468L66.4628 47.7022L65.0713 48.0114L62.7521 47.9341L61.9792 46.9292L59.2736 47.3157L58.4231 47.625" fill="#DCD9D8"/>
<path d="M55.1532 40.9L53.4526 36.5708L51.6745 34.0197C51.6745 34.0197 52.061 32.9375 52.6022 32.9375H54.3803L56.0809 33.5559L55.9265 36.4162L55.1532 40.9Z" fill="white"/>
<path d="M55.4855 39.4306C55.4855 39.4306 53.3209 35.2563 53.3209 34.6379C53.3209 34.6379 53.7071 33.7103 54.2485 33.9422C54.7897 34.1741 55.9493 34.7923 55.9493 34.7923V33.3236L53.3209 32.7822L51.5429 33.0141L54.5578 40.1264L55.1762 40.2039" fill="#DCD9D8"/>
<path d="M46.0313 29.2274L43.8897 28.9945L41.8796 28.376V29.0717L42.8617 30.1549L45.9539 31.5464" fill="white"/>
<path d="M42.5756 29.459C42.5756 29.459 44.9723 30.464 45.7452 30.2321L45.8222 31.1588L43.658 30.6959L42.3437 29.7683L42.5756 29.459Z" fill="#DCD9D8"/>
<path d="M58.2372 33.201C56.9254 33.1624 55.7404 33.0065 54.7028 32.714C54.7733 32.2885 54.6415 31.8711 54.7473 31.5648C55.0367 31.3564 55.5213 31.3598 55.9584 31.3108C55.5805 31.1251 55.0493 31.0514 54.6131 31.1588C54.6029 30.8636 54.4705 30.6807 54.3903 30.4497C55.1278 30.1864 56.8687 28.4608 57.8481 29.0322C58.3147 29.3041 58.513 30.8564 58.5492 31.6113C58.5793 32.2375 58.4925 32.8693 58.2373 33.201" fill="#D33833"/>
<path d="M51.9646 31.0569C51.9611 31.1561 51.9568 31.2561 51.9529 31.3563C51.5435 31.6254 50.8822 31.622 50.4327 31.8482C51.0954 31.8771 51.617 32.0367 52.0682 32.2617L52.039 33.0115C51.2884 33.5254 50.6026 34.2907 49.7186 34.7727C49.3008 35.0006 47.8341 35.5872 47.3894 35.4833C47.1378 35.4251 47.1152 35.1128 47.0146 34.8186C46.8003 34.1885 46.3072 33.1853 46.2641 32.2369C46.2092 31.0389 46.0884 29.0309 47.3796 29.2776C48.4211 29.4763 49.6327 29.9563 50.439 30.3969C50.9318 30.6663 51.2169 30.9994 51.9646 31.0569Z" fill="#D33833"/>
<path d="M52.7103 32.4863C52.5956 31.8336 52.4632 31.6475 52.5146 31.0781C54.2549 29.9176 54.5818 33.0714 52.7101 32.4863" fill="#D33833"/>
<path d="M55.2304 33.0153C55.2304 33.0153 54.6892 32.2422 55.0759 32.0102C55.4623 31.7783 55.849 32.0104 56.0809 31.6238C56.3128 31.2371 56.0809 31.0052 56.1581 30.5414C56.2353 30.0775 56.6221 30.0002 57.0086 29.923C57.395 29.8456 58.4774 29.6911 58.632 30.0775L58.1681 28.6861L57.2405 28.377L54.3027 30.0775L54.148 30.928V32.6286M47.1135 35.5664C47.0206 34.36 46.9224 33.1552 46.813 31.9499C46.6493 30.1503 47.2453 30.4642 48.8052 30.4642C49.0434 30.4642 50.2724 30.7482 50.3602 30.928C50.7819 31.7891 49.6552 31.5978 50.8459 32.2472C51.8509 32.7952 53.6265 31.9145 53.2205 30.6961C52.9933 30.4252 52.0363 30.6117 51.6932 30.4338L49.8815 29.4946C49.113 29.0959 47.3373 28.5148 46.518 29.0718C44.4422 30.4835 46.649 34.0107 47.3894 35.4834" fill="#EF3D3A"/>
<path d="M49.1477 8.1773C47.0406 7.68656 45.9936 9.05895 45.355 10.4825C44.7847 10.3443 45.0118 9.56879 45.1558 9.17361C45.5328 8.13648 47.0527 6.75593 48.2946 6.94294C48.829 7.02347 49.5522 7.51216 49.1477 8.1773ZM59.4138 10.5766L59.5138 10.5807C59.9899 11.5698 60.4019 12.6175 61.0025 13.4908C60.6003 14.4279 57.9557 15.2572 57.9965 13.5744C58.5685 13.3243 59.5557 13.5234 60.0626 13.2041C59.7695 12.3995 59.3464 11.7147 59.4138 10.5766ZM50.2264 10.6024C50.6782 11.4306 50.8253 12.3008 51.4674 12.9268C51.7567 13.2086 52.319 13.552 52.0402 14.3357C51.975 14.5205 51.499 14.9325 51.2242 15.0134C50.2201 15.3099 47.8809 15.0747 48.6731 13.8231C49.5032 13.8618 50.6193 14.3622 51.2399 13.7594C50.7631 12.9976 49.9136 11.4904 50.2264 10.6024ZM59.0368 19.0197C57.5252 19.9907 55.8397 21.0466 53.3628 20.8017C52.8335 20.3416 52.6318 19.3176 53.1459 18.6413C53.4137 19.1015 53.2454 19.9477 53.9912 20.0751C55.3966 20.3156 57.0325 19.2154 58.0433 18.8308C58.6704 17.774 57.9895 17.3853 57.4247 16.7051C56.2684 15.3116 54.7178 13.5843 54.774 11.498C55.2413 11.159 55.2816 12.015 55.3488 12.1709C55.9525 13.5837 57.4716 15.3906 58.5806 16.5997C58.8527 16.8975 59.301 17.1832 59.3509 17.3803C59.4947 17.9528 58.9769 18.6388 59.0368 19.0197ZM39.1087 17.9974C38.6348 17.7269 38.522 16.5357 37.9658 16.502C37.171 16.4537 37.3159 18.0473 37.319 18.979C36.7717 18.4823 36.6756 16.9528 37.0777 16.1673C36.6194 15.9424 36.4149 16.4155 36.1608 16.5821C36.4873 14.2097 39.6313 15.4817 39.1087 17.9974ZM59.9993 20.0076C59.2958 21.347 58.3004 22.822 56.2356 22.8648C56.1937 22.4323 56.1614 21.7741 56.2378 21.5136C57.8163 21.362 58.7908 20.5586 59.9993 20.0076ZM50.1073 20.8759C51.4242 21.5683 53.8445 21.6429 55.6343 21.5904C55.7304 21.9826 55.7282 22.467 55.7319 22.9452C53.4311 23.0602 50.7106 22.4906 50.1073 20.8759ZM49.8572 22.1672C50.7676 24.4535 53.8975 24.1905 56.5371 24.1274C56.421 24.4242 56.169 24.7749 55.856 24.9016C55.01 25.2458 52.6773 25.507 51.503 24.8834C50.7583 24.4875 50.28 23.593 49.872 23.0687C49.675 22.8153 48.6939 22.1685 49.8572 22.167" fill="#231F20"/>
<path d="M58.9269 34.7794C57.8583 36.6096 56.8358 38.4896 55.5679 40.1041C56.0994 38.5412 56.3269 35.9254 56.4072 33.9311C57.5193 33.4107 58.4715 34.0482 58.9269 34.7794Z" fill="#81B0C4"/>
<path d="M64.6775 41.3574C63.481 41.5968 62.6404 42.7597 61.4732 42.6851C62.1146 41.7808 63.2387 41.3995 64.6775 41.3574ZM65.2054 43.2298C64.2302 43.3328 63.0847 43.4907 62.0957 43.4094C62.5638 42.6942 64.3679 42.9409 65.2054 43.2298ZM65.5432 44.8441C64.4473 44.8679 63.0849 44.846 62.0432 44.7588C62.6593 44.0968 64.8325 44.5131 65.5432 44.8441Z" fill="#231F20"/>
<path d="M56.8648 49.262C57.0219 50.6385 57.5677 52.0331 57.4993 53.5404C56.8933 53.7449 56.5451 53.9237 55.7332 53.9226C55.6759 52.6415 55.5046 50.683 55.5558 49.4617C55.9551 49.4882 56.544 49.1763 56.8648 49.262Z" fill="#DCD9D8"/>
<path d="M55.0978 28.9756C54.5475 29.3348 54.0788 29.7834 53.5502 30.1669C52.378 30.2248 51.7385 30.0856 50.8774 29.4127C50.8915 29.3587 50.978 29.3828 50.9813 29.3164C52.2359 29.8756 53.8309 29.0888 55.0978 28.9756Z" fill="#F0D6B7"/>
<path d="M48.5114 37.5285C48.8561 36.0348 50.2068 35.2611 51.4333 34.4385C52.6994 36.0452 53.4693 38.1117 54.3172 40.1056C52.3138 39.5017 50.2671 38.5219 48.5114 37.5285Z" fill="#81B0C4"/>
<path d="M55.5558 49.462C55.5046 50.6832 55.6759 52.6419 55.7332 53.923C56.5453 53.9241 56.8933 53.7453 57.4993 53.5408C57.5677 52.0335 57.0221 50.6389 56.8647 49.2624C56.544 49.1767 55.9553 49.4886 55.5558 49.462ZM42.913 42.5164C43.4485 47.4384 44.224 51.576 45.6463 55.9344C48.803 56.8928 52.6084 56.9763 55.3987 56.1115C54.8862 53.6516 55.1102 50.6567 54.8105 48.0316C54.5851 46.0584 54.7001 44.0732 54.3907 42.0602C51.0099 41.3569 46.2309 41.8958 42.913 42.5164ZM55.1901 42.0912C55.1616 44.205 55.2847 46.2902 55.4462 48.4067C56.2579 48.2848 56.8087 48.2034 57.5629 48.0381C57.318 46.0006 57.3481 43.7077 56.8492 41.9053C56.2727 41.9109 55.7649 41.8986 55.1901 42.0912ZM59.3078 41.7504C58.9225 41.6621 58.4741 41.747 58.106 41.7541C58.2789 43.4773 58.6987 45.3786 58.8464 47.1874C59.4257 47.2054 59.7349 46.9323 60.2114 46.8405C60.2368 45.2529 60.0726 43.0654 59.3078 41.7504ZM65.5427 47.447C66.7498 47.1538 67.5088 45.6751 67.1711 44.1569C66.9446 43.1365 66.541 41.2151 66.1091 40.5622C65.79 40.0795 64.9249 39.4472 64.2339 39.8897C63.11 40.6095 61.1301 40.8183 60.3106 41.6893C60.7216 43.0576 60.8491 44.9371 61.0186 46.6709C62.4226 46.7585 64.1503 46.2846 65.3178 46.7874C64.5028 47.0514 63.4449 47.0536 62.7406 47.4384C63.3163 47.7164 64.6638 47.6603 65.5427 47.447ZM54.3172 40.1058C53.4693 38.1119 52.6994 36.0456 51.4333 34.4387C50.2067 35.2614 48.856 36.035 48.5111 37.5288C50.267 38.5221 52.3138 39.5019 54.3172 40.1058ZM56.4072 33.9311C56.3269 35.9252 56.0994 38.5412 55.5679 40.1041C56.8358 38.4896 57.8583 36.6098 58.9269 34.7793C58.4715 34.0483 57.5193 33.4107 56.4072 33.9311ZM54.038 33.0893C53.5576 33.0374 53.15 33.6415 52.5253 33.3802C52.3823 33.5385 52.2522 33.7099 52.1064 33.8643C53.4858 35.5267 54.1126 37.8852 55.1781 39.8388C55.7497 37.9622 55.6838 35.9063 55.8098 33.858C55.0243 33.9079 54.5884 33.1476 54.038 33.0891V33.0893ZM52.5146 31.0785C52.4632 31.6479 52.5956 31.834 52.7103 32.4867C54.5818 33.0719 54.255 29.918 52.5146 31.0785ZM50.439 30.3971C49.6327 29.9564 48.4211 29.4768 47.3796 29.2779C46.0883 29.031 46.2094 31.039 46.2641 32.2372C46.3072 33.1856 46.8003 34.1888 47.0146 34.8189C47.1152 35.1131 47.1378 35.4254 47.3894 35.4838C47.8341 35.5873 49.3008 35.0009 49.7188 34.773C50.6026 34.291 51.2884 33.5257 52.039 33.0118C52.0489 32.7617 52.0583 32.512 52.0684 32.262C51.617 32.037 51.0954 31.8774 50.4329 31.8485C50.8822 31.6223 51.5435 31.6257 51.953 31.3566C51.957 31.2564 51.9611 31.1564 51.9646 31.0572C51.2169 30.9997 50.932 30.6666 50.439 30.3971ZM42.7362 28.9981C42.067 29.6776 44.6135 30.6037 45.4244 30.6537C45.4198 30.2238 45.6693 29.8184 45.6192 29.5098C44.6561 29.3408 43.3906 29.4523 42.7362 28.998V28.9981ZM50.9813 29.3173C50.978 29.3835 50.8915 29.3594 50.8774 29.4134C51.7385 30.0865 52.3782 30.2256 53.5502 30.1676C54.0788 29.7841 54.5474 29.3354 55.0977 28.9762C53.8309 29.0894 52.2359 29.8763 50.9813 29.3171V29.3173ZM58.5492 31.6119C58.513 30.857 58.3147 29.3046 57.8481 29.0328C56.8686 28.4612 55.1278 30.187 54.3903 30.4503C54.4704 30.6813 54.6029 30.8642 54.6129 31.1594C55.0493 31.0522 55.5805 31.1256 55.9584 31.3114C55.5213 31.3603 55.0365 31.357 54.7474 31.5654C54.6413 31.8717 54.7734 32.2891 54.7029 32.7146C55.7404 33.0071 56.9256 33.163 58.2373 33.2016C58.4924 32.8698 58.5793 32.2381 58.549 31.6119H58.5492ZM41.6095 29.6553C41.3993 29.5054 39.9775 27.6554 39.7827 27.7323C37.21 28.7469 34.8042 30.5013 32.6546 32.1607C34.7041 36.5588 35.5314 41.947 35.6776 47.1407C38.0257 48.2386 40.0879 49.8218 43.2741 49.9871C42.9054 47.3785 42.5689 45.0512 42.3594 42.5953C41.559 42.2576 40.4106 42.6105 39.6614 42.4906C39.6549 41.5878 40.8056 42.0953 40.9013 41.4882C40.9737 41.0288 40.2683 40.9941 40.498 40.2711C41.0837 40.4839 41.3911 40.9541 42.0156 41.1307C42.5865 39.8821 42.0078 37.6727 42.09 36.6291C42.1056 36.4332 42.188 35.5437 42.6268 35.6996C43.0153 35.8378 42.6045 38.0657 42.6472 39.0535C42.6861 39.9635 42.5373 40.8439 42.9058 41.4153C45.9845 40.9962 49.1132 40.7253 52.4444 40.6338C51.7116 40.3195 50.8409 40.0219 49.8865 39.4839C49.3689 39.1921 47.738 38.5852 47.5885 38.0937C47.3503 37.3106 48.2137 36.8933 48.3614 36.222C46.8072 37.0696 46.504 35.4094 46.1363 34.2335C45.8033 33.1684 45.6137 32.3726 45.532 31.7583C44.1932 31.1201 42.7618 30.4737 41.6095 29.6553ZM57.1894 27.956C59.3331 26.9167 59.7194 31.8409 58.8793 33.4272C59.0091 33.9003 59.4557 34.0814 59.6381 34.5068C58.4418 36.6497 57.113 38.6497 55.8926 40.7676C56.8006 40.2023 58.0974 40.6665 59.1659 40.2435C59.5565 40.0889 59.839 39.1948 60.1348 38.4796C60.9481 36.5118 61.802 34.0311 62.1819 32.1533C62.2677 31.7253 62.5014 30.793 62.4491 30.4123C62.3556 29.7304 61.4305 29.2249 60.96 28.8031C60.093 28.0245 59.5472 27.3391 58.6427 26.6109C58.2763 27.1523 57.4893 27.5159 57.1894 27.956ZM36.7072 8.94631C35.6856 10.0703 35.8995 12.1761 36.0231 13.6742C37.8693 12.5128 40.32 13.7661 40.2969 15.7415C41.1781 15.7181 40.6262 14.6405 40.4666 13.9464C39.9456 11.6792 41.3446 9.21608 40.5301 7.14275C38.9488 7.2626 37.6497 7.90844 36.7072 8.94631ZM44.0157 2.42353C41.703 3.07884 38.7397 4.75884 37.7896 6.83643C38.5252 6.72938 39.036 6.35831 39.7618 6.31249C40.0362 6.29468 40.3956 6.42752 40.7108 6.34904C41.3392 6.19319 41.8692 4.78462 42.3433 4.26049C42.8053 3.74861 43.3606 3.52987 43.7407 3.06325C43.9849 2.94544 44.3459 2.9536 44.3596 2.58699C44.2539 2.47381 44.1426 2.38754 44.0157 2.42353ZM56.0529 3.03987C53.6528 1.68567 49.5902 0.667095 47.0371 1.93985C44.9771 2.96715 42.1924 4.66663 41.2429 6.82011C42.1299 8.89826 40.9804 10.8026 40.9071 12.9126C40.8681 14.0351 41.4357 15.0153 41.4791 16.2374C41.1755 16.7383 40.2484 16.7999 39.6065 16.7656C39.3905 15.6845 39.0122 14.4693 37.8988 14.3472C36.3235 14.1748 35.1715 15.4787 35.1001 16.8413C35.0153 18.4436 36.3307 21.0993 38.1951 20.9149C38.9154 20.8436 39.0922 20.1217 39.877 20.1291C40.3022 20.9777 39.2209 21.2442 39.1096 21.851C39.0807 22.0078 39.1992 22.6206 39.2683 22.9078C39.607 24.3071 40.3618 26.1179 41.105 27.1831C42.0479 28.5341 43.9008 28.7378 45.894 28.8703C46.2502 28.1033 47.5616 28.1664 48.4161 28.367C47.392 27.9614 46.4398 26.9781 45.6508 26.1075C44.7444 25.109 43.8262 24.0377 43.7799 22.7327C45.4927 25.1088 46.9079 27.184 50.0223 28.2291C52.3791 29.0195 55.1315 27.867 56.9423 26.5953C57.6937 26.0667 58.1421 25.2281 58.6763 24.4606C60.6747 21.5859 61.6072 17.4829 61.4021 13.506C61.3177 11.8659 61.3214 10.2313 60.7711 9.12795C60.196 7.97412 58.2507 6.94182 57.1121 7.98544C56.9009 6.86352 58.0588 6.16963 59.4192 6.57335C58.4492 5.32174 57.4314 3.81781 56.0529 3.03987ZM60.5244 40.0461C62.3999 39.1138 65.9041 37.5365 67.08 40.0496C67.514 40.9758 68.0229 42.5417 68.2477 43.4979C68.565 44.8469 67.9036 47.6824 66.5167 48.1351C65.2922 48.5347 63.863 48.5104 62.3879 48.2141C62.2142 48.0696 62.0207 47.8178 61.8855 47.5553C60.8322 47.5145 59.8457 47.6117 59.0136 48.0448C59.0924 48.8238 58.5655 48.9489 58.0716 49.1093C57.7054 50.5613 58.8043 52.4575 58.5412 53.7814C58.3536 54.7247 57.1931 54.8705 56.3401 55.047C56.3122 55.5713 56.3775 56.0088 56.4356 56.4522C56.2408 57.1709 55.3658 57.58 54.5371 57.6802C51.8099 58.0081 47.6692 58.1554 45.0461 57.2121C44.3142 55.4167 43.7376 53.233 43.1277 51.1829C40.5694 51.4562 38.5005 50.0789 36.5496 49.1767C35.8743 48.8637 34.9401 48.6912 34.6878 48.1537C34.4431 47.6332 34.5433 46.6356 34.4826 45.6935C34.3281 43.2868 34.1958 40.9656 33.5605 38.5015C33.275 37.3957 32.7776 36.42 32.4306 35.3545C32.11 34.3671 31.5497 33.1467 31.4035 32.162C31.1868 30.7026 32.5612 30.6214 33.4399 29.9891C34.7982 29.0109 35.8647 28.4701 37.3357 27.5875C37.7716 27.3261 39.0855 26.6645 39.235 26.3597C39.5323 25.7556 38.725 24.9038 38.5092 24.4301C38.1679 23.6813 37.9897 23.0451 37.941 22.3063C36.7068 22.1112 35.7713 21.3768 35.2062 20.5486C34.2713 19.1779 33.623 16.6422 34.4318 14.7134C34.4952 14.5615 34.8116 14.2628 34.8583 14.0295C34.9504 13.57 34.685 12.959 34.6685 12.4705C34.5836 9.9634 35.0927 7.80343 36.7804 7.04738C37.4656 4.31801 39.9178 3.41038 42.2282 2.05395C43.0919 1.54708 44.0439 1.22295 45.027 0.861162C48.554 -0.436825 53.9656 -0.192293 56.8928 2.02148C58.134 2.96028 60.1181 4.94251 60.8277 6.37761C62.702 10.1664 62.569 16.4984 61.258 21.1072C61.0817 21.726 60.8261 22.6357 60.4691 23.3789C60.2205 23.8978 59.4468 24.9365 59.5409 25.3947C59.6375 25.8686 61.3044 27.1341 61.6617 27.4788C62.3053 28.0996 63.528 28.9236 63.6269 29.7071C63.7334 30.5407 63.2595 31.6811 63.0196 32.4858C62.2172 35.1706 61.4342 37.6525 60.5244 40.0461Z" fill="#231F20"/>
<path d="M48.0119 21.4604C48.1136 21.325 48.673 21.1194 49.4557 21.4962C49.4557 21.4962 48.5281 21.6509 48.6052 23.1975L48.2188 23.12C48.2188 23.12 47.8191 21.7175 48.0119 21.4604Z" fill="#F7E4CD"/>
<path d="M54.7898 34.7544C54.7909 34.811 54.7808 34.8673 54.7599 34.9199C54.7391 34.9725 54.7079 35.0204 54.6683 35.0608C54.6287 35.1012 54.5814 35.1333 54.5292 35.1552C54.4771 35.1771 54.421 35.1884 54.3644 35.1884C54.3079 35.1883 54.2518 35.177 54.1997 35.1551C54.1475 35.1331 54.1003 35.101 54.0607 35.0605C54.0211 35.0201 53.99 34.9721 53.9692 34.9195C53.9484 34.8669 53.9383 34.8106 53.9395 34.7541C53.9419 34.6428 53.9877 34.537 54.0672 34.4592C54.1467 34.3814 54.2536 34.3378 54.3648 34.3379C54.4761 34.3379 54.5829 34.3816 54.6623 34.4594C54.7417 34.5373 54.7875 34.6432 54.7898 34.7544ZM55.215 36.7257C55.215 36.8385 55.1701 36.9466 55.0903 37.0264C55.0106 37.1061 54.9024 37.1508 54.7896 37.1508C54.6768 37.1507 54.5687 37.1059 54.489 37.0261C54.4092 36.9463 54.3645 36.8381 54.3645 36.7254C54.3669 36.6141 54.4128 36.5083 54.4923 36.4305C54.5718 36.3527 54.6786 36.3091 54.7899 36.3092C54.9011 36.3092 55.0079 36.3529 55.0874 36.4307C55.1668 36.5086 55.2126 36.6145 55.2148 36.7257" fill="#1D1919"/>
</svg>
