<svg width="126" height="40" viewBox="0 0 126 40" fill="none" xmlns="http://www.w3.org/2000/svg">
<path fill-rule="evenodd" clip-rule="evenodd" d="M32.8866 31.3533L29.5921 25.2917L30.0592 19.8298L28.9666 18.9465L36.3146 11.2156L28.7581 4.63533L17.9905 14.0113L16.8478 13.0794L9.95856 19.0843V0L0 8.67099V40H9.95856V25.2512L26.9065 40H34.0876L36.8317 36.2885L32.8866 31.3533Z" fill="#8F8F8F"/>
<path d="M49.9429 14.927L54.6303 4.50562H50.1014L46.0896 13.7115H45.9311V4.50562H41.5273V26.3533H45.9311V16.8071H46.1563L49.9763 26.3533H54.8555L49.9429 14.9351V14.927Z" fill="#8F8F8F"/>
<path d="M58.9673 4.50562V26.3533H63.3627V4.50562H58.9673Z" fill="#8F8F8F"/>
<path d="M78.1424 14.2382V22.7228H75.0564C74.4975 22.1232 74.0388 21.1345 73.6635 19.7731C73.2882 18.4117 73.1047 16.9692 73.1047 15.4619C73.1047 13.9546 73.3049 12.5284 73.7135 11.1912C74.1222 9.84602 74.606 8.86547 75.1564 8.24148H81.1366V4.49756H73.3299C71.7869 5.72122 70.5942 7.35007 69.7351 9.3679C68.8761 11.3857 68.4507 13.436 68.4507 15.5024C68.4507 17.5689 68.801 19.5543 69.5099 21.4506C70.2189 23.3468 71.3448 24.9757 72.8795 26.3452H79.6937C81.4952 24.6434 82.3877 22.3501 82.3877 19.4814V14.2382H78.1507H78.1424Z" fill="#8F8F8F"/>
<path d="M97.2252 4.50562H90.5778L86.2407 26.3533H90.6111L93.7555 8.56558H93.8222L97.0333 26.3533H101.337L97.2252 4.50562Z" fill="#8F8F8F"/>
<path d="M110.17 22.7309V4.50562H105.774V26.3533H116.859V22.7309H110.178H110.17Z" fill="#8F8F8F"/>
<path d="M121.604 4.50562V26.3533H126.008V4.50562H121.604Z" fill="#8F8F8F"/>
<path d="M48.3249 32.3501C48.3249 31.4912 48.0914 30.7537 47.5993 30.1621C47.1155 29.5706 46.5317 29.1573 45.8478 28.9385H41.519V40.0082H43.7126V35.9725H44.5717L45.9562 40.0082H48.2332L46.5901 35.4701C47.7411 34.8056 48.3082 33.7683 48.3082 32.3501H48.3249ZM45.731 33.6548C45.5141 33.979 45.3056 34.1573 45.1221 34.1978H43.7209V30.8347H45.2139C45.3974 30.8753 45.5892 31.0617 45.7727 31.3858C45.9562 31.71 46.0563 32.0908 46.0563 32.5203C46.0563 32.9498 45.9479 33.3307 45.7227 33.6548H45.731Z" fill="#8F8F8F"/>
<path d="M54.1881 28.9304V36.2481C54.1881 36.7505 54.138 37.1395 54.0296 37.3907C53.9295 37.65 53.7544 37.9012 53.5208 38.1606H52.153C51.9111 37.9093 51.7443 37.6581 51.6359 37.3907C51.5358 37.1314 51.4857 36.7505 51.4857 36.2481V28.9304H49.2505V35.462C49.2505 36.3858 49.3339 37.1719 49.5007 37.8202C49.6842 38.6063 50.193 39.3356 51.027 40.0001H54.6385C55.4725 39.3113 55.9813 38.582 56.1731 37.8202C56.2815 37.3826 56.3483 37.0179 56.3733 36.7181C56.3983 36.4183 56.415 35.9969 56.415 35.462V28.9304H54.1881Z" fill="#8F8F8F"/>
<path d="M62.4372 28.9304V33.3145L62.6123 35.2594L62.5289 35.2918L59.5347 28.9304H57.8916V40.0001H59.9434V35.7781L59.8433 33.9142L59.9267 33.8818L62.971 40.0082H64.4889V28.9385H62.4372V28.9304Z" fill="#8F8F8F"/>
<path d="M70.5939 28.9304V33.3145L70.7691 35.2594L70.6857 35.2918L67.6914 28.9304H66.0483V40.0001H68.1001V35.7781L68 33.9142L68.0834 33.8818L71.1277 40.0082H72.6457V28.9385H70.5939V28.9304Z" fill="#8F8F8F"/>
<path d="M74.2056 28.9304V40.0001H76.4325V28.9304H74.2056Z" fill="#8F8F8F"/>
<path d="M82.5377 28.9304V33.3145L82.7212 35.2594L82.6378 35.2918L79.6436 28.9304H78.0005V40.0001H80.0523V35.7781L79.9522 33.9142L80.0356 33.8818L83.0799 40.0082H84.5978V28.9385H82.5461L82.5377 28.9304Z" fill="#8F8F8F"/>
<path d="M90.7695 33.8655V38.1605H89.2015C88.9179 37.8526 88.6844 37.3583 88.4926 36.6694C88.3007 35.9806 88.209 35.2513 88.209 34.4895C88.209 33.7278 88.3091 33.0065 88.5176 32.3258C88.7261 31.6451 88.968 31.1427 89.2516 30.8347H92.2792V28.9385H88.3174C87.5418 29.5625 86.9246 30.3809 86.4992 31.402C86.0655 32.4231 85.8486 33.4604 85.8486 34.5138C85.8486 35.5673 86.0238 36.5641 86.3824 37.5284C86.7411 38.4847 87.3082 39.3112 88.0922 40.0082H91.5452C92.4627 39.1411 92.913 37.9822 92.913 36.5317V33.8736H90.7695V33.8655Z" fill="#8F8F8F"/>
<path d="M99.9525 30.8347H102.813V28.9385H98.9516C98.1426 29.5868 97.5254 30.389 97.1167 31.3696C96.708 32.3501 96.4995 33.3712 96.4995 34.4328C96.4995 35.4944 96.683 36.5236 97.05 37.5284C97.4253 38.5333 97.9674 39.3599 98.6847 40.0082H102.813V38.1686H99.9525C99.6606 37.8445 99.402 37.3177 99.1935 36.5884C98.985 35.8591 98.8766 35.1702 98.8766 34.5057C98.8766 33.8412 98.985 33.1443 99.1935 32.4231C99.402 31.6937 99.6522 31.167 99.9525 30.8429V30.8347Z" fill="#8F8F8F"/>
<path d="M106.233 38.1606V28.9304H104.006V40.0001H109.619V38.1606H106.233Z" fill="#8F8F8F"/>
<path d="M115.324 28.9304V36.2481C115.324 36.7505 115.274 37.1395 115.174 37.3907C115.066 37.65 114.899 37.9012 114.657 38.1606H113.289C113.056 37.9093 112.88 37.6581 112.78 37.3907C112.68 37.1314 112.622 36.7505 112.622 36.2481V28.9304H110.395V35.462C110.395 36.3858 110.478 37.1719 110.637 37.8202C110.82 38.6063 111.329 39.3356 112.172 40.0001H115.783C116.617 39.3113 117.126 38.582 117.309 37.8202C117.418 37.3826 117.484 37.0179 117.509 36.7181C117.534 36.4183 117.551 35.9969 117.551 35.462V28.9304H115.324Z" fill="#8F8F8F"/>
<path d="M124.507 34.214V34.1492C125.308 33.6711 125.716 32.8445 125.716 31.6532C125.716 30.9806 125.508 30.4053 125.099 29.9352C124.69 29.4571 124.215 29.133 123.681 28.9385H119.044V40.0082H123.94C125.316 39.1573 126.008 38.0633 126.008 36.7505C126.008 35.5997 125.508 34.757 124.515 34.2221L124.507 34.214ZM121.254 30.8347H122.914C123.356 31.167 123.581 31.6289 123.581 32.2124C123.581 32.7959 123.348 33.2253 122.864 33.509H121.254V30.8429V30.8347ZM123.456 37.5203C123.298 37.8121 123.122 38.0309 122.931 38.1686H121.254V35.2918H123.014C123.206 35.4053 123.373 35.5835 123.506 35.8266C123.64 36.0698 123.698 36.3372 123.698 36.6289C123.698 36.9206 123.623 37.2205 123.464 37.5203H123.456Z" fill="#8F8F8F"/>
</svg>
