<svg width="162" height="54" viewBox="0 0 162 54" fill="none" xmlns="http://www.w3.org/2000/svg">
<path fill-rule="evenodd" clip-rule="evenodd" d="M161.548 0.36084H149.015V53.3847H161.548V0.36084ZM105.098 12.2455H93.2489V22.909H103.804C114.31 22.909 124.151 31.1304 124.151 43.3822V53.6391H136.33V43.3826C136.33 26.9491 123.096 12.2455 105.098 12.2455ZM84.7414 2.97214C84.7414 2.16998 84.6942 1.36646 84.6469 0.36084H71.7979C71.95 1.36691 71.8976 2.16998 71.8976 2.97214C71.8976 15.7737 61.5248 24.359 50.4409 24.359H39.3108V35.5064H51.8052C70.7913 35.5064 84.7414 20.1426 84.7414 2.97214ZM32.8981 53.4697L11.7738 26.6512L32.1445 0.36084H16.7162L0 21.5518V32.6003L16.716 53.4697H32.8981Z" fill="#8F8F8F"/>
</svg>
