<svg width="108" height="103" viewBox="0 0 108 103" fill="none" xmlns="http://www.w3.org/2000/svg">
<path d="M10.6779 91.832H16.0539V95H6.57394V78.152H10.6779V91.832ZM17.1954 88.28C17.1954 86.904 17.4514 85.696 17.9634 84.656C18.4914 83.616 19.2034 82.816 20.0994 82.256C20.9954 81.696 21.9954 81.416 23.0994 81.416C24.0434 81.416 24.8674 81.608 25.5714 81.992C26.2914 82.376 26.8434 82.88 27.2274 83.504V81.608H31.3314V95H27.2274V93.104C26.8274 93.728 26.2674 94.232 25.5474 94.616C24.8434 95 24.0194 95.192 23.0754 95.192C21.9874 95.192 20.9954 94.912 20.0994 94.352C19.2034 93.776 18.4914 92.968 17.9634 91.928C17.4514 90.872 17.1954 89.656 17.1954 88.28ZM27.2274 88.304C27.2274 87.28 26.9394 86.472 26.3634 85.88C25.8034 85.288 25.1154 84.992 24.2994 84.992C23.4834 84.992 22.7874 85.288 22.2114 85.88C21.6514 86.456 21.3714 87.256 21.3714 88.28C21.3714 89.304 21.6514 90.12 22.2114 90.728C22.7874 91.32 23.4834 91.616 24.2994 91.616C25.1154 91.616 25.8034 91.32 26.3634 90.728C26.9394 90.136 27.2274 89.328 27.2274 88.304ZM51.3885 81.464C53.0525 81.464 54.3725 81.968 55.3485 82.976C56.3405 83.984 56.8365 85.384 56.8365 87.176V95H52.7565V87.728C52.7565 86.864 52.5245 86.2 52.0605 85.736C51.6125 85.256 50.9885 85.016 50.1885 85.016C49.3885 85.016 48.7565 85.256 48.2925 85.736C47.8445 86.2 47.6205 86.864 47.6205 87.728V95H43.5405V87.728C43.5405 86.864 43.3085 86.2 42.8445 85.736C42.3965 85.256 41.7725 85.016 40.9725 85.016C40.1725 85.016 39.5405 85.256 39.0765 85.736C38.6285 86.2 38.4045 86.864 38.4045 87.728V95H34.3005V81.608H38.4045V83.288C38.8205 82.728 39.3645 82.288 40.0365 81.968C40.7085 81.632 41.4685 81.464 42.3165 81.464C43.3245 81.464 44.2205 81.68 45.0045 82.112C45.8045 82.544 46.4285 83.16 46.8765 83.96C47.3405 83.224 47.9725 82.624 48.7725 82.16C49.5725 81.696 50.4445 81.464 51.3885 81.464ZM63.8108 83.504C64.1948 82.88 64.7468 82.376 65.4668 81.992C66.1868 81.608 67.0108 81.416 67.9388 81.416C69.0428 81.416 70.0428 81.696 70.9388 82.256C71.8348 82.816 72.5388 83.616 73.0508 84.656C73.5788 85.696 73.8428 86.904 73.8428 88.28C73.8428 89.656 73.5788 90.872 73.0508 91.928C72.5388 92.968 71.8348 93.776 70.9388 94.352C70.0428 94.912 69.0428 95.192 67.9388 95.192C66.9948 95.192 66.1708 95.008 65.4668 94.64C64.7628 94.256 64.2108 93.752 63.8108 93.128V95H59.7068V77.24H63.8108V83.504ZM69.6668 88.28C69.6668 87.256 69.3788 86.456 68.8028 85.88C68.2428 85.288 67.5468 84.992 66.7148 84.992C65.8988 84.992 65.2028 85.288 64.6268 85.88C64.0668 86.472 63.7868 87.28 63.7868 88.304C63.7868 89.328 64.0668 90.136 64.6268 90.728C65.2028 91.32 65.8988 91.616 66.7148 91.616C67.5308 91.616 68.2268 91.32 68.8028 90.728C69.3788 90.12 69.6668 89.304 69.6668 88.28ZM75.1798 88.28C75.1798 86.904 75.4358 85.696 75.9478 84.656C76.4758 83.616 77.1878 82.816 78.0838 82.256C78.9798 81.696 79.9798 81.416 81.0838 81.416C81.9638 81.416 82.7638 81.6 83.4838 81.968C84.2198 82.336 84.7958 82.832 85.2118 83.456V77.24H89.3158V95H85.2118V93.08C84.8278 93.72 84.2758 94.232 83.5558 94.616C82.8518 95 82.0278 95.192 81.0838 95.192C79.9798 95.192 78.9798 94.912 78.0838 94.352C77.1878 93.776 76.4758 92.968 75.9478 91.928C75.4358 90.872 75.1798 89.656 75.1798 88.28ZM85.2118 88.304C85.2118 87.28 84.9238 86.472 84.3478 85.88C83.7878 85.288 83.0998 84.992 82.2838 84.992C81.4678 84.992 80.7718 85.288 80.1958 85.88C79.6358 86.456 79.3558 87.256 79.3558 88.28C79.3558 89.304 79.6358 90.12 80.1958 90.728C80.7718 91.32 81.4678 91.616 82.2838 91.616C83.0998 91.616 83.7878 91.32 84.3478 90.728C84.9238 90.136 85.2118 89.328 85.2118 88.304ZM91.4689 88.28C91.4689 86.904 91.7249 85.696 92.2369 84.656C92.7649 83.616 93.4769 82.816 94.3729 82.256C95.2689 81.696 96.2689 81.416 97.3729 81.416C98.3169 81.416 99.1409 81.608 99.8449 81.992C100.565 82.376 101.117 82.88 101.501 83.504V81.608H105.605V95H101.501V93.104C101.101 93.728 100.541 94.232 99.8209 94.616C99.1169 95 98.2929 95.192 97.3489 95.192C96.2609 95.192 95.2689 94.912 94.3729 94.352C93.4769 93.776 92.7649 92.968 92.2369 91.928C91.7249 90.872 91.4689 89.656 91.4689 88.28ZM101.501 88.304C101.501 87.28 101.213 86.472 100.637 85.88C100.077 85.288 99.3889 84.992 98.5729 84.992C97.7569 84.992 97.0609 85.288 96.4849 85.88C95.9249 86.456 95.6449 87.256 95.6449 88.28C95.6449 89.304 95.9249 90.12 96.4849 90.728C97.0609 91.32 97.7569 91.616 98.5729 91.616C99.3889 91.616 100.077 91.32 100.637 90.728C101.213 90.136 101.501 89.328 101.501 88.304Z" fill="black"/>
<path d="M37.335 6.66797H70.6675C75.1125 6.66797 77.335 8.89047 77.335 13.3355V46.668C77.335 51.113 75.1125 53.3355 70.6675 53.3355H37.335C32.89 53.3355 30.6675 51.113 30.6675 46.668V13.3355C30.6675 8.89047 32.89 6.66797 37.335 6.66797Z" fill="#FF7C00"/>
<path d="M47.3526 26.1247C47.6026 26.0897 48.0451 26.5872 48.2226 26.9422C49.6643 29.8517 51.081 32.7734 52.4726 35.7072C52.6476 36.0822 52.6676 36.6497 52.4901 37.0222C50.9426 40.3997 49.3251 43.7597 47.7426 47.1222C47.4926 47.6547 47.1376 47.8472 46.5676 47.8322C45.1126 47.7972 43.6551 47.8147 42.2151 47.8147H38.1251C36.8626 47.8147 36.6151 47.3872 37.1651 46.2322C38.8726 42.6397 40.5976 39.0322 42.3201 35.4397C43.6701 32.6147 45.0051 29.7872 46.3926 26.9772C46.5676 26.6047 46.9976 26.1772 47.3526 26.1272V26.1247ZM43.6176 12.1347C45.3776 12.2047 47.1376 12.1872 48.8801 12.1872C50.5351 12.1872 52.2051 12.2222 53.8576 12.1697C54.5526 12.1522 54.9251 12.3997 55.2076 13.0222C58.6576 20.3122 62.1251 27.5997 65.5926 34.8722C66.0551 35.8322 66.5526 36.7722 66.9426 37.7522C67.1926 38.3572 67.5476 38.5347 68.1526 38.4797C68.8276 38.4272 69.5201 38.4797 70.1976 38.4622C70.8376 38.4447 71.1026 38.7472 71.1026 39.3872C71.0848 41.8764 71.0848 44.3656 71.1026 46.8547C71.1026 47.5297 70.8176 47.8147 70.1426 47.7972C67.3526 47.7772 64.5776 47.7597 61.7876 47.8147C61.0401 47.8322 60.8451 47.3347 60.5976 46.8372L52.6476 30.1972C51.3726 27.5122 50.0576 24.8272 48.7926 22.1072C48.5776 21.6272 48.3126 21.4497 47.7976 21.4672C46.4101 21.5022 45.0051 21.4497 43.6176 21.4847C42.8726 21.5022 42.5176 21.2172 42.5176 20.4547C42.5351 18.0172 42.5351 15.5997 42.5176 13.1647C42.5176 12.4172 42.8551 12.1147 43.6176 12.1347ZM52.9176 13.6622C50.6051 13.7172 48.2926 13.6797 45.9826 13.6797H44.1701V20.0097C45.5751 20.0097 46.9076 20.0622 48.2401 19.9922C49.2001 19.9372 49.7151 20.2572 50.1251 21.1472C53.9826 29.3072 57.8751 37.4322 61.7501 45.5722C62.0001 46.1072 62.3026 46.3722 62.9426 46.3372L64.2776 46.3122L66.9426 46.3197H69.5751C69.5576 44.1522 69.5576 42.1247 69.5576 39.9922C68.8976 39.9922 68.2776 39.9197 67.6726 40.0097C66.6226 40.1522 66.1076 39.6897 65.6626 38.7472C61.8576 30.6397 57.9826 22.5697 54.1626 14.4622C53.8951 13.8947 53.5926 13.6447 52.9176 13.6622ZM47.3351 28.6672C44.4551 34.6222 41.6976 40.4172 38.8901 46.3197C41.2176 46.3197 43.4051 46.3022 45.5901 46.3372C46.1976 46.3572 46.4801 46.1422 46.7301 45.6097C47.8151 43.2447 48.8276 40.8447 50.0901 38.5872C50.9601 37.0047 50.9601 35.7247 50.0551 34.1772C49.0401 32.4722 48.2776 30.6222 47.3351 28.6672Z" fill="#FF7C00"/>
<path d="M52.8975 13.663C53.5725 13.6455 53.8775 13.8955 54.1425 14.463C57.9675 22.553 61.8425 30.6405 65.645 38.748C66.09 39.6905 66.605 40.153 67.655 40.0105C68.2775 39.9205 68.8975 39.993 69.555 39.993V46.3205H66.925C65.5925 46.3205 64.2575 46.2855 62.925 46.338C62.285 46.3755 61.9825 46.108 61.735 45.5755L53.9675 29.298C52.6749 26.5841 51.3882 23.8675 50.1075 21.148C49.6825 20.258 49.1825 19.923 48.2225 19.993C46.89 20.0805 45.5575 20.0105 44.1525 20.0105V13.6805H45.965C48.2775 13.6805 50.5875 13.718 52.8975 13.663ZM47.3175 28.668C48.2575 30.623 49.0425 32.473 50.0375 34.178C50.9425 35.708 50.9425 37.0055 50.0725 38.588C48.81 40.8455 47.7975 43.2455 46.7125 45.6105C46.4625 46.143 46.1775 46.338 45.575 46.338C43.3875 46.288 41.2175 46.3205 38.89 46.3205C41.6975 40.4205 44.4725 34.623 47.315 28.668H47.3175Z" fill="white"/>
</svg>
