<svg width="92" height="96" viewBox="0 0 92 96" fill="none" xmlns="http://www.w3.org/2000/svg">
<path d="M5.592 84.832H10.968V88H1.488V71.152H5.592V84.832ZM12.1095 81.28C12.1095 79.904 12.3655 78.696 12.8775 77.656C13.4055 76.616 14.1175 75.816 15.0135 75.256C15.9095 74.696 16.9095 74.416 18.0135 74.416C18.9575 74.416 19.7815 74.608 20.4855 74.992C21.2055 75.376 21.7575 75.88 22.1415 76.504V74.608H26.2455V88H22.1415V86.104C21.7415 86.728 21.1815 87.232 20.4615 87.616C19.7575 88 18.9335 88.192 17.9895 88.192C16.9015 88.192 15.9095 87.912 15.0135 87.352C14.1175 86.776 13.4055 85.968 12.8775 84.928C12.3655 83.872 12.1095 82.656 12.1095 81.28ZM22.1415 81.304C22.1415 80.28 21.8535 79.472 21.2775 78.88C20.7175 78.288 20.0295 77.992 19.2135 77.992C18.3975 77.992 17.7015 78.288 17.1255 78.88C16.5655 79.456 16.2855 80.256 16.2855 81.28C16.2855 82.304 16.5655 83.12 17.1255 83.728C17.7015 84.32 18.3975 84.616 19.2135 84.616C20.0295 84.616 20.7175 84.32 21.2775 83.728C21.8535 83.136 22.1415 82.328 22.1415 81.304ZM33.3186 76.84C33.7986 76.104 34.3986 75.528 35.1186 75.112C35.8386 74.68 36.6386 74.464 37.5186 74.464V78.808H36.3906C35.3666 78.808 34.5986 79.032 34.0866 79.48C33.5746 79.912 33.3186 80.68 33.3186 81.784V88H29.2146V74.608H33.3186V76.84ZM38.6642 81.28C38.6642 79.904 38.9202 78.696 39.4322 77.656C39.9602 76.616 40.6722 75.816 41.5682 75.256C42.4642 74.696 43.4642 74.416 44.5682 74.416C45.5122 74.416 46.3362 74.608 47.0402 74.992C47.7602 75.376 48.3122 75.88 48.6962 76.504V74.608H52.8002V88H48.6962V86.104C48.2962 86.728 47.7362 87.232 47.0162 87.616C46.3122 88 45.4882 88.192 44.5442 88.192C43.4562 88.192 42.4642 87.912 41.5682 87.352C40.6722 86.776 39.9602 85.968 39.4322 84.928C38.9202 83.872 38.6642 82.656 38.6642 81.28ZM48.6962 81.304C48.6962 80.28 48.4082 79.472 47.8322 78.88C47.2722 78.288 46.5842 77.992 45.7682 77.992C44.9522 77.992 44.2562 78.288 43.6802 78.88C43.1202 79.456 42.8402 80.256 42.8402 81.28C42.8402 82.304 43.1202 83.12 43.6802 83.728C44.2562 84.32 44.9522 84.616 45.7682 84.616C46.5842 84.616 47.2722 84.32 47.8322 83.728C48.4082 83.136 48.6962 82.328 48.6962 81.304ZM61.7933 84.16L64.6973 74.608H69.0653L64.3133 88H59.2493L54.4973 74.608H58.8893L61.7933 84.16ZM83.4167 81.088C83.4167 81.472 83.3927 81.872 83.3447 82.288H74.0567C74.1207 83.12 74.3847 83.76 74.8487 84.208C75.3287 84.64 75.9127 84.856 76.6007 84.856C77.6247 84.856 78.3367 84.424 78.7367 83.56H83.1047C82.8807 84.44 82.4727 85.232 81.8807 85.936C81.3047 86.64 80.5767 87.192 79.6967 87.592C78.8167 87.992 77.8327 88.192 76.7447 88.192C75.4327 88.192 74.2647 87.912 73.2407 87.352C72.2167 86.792 71.4167 85.992 70.8407 84.952C70.2647 83.912 69.9767 82.696 69.9767 81.304C69.9767 79.912 70.2567 78.696 70.8167 77.656C71.3927 76.616 72.1927 75.816 73.2167 75.256C74.2407 74.696 75.4167 74.416 76.7447 74.416C78.0407 74.416 79.1927 74.688 80.2007 75.232C81.2087 75.776 81.9927 76.552 82.5527 77.56C83.1287 78.568 83.4167 79.744 83.4167 81.088ZM79.2167 80.008C79.2167 79.304 78.9767 78.744 78.4967 78.328C78.0167 77.912 77.4167 77.704 76.6967 77.704C76.0087 77.704 75.4247 77.904 74.9447 78.304C74.4807 78.704 74.1927 79.272 74.0807 80.008H79.2167ZM89.6858 70.24V88H85.5818V70.24H89.6858Z" fill="black"/>
<g clip-path="url(#clip0_6441_326)">
<path d="M41.614 4.96505L33.1427 0.0943419C33.0357 0.0325374 32.9142 0 32.7906 0C32.667 0 32.5456 0.0325374 32.4385 0.0943419L23.9673 4.96505C23.7307 5.09601 23.6184 5.30273 23.6152 5.57624V34.551C23.6155 34.6749 23.6483 34.7966 23.7103 34.9039C23.7724 35.0112 23.8616 35.1003 23.9689 35.1623L40.913 44.9032C41.1579 45.0333 41.3637 45.0307 41.6156 44.9049L58.5596 35.1638C58.6673 35.1023 58.7568 35.0133 58.8189 34.9059C58.881 34.7985 58.9136 34.6766 58.9133 34.5526V25.3018L67.0309 20.6345C67.1386 20.5729 67.228 20.484 67.2902 20.3766C67.3523 20.2693 67.3849 20.1474 67.3846 20.0233V10.3645C67.3846 10.19 67.2798 9.89737 67.0245 9.75323L58.5532 4.88279C58.4462 4.82098 58.3248 4.78844 58.2012 4.78844C58.0775 4.78844 57.9561 4.82098 57.8491 4.88279L49.3778 9.75323C49.1467 9.8848 49.0258 10.0995 49.0258 10.3645V19.6152L41.966 23.6745V5.57615C41.966 5.36346 41.8412 5.08669 41.614 4.96496V4.96505ZM41.2522 33.7397L34.2055 29.7579L49.7251 20.8361L56.7783 24.8905L41.2522 33.7398V33.7397ZM57.4921 15.6431V23.6745L50.4309 19.6152V11.5838L57.4921 15.643V15.6431ZM58.1979 6.30679L65.2543 10.3645L58.1979 14.4221L51.1415 10.3645L58.1979 6.30679ZM33.4884 28.5452V10.8548L40.5496 6.79546V24.4842L33.4884 28.5451V28.5452ZM32.7826 1.52028L39.839 5.57791L32.7826 9.63563L25.7262 5.57791L32.7826 1.52028H32.7826ZM41.9596 43.0728V34.9607L57.4921 26.1066V34.1431L41.9596 43.0727V43.0728ZM58.9037 23.6746V15.6432L65.965 11.5838V19.6153L58.9037 23.6746ZM40.5529 34.9606V43.0712L25.0156 34.143V6.79546L32.0767 10.8548V30.1711L40.5529 34.9606Z" fill="#F52D21"/>
</g>
<defs>
<clipPath id="clip0_6441_326">
<rect width="45" height="45" fill="white" transform="translate(23)"/>
</clipPath>
</defs>
</svg>
