<svg width="86" height="100" viewBox="0 0 86 100" fill="none" xmlns="http://www.w3.org/2000/svg">
<path d="M20.568 75.152V92H16.464V81.896L12.696 92H9.384L5.592 81.872V92H1.488V75.152H6.336L11.064 86.816L15.744 75.152H20.568ZM29.6153 92.192C28.3033 92.192 27.1193 91.912 26.0633 91.352C25.0233 90.792 24.1993 89.992 23.5913 88.952C22.9993 87.912 22.7033 86.696 22.7033 85.304C22.7033 83.928 23.0073 82.72 23.6152 81.68C24.2233 80.624 25.0553 79.816 26.1113 79.256C27.1673 78.696 28.3513 78.416 29.6633 78.416C30.9753 78.416 32.1593 78.696 33.2153 79.256C34.2713 79.816 35.1033 80.624 35.7113 81.68C36.3193 82.72 36.6233 83.928 36.6233 85.304C36.6233 86.68 36.3113 87.896 35.6873 88.952C35.0793 89.992 34.2393 90.792 33.1673 91.352C32.1113 91.912 30.9273 92.192 29.6153 92.192ZM29.6153 88.64C30.3993 88.64 31.0633 88.352 31.6073 87.776C32.1673 87.2 32.4473 86.376 32.4473 85.304C32.4473 84.232 32.1753 83.408 31.6313 82.832C31.1033 82.256 30.4473 81.968 29.6633 81.968C28.8633 81.968 28.1993 82.256 27.6713 82.832C27.1433 83.392 26.8793 84.216 26.8793 85.304C26.8793 86.376 27.1353 87.2 27.6473 87.776C28.1753 88.352 28.8313 88.64 29.6153 88.64ZM46.9605 78.464C48.5285 78.464 49.7765 78.976 50.7045 80C51.6485 81.008 52.1205 82.4 52.1205 84.176V92H48.0405V84.728C48.0405 83.832 47.8085 83.136 47.3445 82.64C46.8805 82.144 46.2565 81.896 45.4725 81.896C44.6885 81.896 44.0645 82.144 43.6005 82.64C43.1365 83.136 42.9045 83.832 42.9045 84.728V92H38.8005V78.608H42.9045V80.384C43.3205 79.792 43.8805 79.328 44.5845 78.992C45.2885 78.64 46.0805 78.464 46.9605 78.464ZM60.0604 78.416C61.0044 78.416 61.8284 78.608 62.5324 78.992C63.2524 79.376 63.8044 79.88 64.1884 80.504V78.608H68.2924V91.976C68.2924 93.208 68.0444 94.32 67.5484 95.312C67.0684 96.32 66.3244 97.12 65.3164 97.712C64.3244 98.304 63.0844 98.6 61.5964 98.6C59.6124 98.6 58.0044 98.128 56.7724 97.184C55.5404 96.256 54.8364 94.992 54.6604 93.392H58.7164C58.8444 93.904 59.1484 94.304 59.6284 94.592C60.1084 94.896 60.7004 95.048 61.4044 95.048C62.2524 95.048 62.9244 94.8 63.4204 94.304C63.9324 93.824 64.1884 93.048 64.1884 91.976V90.08C63.7884 90.704 63.2364 91.216 62.5324 91.616C61.8284 92 61.0044 92.192 60.0604 92.192C58.9564 92.192 57.9564 91.912 57.0604 91.352C56.1644 90.776 55.4524 89.968 54.9244 88.928C54.4124 87.872 54.1564 86.656 54.1564 85.28C54.1564 83.904 54.4124 82.696 54.9244 81.656C55.4524 80.616 56.1644 79.816 57.0604 79.256C57.9564 78.696 58.9564 78.416 60.0604 78.416ZM64.1884 85.304C64.1884 84.28 63.9004 83.472 63.3244 82.88C62.7644 82.288 62.0764 81.992 61.2604 81.992C60.4444 81.992 59.7484 82.288 59.1724 82.88C58.6124 83.456 58.3324 84.256 58.3324 85.28C58.3324 86.304 58.6124 87.12 59.1724 87.728C59.7484 88.32 60.4444 88.616 61.2604 88.616C62.0764 88.616 62.7644 88.32 63.3244 87.728C63.9004 87.136 64.1884 86.328 64.1884 85.304ZM77.3574 92.192C76.0454 92.192 74.8614 91.912 73.8054 91.352C72.7654 90.792 71.9414 89.992 71.3334 88.952C70.7414 87.912 70.4454 86.696 70.4454 85.304C70.4454 83.928 70.7494 82.72 71.3574 81.68C71.9654 80.624 72.7974 79.816 73.8534 79.256C74.9094 78.696 76.0934 78.416 77.4054 78.416C78.7174 78.416 79.9014 78.696 80.9574 79.256C82.0134 79.816 82.8454 80.624 83.4534 81.68C84.0614 82.72 84.3654 83.928 84.3654 85.304C84.3654 86.68 84.0534 87.896 83.4294 88.952C82.8214 89.992 81.9814 90.792 80.9094 91.352C79.8534 91.912 78.6694 92.192 77.3574 92.192ZM77.3574 88.64C78.1414 88.64 78.8054 88.352 79.3494 87.776C79.9094 87.2 80.1894 86.376 80.1894 85.304C80.1894 84.232 79.9174 83.408 79.3734 82.832C78.8454 82.256 78.1894 81.968 77.4054 81.968C76.6054 81.968 75.9414 82.256 75.4134 82.832C74.8854 83.392 74.6214 84.216 74.6214 85.304C74.6214 86.376 74.8774 87.2 75.3894 87.776C75.9174 88.352 76.5734 88.64 77.3574 88.64Z" fill="black"/>
<path d="M42.5024 3.37988L40.4899 51.4994H44.5914L42.5024 3.37988Z" fill="#A0986D"/>
<path d="M42.5406 3.37402C33.9984 6.5459 27.9554 15.4764 28.3218 25.7795C28.6664 35.492 34.5453 43.5912 42.5406 46.6373V3.37402Z" fill="#85C47C"/>
<path d="M42.5406 46.6428C50.9352 43.5146 56.7266 34.5623 56.4094 24.2756C56.1086 14.574 50.3774 6.45293 42.5406 3.37402V46.6428Z" fill="#3CA52D"/>
</svg>
