<svg width="83" height="102" viewBox="0 0 83 102" fill="none" xmlns="http://www.w3.org/2000/svg">
<path d="M20.568 77.152V94H16.464V83.896L12.696 94H9.384L5.592 83.872V94H1.488V77.152H6.336L11.064 88.816L15.744 77.152H20.568ZM37.1993 80.608L28.7993 100.36H24.3833L27.4553 93.544L22.0072 80.608H26.5913L29.6873 88.984L32.7593 80.608H37.1993ZM44.7793 94.168C43.5473 94.168 42.4433 93.968 41.4673 93.568C40.4913 93.168 39.7073 92.576 39.1153 91.792C38.5393 91.008 38.2353 90.064 38.2033 88.96H42.5713C42.6353 89.584 42.8513 90.064 43.2193 90.4C43.5873 90.72 44.0673 90.88 44.6593 90.88C45.2673 90.88 45.7473 90.744 46.0993 90.472C46.4513 90.184 46.6273 89.792 46.6273 89.296C46.6273 88.88 46.4833 88.536 46.1953 88.264C45.9233 87.992 45.5793 87.768 45.1633 87.592C44.7633 87.416 44.1873 87.216 43.4353 86.992C42.3473 86.656 41.4593 86.32 40.7713 85.984C40.0833 85.648 39.4913 85.152 38.9953 84.496C38.4993 83.84 38.2513 82.984 38.2513 81.928C38.2513 80.36 38.8193 79.136 39.9553 78.256C41.0913 77.36 42.5713 76.912 44.3953 76.912C46.2513 76.912 47.7473 77.36 48.8833 78.256C50.0193 79.136 50.6273 80.368 50.7073 81.952H46.2673C46.2353 81.408 46.0353 80.984 45.6673 80.68C45.2993 80.36 44.8273 80.2 44.2513 80.2C43.7553 80.2 43.3553 80.336 43.0513 80.608C42.7473 80.864 42.5953 81.24 42.5953 81.736C42.5953 82.28 42.8513 82.704 43.3633 83.008C43.8753 83.312 44.6753 83.64 45.7633 83.992C46.8513 84.36 47.7313 84.712 48.4033 85.048C49.0913 85.384 49.6833 85.872 50.1793 86.512C50.6753 87.152 50.9233 87.976 50.9233 88.984C50.9233 89.944 50.6753 90.816 50.1793 91.6C49.6993 92.384 48.9953 93.008 48.0673 93.472C47.1393 93.936 46.0433 94.168 44.7793 94.168ZM65.4489 96.88L63.2889 93.976C62.6489 94.104 62.0249 94.168 61.4169 94.168C59.8329 94.168 58.3769 93.8 57.0489 93.064C55.7369 92.328 54.6889 91.304 53.9049 89.992C53.1369 88.664 52.7529 87.176 52.7529 85.528C52.7529 83.88 53.1369 82.4 53.9049 81.088C54.6889 79.776 55.7369 78.752 57.0489 78.016C58.3769 77.28 59.8329 76.912 61.4169 76.912C63.0009 76.912 64.4489 77.28 65.7609 78.016C67.0889 78.752 68.1289 79.776 68.8809 81.088C69.6489 82.4 70.0329 83.88 70.0329 85.528C70.0329 86.968 69.7369 88.288 69.1449 89.488C68.5689 90.672 67.7609 91.656 66.7209 92.44L70.4169 96.88H65.4489ZM56.9529 85.528C56.9529 87.016 57.3529 88.208 58.1529 89.104C58.9689 89.984 60.0569 90.424 61.4169 90.424C62.7609 90.424 63.8329 89.976 64.6329 89.08C65.4489 88.184 65.8569 87 65.8569 85.528C65.8569 84.04 65.4489 82.856 64.6329 81.976C63.8329 81.08 62.7609 80.632 61.4169 80.632C60.0569 80.632 58.9689 81.072 58.1529 81.952C57.3529 82.832 56.9529 84.024 56.9529 85.528ZM76.467 90.832H81.843V94H72.363V77.152H76.467V90.832Z" fill="black"/>
<path d="M29.3119 13.5635C28.7695 13.5635 28.4025 13.6294 28.0204 13.7185V13.7808H28.0863C28.3411 14.2698 28.7748 14.6269 29.0954 15.0651C29.3493 15.5683 29.5666 16.0715 29.8204 16.5703L29.8863 16.5008C30.3298 16.1891 30.5463 15.6903 30.5463 14.9333C30.3574 14.7124 30.3298 14.4907 30.1695 14.2743C29.9807 13.959 29.5755 13.8031 29.3216 13.5537L29.3119 13.5635ZM61.4456 40.9093C58.9234 40.8434 56.9684 41.0972 55.3332 41.7937C54.8612 41.9825 54.1077 41.9825 54.0418 42.5801C54.301 42.8295 54.3384 43.2392 54.5602 43.5865C54.9369 44.218 55.588 45.0605 56.19 45.5022C56.8509 46.0206 57.5099 46.5193 58.2028 46.962C59.4283 47.7146 60.8186 48.1616 62.0201 48.9196C62.7032 49.3622 63.4005 49.9224 64.0934 50.3927C64.4372 50.6278 64.659 51.0517 65.1016 51.2031V51.1087C64.8852 50.8255 64.8184 50.4167 64.6064 50.1014C64.2911 49.7861 63.975 49.5029 63.6642 49.193C62.7389 47.9748 61.6348 46.9034 60.3893 46.0152C59.3811 45.3286 57.1751 44.3676 56.7609 43.2151L56.6995 43.1492C57.3879 43.0878 58.2073 42.8384 58.8672 42.6505C59.9369 42.3681 60.9175 42.4296 62.0245 42.1517C62.5233 42.0243 63.0282 41.8694 63.5323 41.7091V41.4267C62.9668 40.8621 62.5429 40.0944 61.9586 39.568C60.3276 38.1438 58.5883 36.8484 56.7565 35.6938C55.767 35.0632 54.513 34.6589 53.4718 34.1218C53.0951 33.9339 52.4636 33.8395 52.2463 33.5251C51.6808 32.8376 51.3513 31.9238 50.9505 31.1053C50.0252 29.3125 49.1655 27.4867 48.373 25.6315C47.8075 24.398 47.4637 23.1698 46.7708 22.0405C43.52 16.6887 39.9994 13.446 34.5844 10.2736C33.4212 9.61451 32.0265 9.33218 30.5507 8.98394C29.7643 8.94654 28.977 8.88954 28.195 8.85658C27.6767 8.63571 27.177 8.03721 26.7344 7.75132C24.9442 6.62111 20.3067 4.17368 18.9868 7.41199C18.139 9.45508 20.2453 11.4688 20.9756 12.5046C21.518 13.2251 22.2011 14.048 22.5787 14.8576C22.7996 15.4036 22.8602 15.9638 23.0819 16.5338C23.5816 17.9169 24.0572 19.4613 24.7171 20.7553C25.0609 21.4144 25.4385 22.1064 25.8812 22.6996C26.1359 23.0425 26.5696 23.2028 26.6685 23.7683C26.2249 24.4078 26.1964 25.3394 25.9426 26.1205C24.8115 29.683 25.2542 34.0889 26.8564 36.71C27.3605 37.492 28.5628 39.2242 30.1695 38.5607C31.5829 37.9952 31.2721 36.2068 31.6774 34.6304C31.7718 34.2536 31.7103 34.0043 31.9036 33.7504V33.8208C32.3462 34.7061 32.7897 35.5486 33.195 36.433C34.1658 37.9765 35.8615 39.5769 37.2803 40.6457C38.0337 41.2103 38.6322 42.1891 39.5754 42.5373V42.4438H39.5042C39.302 42.1704 39.033 42.0386 38.7792 41.8177C38.1817 41.2336 37.6302 40.6041 37.1298 39.9349C35.802 38.1231 34.6245 36.2057 33.6091 34.202C33.0908 33.2134 32.657 32.15 32.2429 31.1756C32.0541 30.7989 32.0541 30.2343 31.7388 30.0463C31.2668 30.733 30.5748 31.3315 30.231 32.1785C29.6325 33.534 29.571 35.1995 29.3448 36.9318C29.2174 36.9647 29.2789 36.9318 29.2174 36.9977C28.2093 36.7527 27.8655 35.708 27.4878 34.8334C26.5456 32.5971 26.3906 29.0061 27.2055 26.4313C27.4264 25.7722 28.3696 23.6926 27.9919 23.0612C27.7942 22.4644 27.1726 22.1207 26.8288 21.6362C26.3862 21.0051 26.0074 20.3318 25.6977 19.626C24.9433 17.8653 24.5666 15.9166 23.7472 14.1567C23.3696 13.3427 22.7096 12.4912 22.1726 11.7422C21.5741 10.8952 20.9141 10.2976 20.4386 9.29477C20.2827 8.95099 20.0618 8.38188 20.3112 8.00515C20.3771 7.75132 20.5089 7.65246 20.7538 7.58121C21.1689 7.24277 22.3329 7.68541 22.7426 7.87333C23.9066 8.34358 24.8872 8.78622 25.8625 9.44529C26.3051 9.75611 26.7816 10.3537 27.3471 10.5087H28.0062C29.0153 10.7305 30.1508 10.5746 31.0931 10.8525C32.7657 11.3886 34.2735 12.1706 35.6264 13.0176C39.7926 15.6751 43.1822 19.3867 45.4518 23.7763C45.8285 24.5013 45.9933 25.1657 46.337 25.9183C46.997 27.4715 47.8119 29.039 48.4817 30.5406C49.1407 32.0226 49.7775 33.5331 50.7243 34.7622C51.1963 35.4213 53.0898 35.765 53.9385 36.1079C54.5646 36.3903 55.5408 36.6494 56.1063 36.9932C57.1893 37.6523 58.2456 38.4049 59.2627 39.1307C59.781 39.487 61.3503 40.2734 61.4447 40.9093H61.4456Z" fill="#3480AF"/>
</svg>

