<svg width="93" height="96" viewBox="0 0 93 96" fill="none" xmlns="http://www.w3.org/2000/svg">
<path d="M16.56 88H12.456L5.592 77.608V88H1.488V71.152H5.592L12.456 81.592V71.152H16.56V88ZM32.1589 81.088C32.1589 81.472 32.1349 81.872 32.0869 82.288H22.7989C22.8629 83.12 23.1269 83.76 23.5909 84.208C24.0709 84.64 24.6549 84.856 25.3429 84.856C26.3669 84.856 27.0789 84.424 27.4789 83.56H31.8469C31.6229 84.44 31.2149 85.232 30.6229 85.936C30.0469 86.64 29.3189 87.192 28.4389 87.592C27.5589 87.992 26.5749 88.192 25.4869 88.192C24.1749 88.192 23.0069 87.912 21.9829 87.352C20.9589 86.792 20.1589 85.992 19.5829 84.952C19.0069 83.912 18.7189 82.696 18.7189 81.304C18.7189 79.912 18.9989 78.696 19.5589 77.656C20.1349 76.616 20.9349 75.816 21.9589 75.256C22.9829 74.696 24.1589 74.416 25.4869 74.416C26.7829 74.416 27.9349 74.688 28.9429 75.232C29.9509 75.776 30.7349 76.552 31.2949 77.56C31.8709 78.568 32.1589 79.744 32.1589 81.088ZM27.9589 80.008C27.9589 79.304 27.7189 78.744 27.2389 78.328C26.7589 77.912 26.1589 77.704 25.4389 77.704C24.7509 77.704 24.1669 77.904 23.6869 78.304C23.2229 78.704 22.9349 79.272 22.8229 80.008H27.9589ZM42.2439 88L39.6759 84.28L37.5159 88H33.0759L37.4919 81.16L32.9559 74.608H37.5639L40.1319 78.304L42.2919 74.608H46.7319L42.2439 81.352L46.8519 88H42.2439ZM55.8973 84.52V88H53.8093C52.3213 88 51.1613 87.64 50.3293 86.92C49.4973 86.184 49.0813 84.992 49.0813 83.344V78.016H47.4493V74.608H49.0813V71.344H53.1853V74.608H55.8733V78.016H53.1853V83.392C53.1853 83.792 53.2813 84.08 53.4733 84.256C53.6653 84.432 53.9853 84.52 54.4333 84.52H55.8973ZM60.1033 88.192C59.3833 88.192 58.7913 87.984 58.3273 87.568C57.8793 87.136 57.6553 86.608 57.6553 85.984C57.6553 85.344 57.8793 84.808 58.3273 84.376C58.7913 83.944 59.3833 83.728 60.1033 83.728C60.8073 83.728 61.3833 83.944 61.8313 84.376C62.2953 84.808 62.5273 85.344 62.5273 85.984C62.5273 86.608 62.2953 87.136 61.8313 87.568C61.3833 87.984 60.8073 88.192 60.1033 88.192ZM75.5168 71.152V82.624C75.5168 84.4 75.0128 85.768 74.0048 86.728C73.0128 87.688 71.6688 88.168 69.9728 88.168C68.1968 88.168 66.7728 87.664 65.7008 86.656C64.6288 85.648 64.0928 84.216 64.0928 82.36H68.1728C68.1728 83.064 68.3168 83.6 68.6048 83.968C68.8928 84.32 69.3088 84.496 69.8528 84.496C70.3488 84.496 70.7328 84.336 71.0048 84.016C71.2768 83.696 71.4128 83.232 71.4128 82.624V71.152H75.5168ZM84.9278 88.168C83.6958 88.168 82.5918 87.968 81.6158 87.568C80.6398 87.168 79.8558 86.576 79.2638 85.792C78.6878 85.008 78.3838 84.064 78.3518 82.96H82.7198C82.7838 83.584 82.9998 84.064 83.3678 84.4C83.7358 84.72 84.2158 84.88 84.8078 84.88C85.4158 84.88 85.8958 84.744 86.2478 84.472C86.5998 84.184 86.7758 83.792 86.7758 83.296C86.7758 82.88 86.6318 82.536 86.3438 82.264C86.0718 81.992 85.7278 81.768 85.3118 81.592C84.9118 81.416 84.3358 81.216 83.5838 80.992C82.4958 80.656 81.6078 80.32 80.9198 79.984C80.2318 79.648 79.6398 79.152 79.1438 78.496C78.6478 77.84 78.3998 76.984 78.3998 75.928C78.3998 74.36 78.9678 73.136 80.1038 72.256C81.2398 71.36 82.7198 70.912 84.5438 70.912C86.3998 70.912 87.8958 71.36 89.0318 72.256C90.1678 73.136 90.7758 74.368 90.8558 75.952H86.4158C86.3838 75.408 86.1838 74.984 85.8158 74.68C85.4478 74.36 84.9758 74.2 84.3997 74.2C83.9038 74.2 83.5038 74.336 83.1998 74.608C82.8958 74.864 82.7438 75.24 82.7438 75.736C82.7438 76.28 82.9998 76.704 83.5117 77.008C84.0238 77.312 84.8238 77.64 85.9118 77.992C86.9998 78.36 87.8798 78.712 88.5518 79.048C89.2398 79.384 89.8318 79.872 90.3278 80.512C90.8238 81.152 91.0718 81.976 91.0718 82.984C91.0718 83.944 90.8238 84.816 90.3278 85.6C89.8478 86.384 89.1438 87.008 88.2158 87.472C87.2878 87.936 86.1918 88.168 84.9278 88.168Z" fill="black"/>
<g clip-path="url(#clip0_6441_436)">
<path d="M21 22.4977C21.0001 18.6158 22.0048 14.8 23.9162 11.4213C25.8277 8.04256 28.5809 5.21596 31.9082 3.2163C35.2354 1.21665 39.0235 0.112 42.9041 0.00975876C46.7847 -0.0924826 50.6257 0.811166 54.0536 2.63284C57.4815 4.45451 60.3798 7.13221 62.4665 10.4056C64.5532 13.6789 65.7574 17.4366 65.9619 21.3131C66.1665 25.1896 65.3645 29.0531 63.6338 32.5279C61.9032 36.0027 59.3029 38.9706 56.0857 41.1429L35.7188 12.6292C35.5342 12.3706 35.2723 12.1773 34.9708 12.0771C34.6693 11.9769 34.3438 11.9751 34.0412 12.0718C33.7386 12.1686 33.4745 12.359 33.2871 12.6155C33.0996 12.872 32.9985 13.1814 32.9982 13.4991V35.9957H35.9977V18.1784L53.4851 42.6607C50.0548 44.3604 46.2475 45.1567 42.4236 44.9741C38.5996 44.7915 34.8855 43.6361 31.6328 41.6172C28.3801 39.5983 25.6964 36.7827 23.8358 33.437C21.9751 30.0912 20.9991 26.326 21 22.4977Z" fill="#1D1929"/>
<path d="M50.9955 29.9973V12H53.995V29.9973H50.9955Z" fill="white"/>
</g>
<defs>
<clipPath id="clip0_6441_436">
<rect width="45" height="45" fill="white" transform="translate(21)"/>
</clipPath>
</defs>
</svg>
