<svg width="89" height="121" viewBox="0 0 89 121" fill="none" xmlns="http://www.w3.org/2000/svg">
<path d="M32.56 113H28.456L21.592 102.608V113H17.488V96.152H21.592L28.456 106.592V96.152H32.56V113ZM41.6309 113.192C40.3189 113.192 39.1349 112.912 38.0789 112.352C37.0389 111.792 36.2149 110.992 35.6069 109.952C35.0149 108.912 34.7189 107.696 34.7189 106.304C34.7189 104.928 35.0229 103.72 35.6309 102.68C36.2389 101.624 37.0709 100.816 38.1269 100.256C39.1829 99.696 40.3669 99.416 41.6789 99.416C42.9909 99.416 44.1749 99.696 45.2309 100.256C46.2869 100.816 47.1189 101.624 47.7269 102.68C48.3349 103.72 48.6389 104.928 48.6389 106.304C48.6389 107.68 48.3269 108.896 47.7029 109.952C47.0949 110.992 46.2549 111.792 45.1829 112.352C44.1269 112.912 42.9429 113.192 41.6309 113.192ZM41.6309 109.64C42.4149 109.64 43.0789 109.352 43.6229 108.776C44.1829 108.2 44.4629 107.376 44.4629 106.304C44.4629 105.232 44.1909 104.408 43.6469 103.832C43.1189 103.256 42.4629 102.968 41.6789 102.968C40.8789 102.968 40.2149 103.256 39.6869 103.832C39.1589 104.392 38.8949 105.216 38.8949 106.304C38.8949 107.376 39.1509 108.2 39.6629 108.776C40.1909 109.352 40.8469 109.64 41.6309 109.64ZM50.0001 106.28C50.0001 104.904 50.2561 103.696 50.7681 102.656C51.2961 101.616 52.0081 100.816 52.9041 100.256C53.8001 99.696 54.8001 99.416 55.9041 99.416C56.7841 99.416 57.5841 99.6 58.3041 99.968C59.0401 100.336 59.6161 100.832 60.0321 101.456V95.24H64.1361V113H60.0321V111.08C59.6481 111.72 59.0961 112.232 58.3761 112.616C57.6721 113 56.8481 113.192 55.9041 113.192C54.8001 113.192 53.8001 112.912 52.9041 112.352C52.0081 111.776 51.2961 110.968 50.7681 109.928C50.2561 108.872 50.0001 107.656 50.0001 106.28ZM60.0321 106.304C60.0321 105.28 59.7441 104.472 59.1681 103.88C58.6081 103.288 57.9201 102.992 57.1041 102.992C56.2881 102.992 55.5921 103.288 55.0161 103.88C54.4561 104.456 54.1761 105.256 54.1761 106.28C54.1761 107.304 54.4561 108.12 55.0161 108.728C55.5921 109.32 56.2881 109.616 57.1041 109.616C57.9201 109.616 58.6081 109.32 59.1681 108.728C59.7441 108.136 60.0321 107.328 60.0321 106.304ZM79.7292 106.088C79.7292 106.472 79.7052 106.872 79.6572 107.288H70.3692C70.4332 108.12 70.6972 108.76 71.1612 109.208C71.6412 109.64 72.2252 109.856 72.9132 109.856C73.9372 109.856 74.6492 109.424 75.0492 108.56H79.4172C79.1932 109.44 78.7852 110.232 78.1932 110.936C77.6172 111.64 76.8892 112.192 76.0092 112.592C75.1292 112.992 74.1452 113.192 73.0572 113.192C71.7452 113.192 70.5772 112.912 69.5532 112.352C68.5292 111.792 67.7292 110.992 67.1532 109.952C66.5772 108.912 66.2892 107.696 66.2892 106.304C66.2892 104.912 66.5692 103.696 67.1292 102.656C67.7052 101.616 68.5052 100.816 69.5292 100.256C70.5532 99.696 71.7292 99.416 73.0572 99.416C74.3532 99.416 75.5052 99.688 76.5132 100.232C77.5212 100.776 78.3052 101.552 78.8652 102.56C79.4412 103.568 79.7292 104.744 79.7292 106.088ZM75.5292 105.008C75.5292 104.304 75.2892 103.744 74.8092 103.328C74.3292 102.912 73.7292 102.704 73.0092 102.704C72.3212 102.704 71.7372 102.904 71.2572 103.304C70.7932 103.704 70.5052 104.272 70.3932 105.008H75.5292Z" fill="black"/>
<path d="M44.0567 68.3496C43.796 68.3496 43.5439 68.2801 43.318 68.1497L40.9713 66.7591C40.6236 66.5592 40.7888 66.4896 40.9104 66.4549C41.3798 66.2897 41.4754 66.255 41.9708 65.9681C42.0229 65.9421 42.0925 65.9508 42.1446 65.9768L43.9524 67.0459C44.0133 67.0806 44.1089 67.0806 44.1697 67.0459L51.2011 62.987C51.2619 62.9522 51.3054 62.874 51.3054 62.7958V54.678C51.3054 54.5998 51.2619 54.5216 51.1924 54.4868L44.161 50.4279C44.1002 50.3931 44.0133 50.3931 43.9437 50.4279L36.9211 54.4955C36.8516 54.5302 36.8081 54.6085 36.8081 54.6867V62.8045C36.8081 62.8827 36.8516 62.9522 36.9211 62.9957L38.8506 64.1082C39.8935 64.6297 40.5367 64.0126 40.5367 63.3955V55.382C40.5367 55.269 40.6236 55.1821 40.7366 55.1821H41.6231C41.7361 55.1821 41.823 55.269 41.823 55.382V63.3955C41.823 64.7861 41.0669 65.5944 39.7371 65.5944C39.3286 65.5944 39.007 65.5944 38.1118 65.1511L36.2692 64.0908C35.8173 63.8301 35.5305 63.3346 35.5305 62.8045V54.6867C35.5305 54.1565 35.8086 53.6698 36.2692 53.4091L43.3093 49.3502C43.7525 49.0981 44.3435 49.0981 44.7868 49.3502L51.8182 53.4091C52.2701 53.6698 52.5569 54.1652 52.5569 54.6867V62.8045C52.5569 63.3346 52.2701 63.8214 51.8182 64.0821L44.7868 68.141C44.5695 68.2801 44.3088 68.3409 44.0567 68.3496Z" fill="#689F63"/>
<path d="M46.2296 62.7516C43.1528 62.7516 42.5096 61.3349 42.5096 60.1528C42.5096 60.0398 42.5966 59.9529 42.7095 59.9529H43.6221C43.7264 59.9529 43.8047 60.0225 43.822 60.1268C43.9611 61.048 44.3696 61.5174 46.2296 61.5174C47.7158 61.5174 48.3416 61.1784 48.3416 60.3962C48.3416 59.9442 48.1591 59.6053 45.8558 59.3793C43.9263 59.1881 42.7356 58.7622 42.7356 57.2238C42.7356 55.8071 43.935 54.9641 45.9341 54.9641C48.1851 54.9641 49.2976 55.7463 49.4454 57.4237C49.4541 57.4846 49.428 57.5367 49.3932 57.5802C49.3585 57.6236 49.2976 57.641 49.2455 57.641H48.3329C48.2373 57.641 48.1591 57.5715 48.133 57.4846C47.9157 56.5111 47.3855 56.1982 45.9341 56.1982C44.3175 56.1982 44.1262 56.7632 44.1262 57.1804C44.1262 57.6932 44.3522 57.8409 46.5338 58.1277C48.6979 58.4146 49.7235 58.823 49.7235 60.3354C49.7235 61.865 48.4459 62.7429 46.2209 62.7429M54.7819 54.1558H55.0166C55.2078 54.1558 55.2512 54.0167 55.2512 53.9385C55.2512 53.7299 55.1122 53.7299 55.0253 53.7299H54.7819V54.1558ZM54.4951 53.4952H55.0166C55.1991 53.4952 55.5468 53.4952 55.5468 53.895C55.5468 54.1731 55.3642 54.234 55.2599 54.2688C55.4685 54.2861 55.4859 54.4165 55.512 54.6164C55.5294 54.7381 55.5468 54.9467 55.5902 55.0162H55.2686C55.2599 54.9467 55.2078 54.5556 55.2078 54.5382C55.1904 54.4513 55.1556 54.4078 55.0513 54.4078H54.7819V55.0162H54.4951V53.4952ZM53.8693 54.2514C53.8693 54.8858 54.3821 55.3899 54.9992 55.3899C55.6337 55.3899 56.1378 54.8685 56.1378 54.2514C56.1378 53.6169 55.625 53.1215 54.9992 53.1215C54.3821 53.1128 53.8606 53.6082 53.8693 54.2514ZM56.3551 54.2514C56.3551 54.9988 55.7467 55.6072 54.9992 55.6072C54.2604 55.6072 53.6433 55.0075 53.6433 54.2514C53.6433 53.4865 54.2778 52.8955 54.9992 52.8955C55.7293 52.8955 56.3551 53.4865 56.3551 54.2514Z" fill="#689F63"/>
<path d="M22.2761 36.5911C22.2761 36.2695 22.1022 35.974 21.8241 35.8089L14.3669 31.5153C14.2452 31.4371 14.0975 31.4023 13.9584 31.3937H13.8802C13.7411 31.4023 13.5934 31.4371 13.4717 31.5153L6.01445 35.8089C5.73633 35.974 5.5625 36.2695 5.5625 36.5911L5.57988 48.1507C5.57988 48.3071 5.6668 48.4636 5.80586 48.5418C5.94492 48.6287 6.11875 48.6287 6.24912 48.5418L10.6817 46.0039C10.9599 45.8388 11.1337 45.5433 11.1337 45.2217V39.8243C11.1337 39.5027 11.3075 39.2072 11.5856 39.0421L13.4717 37.9557C13.6107 37.8774 13.7672 37.834 13.9236 37.834C14.0801 37.834 14.2365 37.8774 14.3756 37.9557L16.2616 39.0421C16.5397 39.1985 16.7136 39.5027 16.7136 39.8243V45.2217C16.7136 45.5433 16.8874 45.8388 17.1655 46.0039L21.5981 48.5418C21.7372 48.6287 21.911 48.6287 22.0501 48.5418C22.1892 48.4636 22.2761 48.3158 22.2761 48.1507V36.5911ZM57.4589 42.6056C57.4589 42.6838 57.4154 42.762 57.3459 42.7968L54.7819 44.2743C54.7124 44.3178 54.6255 44.3178 54.556 44.2743L51.992 42.7968C51.9225 42.7533 51.879 42.6838 51.879 42.6056V39.6505C51.879 39.5723 51.9225 39.494 51.992 39.4593L54.556 37.9817C54.6255 37.9383 54.7124 37.9383 54.7819 37.9817L57.3459 39.4593C57.4154 39.5027 57.4589 39.5723 57.4589 39.6505V42.6056ZM58.1542 20.7119C58.0151 20.6337 57.8413 20.6337 57.7022 20.7206C57.5632 20.7988 57.4763 20.9466 57.4763 21.1117V32.5583C57.4763 32.6713 57.4154 32.7756 57.3198 32.8277C57.2242 32.8799 57.1025 32.8799 57.0069 32.8277L55.1383 31.75C54.8602 31.5849 54.5212 31.5849 54.2344 31.75L46.7771 36.0522C46.499 36.2087 46.3252 36.5129 46.3252 36.8345V45.4477C46.3252 45.7692 46.499 46.0648 46.7771 46.2299L54.2344 50.5408C54.5125 50.6973 54.8515 50.6973 55.1383 50.5408L62.5955 46.2299C62.8736 46.0648 63.0475 45.7692 63.0475 45.4477V23.9712C63.0475 23.6409 62.8736 23.3454 62.5868 23.1803L58.1542 20.7119ZM82.9855 39.5723C83.2637 39.4071 83.4375 39.1116 83.4375 38.79V36.7041C83.4375 36.3825 83.2637 36.087 82.9855 35.9219L75.5718 31.6196C75.435 31.5386 75.2789 31.4958 75.1198 31.4958C74.9608 31.4958 74.8047 31.5386 74.6679 31.6196L67.2106 35.9219C66.9325 36.087 66.7587 36.3825 66.7587 36.7041V45.3086C66.7587 45.6302 66.9325 45.9344 67.2106 46.0908L74.6244 50.3148C74.8938 50.4713 75.2328 50.4713 75.5109 50.3235L79.9957 47.8291C80.1348 47.7509 80.2304 47.6031 80.2304 47.438C80.2304 47.2729 80.1435 47.1251 80.0044 47.0469L72.5037 42.7446C72.3646 42.6664 72.2777 42.5187 72.2777 42.3535V39.6505C72.2777 39.4854 72.3646 39.3376 72.5037 39.2594L74.8417 37.9122C74.9808 37.834 75.1546 37.834 75.2936 37.9122L77.6316 39.2594C77.7707 39.3376 77.8576 39.4854 77.8576 39.6505V41.7712C77.8576 41.9276 77.9445 42.0841 78.0836 42.1623C78.2227 42.2405 78.3965 42.2405 78.5355 42.1623L82.9855 39.5723Z" fill="#231815"/>
<path d="M75.0155 39.1723C75.0676 39.1375 75.1372 39.1375 75.1893 39.1723L76.6234 39.9979C76.6756 40.0327 76.7103 40.0849 76.7103 40.1457V41.7971C76.7103 41.8579 76.6756 41.9187 76.6234 41.9448L75.1893 42.7705C75.1372 42.8053 75.0676 42.8053 75.0155 42.7705L73.5814 41.9448C73.5293 41.9101 73.4945 41.8579 73.4945 41.7971V40.1457C73.4945 40.0849 73.5293 40.024 73.5814 39.9979L75.0155 39.1723ZM42.3706 36.1216L42.3532 36.1042C42.3445 36.0955 42.3358 36.0868 42.3184 36.0781C42.301 36.0607 42.275 36.0434 42.2576 36.026C42.2489 36.0173 42.2489 36.0173 42.2402 36.0173L42.162 35.9651L37.3035 33.1578L36.53 32.7145L34.7395 31.6803C34.6613 31.6368 34.5831 31.6107 34.5049 31.5847C34.4353 31.5673 34.3658 31.5586 34.2963 31.5586H34.2094H34.2007C34.1833 31.5586 34.1659 31.5673 34.1485 31.5673C34.1311 31.5673 34.1137 31.576 34.1051 31.576C34.0877 31.5847 34.0616 31.5847 34.0442 31.5934C34.0355 31.5934 34.0181 31.6021 34.0094 31.6021C33.9834 31.6107 33.966 31.6194 33.9486 31.6281H33.9399C33.9138 31.6368 33.8878 31.6542 33.8617 31.6716L28.1427 34.9743L26.4653 35.9391L26.4479 35.9478C26.1698 36.1042 25.996 36.3997 25.996 36.7213V45.291C25.996 45.4909 26.0655 45.6821 26.1785 45.8386C26.1959 45.8646 26.2219 45.8907 26.248 45.9168L26.2654 45.9342C26.2828 45.9516 26.3089 45.9689 26.3262 45.995L26.3436 46.0124C26.3697 46.0385 26.4045 46.0559 26.4392 46.0732L32.9056 49.8105L33.8617 50.3581C33.9399 50.4016 34.0181 50.4363 34.1051 50.4537C34.1224 50.4537 34.1398 50.4624 34.1485 50.4624C34.1746 50.4624 34.192 50.4711 34.218 50.4711C34.2441 50.4711 34.2615 50.4711 34.2876 50.4798H34.3136C34.3484 50.4798 34.3745 50.4798 34.4093 50.4711H34.444C34.4701 50.4711 34.4962 50.4624 34.5222 50.4537C34.5309 50.4537 34.5396 50.4537 34.5483 50.445H34.5657L34.6439 50.4189C34.6526 50.4189 34.6526 50.4189 34.6613 50.4103L34.7656 50.3581L42.1794 46.0732C42.4053 45.9429 42.5618 45.7082 42.6139 45.4562C42.6226 45.404 42.6313 45.3519 42.6313 45.2997V36.73C42.6139 36.4953 42.527 36.278 42.3706 36.1216Z" fill="#689F63"/>
</svg>
