<svg width="75" height="111" viewBox="0 0 75 111" fill="none" xmlns="http://www.w3.org/2000/svg">
<path d="M29.328 91.576C29.328 92.552 29.104 93.448 28.656 94.264C28.208 95.064 27.52 95.712 26.592 96.208C25.664 96.704 24.512 96.952 23.136 96.952H20.592V103H16.488V86.152H23.136C24.48 86.152 25.616 86.384 26.544 86.848C27.472 87.312 28.168 87.952 28.632 88.768C29.096 89.584 29.328 90.52 29.328 91.576ZM22.824 93.688C23.608 93.688 24.192 93.504 24.576 93.136C24.96 92.768 25.152 92.248 25.152 91.576C25.152 90.904 24.96 90.384 24.576 90.016C24.192 89.648 23.608 89.464 22.824 89.464H20.592V93.688H22.824ZM46.0566 86.152V103H41.9526V96.064H35.5686V103H31.4646V86.152H35.5686V92.752H41.9526V86.152H46.0566ZM61.8593 91.576C61.8593 92.552 61.6353 93.448 61.1873 94.264C60.7393 95.064 60.0513 95.712 59.1233 96.208C58.1953 96.704 57.0433 96.952 55.6673 96.952H53.1233V103H49.0193V86.152H55.6673C57.0113 86.152 58.1473 86.384 59.0753 86.848C60.0033 87.312 60.6993 87.952 61.1633 88.768C61.6273 89.584 61.8593 90.52 61.8593 91.576ZM55.3553 93.688C56.1393 93.688 56.7233 93.504 57.1073 93.136C57.4913 92.768 57.6833 92.248 57.6833 91.576C57.6833 90.904 57.4913 90.384 57.1073 90.016C56.7233 89.648 56.1393 89.464 55.3553 89.464H53.1233V93.688H55.3553Z" fill="black"/>
<path d="M22.4417 32.3496H19.85L18.4083 39.7496H20.5167C22.1417 39.7496 23.35 39.4496 24.1167 38.8579C24.875 38.2746 25.4 37.2663 25.675 35.8496C25.9333 34.5329 25.8333 33.6079 25.3833 33.1163C24.925 32.6079 23.9333 32.3496 22.4417 32.3496ZM55.775 32.3496H53.1833L51.7417 39.7496H53.85C55.475 39.7496 56.6833 39.4496 57.45 38.8579C58.2083 38.2746 58.7333 37.2663 59.0083 35.8496C59.2667 34.5329 59.1667 33.6079 58.7167 33.1163C58.2583 32.6079 57.2667 32.3496 55.775 32.3496Z" fill="#787DB0"/>
<path d="M37.5 17.9414C16.9583 17.9414 0.30835 26.6997 0.30835 37.4997C0.30835 48.2997 16.9583 57.0581 37.4917 57.0581C58.025 57.0581 74.6917 48.2997 74.6917 37.4997C74.6917 26.6997 58.0417 17.9414 37.5 17.9414ZM28.075 41.3247C27.1833 42.1581 26.175 42.7581 25.0833 43.1164C24.0083 43.4664 22.625 43.6414 20.975 43.6414H17.65L16.7 48.5247C16.6667 48.7164 16.5 48.8497 16.3 48.8497H12.0333C11.9167 48.8497 11.8 48.7997 11.725 48.6997C11.65 48.6081 11.6167 48.4831 11.6417 48.3664L15.45 28.7664C15.4833 28.5747 15.65 28.4414 15.85 28.4414H24.0583C26.6417 28.4414 28.5583 29.1414 29.7667 30.5247C30.9833 31.9164 31.3583 33.8581 30.8833 36.2997C30.6917 37.2914 30.3584 38.2164 29.9 39.0414C29.4334 39.8747 28.8167 40.6414 28.075 41.3247ZM40.3583 43.4997C40.2833 43.4081 40.25 43.2831 40.275 43.1664L41.9583 34.4914C42.1167 33.6664 42.075 33.0747 41.85 32.8247C41.7084 32.6747 41.2834 32.4164 40.0167 32.4164H36.9667L34.85 43.3247C34.8167 43.5164 34.65 43.6497 34.45 43.6497H30.2167C30.1 43.6497 29.9834 43.5997 29.9083 43.4997C29.8333 43.4081 29.8 43.2831 29.825 43.1664L33.6334 23.5664C33.6667 23.3747 33.8334 23.2414 34.0334 23.2414H38.2667C38.3833 23.2414 38.5 23.2914 38.575 23.3914C38.65 23.4831 38.6833 23.6081 38.6584 23.7247L37.7417 28.4581H41.025C43.525 28.4581 45.225 28.8997 46.2167 29.8081C47.225 30.7331 47.5417 32.2164 47.15 34.2081L45.375 43.3331C45.3417 43.5247 45.175 43.6581 44.975 43.6581H40.675C40.55 43.6497 40.4333 43.5914 40.3583 43.4997ZM64.2084 36.2997C64.0167 37.2914 63.6833 38.2164 63.2167 39.0414C62.75 39.8664 62.1417 40.6331 61.4 41.3164C60.5083 42.1497 59.5 42.7497 58.4083 43.1081C57.3334 43.4581 55.95 43.6331 54.3 43.6331H50.975L50.025 48.5164C49.9917 48.7081 49.825 48.8414 49.625 48.8414H45.3583C45.2417 48.8414 45.125 48.7914 45.05 48.6914C44.975 48.5997 44.9417 48.4747 44.9667 48.3581L48.775 28.7581C48.8083 28.5664 48.975 28.4331 49.175 28.4331H57.3833C59.9667 28.4331 61.8834 29.1331 63.0917 30.5164C64.3083 31.9164 64.6833 33.8581 64.2084 36.2997Z" fill="#787DB0"/>
</svg>
