<svg width="149" height="77" viewBox="0 0 149 77" fill="none" xmlns="http://www.w3.org/2000/svg">
<path d="M0.0192871 64.2573V47.0654H9.55115C13.828 47.0654 16.1734 49.6679 16.1734 52.7861C16.1734 55.8781 13.828 58.4806 9.55115 58.4806H4.92801V64.2536L0.0192871 64.2573ZM11.1777 52.7898C11.1777 51.6038 10.212 50.9336 8.89583 50.9336H4.92801V54.6186H8.89583C10.2079 54.6186 11.1777 53.9497 11.1777 52.7898Z" fill="#8F8F8F"/>
<path d="M28.9847 64.2573L25.7894 58.4843H23.2785V64.2573H18.3684V47.0654H27.9003C32.1233 47.0654 34.5225 49.5906 34.5225 52.7861C34.5225 55.776 32.4958 57.3731 30.7257 57.9399L34.608 64.2536L28.9847 64.2573ZM29.5269 52.7637C29.5269 51.6038 28.4425 50.9336 27.158 50.9336H23.2771V54.6186H27.158C28.4425 54.6186 29.5269 53.9758 29.5269 52.7637Z" fill="#8F8F8F"/>
<path d="M37.2305 64.2544H51.184V60.3924H37.2305V64.2544ZM37.2305 47.0625V50.9307H51.184V47.0662L37.2305 47.0625ZM50.875 53.6079H37.2305V57.476H50.875V53.6079Z" fill="#8F8F8F"/>
<path d="M53.0659 55.6812C53.0659 50.3729 57.518 46.79 63.369 46.79C67.9632 46.79 70.4175 49.1359 71.6744 51.3995L67.4541 53.2021C66.8263 51.8317 65.1998 50.7018 63.3731 50.7018C60.2621 50.7018 58.0643 52.867 58.0643 55.6762C58.0643 58.4855 60.2621 60.6494 63.3731 60.6494C65.1998 60.6494 66.8222 59.5158 67.4541 58.1491L71.6785 59.9543C70.4506 62.1693 67.9673 64.5637 63.3731 64.5637C57.5207 64.5662 53.0659 60.9584 53.0659 55.6812Z" fill="#8F8F8F"/>
<path d="M73.7825 64.2573V47.0654H78.6912V64.2573H73.7825Z" fill="#8F8F8F"/>
<path d="M80.7454 61.8345L83.3418 58.5107C84.9552 59.9642 87.1414 60.7801 89.4205 60.7793C91.105 60.7793 92.1314 60.1863 92.1314 59.3616C92.1314 57.0158 81.3441 58.8969 81.3441 52.2743C81.3441 49.3878 84.0565 46.8115 88.9321 46.8115C91.9852 46.8115 94.6396 47.6362 96.6663 49.2084L93.9829 52.3777C92.405 51.2362 90.4462 50.6098 88.4244 50.6C86.9965 50.6 86.3687 51.1145 86.3687 51.837C86.3687 54.0271 97.1298 52.4288 97.1298 58.8197C97.1298 62.273 94.3044 64.5665 89.1956 64.5665C85.3395 64.5665 82.6575 63.4839 80.7454 61.8345Z" fill="#8F8F8F"/>
<path d="M99.4077 64.2573V47.0654H104.316V64.2573H99.4077Z" fill="#8F8F8F"/>
<path d="M106.774 55.6812C106.774 50.4489 111.14 46.79 116.962 46.79C122.784 46.79 127.118 50.4489 127.118 55.6812C127.118 60.9135 122.777 64.5662 116.958 64.5662C111.139 64.5662 106.774 60.9135 106.774 55.6812ZM122.128 55.6812C122.128 52.872 120.101 50.7068 116.962 50.7068C113.789 50.7068 111.768 52.872 111.768 55.6812C111.768 58.4643 113.795 60.6544 116.962 60.6544C120.097 60.6494 122.123 58.4593 122.123 55.6812H122.128Z" fill="#8F8F8F"/>
<path d="M142.554 64.2573L134.504 54.3109V64.2573H129.598V47.0654H134.649L142.354 56.5222V47.0692H147.292V64.261L142.554 64.2573Z" fill="#8F8F8F"/>
<path d="M1.46644 74.9977C1.53818 75.5421 2.16729 75.8996 2.98403 75.8996C3.80077 75.8996 4.36366 75.547 4.36366 75.0612C4.36366 74.6314 4.01323 74.3922 3.13027 74.2141L2.17695 74.0259C0.82629 73.7643 0.162688 73.1464 0.162688 72.1797C0.162688 70.9613 1.32847 70.1553 2.96334 70.1553C4.66718 70.1553 5.73777 70.9476 5.76398 72.1485H4.31813C4.26709 71.5892 3.72489 71.2503 2.95782 71.2503C2.19074 71.2503 1.69546 71.5755 1.69546 72.0651C1.69546 72.4737 2.05002 72.7017 2.89298 72.8761L3.78008 73.0455C5.24662 73.3295 5.88539 73.8976 5.88539 74.9055C5.88539 76.1886 4.7334 76.9996 2.91781 76.9996C1.1574 76.9947 0.0357622 76.236 -0.00976562 74.9977H1.46644Z" fill="#8F8F8F"/>
<path d="M20.8929 70.2695C22.3939 70.2695 23.4286 71.1715 23.4286 72.5319C23.4286 73.8923 22.358 74.7955 20.8156 74.7955H19.3698V76.8797H17.8384V70.2695H20.8929ZM19.3753 73.7141H20.4873C21.3647 73.7141 21.8766 73.2931 21.8766 72.5369C21.8766 71.7807 21.3702 71.3633 20.4969 71.3633H19.3808L19.3753 73.7141Z" fill="#8F8F8F"/>
<path d="M42.1807 73.5762C42.1807 75.6803 40.8163 76.9947 38.6489 76.9947C36.4815 76.9947 35.1184 75.6803 35.1184 73.5762C35.1184 71.4721 36.4773 70.1553 38.6489 70.1553C40.8204 70.1553 42.1807 71.4696 42.1807 73.5762ZM36.6815 73.5762C36.6815 74.9603 37.4472 75.8361 38.6489 75.8361C39.8505 75.8361 40.6135 74.964 40.6135 73.5762C40.6135 72.1884 39.8464 71.3089 38.6489 71.3089C37.4514 71.3089 36.6884 72.1884 36.6884 73.5762H36.6815Z" fill="#8F8F8F"/>
<path d="M55.7106 76.8797H54.1792V70.2695H57.202C58.8865 70.2695 59.8509 71.0706 59.8509 72.3762C59.8509 73.2233 59.3638 73.9571 58.5223 74.2548L60.0633 76.8797H58.3291L56.9688 74.4604H55.7147L55.7106 76.8797ZM55.7106 73.4575H57.0557C57.8269 73.4575 58.2781 73.0589 58.2781 72.4036C58.2781 71.7483 57.8007 71.3509 57.0364 71.3509H55.7065L55.7106 73.4575Z" fill="#8F8F8F"/>
<path d="M73.6461 76.8797V71.4094H71.5049V70.2695H77.3242V71.4094H75.1802V76.8797H73.6461Z" fill="#8F8F8F"/>
<path d="M90.3876 74.9977C90.4579 75.5421 91.087 75.8996 91.9052 75.8996C92.7233 75.8996 93.2848 75.547 93.2848 75.0612C93.2848 74.6314 92.9358 74.3922 92.0528 74.2141L91.0981 74.0259C89.7488 73.7643 89.0838 73.1464 89.0838 72.1797C89.0838 70.9613 90.251 70.1553 91.8845 70.1553C93.5897 70.1553 94.6603 70.9476 94.6851 72.1485H93.2393C93.1882 71.5892 92.6446 71.2503 91.879 71.2503C91.1133 71.2503 90.6152 71.5755 90.6152 72.0651C90.6152 72.4737 90.9712 72.7017 91.8127 72.8761L92.7012 73.0455C94.1678 73.3295 94.8065 73.8976 94.8065 74.9055C94.8065 76.1886 93.6545 76.9996 91.8389 76.9996C90.0772 76.9996 88.9569 76.2434 88.9114 75.0064L90.3876 74.9977Z" fill="#8F8F8F"/>
<path d="M106.531 73.5725C106.531 71.4422 107.876 70.1553 109.996 70.1553C111.757 70.1553 113.096 71.1631 113.212 72.6469H111.721C111.669 72.2699 111.464 71.9238 111.145 71.6758C110.826 71.4279 110.417 71.2957 109.996 71.3051C108.839 71.3051 108.094 72.1772 108.094 73.5725C108.094 74.9678 108.829 75.8535 110.002 75.8535C110.91 75.8535 111.564 75.3726 111.726 74.589H113.218C113.045 76.0653 111.793 76.9996 109.996 76.9996C107.865 76.9947 106.531 75.7078 106.531 73.5725Z" fill="#8F8F8F"/>
<path d="M129.158 75.2764H126.586L126.028 76.8797H124.455L126.997 70.2695H128.791L131.338 76.8797H129.717L129.158 75.2764ZM126.916 74.2424H128.828L127.89 71.5353H127.854L126.916 74.2424Z" fill="#8F8F8F"/>
<path d="M144.638 76.8797H143.105V70.2695H146.129C147.813 70.2695 148.778 71.0706 148.778 72.3762C148.778 73.2233 148.291 73.9571 147.448 74.2548L148.99 76.8797H147.255L145.89 74.4604H144.638V76.8797ZM144.638 73.4575H145.981C146.752 73.4575 147.205 73.0589 147.205 72.4036C147.205 71.7483 146.728 71.3509 145.963 71.3509H144.635L144.638 73.4575Z" fill="#8F8F8F"/>
<path d="M115.603 8.34087C111.786 6.29404 104.322 3.40132 90.4429 1.23987C79.8866 -0.413291 69.0939 -0.413291 58.5376 1.23987C44.6585 3.40132 37.1947 6.29404 33.3773 8.34087C32.4058 8.86623 31.5925 9.59946 31.0092 10.4758C30.4259 11.3522 30.0904 12.3448 30.0325 13.366C29.9745 14.3871 30.1959 15.4054 30.6769 16.3311C31.158 17.2567 31.884 18.0612 32.7909 18.6734L61.7162 38.2323C63.3796 39.3527 65.3983 39.9594 67.4734 39.9627H81.507C83.5821 39.9594 85.6009 39.3527 87.2642 38.2323L116.19 18.6734C117.096 18.0612 117.822 17.2567 118.304 16.3311C118.785 15.4054 119.006 14.3871 118.948 13.366C118.89 12.3448 118.555 11.3522 117.971 10.4758C117.388 9.59946 116.575 8.86623 115.603 8.34087ZM115.24 9.28891V18.0929L114.357 18.6896V8.82299C114.601 8.94508 114.831 9.06467 115.047 9.18178C115.115 9.21292 115.177 9.25278 115.24 9.28891ZM89.6786 35.3745L88.7956 35.9712V1.98735C89.0909 2.02804 89.3852 2.06957 89.6786 2.11193V35.3745ZM90.7699 2.27762C91.066 2.32496 91.3599 2.37271 91.6515 2.42088V34.0427L90.7699 34.6395V2.27762ZM92.7358 2.60277C93.0338 2.65384 93.3263 2.70492 93.6174 2.75724V32.7135L92.7358 33.3102V2.60277ZM94.7018 2.95408C94.9998 3.00889 95.2941 3.06454 95.5848 3.12101V31.388L94.7018 31.9847V2.95408ZM96.6678 3.32782C96.9658 3.38761 97.2601 3.44783 97.5508 3.50845V30.0562L96.6678 30.6517V3.32782ZM98.6338 3.74266L99.5167 3.93701V28.7282L98.6338 29.3237V3.74266ZM100.6 4.18741C100.899 4.25717 101.193 4.32818 101.483 4.39795V27.4014L100.6 27.9982V4.18741ZM102.567 4.66953C102.866 4.74511 103.16 4.82193 103.449 4.9V26.0684L102.567 26.6639V4.66953ZM104.533 5.19525C104.834 5.27831 105.128 5.36136 105.415 5.44441V24.7392L104.533 25.3359V5.19525ZM106.498 5.77205C106.799 5.86424 107.094 5.95643 107.381 6.04862V23.4149L106.498 24.0116V5.77205ZM108.465 6.4074C108.767 6.50956 109.061 6.61171 109.347 6.71387V22.0807L108.465 22.6774V6.4074ZM110.431 7.11252C110.736 7.22838 111.03 7.34424 111.314 7.4576V20.7514L110.431 21.3481V7.11252ZM112.397 7.90858C112.705 8.04188 113 8.17269 113.28 8.30225V19.4284L112.397 20.0251V7.90858ZM85.7466 37.957C85.4614 38.1049 85.1665 38.2372 84.8637 38.3532V1.50274C85.1575 1.53263 85.4514 1.56502 85.7466 1.59742V37.957ZM83.7793 38.6957C83.489 38.7684 83.1947 38.8274 82.8977 38.8726V1.32085C83.1916 1.34577 83.4854 1.37068 83.7793 1.39809V38.6957ZM71.0991 1.03058C71.3943 1.02062 71.6887 1.01231 71.9821 1.00567V38.9785H71.0991V1.03058ZM70.0161 38.9785H69.1331V1.1153C69.427 1.0991 69.7222 1.0854 70.0161 1.07294V38.9785ZM73.0651 0.990716C73.3603 0.985733 73.6546 0.982826 73.948 0.981996V38.9785H73.0651V0.990716ZM75.0324 0.981996C75.3268 0.981996 75.6206 0.984903 75.914 0.990716V38.9873H75.0324V0.981996ZM76.9984 1.01189C77.2927 1.01854 77.5866 1.02684 77.88 1.03681V38.9785H76.9984V1.01189ZM78.9644 1.07917C79.2582 1.09163 79.5535 1.10533 79.8473 1.12152V38.9785H78.9644V1.07917ZM63.2366 1.60364C63.53 1.57042 63.8239 1.53886 64.1182 1.50896V38.3594C63.8161 38.2433 63.5217 38.1115 63.2366 37.9645V1.60364ZM65.2026 1.40432C65.4964 1.37691 65.7903 1.35199 66.0842 1.32708V38.8726C65.7871 38.8274 65.4929 38.7684 65.2026 38.6957V1.40432ZM37.6734 7.4576C37.9563 7.34424 38.2501 7.22838 38.555 7.11252V21.3481L37.6734 20.7514V7.4576ZM36.5891 20.0189L35.7061 19.4222V8.30225C35.982 8.17767 36.2814 8.04188 36.5891 7.90858V20.0189ZM39.6394 6.71387C39.9255 6.61171 40.2198 6.50914 40.5224 6.40616V22.6774L39.6394 22.0807V6.71387ZM41.6054 6.04862C41.8924 5.95643 42.1867 5.86424 42.4883 5.77205V24.0067L41.6054 23.4099V6.04862ZM43.5714 5.4469C43.8602 5.36385 44.1545 5.2808 44.4543 5.19774V25.3359L43.5714 24.7392V5.4469ZM45.5373 4.9C45.8271 4.82276 46.1214 4.74594 46.4203 4.66953V26.6652L45.5373 26.0684V4.9ZM47.5047 4.40169C47.7944 4.33192 48.0883 4.26091 48.3863 4.19115V27.9932L47.5047 27.4014V4.40169ZM49.4707 3.94074L50.3467 3.74266V29.3224L49.4651 28.7269L49.4707 3.94074ZM51.4366 3.51718C51.7282 3.45655 52.0225 3.39633 52.3196 3.33654V30.6517L51.4366 30.055V3.51718ZM53.404 3.12351L54.2856 2.95782V31.9847L53.404 31.388V3.12351ZM55.37 2.76098L56.2515 2.6065V33.3102L55.37 32.7135V2.76098ZM57.3359 2.42462C57.6266 2.37562 57.9209 2.32786 58.2189 2.28135V34.6395L57.3359 34.0427V2.42462ZM59.3019 2.11193C59.5953 2.06708 59.8896 2.02555 60.1849 1.98735V35.9687L59.3019 35.372V2.11193ZM34.6189 8.82299V18.6896L33.736 18.0929V9.28891C33.7981 9.25278 33.8615 9.21666 33.9264 9.18178C34.1471 9.06467 34.378 8.94508 34.6189 8.82299ZM31.105 13.6816C31.1066 12.3584 31.6586 11.0841 32.6516 10.1111V17.247C31.6633 16.2752 31.1131 15.0047 31.1092 13.6853L31.105 13.6816ZM61.2637 36.6975V1.83412C61.5576 1.7955 61.8528 1.75937 62.1467 1.72324V37.298L61.2637 36.6975ZM67.163 38.9686V1.23987C67.4564 1.21911 67.7507 1.19918 68.046 1.18008V38.9785H67.4693C67.3713 38.9785 67.2693 38.9761 67.1672 38.9723L67.163 38.9686ZM80.9276 38.9748V1.17758L81.8092 1.23738V38.9723C81.7071 38.9723 81.605 38.9785 81.5029 38.9785L80.9276 38.9748ZM86.8255 37.2942V1.72324C87.1194 1.75937 87.4146 1.7955 87.7085 1.83412V36.7012L86.8255 37.2942ZM116.323 17.2507V10.1149C117.319 11.0857 117.871 12.3599 117.871 13.6828C117.871 15.0057 117.319 16.2799 116.323 17.2507Z" fill="#8F8F8F"/>
</svg>
