<svg width="388" height="388" viewBox="0 0 388 388" fill="none" xmlns="http://www.w3.org/2000/svg">
<path d="M64.7915 47.636C78.3646 51.9897 95.9686 51.4187 117.658 45.4979C140.209 39.3418 163.08 28.507 186.271 12.9271C188.479 11.4436 191.073 10.6383 193.733 10.6101C196.393 10.582 199.004 11.3323 201.243 12.7687C226.436 28.9302 249.494 39.8173 270.336 45.496C290.435 50.9727 308.238 51.5509 323.908 47.4322C332.556 45.1595 341.016 51.6831 341.016 60.625V225.68C341.016 295.096 292.462 355.053 224.562 369.484C215.991 371.305 207.245 373.705 198.324 376.687C195.529 377.621 192.506 377.625 189.709 376.698C180.784 373.74 172.044 371.355 163.488 369.54C95.5643 355.13 46.9844 295.161 46.9844 225.726V60.625C46.9844 51.3796 55.9876 44.8124 64.7915 47.636ZM169.898 239.663V239.664L127.771 193.166C123.297 188.529 116.771 189.402 112.341 194.085L101.993 205.025C100.893 206.188 100.893 208.061 101.993 209.224L152.018 263.97L152.037 263.949L161.815 274.286L161.895 274.37C166.37 279.008 173.588 278.97 178.019 274.286L286.364 155.701C287.464 154.538 287.464 152.665 286.364 151.503L275.345 140.02C270.871 135.382 264.244 135.88 259.814 140.563L169.898 239.663Z" fill="#2B00AC" fill-opacity="0.05"/>
</svg>
