<svg width="88" height="98" viewBox="0 0 88 98" fill="none" xmlns="http://www.w3.org/2000/svg">
<path d="M14.328 78.576C14.328 79.552 14.104 80.448 13.656 81.264C13.208 82.064 12.52 82.712 11.592 83.208C10.664 83.704 9.512 83.952 8.136 83.952H5.592V90H1.488V73.152H8.136C9.48 73.152 10.616 73.384 11.544 73.848C12.472 74.312 13.168 74.952 13.632 75.768C14.096 76.584 14.328 77.52 14.328 78.576ZM7.824 80.688C8.608 80.688 9.192 80.504 9.576 80.136C9.96 79.768 10.152 79.248 10.152 78.576C10.152 77.904 9.96 77.384 9.576 77.016C9.192 76.648 8.608 76.464 7.824 76.464H5.592V80.688H7.824ZM30.1446 76.608L21.7446 96.36H17.3286L20.4006 89.544L14.9526 76.608H19.5366L22.6326 84.984L25.7046 76.608H30.1446ZM39.0926 86.52V90H37.0046C35.5166 90 34.3566 89.64 33.5246 88.92C32.6926 88.184 32.2766 86.992 32.2766 85.344V80.016H30.6446V76.608H32.2766V73.344H36.3806V76.608H39.0686V80.016H36.3806V85.392C36.3806 85.792 36.4766 86.08 36.6686 86.256C36.8606 86.432 37.1806 86.52 37.6286 86.52H39.0926ZM49.6106 76.464C51.1466 76.464 52.3786 76.976 53.3066 78C54.2346 79.008 54.6986 80.4 54.6986 82.176V90H50.6186V82.728C50.6186 81.832 50.3866 81.136 49.9226 80.64C49.4586 80.144 48.8346 79.896 48.0506 79.896C47.2666 79.896 46.6426 80.144 46.1786 80.64C45.7146 81.136 45.4826 81.832 45.4826 82.728V90H41.3786V72.24H45.4826V78.408C45.8986 77.816 46.4666 77.344 47.1866 76.992C47.9066 76.64 48.7146 76.464 49.6106 76.464ZM63.6465 90.192C62.3345 90.192 61.1505 89.912 60.0945 89.352C59.0545 88.792 58.2305 87.992 57.6225 86.952C57.0305 85.912 56.7345 84.696 56.7345 83.304C56.7345 81.928 57.0385 80.72 57.6465 79.68C58.2545 78.624 59.0865 77.816 60.1425 77.256C61.1985 76.696 62.3825 76.416 63.6945 76.416C65.0065 76.416 66.1905 76.696 67.2465 77.256C68.3025 77.816 69.1345 78.624 69.7425 79.68C70.3505 80.72 70.6545 81.928 70.6545 83.304C70.6545 84.68 70.3425 85.896 69.7185 86.952C69.1105 87.992 68.2705 88.792 67.1985 89.352C66.1425 89.912 64.9585 90.192 63.6465 90.192ZM63.6465 86.64C64.4305 86.64 65.0945 86.352 65.6385 85.776C66.1985 85.2 66.4785 84.376 66.4785 83.304C66.4785 82.232 66.2065 81.408 65.6625 80.832C65.1345 80.256 64.4785 79.968 63.6945 79.968C62.8945 79.968 62.2305 80.256 61.7025 80.832C61.1745 81.392 60.9105 82.216 60.9105 83.304C60.9105 84.376 61.1665 85.2 61.6785 85.776C62.2065 86.352 62.8625 86.64 63.6465 86.64ZM80.9918 76.464C82.5598 76.464 83.8078 76.976 84.7358 78C85.6798 79.008 86.1518 80.4 86.1518 82.176V90H82.0718V82.728C82.0718 81.832 81.8398 81.136 81.3758 80.64C80.9118 80.144 80.2878 79.896 79.5038 79.896C78.7198 79.896 78.0958 80.144 77.6318 80.64C77.1678 81.136 76.9358 81.832 76.9358 82.728V90H72.8318V76.608H76.9358V78.384C77.3518 77.792 77.9118 77.328 78.6158 76.992C79.3198 76.64 80.1118 76.464 80.9918 76.464Z" fill="black"/>
<path d="M36.9021 24.2002C37.3382 24.1275 37.7742 24.0791 38.2103 24.0791H37.8469H49.6444C50.1531 24.0791 50.6376 24.0064 51.1221 23.8853C53.3023 23.2797 54.9012 21.3417 54.9012 18.9434V9.03545C54.9012 6.22537 52.5029 4.09358 49.6444 3.63331C47.8275 3.34261 45.187 3.19727 43.3944 3.19727C41.6017 3.19727 39.8818 3.36684 38.3556 3.63331C33.8982 4.40851 33.0988 6.03157 33.0988 9.03545V12.2816H44V14.0984H29.562C25.5164 14.0984 22.2219 18.9434 22.1976 24.9027V24.9996C22.1976 26.0898 22.2945 27.1314 22.5126 28.1004C23.4089 32.6062 26.219 35.9008 29.562 35.9008H31.282V30.6925C31.282 27.6401 33.5591 24.8058 36.9021 24.2002ZM38.0649 10.3436C36.9748 10.3436 36.0785 9.44728 36.1027 8.35716C36.1027 7.26704 36.9748 6.37072 38.0649 6.37072C39.155 6.37072 40.0513 7.26704 40.0513 8.35716C40.0271 9.4715 39.155 10.3436 38.0649 10.3436Z" fill="#0075AA"/>
<path d="M65.3422 21.1965C64.3005 17.0541 61.6115 14.0986 58.4381 14.0986H56.7181V18.7256C56.7181 22.5773 54.1987 25.3632 51.0979 25.8477C50.783 25.8961 50.4681 25.9204 50.1532 25.9204H38.3557C37.8469 25.9204 37.3625 25.993 36.878 26.1142C34.6977 26.6956 33.0989 28.4882 33.0989 30.838V40.746C33.0989 43.5561 35.9332 45.2276 38.719 46.027C42.0378 46.996 45.6716 47.1656 49.6687 46.027C52.3092 45.276 54.9012 43.7499 54.9012 40.746V37.7421H44.0001V35.901H58.4381C61.2966 35.901 63.7918 33.4785 65.003 29.9417C65.5117 28.464 65.8024 26.7925 65.8024 24.9998C65.8024 23.6674 65.6329 22.3835 65.3422 21.1965ZM49.8867 39.3894C50.9768 39.3894 51.8489 40.2857 51.8489 41.3758C51.8489 42.4659 50.9526 43.3623 49.8867 43.3623C48.7966 43.3623 47.9003 42.4659 47.9003 41.3758C47.9245 40.2857 48.7966 39.3894 49.8867 39.3894Z" fill="#FFD400"/>
</svg>