<svg width="78" height="62" viewBox="0 0 78 62" fill="none" xmlns="http://www.w3.org/2000/svg">
<path d="M5.048 61.584C1.856 52.464 0.26 43.42 0.26 34.452C0.26 24.116 2.996 15.832 8.468 9.6C13.94 3.21599 21.92 0.0239847 32.408 0.0239847V14.388C24.352 14.388 20.324 19.556 20.324 29.892V33.312H34.916V61.584H5.048ZM48.14 61.584C45.1 52.312 43.58 43.268 43.58 34.452C43.58 24.116 46.24 15.832 51.56 9.6C57.032 3.21599 65.012 0.0239847 75.5 0.0239847V14.388C67.596 14.388 63.644 19.556 63.644 29.892V33.312H78.008V61.584H48.14Z" fill="#D9D9D9"/>
</svg>
