<svg width="72" height="105" viewBox="0 0 72 105" fill="none" xmlns="http://www.w3.org/2000/svg">
<path d="M10.08 97L6.576 90.64H5.592V97H1.488V80.152H8.376C9.704 80.152 10.832 80.384 11.76 80.848C12.704 81.312 13.408 81.952 13.872 82.768C14.336 83.568 14.568 84.464 14.568 85.456C14.568 86.576 14.248 87.576 13.608 88.456C12.984 89.336 12.056 89.96 10.824 90.328L14.712 97H10.08ZM5.592 87.736H8.136C8.888 87.736 9.448 87.552 9.816 87.184C10.2 86.816 10.392 86.296 10.392 85.624C10.392 84.984 10.2 84.48 9.816 84.112C9.448 83.744 8.888 83.56 8.136 83.56H5.592V87.736ZM29.7682 90.088C29.7682 90.472 29.7443 90.872 29.6963 91.288H20.4083C20.4723 92.12 20.7363 92.76 21.2003 93.208C21.6803 93.64 22.2643 93.856 22.9523 93.856C23.9763 93.856 24.6883 93.424 25.0883 92.56H29.4563C29.2323 93.44 28.8243 94.232 28.2323 94.936C27.6563 95.64 26.9283 96.192 26.0483 96.592C25.1683 96.992 24.1843 97.192 23.0963 97.192C21.7843 97.192 20.6163 96.912 19.5923 96.352C18.5683 95.792 17.7683 94.992 17.1923 93.952C16.6163 92.912 16.3283 91.696 16.3283 90.304C16.3283 88.912 16.6083 87.696 17.1683 86.656C17.7443 85.616 18.5443 84.816 19.5683 84.256C20.5923 83.696 21.7683 83.416 23.0963 83.416C24.3923 83.416 25.5443 83.688 26.5523 84.232C27.5603 84.776 28.3443 85.552 28.9043 86.56C29.4803 87.568 29.7682 88.744 29.7682 90.088ZM25.5683 89.008C25.5683 88.304 25.3283 87.744 24.8483 87.328C24.3683 86.912 23.7683 86.704 23.0483 86.704C22.3603 86.704 21.7763 86.904 21.2963 87.304C20.8323 87.704 20.5443 88.272 20.4323 89.008H25.5683ZM31.1173 90.28C31.1173 88.904 31.3733 87.696 31.8853 86.656C32.4133 85.616 33.1253 84.816 34.0213 84.256C34.9173 83.696 35.9173 83.416 37.0213 83.416C37.9653 83.416 38.7893 83.608 39.4933 83.992C40.2133 84.376 40.7653 84.88 41.1493 85.504V83.608H45.2533V97H41.1493V95.104C40.7493 95.728 40.1893 96.232 39.4693 96.616C38.7653 97 37.9413 97.192 36.9973 97.192C35.9093 97.192 34.9173 96.912 34.0213 96.352C33.1253 95.776 32.4133 94.968 31.8853 93.928C31.3733 92.872 31.1173 91.656 31.1173 90.28ZM41.1493 90.304C41.1493 89.28 40.8613 88.472 40.2853 87.88C39.7253 87.288 39.0373 86.992 38.2213 86.992C37.4053 86.992 36.7093 87.288 36.1333 87.88C35.5733 88.456 35.2933 89.256 35.2933 90.28C35.2933 91.304 35.5733 92.12 36.1333 92.728C36.7093 93.32 37.4053 93.616 38.2213 93.616C39.0373 93.616 39.7253 93.32 40.2853 92.728C40.8613 92.136 41.1493 91.328 41.1493 90.304ZM47.4064 90.304C47.4064 88.912 47.6864 87.696 48.2464 86.656C48.8224 85.616 49.6144 84.816 50.6224 84.256C51.6464 83.696 52.8144 83.416 54.1264 83.416C55.8064 83.416 57.2064 83.856 58.3264 84.736C59.4624 85.616 60.2064 86.856 60.5584 88.456H56.1904C55.8224 87.432 55.1104 86.92 54.0544 86.92C53.3024 86.92 52.7024 87.216 52.2544 87.808C51.8064 88.384 51.5824 89.216 51.5824 90.304C51.5824 91.392 51.8064 92.232 52.2544 92.824C52.7024 93.4 53.3024 93.688 54.0544 93.688C55.1104 93.688 55.8224 93.176 56.1904 92.152H60.5584C60.2064 93.72 59.4624 94.952 58.3264 95.848C57.1904 96.744 55.7904 97.192 54.1264 97.192C52.8144 97.192 51.6464 96.912 50.6224 96.352C49.6144 95.792 48.8224 94.992 48.2464 93.952C47.6864 92.912 47.4064 91.696 47.4064 90.304ZM70.2176 93.52V97H68.1296C66.6416 97 65.4816 96.64 64.6496 95.92C63.8176 95.184 63.4016 93.992 63.4016 92.344V87.016H61.7696V83.608H63.4016V80.344H67.5056V83.608H70.1936V87.016H67.5056V92.392C67.5056 92.792 67.6016 93.08 67.7936 93.256C67.9856 93.432 68.3056 93.52 68.7536 93.52H70.2176Z" fill="black"/>
<path d="M29.8906 29.4883C29.8906 30.7108 30.3763 31.8832 31.2407 32.7476C32.1051 33.612 33.2775 34.0977 34.5 34.0977C35.7225 34.0977 36.8949 33.612 37.7593 32.7476C38.6237 31.8832 39.1094 30.7108 39.1094 29.4883C39.1094 28.2658 38.6237 27.0934 37.7593 26.229C36.8949 25.3645 35.7225 24.8789 34.5 24.8789C33.2775 24.8789 32.1051 25.3645 31.2407 26.229C30.3763 27.0934 29.8906 28.2658 29.8906 29.4883Z" fill="#61DAFB"/>
<path d="M60.3413 29.4883C60.3413 25.87 56.0892 22.7356 49.4805 20.84C51.1456 14.1679 50.5579 8.91899 47.4235 7.10981C44.2834 5.30063 39.4436 7.41518 34.5 12.1916C29.5564 7.41518 24.7166 5.30063 21.5765 7.10981C18.4421 8.91899 17.8544 14.1737 19.5195 20.84C12.9108 22.7356 8.65869 25.87 8.65869 29.4883C8.65869 33.1067 12.9108 36.2411 19.5195 38.1367C17.8544 44.803 18.4421 50.0577 21.5765 51.8668C22.3485 52.3162 23.2243 52.5352 24.1808 52.5352C26.4682 52.5352 29.2395 51.2791 32.2472 48.8362C32.9962 48.2254 33.751 47.534 34.5 46.808C35.249 47.534 36.0038 48.2254 36.7528 48.8362C39.7604 51.2791 42.5261 52.5352 44.8192 52.5352C45.7757 52.5352 46.6515 52.3162 47.4235 51.8668C50.5579 50.0577 51.1456 44.8087 49.4805 38.1367C56.0892 36.2411 60.3413 33.1067 60.3413 29.4883ZM46.3 9.05727C48.3339 10.2327 48.7603 14.4906 47.3141 20.2811C45.1995 19.7971 42.8948 19.4341 40.4403 19.2094C39.0172 17.1986 37.5479 15.3836 36.0729 13.7934C39.4839 10.4919 42.6528 8.70004 44.8308 8.70004C45.3839 8.69428 45.8794 8.81527 46.3 9.05727ZM41.7021 33.6483C40.907 35.0311 40.0658 36.3563 39.2073 37.6239C37.7035 37.7391 36.1363 37.8025 34.5 37.8025C32.8694 37.8025 31.3022 37.7391 29.7984 37.6239C28.9342 36.3563 28.0987 35.0253 27.3036 33.6483C26.4912 32.2367 25.7652 30.8481 25.1084 29.4883C25.7652 28.1286 26.4912 26.74 27.3036 25.3284C28.116 23.9167 28.9572 22.5973 29.8042 21.347C31.308 21.2318 32.8752 21.1684 34.5058 21.1684C36.1363 21.1684 37.7035 21.2318 39.2073 21.347C40.0543 22.5915 40.8955 23.9167 41.7079 25.3226C42.5203 26.7342 43.2463 28.1228 43.9031 29.4826C43.2405 30.8481 42.5145 32.2367 41.7021 33.6483ZM45.09 32.1272C45.7354 33.6598 46.2654 35.129 46.7033 36.5349C45.2687 36.8576 43.7245 37.1341 42.0767 37.3415C42.6125 36.5061 43.1368 35.6534 43.6496 34.7718C44.1566 33.8845 44.6349 33.003 45.09 32.1272ZM34.5 43.5872C33.4802 42.481 32.4776 41.2768 31.4924 39.9804C32.4776 40.0265 33.4802 40.0553 34.5 40.0553C35.5198 40.0553 36.5224 40.0265 37.5076 39.9804C36.5224 41.2768 35.5198 42.481 34.5 43.5872ZM26.9233 37.3415C25.2755 37.1341 23.7371 36.8576 22.2967 36.5349C22.7346 35.129 23.2646 33.6598 23.91 32.1272C24.3651 33.003 24.8376 33.8845 25.3504 34.7718C25.8632 35.6476 26.3875 36.5003 26.9233 37.3415ZM23.91 26.8495C23.2646 25.3168 22.7346 23.8476 22.2967 22.4417C23.7313 22.1191 25.2697 21.8425 26.9176 21.6351C26.3875 22.4648 25.8574 23.3175 25.3504 24.2048C24.8434 25.0921 24.3651 25.9737 23.91 26.8495ZM34.5 15.3894C35.4968 16.4668 36.5051 17.6826 37.5019 19.002C36.5166 18.9559 35.5198 18.9271 34.5 18.9271C33.4802 18.9271 32.4834 18.9559 31.4981 19.002C32.4949 17.6826 33.5032 16.4668 34.5 15.3894ZM43.6438 24.2048C43.1311 23.3233 42.6067 22.4705 42.0767 21.6351C43.7245 21.8425 45.2629 22.1191 46.6976 22.4417C46.2597 23.8476 45.7296 25.3168 45.0843 26.8495C44.6349 25.9737 44.1566 25.0921 43.6438 24.2048ZM22.7 9.05727C23.1148 8.81527 23.6104 8.70004 24.175 8.70004C26.3529 8.70004 29.5161 10.4919 32.9271 13.7934C31.4521 15.3836 29.9828 17.2043 28.5597 19.2094C26.1109 19.4341 23.8005 19.7971 21.6859 20.2811C20.2397 14.4848 20.6719 10.2269 22.7 9.05727ZM10.9058 29.4883C10.9058 27.1375 14.3801 24.637 20.1245 23.0006C20.7641 25.0748 21.5995 27.2528 22.6309 29.4883C21.6053 31.7239 20.7641 33.9018 20.1245 35.976C14.3801 34.3397 10.9058 31.8333 10.9058 29.4883ZM30.8298 47.0904C27.39 49.8848 24.4285 50.9162 22.7 49.9251C20.6661 48.7497 20.2397 44.4918 21.6859 38.7013C23.8005 39.1853 26.1052 39.5483 28.5597 39.773C29.9655 41.7608 31.4348 43.5815 32.9271 45.2005C32.2299 45.8746 31.5327 46.52 30.8298 47.0904ZM46.3 49.9251C44.5772 50.9219 41.61 49.8906 38.1702 47.0904C37.473 46.52 36.7701 45.8746 36.0672 45.2005C37.5652 43.5815 39.0287 41.7608 40.4346 39.773C42.8833 39.5483 45.1937 39.1853 47.3083 38.6955C48.7603 44.4918 48.3281 48.7497 46.3 49.9251ZM48.8812 35.976C48.2417 33.9018 47.4062 31.7239 46.3749 29.4883C47.4005 27.2528 48.2417 25.0748 48.8812 23.0006C54.6257 24.6427 58.1 27.1433 58.1 29.4883C58.0942 31.8333 54.6199 34.3397 48.8812 35.976Z" fill="#61DAFB"/>
</svg>

