<svg width="60" height="60" viewBox="0 0 60 60" fill="none" xmlns="http://www.w3.org/2000/svg">
<rect width="60" height="60" rx="5" fill="white"/>
<g clip-path="url(#clip0_6019_6080)">
<path d="M29.9999 31.4456C24.7575 31.4456 20.5999 27.1072 20.5999 22.0456C20.5999 16.9841 24.7575 12.4648 29.9999 12.4648C35.2422 12.4648 39.3999 16.8033 39.3999 21.8648C39.3999 26.9264 35.2422 31.4456 29.9999 31.4456ZM29.9999 15.1764C26.2037 15.1764 23.1306 18.2495 23.1306 22.0456C23.1306 25.8418 26.2037 28.7341 29.9999 28.7341C33.796 28.7341 36.8691 25.661 36.8691 21.8648C36.8691 18.0687 33.796 15.1764 29.9999 15.1764Z" fill="#2B00AC"/>
<path d="M44.4615 45.908C43.7384 45.908 43.0154 45.3657 43.0154 44.4618C43.0154 37.2311 37.05 31.4464 30 31.4464C22.7692 31.4464 16.9846 37.2311 16.9846 44.4618C16.9846 45.1849 16.4423 45.908 15.5384 45.908C14.6346 45.908 14.0923 45.3657 14.0923 44.4618C14.0923 35.7849 21.1423 28.7349 30 28.7349C38.6769 28.7349 45.9077 35.7849 45.9077 44.4618C45.9077 45.1849 45.1846 45.908 44.4615 45.908ZM40.8461 29.6387C40.1231 29.6387 39.4 29.0964 39.4 28.1926C39.4 27.2887 40.1231 26.9272 40.8461 26.9272C43.0154 26.9272 44.8231 25.1195 44.8231 22.9503C44.8231 20.7811 43.0154 18.7926 40.8461 18.7926C40.1231 18.7926 39.4 18.2503 39.4 17.3464C39.4 16.4426 40.1231 16.0811 40.8461 16.0811C44.6423 16.0811 47.7154 19.1541 47.7154 22.9503C47.7154 26.7464 44.6423 29.6387 40.8461 29.6387Z" fill="#2B00AC"/>
<path d="M40.8461 29.6387C40.123 29.6387 39.3999 29.0964 39.3999 28.1926C39.3999 27.2887 40.123 26.9272 40.8461 26.9272C43.0153 26.9272 44.823 25.1195 44.823 22.9503C44.823 20.7811 43.0153 18.7926 40.8461 18.7926C40.123 18.7926 39.3999 18.2503 39.3999 17.3464C39.3999 16.4426 40.123 16.0811 40.8461 16.0811C44.6422 16.0811 47.7153 19.1541 47.7153 22.9503C47.7153 26.7464 44.6422 29.6387 40.8461 29.6387Z" fill="#2B00AC"/>
<path d="M49.8845 38.6768C49.1614 38.6768 48.4384 38.1345 48.4384 37.2306C48.4384 33.0729 45.0038 29.6383 40.8461 29.6383C40.123 29.6383 39.3999 29.096 39.3999 28.1921C39.3999 27.2883 40.123 26.9268 40.8461 26.9268C46.6307 26.9268 51.3307 31.6268 51.3307 37.4114C51.3307 37.9537 50.6076 38.6768 49.8845 38.6768Z" fill="#2B00AC"/>
<path d="M19.1537 29.6387C15.3575 29.6387 12.2844 26.5657 12.2844 22.7695C12.2844 18.9734 15.3575 16.0811 19.1537 16.0811C19.8767 16.0811 20.5998 16.6234 20.5998 17.5272C20.5998 18.4311 19.8767 18.7926 19.1537 18.7926C16.9844 18.7926 15.1767 20.6003 15.1767 22.7695C15.1767 24.9387 16.9844 26.9272 19.1537 26.9272C19.8767 26.9272 20.5998 27.4695 20.5998 28.3734C20.5998 29.2772 19.8767 29.6387 19.1537 29.6387Z" fill="#2B00AC"/>
<path d="M19.1537 29.6387C15.3575 29.6387 12.2844 26.5657 12.2844 22.7695C12.2844 18.9734 15.3575 16.0811 19.1537 16.0811C19.8767 16.0811 20.5998 16.6234 20.5998 17.5272C20.5998 18.4311 19.8767 18.7926 19.1537 18.7926C16.9844 18.7926 15.1767 20.6003 15.1767 22.7695C15.1767 24.9387 16.9844 26.9272 19.1537 26.9272C19.8767 26.9272 20.5998 27.4695 20.5998 28.3734C20.5998 29.2772 19.8767 29.6387 19.1537 29.6387Z" fill="#2B00AC"/>
<path d="M10.1153 38.6769C9.39227 38.6769 8.66919 38.1346 8.66919 37.2307C8.66919 31.4461 13.3692 26.7461 19.1538 26.7461C19.8769 26.7461 20.6 27.2884 20.6 28.1922C20.6 29.0961 19.8769 29.6384 19.1538 29.6384C14.9961 29.6384 11.5615 33.073 11.5615 37.2307C11.5615 37.9538 10.8384 38.6769 10.1153 38.6769Z" fill="#2B00AC"/>
</g>
<defs>
<clipPath id="clip0_6019_6080">
<rect width="43.3846" height="43.3846" fill="white" transform="translate(8.30762 8.30762)"/>
</clipPath>
</defs>
</svg>
