<svg width="68" height="97" viewBox="0 0 68 97" fill="none" xmlns="http://www.w3.org/2000/svg">
<path d="M10.08 89L6.576 82.64H5.592V89H1.488V72.152H8.376C9.704 72.152 10.832 72.384 11.76 72.848C12.704 73.312 13.408 73.952 13.872 74.768C14.336 75.568 14.568 76.464 14.568 77.456C14.568 78.576 14.248 79.576 13.608 80.456C12.984 81.336 12.056 81.96 10.824 82.328L14.712 89H10.08ZM5.592 79.736H8.136C8.888 79.736 9.448 79.552 9.816 79.184C10.2 78.816 10.392 78.296 10.392 77.624C10.392 76.984 10.2 76.48 9.816 76.112C9.448 75.744 8.888 75.56 8.136 75.56H5.592V79.736ZM29.7682 82.088C29.7682 82.472 29.7443 82.872 29.6963 83.288H20.4083C20.4723 84.12 20.7363 84.76 21.2003 85.208C21.6803 85.64 22.2643 85.856 22.9523 85.856C23.9763 85.856 24.6883 85.424 25.0883 84.56H29.4563C29.2323 85.44 28.8243 86.232 28.2323 86.936C27.6563 87.64 26.9283 88.192 26.0483 88.592C25.1683 88.992 24.1843 89.192 23.0963 89.192C21.7843 89.192 20.6163 88.912 19.5923 88.352C18.5683 87.792 17.7683 86.992 17.1923 85.952C16.6163 84.912 16.3283 83.696 16.3283 82.304C16.3283 80.912 16.6083 79.696 17.1683 78.656C17.7443 77.616 18.5443 76.816 19.5683 76.256C20.5923 75.696 21.7683 75.416 23.0963 75.416C24.3923 75.416 25.5443 75.688 26.5523 76.232C27.5603 76.776 28.3443 77.552 28.9043 78.56C29.4803 79.568 29.7682 80.744 29.7682 82.088ZM25.5683 81.008C25.5683 80.304 25.3283 79.744 24.8483 79.328C24.3683 78.912 23.7683 78.704 23.0483 78.704C22.3603 78.704 21.7763 78.904 21.2963 79.304C20.8323 79.704 20.5443 80.272 20.4323 81.008H25.5683ZM31.1173 82.28C31.1173 80.904 31.3733 79.696 31.8853 78.656C32.4133 77.616 33.1253 76.816 34.0213 76.256C34.9173 75.696 35.9173 75.416 37.0213 75.416C37.9013 75.416 38.7013 75.6 39.4213 75.968C40.1573 76.336 40.7333 76.832 41.1493 77.456V71.24H45.2533V89H41.1493V87.08C40.7653 87.72 40.2133 88.232 39.4933 88.616C38.7893 89 37.9653 89.192 37.0213 89.192C35.9173 89.192 34.9173 88.912 34.0213 88.352C33.1253 87.776 32.4133 86.968 31.8853 85.928C31.3733 84.872 31.1173 83.656 31.1173 82.28ZM41.1493 82.304C41.1493 81.28 40.8613 80.472 40.2853 79.88C39.7253 79.288 39.0373 78.992 38.2213 78.992C37.4053 78.992 36.7093 79.288 36.1333 79.88C35.5733 80.456 35.2933 81.256 35.2933 82.28C35.2933 83.304 35.5733 84.12 36.1333 84.728C36.7093 85.32 37.4053 85.616 38.2213 85.616C39.0373 85.616 39.7253 85.32 40.2853 84.728C40.8613 84.136 41.1493 83.328 41.1493 82.304ZM50.2864 74.216C49.5664 74.216 48.9744 74.008 48.5104 73.592C48.0624 73.16 47.8384 72.632 47.8384 72.008C47.8384 71.368 48.0624 70.84 48.5104 70.424C48.9744 69.992 49.5664 69.776 50.2864 69.776C50.9904 69.776 51.5664 69.992 52.0144 70.424C52.4784 70.84 52.7104 71.368 52.7104 72.008C52.7104 72.632 52.4784 73.16 52.0144 73.592C51.5664 74.008 50.9904 74.216 50.2864 74.216ZM52.3264 75.608V89H48.2224V75.608H52.3264ZM60.7485 89.192C59.5805 89.192 58.5405 88.992 57.6285 88.592C56.7165 88.192 55.9965 87.648 55.4685 86.96C54.9405 86.256 54.6445 85.472 54.5805 84.608H58.6365C58.6845 85.072 58.9005 85.448 59.2845 85.736C59.6685 86.024 60.1405 86.168 60.7005 86.168C61.2125 86.168 61.6045 86.072 61.8765 85.88C62.1645 85.672 62.3085 85.408 62.3085 85.088C62.3085 84.704 62.1085 84.424 61.7085 84.248C61.3085 84.056 60.6605 83.848 59.7645 83.624C58.8045 83.4 58.0045 83.168 57.3645 82.928C56.7245 82.672 56.1725 82.28 55.7085 81.752C55.2445 81.208 55.0125 80.48 55.0125 79.568C55.0125 78.8 55.2205 78.104 55.6365 77.48C56.0685 76.84 56.6925 76.336 57.5085 75.968C58.3405 75.6 59.3245 75.416 60.4605 75.416C62.1405 75.416 63.4605 75.832 64.4205 76.664C65.3965 77.496 65.9565 78.6 66.1005 79.976H62.3085C62.2445 79.512 62.0365 79.144 61.6845 78.872C61.3485 78.6 60.9005 78.464 60.3405 78.464C59.8605 78.464 59.4925 78.56 59.2365 78.752C58.9805 78.928 58.8525 79.176 58.8525 79.496C58.8525 79.88 59.0525 80.168 59.4525 80.36C59.8685 80.552 60.5085 80.744 61.3725 80.936C62.3645 81.192 63.1725 81.448 63.7965 81.704C64.4205 81.944 64.9645 82.344 65.4285 82.904C65.9085 83.448 66.1565 84.184 66.1725 85.112C66.1725 85.896 65.9485 86.6 65.5005 87.224C65.0685 87.832 64.4365 88.312 63.6045 88.664C62.7885 89.016 61.8365 89.192 60.7485 89.192Z" fill="black"/>
<path d="M57.6115 31.7548L57.625 31.7582V37.1346C57.625 37.6746 57.058 38.2652 55.7755 39.0246C54.5639 39.7468 50.9256 41.5356 47.1625 43.3817L45.2792 44.3065C41.8469 45.994 38.6339 47.587 37.4121 48.316C34.6277 49.9697 33.0854 49.9562 30.8882 48.7547C28.6945 47.5566 14.7895 41.1475 12.2886 39.7806C11.0365 39.0955 10.3784 38.5183 10.3784 37.975V32.521C10.3986 33.0677 11.0365 33.6415 12.2886 34.3266C14.7929 35.6909 28.6911 42.1034 30.8882 43.3015C33.0854 44.503 34.6277 44.5165 37.4121 42.8628C40.1897 41.209 53.2544 35.0733 55.7755 33.5748C57.0006 32.8458 57.598 32.2687 57.6149 31.7523L57.6115 31.7557V31.7548ZM57.6115 22.8651H57.6216V28.2415C57.6216 28.7815 57.0546 29.3721 55.7721 30.1382C53.251 31.6367 40.1864 37.7725 37.4087 39.4262C34.6244 41.08 33.082 41.0631 30.8849 39.865C28.6911 38.6668 14.7861 32.2543 12.2852 30.8875C11.0331 30.2065 10.375 29.6328 10.375 29.0852V23.6312C10.3952 24.1712 11.0331 24.7517 12.2852 25.4335C14.7895 26.8003 28.6877 33.2128 30.8849 34.411C33.082 35.6091 34.6244 35.626 37.4087 33.9722C40.1864 32.3185 53.251 26.1827 55.7721 24.6808C56.9939 23.9518 57.5946 23.3781 57.6115 22.8651ZM31.3979 4.31608C34.3172 3.11795 35.3297 3.07745 37.8137 4.11695C40.3011 5.15983 53.2847 11.0593 55.7417 12.0853C57.0074 12.6152 57.6317 13.0978 57.6115 13.648H57.625V19.0243C57.625 19.561 57.0546 20.155 55.7755 20.9177C53.251 22.4162 40.1897 28.5528 37.4087 30.2065C34.6277 31.8603 33.0854 31.8468 30.8882 30.6453C28.6911 29.4505 14.7895 23.0347 12.2852 21.6678C11.0365 20.9852 10.375 20.4115 10.375 19.8647V14.4115C10.3581 13.8682 10.9589 13.3585 12.1874 12.805C14.6477 11.7082 28.4717 5.51505 31.3979 4.3203V4.31692V4.31608ZM38.2424 16.888L27.2972 18.805L34.9349 22.423L38.2424 16.888ZM45.0295 10.8973L37.861 14.1373L44.3309 17.0567L45.0362 16.7428L51.5095 13.8201L45.0295 10.8973ZM24.3407 11.6061C21.1109 11.6061 18.4919 12.7671 18.4919 14.1981C18.4919 15.6257 21.1109 16.7867 24.3441 16.7867C27.5774 16.7867 30.193 15.6291 30.193 14.1981C30.193 12.7671 27.5774 11.6095 24.3441 11.6095L24.3407 11.6061ZM31.4417 6.23308L32.5015 8.46395L28.9746 9.9152L33.6996 10.4012L35.1779 13.2092L36.0959 10.6915L40.1897 10.2055L37.0172 8.8487L37.861 6.54358L34.7425 7.70795L31.4417 6.23308Z" fill="#D82A1F"/>
</svg>
