<svg width="181" height="60" viewBox="0 0 181 60" fill="none" xmlns="http://www.w3.org/2000/svg">
<g clip-path="url(#clip0_5919_5039)">
<path d="M24.8781 16.145C24.8781 19.596 22.3865 21.7396 18.376 21.7396H10.0952V10.4869H18.376C22.4476 10.4869 24.8781 12.602 24.8781 16.145ZM25.7033 29.124C31.6038 27.1563 35.1017 22.3296 35.1017 16.0813C35.1017 7.62938 28.9077 1.72656 20.0396 1.72656H0.600025C0.26853 1.72656 0 1.99149 0 2.31865V47.0792C0 47.4062 0.26853 47.6712 0.600025 47.6712H9.49516C9.82666 47.6712 10.0952 47.4062 10.0952 47.0792V30.4367H15.4489L24.1764 47.3475C24.2791 47.5459 24.4855 47.6712 24.7111 47.6712H34.5652C34.775 47.6712 34.9699 47.5627 35.0782 47.3854C35.1871 47.2082 35.1941 46.9876 35.0963 46.8046L25.7033 29.124Z" fill="#8F8F8F"/>
<path d="M45.8955 8.45508C42.672 8.45508 40.0491 11.0717 40.0491 14.2875C40.0491 17.3801 42.7267 19.9928 45.8955 19.9928C49.1195 19.9928 51.7428 17.4335 51.7428 14.2875C51.7428 11.0173 49.1742 8.45508 45.8955 8.45508Z" fill="#8F8F8F"/>
<path d="M50.1841 23.8809H41.6729C41.3414 23.8809 41.0728 24.1457 41.0728 24.4729V47.0793C41.0728 47.4064 41.3414 47.6713 41.6729 47.6713H50.1841C50.5157 47.6713 50.7843 47.4064 50.7843 47.0793V24.4729C50.7843 24.1457 50.5157 23.8809 50.1841 23.8809Z" fill="#8F8F8F"/>
<path d="M67.7833 15.4277H59.2726C58.9411 15.4277 58.6724 15.6927 58.6724 16.0197V47.0806C58.6724 47.4076 58.9411 47.6726 59.2726 47.6726H67.7833C68.1149 47.6726 68.3834 47.4076 68.3834 47.0806V16.0197C68.3834 15.6927 68.1149 15.4277 67.7833 15.4277Z" fill="#8F8F8F"/>
<path d="M63.4962 0C60.2727 0 57.6499 2.61657 57.6499 5.83246C57.6499 8.92499 60.3274 11.5378 63.4962 11.5378C66.7202 11.5378 69.3435 8.9785 69.3435 5.83246C69.3435 2.56219 66.7749 0 63.4962 0Z" fill="#8F8F8F"/>
<path d="M100.332 31.5497C100.332 36.4444 97.4358 39.7329 93.1257 39.7329C88.8444 39.7329 85.8543 36.3681 85.8543 31.5497C85.8543 26.6927 88.7765 23.4297 93.1257 23.4297C97.4358 23.4297 100.332 26.6927 100.332 31.5497ZM94.7888 14.7324C91.1062 14.7324 87.751 15.9993 85.7269 18.061V16.019C85.7269 15.692 85.4583 15.427 85.1267 15.427H76.8718C76.5403 15.427 76.2717 15.692 76.2717 16.019V59.0753C76.2717 59.4024 76.5403 59.6673 76.8718 59.6673H85.3825C85.7141 59.6673 85.9826 59.4024 85.9826 59.0753V45.588C87.9836 47.3886 91.035 48.4301 94.4693 48.4301C103.564 48.4301 109.914 41.4623 109.914 31.4861C109.914 21.4651 103.836 14.7324 94.7888 14.7324Z" fill="#8F8F8F"/>
<path d="M122.926 27.4225C123.398 24.9243 125.652 22.4826 129.286 22.4826C133.514 22.4826 135.33 24.932 135.67 27.4225H122.926ZM129.156 14.4805C124.942 14.4805 120.968 16.1265 117.965 19.1145C114.809 22.2538 113.071 26.6252 113.071 31.4236C113.071 36.5455 114.825 40.9223 118.142 44.0813C121.216 47.0076 125.4 48.6195 129.925 48.6195C138.659 48.6195 143.354 43.3125 144.833 38.3462C144.927 38.0329 144.747 37.7045 144.429 37.6115L137.326 35.5276C137.023 35.4395 136.701 35.599 136.591 35.8929C135.53 38.7763 133.308 40.2383 129.988 40.2383C126.207 40.2383 123.186 37.7478 122.711 34.3508H144.579C144.903 34.3508 145.168 34.0863 145.178 33.767C145.181 33.7315 145.187 33.6466 145.197 33.5252C145.232 33.0628 145.305 32.1003 145.305 31.171C145.305 20.876 139.118 14.4805 129.156 14.4805Z" fill="#8F8F8F"/>
<path d="M168.77 14.6074C166.044 14.6074 162.597 15.5473 160.284 18.0704V16.0197C160.284 15.6927 160.014 15.4277 159.684 15.4277H151.429C151.097 15.4277 150.828 15.6927 150.828 16.0197V47.0806C150.828 47.4077 151.097 47.6726 151.429 47.6726H159.939C160.271 47.6726 160.538 47.4077 160.538 47.0806V29.2147C160.538 26.3037 162.175 23.3667 165.827 23.3667C170.372 23.3667 171.049 26.8727 171.049 28.9623V47.0806C171.049 47.4077 171.317 47.6726 171.649 47.6726H180.16C180.492 47.6726 180.76 47.4077 180.76 47.0806V27.5098C180.76 19.5517 176.165 14.6074 168.77 14.6074Z" fill="#8F8F8F"/>
</g>
<defs>
<clipPath id="clip0_5919_5039">
<rect width="181" height="60" fill="white"/>
</clipPath>
</defs>
</svg>

