<svg width="181" height="60" viewBox="0 0 181 60" fill="none" xmlns="http://www.w3.org/2000/svg">
<g clip-path="url(#clip0_6806_5935)">
<path d="M24.8781 16.1455C24.8781 19.5965 22.3865 21.7401 18.376 21.7401H10.0952V10.4874H18.376C22.4476 10.4874 24.8781 12.6025 24.8781 16.1455ZM25.7033 29.1245C31.6038 27.1568 35.1017 22.3301 35.1017 16.0818C35.1017 7.62987 28.9077 1.72705 20.0396 1.72705H0.600025C0.26853 1.72705 0 1.99198 0 2.31914V47.0797C0 47.4067 0.26853 47.6717 0.600025 47.6717H9.49516C9.82666 47.6717 10.0952 47.4067 10.0952 47.0797V30.4372H15.4489L24.1764 47.3479C24.2791 47.5464 24.4855 47.6717 24.7111 47.6717H34.5652C34.775 47.6717 34.9699 47.5632 35.0782 47.3859C35.1871 47.2087 35.1941 46.9881 35.0963 46.8051L25.7033 29.1245Z" fill="#8F8F8F"/>
<path d="M45.8933 8.4541C42.6698 8.4541 40.0469 11.0708 40.0469 14.2866C40.0469 17.3791 42.7245 19.9919 45.8933 19.9919C49.1173 19.9919 51.7406 17.4326 51.7406 14.2866C51.7406 11.0163 49.172 8.4541 45.8933 8.4541Z" fill="#8F8F8F"/>
<path d="M50.1817 23.8813H41.6705C41.3389 23.8813 41.0703 24.1462 41.0703 24.4733V47.0798C41.0703 47.4069 41.3389 47.6718 41.6705 47.6718H50.1817C50.5133 47.6718 50.7819 47.4069 50.7819 47.0798V24.4733C50.7819 24.1462 50.5133 23.8813 50.1817 23.8813Z" fill="#8F8F8F"/>
<path d="M67.7828 15.4268H59.2721C58.9406 15.4268 58.6719 15.6918 58.6719 16.0188V47.0796C58.6719 47.4066 58.9406 47.6716 59.2721 47.6716H67.7828C68.1144 47.6716 68.3829 47.4066 68.3829 47.0796V16.0188C68.3829 15.6918 68.1144 15.4268 67.7828 15.4268Z" fill="#8F8F8F"/>
<path d="M63.4947 0C60.2712 0 57.6484 2.61657 57.6484 5.83246C57.6484 8.92499 60.3259 11.5378 63.4947 11.5378C66.7187 11.5378 69.342 8.9785 69.342 5.83246C69.342 2.56219 66.7734 0 63.4947 0Z" fill="#8F8F8F"/>
<path d="M100.334 31.5492C100.334 36.4439 97.4376 39.7324 93.1274 39.7324C88.8461 39.7324 85.856 36.3676 85.856 31.5492C85.856 26.6922 88.7782 23.4292 93.1274 23.4292C97.4376 23.4292 100.334 26.6922 100.334 31.5492ZM94.7905 14.7319C91.1079 14.7319 87.7527 15.9988 85.7286 18.0605V16.0185C85.7286 15.6915 85.46 15.4265 85.1284 15.4265H76.8735C76.542 15.4265 76.2734 15.6915 76.2734 16.0185V59.0748C76.2734 59.4019 76.542 59.6668 76.8735 59.6668H85.3843C85.7158 59.6668 85.9843 59.4019 85.9843 59.0748V45.5875C87.9853 47.3881 91.0367 48.4296 94.471 48.4296C103.565 48.4296 109.916 41.4618 109.916 31.4856C109.916 21.4646 103.837 14.7319 94.7905 14.7319Z" fill="#8F8F8F"/>
<path d="M122.925 27.423C123.397 24.9248 125.651 22.4831 129.285 22.4831C133.513 22.4831 135.329 24.9325 135.669 27.423H122.925ZM129.155 14.481C124.941 14.481 120.967 16.127 117.964 19.115C114.808 22.2542 113.07 26.6257 113.07 31.4241C113.07 36.546 114.824 40.9228 118.141 44.0818C121.215 47.0081 125.399 48.62 129.924 48.62C138.658 48.62 143.353 43.313 144.832 38.3467C144.926 38.0334 144.746 37.705 144.428 37.612L137.325 35.5281C137.022 35.44 136.7 35.5995 136.59 35.8934C135.529 38.7768 133.307 40.2388 129.987 40.2388C126.206 40.2388 123.185 37.7482 122.71 34.3512H144.578C144.902 34.3512 145.167 34.0868 145.177 33.7675C145.18 33.732 145.186 33.6471 145.196 33.5257C145.231 33.0632 145.304 32.1008 145.304 31.1715C145.304 20.8765 139.117 14.481 129.155 14.481Z" fill="#8F8F8F"/>
<path d="M168.77 14.6064C166.044 14.6064 162.597 15.5463 160.284 18.0694V16.0187C160.284 15.6917 160.014 15.4267 159.684 15.4267H151.429C151.097 15.4267 150.828 15.6917 150.828 16.0187V47.0796C150.828 47.4067 151.097 47.6716 151.429 47.6716H159.939C160.271 47.6716 160.538 47.4067 160.538 47.0796V29.2137C160.538 26.3027 162.175 23.3657 165.827 23.3657C170.372 23.3657 171.049 26.8717 171.049 28.9613V47.0796C171.049 47.4067 171.317 47.6716 171.649 47.6716H180.16C180.492 47.6716 180.76 47.4067 180.76 47.0796V27.5089C180.76 19.5507 176.165 14.6064 168.77 14.6064Z" fill="#8F8F8F"/>
</g>
<defs>
<clipPath id="clip0_6806_5935">
<rect width="181" height="60" fill="white"/>
</clipPath>
</defs>
</svg>
