<svg width="170" height="50" viewBox="0 0 170 50" fill="none" xmlns="http://www.w3.org/2000/svg">
<path d="M10.08 92L6.576 85.64H5.592V92H1.488V75.152H8.376C9.704 75.152 10.832 75.384 11.76 75.848C12.704 76.312 13.408 76.952 13.872 77.768C14.336 78.568 14.568 79.464 14.568 80.456C14.568 81.576 14.248 82.576 13.608 83.456C12.984 84.336 12.056 84.96 10.824 85.328L14.712 92H10.08ZM5.592 82.736H8.136C8.888 82.736 9.448 82.552 9.816 82.184C10.2 81.816 10.392 81.296 10.392 80.624C10.392 79.984 10.2 79.48 9.816 79.112C9.448 78.744 8.888 78.56 8.136 78.56H5.592V82.736ZM30.3683 78.608V92H26.2643V90.176C25.8483 90.768 25.2803 91.248 24.5603 91.616C23.8563 91.968 23.0723 92.144 22.2083 92.144C21.1843 92.144 20.2803 91.92 19.4963 91.472C18.7123 91.008 18.1043 90.344 17.6723 89.48C17.2403 88.616 17.0243 87.6 17.0243 86.432V78.608H21.1043V85.88C21.1043 86.776 21.3363 87.472 21.8003 87.968C22.2643 88.464 22.8883 88.712 23.6723 88.712C24.4723 88.712 25.1043 88.464 25.5683 87.968C26.0323 87.472 26.2643 86.776 26.2643 85.88V78.608H30.3683ZM37.4201 80.504C37.8041 79.88 38.3561 79.376 39.0761 78.992C39.7961 78.608 40.6201 78.416 41.5481 78.416C42.6521 78.416 43.6521 78.696 44.5481 79.256C45.4441 79.816 46.1481 80.616 46.6601 81.656C47.1881 82.696 47.4521 83.904 47.4521 85.28C47.4521 86.656 47.1881 87.872 46.6601 88.928C46.1481 89.968 45.4441 90.776 44.5481 91.352C43.6521 91.912 42.6521 92.192 41.5481 92.192C40.6041 92.192 39.7801 92.008 39.0761 91.64C38.3721 91.256 37.8201 90.752 37.4201 90.128V92H33.3161V74.24H37.4201V80.504ZM43.2761 85.28C43.2761 84.256 42.9881 83.456 42.4121 82.88C41.8521 82.288 41.1561 81.992 40.3241 81.992C39.5081 81.992 38.8121 82.288 38.2361 82.88C37.6761 83.472 37.3961 84.28 37.3961 85.304C37.3961 86.328 37.6761 87.136 38.2361 87.728C38.8121 88.32 39.5081 88.616 40.3241 88.616C41.1401 88.616 41.8361 88.32 42.4121 87.728C42.9881 87.12 43.2761 86.304 43.2761 85.28ZM63.2852 78.608L54.8852 98.36H50.4692L53.5412 91.544L48.0932 78.608H52.6772L55.7732 86.984L58.8452 78.608H63.2852ZM75.9512 92.192C74.6392 92.192 73.4552 91.912 72.3992 91.352C71.3592 90.792 70.5352 89.992 69.9272 88.952C69.3352 87.912 69.0392 86.696 69.0392 85.304C69.0392 83.928 69.3432 82.72 69.9512 81.68C70.5592 80.624 71.3912 79.816 72.4472 79.256C73.5032 78.696 74.6872 78.416 75.9992 78.416C77.3112 78.416 78.4952 78.696 79.5512 79.256C80.6072 79.816 81.4392 80.624 82.0472 81.68C82.6552 82.72 82.9592 83.928 82.9592 85.304C82.9592 86.68 82.6472 87.896 82.0232 88.952C81.4152 89.992 80.5752 90.792 79.5032 91.352C78.4472 91.912 77.2632 92.192 75.9512 92.192ZM75.9512 88.64C76.7352 88.64 77.3992 88.352 77.9432 87.776C78.5032 87.2 78.7832 86.376 78.7832 85.304C78.7832 84.232 78.5112 83.408 77.9672 82.832C77.4392 82.256 76.7832 81.968 75.9992 81.968C75.1992 81.968 74.5352 82.256 74.0072 82.832C73.4792 83.392 73.2152 84.216 73.2152 85.304C73.2152 86.376 73.4712 87.2 73.9832 87.776C74.5112 88.352 75.1672 88.64 75.9512 88.64ZM93.2964 78.464C94.8644 78.464 96.1124 78.976 97.0404 80C97.9844 81.008 98.4564 82.4 98.4564 84.176V92H94.3764V84.728C94.3764 83.832 94.1444 83.136 93.6804 82.64C93.2164 82.144 92.5924 81.896 91.8084 81.896C91.0244 81.896 90.4004 82.144 89.9364 82.64C89.4724 83.136 89.2404 83.832 89.2404 84.728V92H85.1364V78.608H89.2404V80.384C89.6564 79.792 90.2164 79.328 90.9204 78.992C91.6244 78.64 92.4164 78.464 93.2964 78.464ZM114.986 92L111.482 85.64H110.498V92H106.394V75.152H113.282C114.61 75.152 115.738 75.384 116.666 75.848C117.61 76.312 118.314 76.952 118.778 77.768C119.242 78.568 119.474 79.464 119.474 80.456C119.474 81.576 119.154 82.576 118.514 83.456C117.89 84.336 116.962 84.96 115.73 85.328L119.618 92H114.986ZM110.498 82.736H113.042C113.794 82.736 114.354 82.552 114.722 82.184C115.106 81.816 115.298 81.296 115.298 80.624C115.298 79.984 115.106 79.48 114.722 79.112C114.354 78.744 113.794 78.56 113.042 78.56H110.498V82.736ZM121.235 85.28C121.235 83.904 121.491 82.696 122.003 81.656C122.531 80.616 123.243 79.816 124.139 79.256C125.035 78.696 126.035 78.416 127.139 78.416C128.083 78.416 128.907 78.608 129.611 78.992C130.331 79.376 130.883 79.88 131.267 80.504V78.608H135.371V92H131.267V90.104C130.867 90.728 130.307 91.232 129.587 91.616C128.883 92 128.059 92.192 127.115 92.192C126.027 92.192 125.035 91.912 124.139 91.352C123.243 90.776 122.531 89.968 122.003 88.928C121.491 87.872 121.235 86.656 121.235 85.28ZM131.267 85.304C131.267 84.28 130.979 83.472 130.403 82.88C129.843 82.288 129.155 81.992 128.339 81.992C127.523 81.992 126.827 82.288 126.251 82.88C125.691 83.456 125.411 84.256 125.411 85.28C125.411 86.304 125.691 87.12 126.251 87.728C126.827 88.32 127.523 88.616 128.339 88.616C129.155 88.616 129.843 88.32 130.403 87.728C130.979 87.136 131.267 86.328 131.267 85.304ZM140.404 77.216C139.684 77.216 139.092 77.008 138.628 76.592C138.18 76.16 137.956 75.632 137.956 75.008C137.956 74.368 138.18 73.84 138.628 73.424C139.092 72.992 139.684 72.776 140.404 72.776C141.108 72.776 141.684 72.992 142.132 73.424C142.596 73.84 142.828 74.368 142.828 75.008C142.828 75.632 142.596 76.16 142.132 76.592C141.684 77.008 141.108 77.216 140.404 77.216ZM142.444 78.608V92H138.34V78.608H142.444ZM149.522 74.24V92H145.418V74.24H149.522ZM157.944 92.192C156.776 92.192 155.736 91.992 154.824 91.592C153.912 91.192 153.192 90.648 152.664 89.96C152.136 89.256 151.84 88.472 151.776 87.608H155.832C155.88 88.072 156.096 88.448 156.48 88.736C156.864 89.024 157.336 89.168 157.896 89.168C158.408 89.168 158.8 89.072 159.072 88.88C159.36 88.672 159.504 88.408 159.504 88.088C159.504 87.704 159.304 87.424 158.904 87.248C158.504 87.056 157.856 86.848 156.96 86.624C156 86.4 155.2 86.168 154.56 85.928C153.92 85.672 153.368 85.28 152.904 84.752C152.44 84.208 152.208 83.48 152.208 82.568C152.208 81.8 152.416 81.104 152.832 80.48C153.264 79.84 153.888 79.336 154.704 78.968C155.536 78.6 156.52 78.416 157.656 78.416C159.336 78.416 160.656 78.832 161.616 79.664C162.592 80.496 163.152 81.6 163.296 82.976H159.504C159.44 82.512 159.232 82.144 158.88 81.872C158.544 81.6 158.096 81.464 157.536 81.464C157.056 81.464 156.688 81.56 156.432 81.752C156.176 81.928 156.048 82.176 156.048 82.496C156.048 82.88 156.248 83.168 156.648 83.36C157.064 83.552 157.704 83.744 158.568 83.936C159.56 84.192 160.368 84.448 160.992 84.704C161.616 84.944 162.16 85.344 162.624 85.904C163.104 86.448 163.352 87.184 163.368 88.112C163.368 88.896 163.144 89.6 162.696 90.224C162.264 90.832 161.632 91.312 160.8 91.664C159.984 92.016 159.032 92.192 157.944 92.192Z" fill="black"/>
<path d="M64.4965 49.2236C64.0825 45.5633 64.3475 41.4293 65.2915 36.8216C66.7093 29.9117 68.7928 25.3041 72.3803 18.7221C75.9677 12.1435 81.7215 6.71099 90.0591 5.9723C98.3999 5.2303 104.989 11.8122 104.989 11.8122L103.988 13.2929C103.988 13.2929 101.487 10.4972 96.8994 10.9907C92.3116 11.4843 84.2225 16.092 82.9703 26.2117C81.7215 36.3281 86.6803 49.2236 86.6803 49.2236H64.4998H64.4965ZM60.0412 36.3281L64.3773 36.6593L63.6253 40.9357L59.541 40.4422L60.0379 36.3281H60.0412ZM66.8782 27.2783L62.9562 26.0461L64.2083 22.5911L68.0442 24.0718L66.8749 27.2783H66.8782ZM72.2975 16.2543L69.293 14.2801L71.6283 11.7294L74.55 13.6242L72.2975 16.2543ZM78.2169 6.05181L80.9696 4.65724L82.9703 6.87662L80.221 8.44012L78.2169 6.05512V6.05181ZM87.9755 3.33887L91.563 3.50449L91.8942 5.64437L88.4757 5.72718L87.9788 3.34218L87.9755 3.33887ZM99.5693 5.88949L102.319 7.86374L101.822 8.60574L99.4865 7.37018L99.5693 5.88949ZM99.0691 12.2263L101.322 12.7166V13.7037L99.0691 13.4586V12.2263ZM91.8975 13.2929L94.2328 12.7166L94.5641 14.0349L92.9807 15.2672L91.8975 13.2929ZM88.4757 15.8436L90.1452 18.3114L89.1415 20.0405L86.7234 17.4071L88.479 15.8436H88.4757ZM85.14 22.6739L87.5581 24.4826L86.8923 27.1988L84.0568 24.8138L85.14 22.6739ZM83.974 30.1602L87.1374 31.7999L87.3031 34.5161L83.8018 33.0354L83.9674 30.1536L83.974 30.1602ZM84.9744 40.3627H88.6413L90.228 43.5692L85.8091 43.3207L84.9744 40.3594V40.3627Z" fill="#EC382F"/>
</svg>
