<svg width="64" height="99" viewBox="0 0 64 99" fill="none" xmlns="http://www.w3.org/2000/svg">
<path d="M10.08 91L6.576 84.64H5.592V91H1.488V74.152H8.376C9.704 74.152 10.832 74.384 11.76 74.848C12.704 75.312 13.408 75.952 13.872 76.768C14.336 77.568 14.568 78.464 14.568 79.456C14.568 80.576 14.248 81.576 13.608 82.456C12.984 83.336 12.056 83.96 10.824 84.328L14.712 91H10.08ZM5.592 81.736H8.136C8.888 81.736 9.448 81.552 9.816 81.184C10.2 80.816 10.392 80.296 10.392 79.624C10.392 78.984 10.2 78.48 9.816 78.112C9.448 77.744 8.888 77.56 8.136 77.56H5.592V81.736ZM30.3683 77.608V91H26.2643V89.176C25.8483 89.768 25.2803 90.248 24.5603 90.616C23.8563 90.968 23.0723 91.144 22.2083 91.144C21.1843 91.144 20.2803 90.92 19.4963 90.472C18.7123 90.008 18.1043 89.344 17.6723 88.48C17.2403 87.616 17.0243 86.6 17.0243 85.432V77.608H21.1043V84.88C21.1043 85.776 21.3363 86.472 21.8003 86.968C22.2643 87.464 22.8883 87.712 23.6723 87.712C24.4723 87.712 25.1043 87.464 25.5683 86.968C26.0323 86.472 26.2643 85.776 26.2643 84.88V77.608H30.3683ZM37.4201 79.504C37.8041 78.88 38.3561 78.376 39.0761 77.992C39.7961 77.608 40.6201 77.416 41.5481 77.416C42.6521 77.416 43.6521 77.696 44.5481 78.256C45.4441 78.816 46.1481 79.616 46.6601 80.656C47.1881 81.696 47.4521 82.904 47.4521 84.28C47.4521 85.656 47.1881 86.872 46.6601 87.928C46.1481 88.968 45.4441 89.776 44.5481 90.352C43.6521 90.912 42.6521 91.192 41.5481 91.192C40.6041 91.192 39.7801 91.008 39.0761 90.64C38.3721 90.256 37.8201 89.752 37.4201 89.128V91H33.3161V73.24H37.4201V79.504ZM43.2761 84.28C43.2761 83.256 42.9881 82.456 42.4121 81.88C41.8521 81.288 41.1561 80.992 40.3241 80.992C39.5081 80.992 38.8121 81.288 38.2361 81.88C37.6761 82.472 37.3961 83.28 37.3961 84.304C37.3961 85.328 37.6761 86.136 38.2361 86.728C38.8121 87.32 39.5081 87.616 40.3241 87.616C41.1401 87.616 41.8361 87.32 42.4121 86.728C42.9881 86.12 43.2761 85.304 43.2761 84.28ZM63.2852 77.608L54.8852 97.36H50.4692L53.5412 90.544L48.0932 77.608H52.6772L55.7732 85.984L58.8452 77.608H63.2852Z" fill="black"/>
<path d="M46.9275 3.62109C52.665 4.59009 54.297 8.38959 54.1695 12.3676L54.195 12.3166L51.6195 45.1351L18.0615 47.3791H18.087C15.3075 47.2771 9.08549 47.0221 8.80499 38.5816L11.916 33.0736L17.2455 45.1606L18.189 47.3026L23.493 30.5236L23.442 30.5491L23.4675 30.4981L40.9605 35.9296L38.3085 25.9591L36.447 18.7936L53.124 17.7481L51.951 16.8046L39.966 7.31859L46.9275 3.62109ZM18.495 12.8011C25.227 6.32409 33.9225 2.47359 37.263 5.76309C40.6035 9.02709 37.059 16.9576 30.327 23.4601C23.595 29.9371 15.0015 33.9916 11.661 30.7276C8.32049 27.4381 11.763 19.2781 18.495 12.8011Z" fill="#DD2123"/>
</svg>
