<svg width="327" height="327" viewBox="0 0 327 327" fill="none" xmlns="http://www.w3.org/2000/svg">
<g clip-path="url(#clip0_7922_7871)">
<path d="M163.5 0C131.163 0 99.5518 9.58911 72.6643 27.5547C45.7769 45.5203 24.8207 71.0555 12.4458 100.931C0.0708414 130.807 -3.167 163.681 3.14168 195.397C9.45036 227.113 25.0222 256.246 47.8881 279.112C70.754 301.978 99.8869 317.55 131.603 323.858C163.319 330.167 196.193 326.929 226.069 314.554C255.945 302.179 281.48 281.223 299.445 254.336C317.411 227.448 327 195.837 327 163.5C327 120.137 309.774 78.5502 279.112 47.888C248.45 17.2258 206.863 0 163.5 0ZM102.188 228.9H85.8376C82.5854 228.9 79.4663 227.608 77.1667 225.308C74.867 223.009 73.5751 219.89 73.5751 216.637C73.5751 213.385 74.867 210.266 77.1667 207.967C79.4663 205.667 82.5854 204.375 85.8376 204.375H102.188C105.44 204.375 108.559 205.667 110.858 207.967C113.158 210.266 114.45 213.385 114.45 216.637C114.45 219.89 113.158 223.009 110.858 225.308C108.559 227.608 105.44 228.9 102.188 228.9ZM102.188 179.85H85.8376C82.5854 179.85 79.4663 178.558 77.1667 176.258C74.867 173.959 73.5751 170.84 73.5751 167.587C73.5751 164.335 74.867 161.216 77.1667 158.917C79.4663 156.617 82.5854 155.325 85.8376 155.325H102.188C105.44 155.325 108.559 156.617 110.858 158.917C113.158 161.216 114.45 164.335 114.45 167.587C114.45 170.84 113.158 173.959 110.858 176.258C108.559 178.558 105.44 179.85 102.188 179.85ZM102.188 130.8H85.8376C82.5854 130.8 79.4663 129.508 77.1667 127.208C74.867 124.909 73.5751 121.79 73.5751 118.537C73.5751 115.285 74.867 112.166 77.1667 109.867C79.4663 107.567 82.5854 106.275 85.8376 106.275H102.188C105.44 106.275 108.559 107.567 110.858 109.867C113.158 112.166 114.45 115.285 114.45 118.537C114.45 121.79 113.158 124.909 110.858 127.208C108.559 129.508 105.44 130.8 102.188 130.8ZM241.163 228.9H143.063C139.81 228.9 136.691 227.608 134.392 225.308C132.092 223.009 130.8 219.89 130.8 216.637C130.8 213.385 132.092 210.266 134.392 207.967C136.691 205.667 139.81 204.375 143.063 204.375H241.163C244.415 204.375 247.534 205.667 249.833 207.967C252.133 210.266 253.425 213.385 253.425 216.637C253.425 219.89 252.133 223.009 249.833 225.308C247.534 227.608 244.415 228.9 241.163 228.9ZM241.163 179.85H143.063C139.81 179.85 136.691 178.558 134.392 176.258C132.092 173.959 130.8 170.84 130.8 167.587C130.8 164.335 132.092 161.216 134.392 158.917C136.691 156.617 139.81 155.325 143.063 155.325H241.163C244.415 155.325 247.534 156.617 249.833 158.917C252.133 161.216 253.425 164.335 253.425 167.587C253.425 170.84 252.133 173.959 249.833 176.258C247.534 178.558 244.415 179.85 241.163 179.85ZM241.163 130.8H143.063C139.81 130.8 136.691 129.508 134.392 127.208C132.092 124.909 130.8 121.79 130.8 118.537C130.8 115.285 132.092 112.166 134.392 109.867C136.691 107.567 139.81 106.275 143.063 106.275H241.163C244.415 106.275 247.534 107.567 249.833 109.867C252.133 112.166 253.425 115.285 253.425 118.537C253.425 121.79 252.133 124.909 249.833 127.208C247.534 129.508 244.415 130.8 241.163 130.8Z" fill="#2B00AC" fill-opacity="0.05"/>
</g>
<defs>
<clipPath id="clip0_7922_7871">
<rect width="327" height="327" fill="white"/>
</clipPath>
</defs>
</svg>
