<svg width="76" height="105" viewBox="0 0 76 105" fill="none" xmlns="http://www.w3.org/2000/svg">
<path d="M17.304 80.152L11.328 97H6.192L0.216 80.152H4.584L8.76 92.872L12.96 80.152H17.304ZM32.2433 83.608V97H28.1393V95.176C27.7233 95.768 27.1553 96.248 26.4353 96.616C25.7313 96.968 24.9473 97.144 24.0833 97.144C23.0593 97.144 22.1553 96.92 21.3713 96.472C20.5873 96.008 19.9793 95.344 19.5473 94.48C19.1153 93.616 18.8993 92.6 18.8993 91.432V83.608H22.9793V90.88C22.9793 91.776 23.2113 92.472 23.6753 92.968C24.1393 93.464 24.7633 93.712 25.5473 93.712C26.3473 93.712 26.9793 93.464 27.4433 92.968C27.9073 92.472 28.1393 91.776 28.1393 90.88V83.608H32.2433ZM47.8151 90.088C47.8151 90.472 47.7911 90.872 47.7431 91.288H38.4551C38.5191 92.12 38.7831 92.76 39.2471 93.208C39.7271 93.64 40.3111 93.856 40.9991 93.856C42.0231 93.856 42.7351 93.424 43.1351 92.56H47.5031C47.2791 93.44 46.8711 94.232 46.2791 94.936C45.7031 95.64 44.9751 96.192 44.0951 96.592C43.2151 96.992 42.2311 97.192 41.1431 97.192C39.8311 97.192 38.6631 96.912 37.6391 96.352C36.6151 95.792 35.8151 94.992 35.2391 93.952C34.6631 92.912 34.3751 91.696 34.3751 90.304C34.3751 88.912 34.6551 87.696 35.2151 86.656C35.7911 85.616 36.5911 84.816 37.6151 84.256C38.6391 83.696 39.8151 83.416 41.1431 83.416C42.4391 83.416 43.5911 83.688 44.5991 84.232C45.6071 84.776 46.3911 85.552 46.9511 86.56C47.5271 87.568 47.8151 88.744 47.8151 90.088ZM43.6151 89.008C43.6151 88.304 43.3751 87.744 42.8951 87.328C42.4151 86.912 41.8151 86.704 41.0951 86.704C40.4071 86.704 39.8231 86.904 39.3431 87.304C38.8791 87.704 38.5911 88.272 38.4791 89.008H43.6151ZM51.9002 97.192C51.1802 97.192 50.5882 96.984 50.1242 96.568C49.6762 96.136 49.4522 95.608 49.4522 94.984C49.4522 94.344 49.6762 93.808 50.1242 93.376C50.5882 92.944 51.1802 92.728 51.9002 92.728C52.6042 92.728 53.1802 92.944 53.6282 93.376C54.0922 93.808 54.3242 94.344 54.3242 94.984C54.3242 95.608 54.0922 96.136 53.6282 96.568C53.1802 96.984 52.6042 97.192 51.9002 97.192ZM58.7936 82.216C58.0736 82.216 57.4816 82.008 57.0176 81.592C56.5696 81.16 56.3456 80.632 56.3456 80.008C56.3456 79.368 56.5696 78.84 57.0176 78.424C57.4816 77.992 58.0736 77.776 58.7936 77.776C59.4976 77.776 60.0736 77.992 60.5216 78.424C60.9856 78.84 61.2176 79.368 61.2176 80.008C61.2176 80.632 60.9856 81.16 60.5216 81.592C60.0736 82.008 59.4976 82.216 58.7936 82.216ZM60.8576 98.728C60.8576 100.376 60.4416 101.56 59.6096 102.28C58.7776 103.016 57.6176 103.384 56.1296 103.384H54.5216V99.904H55.5056C55.9536 99.904 56.2736 99.816 56.4656 99.64C56.6576 99.464 56.7536 99.176 56.7536 98.776V83.608H60.8576V98.728ZM69.2563 97.192C68.0883 97.192 67.0483 96.992 66.1363 96.592C65.2243 96.192 64.5043 95.648 63.9763 94.96C63.4483 94.256 63.1523 93.472 63.0883 92.608H67.1443C67.1923 93.072 67.4083 93.448 67.7923 93.736C68.1763 94.024 68.6483 94.168 69.2083 94.168C69.7203 94.168 70.1123 94.072 70.3843 93.88C70.6723 93.672 70.8163 93.408 70.8163 93.088C70.8163 92.704 70.6163 92.424 70.2163 92.248C69.8163 92.056 69.1683 91.848 68.2723 91.624C67.3123 91.4 66.5123 91.168 65.8723 90.928C65.2323 90.672 64.6803 90.28 64.2163 89.752C63.7523 89.208 63.5203 88.48 63.5203 87.568C63.5203 86.8 63.7283 86.104 64.1443 85.48C64.5763 84.84 65.2003 84.336 66.0163 83.968C66.8483 83.6 67.8323 83.416 68.9683 83.416C70.6483 83.416 71.9683 83.832 72.9283 84.664C73.9043 85.496 74.4643 86.6 74.6083 87.976H70.8163C70.7523 87.512 70.5443 87.144 70.1923 86.872C69.8563 86.6 69.4083 86.464 68.8483 86.464C68.3683 86.464 68.0003 86.56 67.7443 86.752C67.4883 86.928 67.3603 87.176 67.3603 87.496C67.3603 87.88 67.5603 88.168 67.9603 88.36C68.3763 88.552 69.0163 88.744 69.8803 88.936C70.8723 89.192 71.6803 89.448 72.3043 89.704C72.9283 89.944 73.4723 90.344 73.9363 90.904C74.4163 91.448 74.6643 92.184 74.6803 93.112C74.6803 93.896 74.4563 94.6 74.0083 95.224C73.5763 95.832 72.9443 96.312 72.1123 96.664C71.2963 97.016 70.3443 97.192 69.2563 97.192Z" fill="black"/>
<path d="M40.6715 7.36338H50.5304L34.5 35.1291L18.4696 7.36338H7.78271L34.5 53.6376L61.2173 7.35742L40.6715 7.36338Z" fill="#41B883"/>
<path d="M50.5303 7.36328H40.6715L34.5 18.0502L28.3285 7.36328H18.4696L34.5 35.129L50.5303 7.36328Z" fill="#34495E"/>
</svg>

