<svg width="1256" height="257" viewBox="0 0 1256 257" fill="none" xmlns="http://www.w3.org/2000/svg">
<path d="M1013.37 196.828C1013.37 228.397 984.333 243.391 984.333 243.391C938.572 266.609 880.385 250.097 864.602 244.846C862.128 244.023 860.479 241.556 860.479 238.772V206.128C860.479 201.636 864.661 198.662 868.606 200.307C898.053 212.77 938.572 209.734 947.878 204.925C960.01 198.789 953.119 189.679 953.119 189.679C947.76 182.403 915.898 177.848 915.898 177.848C886.275 172.66 874.319 159.627 874.319 159.627C860.008 147.227 860.008 125.148 860.008 125.148C857.24 80.9887 887.511 68.0193 887.511 68.0193C932.506 47.8376 982.978 61.756 997.466 66.5642C999.94 67.3866 1001.59 69.854 1001.59 72.6376V107.497C1001.29 110.85 998.644 113.444 995.405 113.444C994.993 113.444 994.581 113.381 994.168 113.317C993.756 113.191 993.344 113.064 992.99 112.938C965.192 104.27 941.34 103.511 941.34 103.511C903.884 102.689 911.246 120.087 918.725 123.503C925.204 126.413 964.78 135.017 964.78 135.017C992.755 141.091 1013.37 159.881 1013.37 196.828Z" fill="#A7A9AA" fill-opacity="0.12"/>
<path d="M1182.75 196.828C1182.75 228.397 1153.71 243.391 1153.71 243.391C1107.95 266.609 1049.77 250.097 1033.98 244.846C1031.51 244.023 1029.86 241.556 1029.86 238.772V206.128C1029.86 201.636 1034.04 198.662 1037.99 200.307C1067.43 212.77 1107.95 209.734 1117.26 204.925C1129.39 198.789 1122.5 189.679 1122.5 189.679C1117.14 182.403 1085.28 177.848 1085.28 177.848C1055.65 172.66 1043.7 159.627 1043.7 159.627C1029.39 147.227 1029.39 125.148 1029.39 125.148C1026.62 80.9887 1056.89 68.0193 1056.89 68.0193C1101.89 47.8376 1152.36 61.756 1166.85 66.5642C1169.32 67.3866 1170.97 69.854 1170.97 72.6376V107.497C1170.67 110.85 1168.02 113.444 1164.78 113.444C1164.37 113.444 1163.96 113.381 1163.55 113.317C1163.14 113.191 1162.72 113.064 1162.37 112.938C1134.57 104.27 1110.72 103.511 1110.72 103.511C1073.26 102.689 1080.63 120.087 1088.11 123.503C1094.58 126.413 1134.16 135.017 1134.16 135.017C1162.13 141.091 1182.75 159.881 1182.75 196.828Z" fill="#A7A9AA" fill-opacity="0.12"/>
<path d="M798.997 62.9677C739.573 43.9881 686.686 77.2024 680.149 137.115C673.671 197.027 692.281 245.615 751.999 253.396C785.746 257.825 814.78 251.435 833.509 245.109C835.923 244.286 837.572 241.819 837.572 239.098V204.935C837.572 200.696 833.803 197.66 830.034 198.862C808.066 205.884 745.05 221.637 737.335 174.631H844.875C844.875 174.631 858.538 81.7575 798.997 62.9677ZM792.401 137.178H737.335C737.335 137.178 739.337 107.76 767.017 107.76C794.698 107.76 792.401 137.178 792.401 137.178Z" fill="#A7A9AA" fill-opacity="0.12"/>
<path d="M663.582 69.7437V243.154C663.582 246.634 660.991 249.417 657.752 249.417H618.646C615.407 249.417 612.816 246.634 612.816 243.154V234.93C612.816 234.93 545.677 278.962 509.575 235.309C497.031 220.125 496.029 176.852 496.029 176.852V69.7437C496.029 66.2641 498.621 63.4805 501.86 63.4805H548.209C551.448 63.4805 554.04 66.2641 554.04 69.7437V169.387C554.04 169.387 552.096 199.501 575.831 199.501C575.831 199.501 591.85 201.652 605.808 186.025V69.7437C605.808 66.2641 608.399 63.4805 611.638 63.4805H657.634C660.873 63.4805 663.465 66.2641 663.465 69.7437H663.582Z" fill="#A7A9AA" fill-opacity="0.12"/>
<path d="M1250.11 63.4805H1204.17C1200.92 63.4805 1198.28 66.313 1198.28 69.807V243.154C1198.28 246.648 1200.92 249.481 1204.17 249.481H1250.11C1253.36 249.481 1256 246.648 1256 243.154V69.807C1256 66.313 1253.36 63.4805 1250.11 63.4805Z" fill="#A7A9AA" fill-opacity="0.12"/>
<path d="M264.527 4.80816L229.367 159.049L191.91 4.7449C191.204 1.96123 188.907 0 186.198 0H144.501C141.851 0 139.495 1.89796 138.788 4.68163L100.036 157.974L64.5818 4.80816C63.934 1.96122 61.5782 0 58.8691 0H5.92345C1.91867 0 -0.908281 4.17551 0.269597 8.22449L69.1166 243.508C69.8822 246.165 72.1791 247.937 74.7704 247.937H118.411C121.061 247.937 123.358 246.039 124.124 243.318L163.759 93.8225L203.454 243.318C204.16 246.039 206.516 247.937 209.166 247.937H253.101C255.693 247.937 257.989 246.102 258.755 243.508L327.249 8.22449C328.426 4.11224 325.6 0 321.595 0H270.357C267.648 0 265.292 2.02448 264.644 4.80816H264.527Z" fill="#A7A9AA" fill-opacity="0.12"/>
<path d="M482.314 161.681C482.314 212.926 443.621 254.365 396.035 254.365C382.784 254.365 370.298 251.202 359.108 245.445C359.992 245.002 360.993 244.496 361.994 243.863C380.899 232.159 402.69 213.559 423.421 191.226C440.264 173.132 461.643 146.498 474.069 122.141C479.311 134.161 482.256 147.573 482.256 161.681H482.314Z" fill="#A7A9AA" fill-opacity="0.12"/>
<path d="M478.481 73.0304C469.646 63.6671 454.452 65.1855 432.838 77.8385C431.954 78.3447 430.953 78.9141 429.952 79.5467C411.047 91.2508 389.256 109.977 368.526 132.183C347.736 154.516 330.303 177.988 319.526 198.296C318.937 199.371 318.466 200.32 317.936 201.269C306.157 224.424 304.685 240.937 313.46 250.363C317.229 254.412 322.176 256.437 328.301 256.437C336.487 256.437 346.794 252.83 359.103 245.492C359.986 245.049 360.987 244.543 361.988 243.91C380.893 232.206 402.684 213.606 423.415 191.273C440.258 173.179 461.637 146.545 474.064 122.188C484.134 102.069 488.198 83.5957 478.422 73.0936L478.481 73.0304ZM409.457 176.09C380.363 207.343 354.862 225.31 339.785 232.016C334.073 234.673 329.891 235.622 327.594 235.116C327.123 232.775 328.007 228.22 330.48 222.02C336.841 205.951 353.449 178.304 382.425 147.177C411.518 115.924 437.019 97.9569 452.096 91.2508C457.809 88.5937 461.99 87.6447 464.287 88.1508C464.405 88.5936 464.405 88.9733 464.405 89.6692C464.405 92.1998 463.404 96.1222 461.46 101.247C455.1 117.316 438.492 144.963 409.516 176.09H409.457Z" fill="#A7A9AA" fill-opacity="0.12"/>
<path d="M310.938 195.071C309.996 195.071 309.053 194.691 308.641 193.805C302.987 181.026 300.102 167.297 300.102 152.999C300.102 100.426 339.973 57.6582 388.972 57.6582C402.282 57.6582 415.063 60.7582 426.959 66.8317C427.843 67.2745 428.372 68.1602 428.372 69.1725C428.372 70.1847 427.842 71.1337 427.018 71.5766C407.23 83.6603 384.85 102.83 363.53 125.732C342.387 148.381 324.601 172.422 313.353 193.426C312.882 194.248 311.939 195.007 310.997 195.007L310.938 195.071Z" fill="#A7A9AA" fill-opacity="0.12"/>
</svg>
